<svg width="42" height="42" viewBox="0 0 42 42" fill="none" xmlns="http://www.w3.org/2000/svg">
<path d="M28.3325 3.5H13.6675C7.2975 3.5 3.5 7.2975 3.5 13.6675V28.315C3.5 34.7025 7.2975 38.5 13.6675 38.5H28.315C34.685 38.5 38.4825 34.7025 38.4825 28.3325V13.6675C38.5 7.2975 34.7025 3.5 28.3325 3.5ZM19.3025 30.905C19.81 31.4125 19.81 32.2525 19.3025 32.76C19.04 33.0225 18.7075 33.145 18.375 33.145C18.0425 33.145 17.71 33.0225 17.4475 32.76L14.4375 29.75L11.4275 32.76C11.165 33.005 10.8325 33.145 10.5 33.145C10.1675 33.145 9.835 33.0225 9.5725 32.76C9.065 32.2525 9.065 31.4125 9.5725 30.905L12.5825 27.895L9.5725 24.885C9.065 24.3775 9.065 23.5375 9.5725 23.03C10.08 22.5225 10.92 22.5225 11.4275 23.03L14.4375 26.04L17.4475 23.03C17.955 22.5225 18.795 22.5225 19.3025 23.03C19.81 23.5375 19.81 24.3775 19.3025 24.885L16.2925 27.895L19.3025 30.905ZM18.375 15.4175H10.5C9.7825 15.4175 9.1875 14.8225 9.1875 14.105C9.1875 13.3875 9.7825 12.7925 10.5 12.7925H18.375C19.0925 12.7925 19.6875 13.3875 19.6875 14.105C19.6875 14.8225 19.0925 15.4175 18.375 15.4175ZM31.5 32.48H23.625C22.9075 32.48 22.3125 31.885 22.3125 31.1675C22.3125 30.45 22.9075 29.855 23.625 29.855H31.5C32.2175 29.855 32.8125 30.45 32.8125 31.1675C32.8125 31.885 32.2175 32.48 31.5 32.48ZM31.5 25.9175H23.625C22.9075 25.9175 22.3125 25.3225 22.3125 24.605C22.3125 23.8875 22.9075 23.2925 23.625 23.2925H31.5C32.2175 23.2925 32.8125 23.8875 32.8125 24.605C32.8125 25.3225 32.2175 25.9175 31.5 25.9175ZM31.5 15.4175H28.91V18.0425C28.91 18.76 28.315 19.355 27.5975 19.355C26.88 19.355 26.285 18.76 26.285 18.0425V15.4175H23.625C22.9075 15.4175 22.3125 14.8225 22.3125 14.105C22.3125 13.3875 22.9075 12.7925 23.625 12.7925H26.285V10.1675C26.285 9.45 26.88 8.855 27.5975 8.855C28.315 8.855 28.91 9.45 28.91 10.1675V12.7925H31.5C32.2175 12.7925 32.8125 13.3875 32.8125 14.105C32.8125 14.8225 32.2175 15.4175 31.5 15.4175Z" fill="#1E1E1E"/>
</svg>
