<svg width="70" height="70" viewBox="0 0 70 70" fill="none" xmlns="http://www.w3.org/2000/svg">
<path d="M51.0417 32.0833C40.5883 32.0833 32.0833 40.5883 32.0833 51.0417C32.0833 61.495 40.5883 70 51.0417 70C61.495 70 70 61.495 70 51.0417C70 40.5883 61.495 32.0833 51.0417 32.0833ZM51.0417 67.0833C42.1983 67.0833 35 59.885 35 51.0417C35 42.1983 42.1983 35 51.0417 35C59.885 35 67.0833 42.1983 67.0833 51.0417C67.0833 59.885 59.885 67.0833 51.0417 67.0833ZM59.6138 45.3512L61.6583 47.4308L51.5783 57.3446C50.9454 57.9804 50.0908 58.3333 49.1808 58.3333C48.2708 58.3333 47.4192 57.9804 46.7746 57.3329L41.3788 52.1033L43.4058 50.0063L48.8192 55.2563C49.1079 55.545 49.2771 55.5158 49.5192 55.2767L59.6138 45.3512ZM35.0671 32.0833H11.6667V29.1667H39.3662C37.8292 29.9892 36.3883 30.9692 35.0671 32.0833ZM35.0671 70H0V7.29167C0 3.26958 3.26958 0 7.29167 0H45.2083C49.2304 0 52.5 3.26958 52.5 7.29167V26.2938C52.0158 26.2646 51.5317 26.25 51.0417 26.25C50.5517 26.25 50.0675 26.2646 49.5833 26.2938V7.29167C49.5833 4.87958 47.6204 2.91667 45.2083 2.91667H7.29167C4.87958 2.91667 2.91667 4.87958 2.91667 7.29167V67.0833H32.1417C33.0342 68.1333 34.0142 69.1104 35.07 70H35.0671ZM40.8333 17.5H11.6667V14.5833H40.8333V17.5ZM11.6667 43.75H26.25V46.6667H11.6667V43.75Z" fill="black"/>
</svg>
