<svg width="70" height="69" viewBox="0 0 70 69" fill="none" xmlns="http://www.w3.org/2000/svg">
<path d="M70 12.5624C70 6.93441 65.4208 2.35618 59.7917 2.35618C54.1625 2.35618 49.5833 6.93441 49.5833 12.5624C49.5833 17.6947 53.3925 21.9551 58.3333 22.6637V50.4713C58.3333 52.8829 56.3704 54.8454 53.9583 54.8454H36.0004L44.9138 45.9339L42.8517 43.8722L33.355 53.367C32.5354 54.1864 32.0833 55.277 32.0833 56.4376C32.0833 57.5982 32.5354 58.6859 33.355 59.5053L42.8517 69L44.9138 66.9383L35.7379 57.7644H53.9583C57.9775 57.7644 61.25 54.4926 61.25 50.4742V22.6637C66.1908 21.9551 70 17.6947 70 12.5624ZM59.7917 19.8526C55.7725 19.8526 52.5 16.5808 52.5 12.5624C52.5 8.54408 55.7725 5.27225 59.7917 5.27225C63.8108 5.27225 67.0833 8.54408 67.0833 12.5624C67.0833 16.5808 63.8108 19.8526 59.7917 19.8526ZM36.645 9.4918L27.1483 0L25.0863 2.06166L34.1338 11.1044H16.0417C12.0225 11.1044 8.75 14.3762 8.75 18.3946V46.2022C3.80917 46.9108 0 51.1712 0 56.3034C0 61.9314 4.57917 66.5097 10.2083 66.5097C15.8375 66.5097 20.4167 61.9314 20.4167 56.3034C20.4167 51.1712 16.6075 46.9108 11.6667 46.2022V18.3946C11.6667 15.983 13.6296 14.0205 16.0417 14.0205H34.1338L25.0863 23.0632L27.1483 25.1248L36.645 15.633C38.3396 13.9388 38.3396 11.1831 36.645 9.4918ZM17.5 56.3034C17.5 60.3218 14.2275 63.5936 10.2083 63.5936C6.18917 63.5936 2.91667 60.3218 2.91667 56.3034C2.91667 52.2851 6.18917 49.0133 10.2083 49.0133C14.2275 49.0133 17.5 52.2851 17.5 56.3034Z" fill="black"/>
</svg>
