<svg width="70" height="70" viewBox="0 0 70 70" fill="none" xmlns="http://www.w3.org/2000/svg">
<path d="M26.25 35C35.9013 35 43.75 27.1513 43.75 17.5C43.75 7.84875 35.9013 0 26.25 0C16.5988 0 8.75 7.84875 8.75 17.5C8.75 27.1513 16.5988 35 26.25 35ZM26.25 2.91667C34.2913 2.91667 40.8333 9.45875 40.8333 17.5C40.8333 25.5413 34.2913 32.0833 26.25 32.0833C18.2087 32.0833 11.6667 25.5413 11.6667 17.5C11.6667 9.45875 18.2087 2.91667 26.25 2.91667ZM13.125 40.8333H30.7883C30.2604 41.7375 29.8492 42.7117 29.5808 43.75H13.125C7.49583 43.75 2.91667 48.3292 2.91667 53.9583V70H0V53.9583C0 46.7221 5.88875 40.8333 13.125 40.8333ZM64.1667 40.8333H61.25V39.375C61.25 36.9629 59.2871 35 56.875 35H48.125C45.7129 35 43.75 36.9629 43.75 39.375V40.8333H40.8333C37.6162 40.8333 35 43.4496 35 46.6667V70H70V46.6667C70 43.4496 67.3838 40.8333 64.1667 40.8333ZM46.6667 39.375C46.6667 38.57 47.32 37.9167 48.125 37.9167H56.875C57.68 37.9167 58.3333 38.57 58.3333 39.375V40.8333H46.6667V39.375ZM40.8333 43.75H64.1667C65.7738 43.75 67.0833 45.0596 67.0833 46.6667V52.5H37.9167V46.6667C37.9167 45.0596 39.2262 43.75 40.8333 43.75ZM37.9167 67.0833V55.4167H51.0417V61.25H53.9583V55.4167H67.0833V67.0833H37.9167Z" fill="black"/>
</svg>
