<svg width="55" height="55" viewBox="0 0 55 55" fill="none" xmlns="http://www.w3.org/2000/svg">
<circle cx="27.5" cy="27.5" r="27.5" fill="#002A3A"/>
<path d="M31.7416 15.3335H26.2582C25.0449 15.3335 24.0532 16.3135 24.0532 17.5268V18.6235C24.0532 19.8368 25.0332 20.8168 26.2466 20.8168H31.7416C32.9549 20.8168 33.9349 19.8368 33.9349 18.6235V17.5268C33.9466 16.3135 32.9549 15.3335 31.7416 15.3335Z" fill="white"/>
<path d="M35.1134 18.6236C35.1134 20.4786 33.5967 21.9952 31.7417 21.9952H26.2584C24.4034 21.9952 22.8867 20.4786 22.8867 18.6236C22.8867 17.9702 22.1867 17.5619 21.6034 17.8652C19.9584 18.7402 18.8384 20.4786 18.8384 22.4736V33.4519C18.8384 36.3219 21.1834 38.6669 24.0534 38.6669H33.9467C36.8167 38.6669 39.1617 36.3219 39.1617 33.4519V22.4736C39.1617 20.4786 38.0417 18.7402 36.3967 17.8652C35.8134 17.5619 35.1134 17.9702 35.1134 18.6236ZM32.8967 27.8519L28.23 32.5186C28.055 32.6936 27.8334 32.7752 27.6117 32.7752C27.39 32.7752 27.1684 32.6936 26.9934 32.5186L25.2434 30.7686C24.905 30.4302 24.905 29.8702 25.2434 29.5319C25.5817 29.1936 26.1417 29.1936 26.48 29.5319L27.6117 30.6636L31.66 26.6152C31.9984 26.2769 32.5584 26.2769 32.8967 26.6152C33.235 26.9536 33.235 27.5136 32.8967 27.8519Z" fill="white"/>
</svg>
