<svg width="55" height="55" viewBox="0 0 55 55" fill="none" xmlns="http://www.w3.org/2000/svg">
<circle cx="27.5" cy="27.5" r="27.5" fill="#00466D"/>
<path d="M30.7416 15.3335H25.2582C24.0449 15.3335 23.0532 16.3135 23.0532 17.5268V18.6235C23.0532 19.8368 24.0332 20.8168 25.2466 20.8168H30.7416C31.9549 20.8168 32.9349 19.8368 32.9349 18.6235V17.5268C32.9466 16.3135 31.9549 15.3335 30.7416 15.3335Z" fill="white"/>
<path d="M34.1134 18.6236C34.1134 20.4786 32.5967 21.9952 30.7417 21.9952H25.2584C23.4034 21.9952 21.8867 20.4786 21.8867 18.6236C21.8867 17.9702 21.1867 17.5619 20.6034 17.8652C18.9584 18.7402 17.8384 20.4786 17.8384 22.4736V33.4519C17.8384 36.3219 20.1834 38.6669 23.0534 38.6669H32.9467C35.8167 38.6669 38.1617 36.3219 38.1617 33.4519V22.4736C38.1617 20.4786 37.0417 18.7402 35.3967 17.8652C34.8134 17.5619 34.1134 17.9702 34.1134 18.6236ZM31.8967 27.8519L27.23 32.5186C27.055 32.6936 26.8334 32.7752 26.6117 32.7752C26.39 32.7752 26.1684 32.6936 25.9934 32.5186L24.2434 30.7686C23.905 30.4302 23.905 29.8702 24.2434 29.5319C24.5817 29.1936 25.1417 29.1936 25.48 29.5319L26.6117 30.6636L30.66 26.6152C30.9984 26.2769 31.5584 26.2769 31.8967 26.6152C32.235 26.9536 32.235 27.5136 31.8967 27.8519Z" fill="white"/>
</svg>
