<svg width="71" height="70" viewBox="0 0 71 70" fill="none" xmlns="http://www.w3.org/2000/svg">
<path d="M45.3654 26.1019L45.3649 26.1236L45.3654 26.1453C45.6066 36.4799 36.8001 45.7371 25.3649 45.1793C15.6229 44.6963 8.27313 37.0685 7.4167 28.0424C6.895 22.3652 8.58026 17.4254 12.4623 13.2143C15.983 9.40205 20.3528 7.38788 25.5283 7.20202L25.5298 7.20196C36.974 6.77398 45.5693 15.9216 45.3654 26.1019ZM34.7453 18.4544L34.7435 18.4423L34.7415 18.4303C34.1835 15.1098 32.0933 13.0158 29.1589 11.8955C29.105 11.8748 29.0553 11.8559 29.0095 11.8384C28.8232 11.7673 28.6999 11.7203 28.6055 11.6795C28.5929 11.5666 28.5827 11.4071 28.5661 11.1466C28.546 10.801 28.4314 10.4585 28.2932 10.1824C28.1585 9.91357 27.94 9.58501 27.6199 9.35669L27.6043 9.34556L27.5882 9.33504C26.9765 8.93326 26.2486 8.82612 25.5842 9.09952C24.9367 9.366 24.498 9.93205 24.3004 10.5848L24.2981 10.5921L24.296 10.5995C24.2064 10.9127 24.1818 11.2209 24.1652 11.4293L24.1651 11.4305C24.154 11.5698 24.1459 11.6714 24.1358 11.7542C22.5336 12.2005 21.1582 13.0401 20.0395 14.3223L20.0375 14.3247C18.0669 16.598 17.4042 19.2889 18.2251 22.1714C19.1036 25.3094 21.2372 27.2654 24.1791 28.16V28.1722V28.1912V28.2102V28.2292V28.2482V28.2672V28.2863V28.3053V28.3243V28.3433V28.3623V28.3814V28.4004V28.4194V28.4384V28.4574V28.4764V28.4955V28.5145V28.5335V28.5525V28.5715V28.5906V28.6096V28.6286V28.6476V28.6666V28.6857V28.7047V28.7237V28.7427V28.7618V28.7808V28.7998V28.8188V28.8378V28.8569V28.8759V28.8949V28.9139V28.933V28.952V28.971V28.99V29.0091V29.0281V29.0471V29.0661V29.0852V29.1042V29.1232V29.1423V29.1613V29.1803V29.1993V29.2184V29.2374V29.2564V29.2755V29.2945V29.3135V29.3326V29.3516V29.3706V29.3897V29.4087V29.4277V29.4468V29.4658V29.4848V29.5039V29.5229V29.5419V29.561V29.58V29.599V29.6181V29.6371V29.6561V29.6752V29.6942V29.7133V29.7323V29.7513V29.7704V29.7894V29.8085V29.8275V29.8466V29.8656V29.8846V29.9037V29.9227V29.9418V29.9608V29.9799V29.9989V30.018V30.037V30.056V30.0751V30.0941V30.1132V30.1322V30.1513V30.1703V30.1894V30.2084V30.2275V30.2465V30.2656V30.2847V30.3037V30.3228V30.3418V30.3609V30.3799V30.399V30.418V30.4371V30.4562V30.4752V30.4943V30.5133V30.5324V30.5515V30.5705V30.5896V30.6086V30.6277V30.6468V30.6658V30.6849V30.704V30.723V30.7421V30.7612V30.7802V30.7993V30.8184V30.8375V30.8565V30.8756V30.8947V30.9137V30.9328V30.9519V30.971V30.99V31.0091V31.0282V31.0473V31.0663V31.0854V31.1045V31.1236V31.1427V31.1617V31.1808V31.1999V31.219V31.2381V31.2572V31.2762V31.2953V31.3144V31.3335V31.3526V31.3717V31.3908V31.4099V31.429V31.4481V31.4671V31.4862V31.5053V31.5244V31.5435V31.5626V31.5817V31.6008V31.6199V31.639V31.6581V31.6772V31.6963V31.7154V31.7345V31.7536V31.7727V31.7918V31.811V31.8301V31.8492V31.8683V31.8874V31.9065V31.9256V31.9447V31.9638V31.983V32.0021V32.0212V32.0403V32.0594V32.0785V32.0977V32.1168V32.1359V32.155V32.1741V32.1933V32.2124V32.2315V32.2506V32.2698V32.2889V32.308V32.3272V32.3463V32.3654V32.3846V32.4037V32.4228V32.442V32.4611V32.4802V32.4994V32.5185V32.5377V32.5568V32.5759V32.5951V32.6142V32.6334V32.6525V32.6717V32.6908V32.71V32.7291V32.7483V32.7674V32.7866V32.8057V32.8249V32.844V32.8632V32.8823V32.9015V32.9207V32.9398V32.959V32.9781V32.9973V33.0165V33.0356V33.0548V33.074V33.0931V33.1123V33.1315V33.1507V33.1698V33.189V33.2082V33.2274V33.2465V33.2657V33.2849V33.3041V33.3233V33.3424V33.3616V33.3808V33.4V33.4192V33.4384V33.4576V33.4768V33.4959V33.5151V33.5343V33.5535V33.5727V33.5919V33.6111V33.6303V33.6495V33.6687V33.6879V33.7071V33.7263V33.7455V33.7647V33.784V33.8032V33.8224V33.8416V33.8608V33.88V33.8992V33.9185V33.9377V33.9569V33.9761V33.9953V34.0146V34.0338V34.053V34.0722V34.0915V34.1107V34.1299V34.1492V34.1684V34.1876V34.2069V34.2261V34.2453V34.2646V34.2838V34.3031V34.3223V34.3415V34.3608V34.38V34.3993V34.4185V34.4378V34.457V34.4763V34.4955V34.5148V34.5341V34.5533V34.5726V34.5918V34.6111V34.6304V34.6496V34.6689V34.6882V34.7074V34.7267V34.746V34.7652V34.7845V34.8038V34.8231V34.8424V34.8616V34.8809V34.9002V34.9195V34.9388V34.958V34.9773V34.9966V35.0159V35.0352V35.0545V35.0738V35.0931V35.1124V35.1317V35.151V35.1703V35.1896V35.2089V35.2282V35.2475V35.2668V35.2861V35.3055V35.3248V35.3441V35.3634V35.3827V35.402V35.4214V35.4407V35.46V35.4793V35.4987V35.518V35.5373V35.5566V35.576V35.5953V35.6146V35.634V35.6533V35.6727V35.692V35.7113V35.7307V35.7383C23.0788 35.002 22.5015 33.953 22.4181 32.5168C22.3799 31.8228 22.1638 31.1598 21.6161 30.7159C21.0874 30.2873 20.4499 30.2285 19.9438 30.2652C19.3876 30.2989 18.8376 30.5128 18.4432 30.9905C18.0656 31.448 17.9345 32.0223 17.933 32.582C17.8902 34.8978 18.8801 36.7944 20.311 38.3511C21.3617 39.4954 22.6601 40.2228 24.0924 40.6304C24.0921 40.7913 24.0943 40.953 24.102 41.1066L24.1026 41.1173L24.1033 41.1279C24.1497 41.7756 24.4265 42.3633 24.8368 42.785C25.2398 43.1993 25.8523 43.5246 26.5561 43.4368L26.5683 43.4352L26.5804 43.4334C27.0975 43.356 27.6598 43.1621 28.0693 42.6747C28.4732 42.1939 28.5875 41.5941 28.5875 41.0175C28.5875 40.9215 28.5816 40.8305 28.5772 40.7668C28.5761 40.751 28.5751 40.7368 28.5742 40.7237C28.5732 40.7102 28.5724 40.698 28.5716 40.6866C30.1415 40.1814 31.5065 39.4249 32.5714 38.327C33.6984 37.1651 34.4354 35.6759 34.7596 33.8419C35.2711 30.9557 34.3814 28.5345 32.4887 26.5142C31.434 25.3849 30.1356 24.6934 28.7399 24.2983C28.7274 21.791 28.7251 19.3145 28.7247 16.7425C28.8769 16.8441 29.0097 16.9441 29.128 17.0494C29.9619 17.8201 30.4057 18.7339 30.4057 19.8471C30.4057 21.1266 31.3931 22.1921 32.7048 22.1564C33.2904 22.1416 33.8864 21.9509 34.3241 21.4729C34.754 21.0033 34.9039 20.3949 34.8924 19.7968C34.8912 19.3931 34.8277 18.9866 34.7778 18.6682C34.7658 18.5914 34.7546 18.5197 34.7453 18.4544Z" stroke="black" stroke-width="2"/>
<path d="M44.5227 53.5516C45.9369 51.0894 47.3516 48.6264 48.7614 46.1633L36.9907 69.0024C36.7175 69.0061 36.4494 68.8571 36.2985 68.6256C36.1663 68.4226 36.1233 68.159 36.305 67.8475L36.305 67.8475L36.3104 67.8382C37.2687 66.1531 38.2368 64.4797 39.2099 62.7978C39.5667 62.1811 39.9241 61.5633 40.282 60.9433L40.2838 60.9401C41.6932 58.4779 43.1075 56.0155 44.5223 53.5523L44.5227 53.5516ZM52.4875 60.837V60.837L52.4949 60.8372C53.0775 60.8491 53.7269 60.7516 54.24 60.3264C54.7847 59.8751 54.97 59.2309 54.9836 58.6081L54.9837 58.5999L54.9838 58.5917C55.0034 54.9335 55.0034 51.2559 54.9838 47.5977C54.9824 46.186 53.896 45.1445 52.5425 45.2138L52.5397 45.214C51.959 45.2453 51.3866 45.4657 50.9861 45.9774C50.6115 46.4561 50.4971 47.0526 50.4971 47.62V47.6305V47.641V47.6516V47.6621V47.6727V47.6832V47.6937V47.7043V47.7148V47.7254V47.7359V47.7464V47.757V47.7675V47.7781V47.7886V47.7992V47.8097V47.8202V47.8308V47.8413V47.8519V47.8624V47.873V47.8835V47.8941V47.9046V47.9152V47.9257V47.9363V47.9468V47.9574V47.9679V47.9785V47.989V47.9996V48.0101V48.0207V48.0312V48.0418V48.0524V48.0629V48.0735V48.084V48.0946V48.1051V48.1157V48.1262V48.1368V48.1474V48.1579V48.1685V48.179V48.1896V48.2002V48.2107V48.2213V48.2318V48.2424V48.253V48.2635V48.2741V48.2846V48.2952V48.3058V48.3163V48.3269V48.3375V48.348V48.3586V48.3691V48.3797V48.3903V48.4008V48.4114V48.422V48.4325V48.4431V48.4537V48.4642V48.4748V48.4854V48.4959V48.5065V48.5171V48.5277V48.5382V48.5488V48.5594V48.5699V48.5805V48.5911V48.6016V48.6122V48.6228V48.6334V48.6439V48.6545V48.6651V48.6757V48.6862V48.6968V48.7074V48.718V48.7285V48.7391V48.7497V48.7603V48.7708V48.7814V48.792V48.8026V48.8131V48.8237V48.8343V48.8449V48.8554V48.866V48.8766V48.8872V48.8978V48.9083V48.9189V48.9295V48.9401V48.9507V48.9612V48.9718V48.9824V48.993V49.0036V49.0141V49.0247V49.0353V49.0459V49.0565V49.0671V49.0776V49.0882V49.0988V49.1094V49.12V49.1305V49.1411V49.1517V49.1623V49.1729V49.1835V49.1941V49.2046V49.2152V49.2258V49.2364V49.247V49.2576V49.2682V49.2787V49.2893V49.2999V49.3105V49.3211V49.3317V49.3423V49.3528V49.3634V49.374V49.3846V49.3952V49.4058V49.4164V49.427V49.4376V49.4481V49.4587V49.4693V49.4799V49.4905V49.5011V49.5117V49.5223V49.5329V49.5434V49.554V49.5646V49.5752V49.5858V49.5964V49.607V49.6176V49.6282V49.6388V49.6494V49.6599V49.6705V49.6811V49.6917V49.7023V49.7129V49.7235V49.7341V49.7447V49.7553V49.7659V49.7765V49.787V49.7976V49.8082V49.8188V49.8294V49.84V49.8506V49.8612V49.8718V49.8824V49.893V49.9036V49.9142V49.9248V49.9353V49.9459V49.9565V49.9671V49.9777V49.9883V49.9989V50.0095V50.0201V50.0307V50.0413V50.0519V50.0625V50.0731V50.0837V50.0943V50.1049V50.1154V50.126V50.1366V50.1472V50.1578V50.1684V50.179V50.1896V50.2002V50.2108V50.2214V50.232V50.2426V50.2532V50.2638V50.2744V50.285V50.2956V50.3062V50.3167V50.3273V50.3379V50.3485V50.3591V50.3697V50.3803V50.3909V50.4015V50.4121V50.4227V50.4333V50.4439V50.4545V50.4651V50.4757V50.4863V50.4969V50.5075V50.518V50.5286V50.5392V50.5498V50.5604V50.571V50.5816V50.5922V50.6028V50.6134V50.624V50.6346V50.6452V50.6558V50.6664V50.677V50.6876V50.6981V50.7087V50.7193V50.7299V50.7405V50.7511V50.7617V50.7723V50.7829V50.7935V50.8041V50.8147V50.8253V50.8359V50.8465V50.857V50.8676V50.8782V50.8888V50.8994V50.91V50.9206V50.9312V50.9418V50.9524V50.963V50.9736V50.9842V50.9947V51.0053V51.0159V51.0265V51.0371V51.0477V51.0583V51.0689V51.0795V51.0901V51.1007V51.1112V51.1218V51.1324V51.143V51.1536V51.1642V51.1748V51.1854V51.196V51.2065V51.2171V51.2277V51.2383V51.2489V51.2595V51.2701V51.2807V51.2913V51.3018V51.3124V51.323V51.3336V51.3442V51.3548V51.3654V51.3759V51.3865V51.3971V51.4077V51.4183V51.4289V51.4395V51.45V51.4606V51.4712V51.4818V51.4924V51.503V51.5136V51.5241V51.5347V51.5453V51.5559V51.5665V51.5771V51.5876V51.5982V51.6088V51.6194V51.63V51.6405V51.6511V51.6617V51.6723V51.6829V51.6934V51.704V51.7146V51.7252V51.7358V51.7463V51.7569V51.7675V51.7781V51.7887V51.7992V51.8098V51.8204V51.831V51.8415V51.8521V51.8627V51.8733V51.8839V51.8944V51.905V51.9156V51.9262V51.9367V51.9473V51.9579V51.9685V51.979V51.9896V52.0002V52.0107V52.0213V52.0319V52.0425V52.053V52.0636V52.0742V52.0847V52.0953V52.1059V52.1165V52.127V52.1376V52.1482V52.1587V52.1693V52.1799V52.1904V52.201V52.2116V52.2221V52.2327V52.2433V52.2538V52.2644V52.275V52.2855V52.2961V52.3067V52.3172V52.3278V52.3384V52.3489V52.3595V52.37V52.3806V52.3912V52.4017V52.4123V52.4229V52.4334V52.444V52.4545V52.4651V52.4757V52.4862V52.4968V52.5073V52.5179V52.5284V52.539V52.5496V52.5601V52.5707V52.5812V52.5918V52.6023V52.6129V52.6234V52.634V52.6445V52.6551V52.6657V52.6762V52.6868V52.6973V52.7079V52.7184V52.729V52.7395V52.7501V52.7606V52.7712V52.7817V52.7922V52.8028V52.8133V52.8239V52.8344V52.845V52.8555V52.8661V52.8766V52.8872V52.8977V52.9082V52.9188V52.9293V52.9399V52.9504V52.961V52.9715V52.982V52.9926V53.0031V53.0137V53.0242V53.0347V53.0455V53.0563V53.067V53.0778V53.0886V53.0993V53.1101V53.1208V53.1316V53.1424V53.1531V53.1639V53.1747V53.1854V53.1962V53.2069V53.2177V53.2285V53.2392V53.25V53.2607V53.2715V53.2822V53.293V53.3038V53.3145V53.3253V53.336V53.3468V53.3575V53.3683V53.379V53.3898V53.4005V53.4113V53.422V53.4328V53.4436V53.4543V53.4651V53.4758V53.4866V53.4973V53.508V53.5188V53.5295V53.5403V53.551V53.5618V53.5725V53.5833V53.594V53.6048V53.6155V53.6263V53.637V53.6478V53.6585V53.6692V53.68V53.6907V53.7015V53.7122V53.7229V53.7337V53.7444V53.7552V53.7659V53.7767V53.7874V53.7981V53.8089V53.8196V53.8303V53.8411V53.8518V53.8626V53.8733V53.884V53.8948V53.9055V53.9162V53.927V53.9377V53.9485V53.9592V53.9699V53.9807V53.9914V54.0021V54.0129V54.0236V54.0343V54.0451V54.0558V54.0665V54.0772V54.088V54.0987V54.1094V54.1202V54.1309V54.1416V54.1524V54.1631V54.1738V54.1846V54.1953V54.206V54.2167V54.2275V54.2382V54.2489V54.2596V54.2704V54.2811V54.2918V54.3026V54.3133V54.324V54.3347V54.3455V54.3562V54.3669V54.3776V54.3884V54.3991V54.4098V54.4205V54.4312V54.442V54.4527V54.4634V54.4741V54.4849V54.4956V54.5063V54.517V54.5277V54.5385V54.5492V54.5599V54.5706V54.5814V54.5921V54.6028V54.6135V54.6242V54.6349V54.6457V54.6564V54.6671V54.6778V54.6885V54.6993V54.71V54.7207V54.7314V54.7421V54.7529V54.7636V54.7743V54.785V54.7957V54.8064V54.8172V54.8279V54.8386V54.8493V54.86V54.8707V54.8814V54.8922V54.9029V54.9136V54.9243V54.935V54.9457V54.9565V54.9672V54.9779V54.9886V54.9993V55.01V55.0207V55.0315V55.0422V55.0529V55.0636V55.0743V55.085V55.0957V55.1064V55.1172V55.1279V55.1386V55.1493V55.16V55.1707V55.1814V55.1921V55.2029V55.2136V55.2243V55.235V55.2457V55.2564V55.2671V55.2778V55.2885V55.2993V55.31V55.3207V55.3314V55.3421V55.3528V55.3635V55.3742V55.3849V55.3957V55.4064V55.4171V55.4278V55.4385V55.4492V55.4599V55.4706V55.4813V55.492V55.5028V55.5135V55.5242V55.5349V55.5456V55.5563V55.567V55.5777V55.5884V55.5991V55.6099V55.6206V55.6313V55.642V55.6527V55.6634V55.6741V55.6848V55.6955V55.7062V55.7169V55.7277V55.7384V55.7491V55.7598V55.7705V55.7812V55.7919V55.8026V55.8133V55.824V55.8348V55.8455V55.8562V55.8669V55.8776V55.8883V55.899V55.9097V55.9204V55.9311V55.9418V55.9526V55.9633V55.974V55.9847V55.9954V56.0061V56.0168V56.0275V56.0382V56.0489V56.0597V56.0704V56.0811V56.0918V56.1025V56.1132V56.1239V56.1346V56.1453V56.156V56.1668V56.1775V56.1882V56.1989V56.2096V56.2203V56.231V56.2417V56.2524V56.2632V56.2739V56.2846V56.2953V56.306V56.3167V56.3274V56.3381V56.3488V56.3596V56.3703V56.381V56.3917V56.4024V56.4131V56.4238V56.4345V56.4453V56.456V56.4667V56.4774V56.4881V56.4988V56.5095V56.5202V56.531V56.5417V56.5524V56.5631V56.5738V56.5845V56.5952V56.606V56.6167V56.6274V56.6381V56.6488V56.6595V56.6702V56.681V56.6917V56.7024V56.7131V56.7238V56.7345V56.7453V56.756V56.7667V56.7774V56.7881V56.7988V56.8096V56.8203V56.831V56.8417V56.8524V56.8631V56.8739V56.8846V56.8953V56.906V56.9167V56.9275V56.9382V56.9489V56.9596V56.9703V56.9811V56.9918V57.0025V57.0132V57.0239V57.0347V57.0454V57.0561V57.0668V57.0776V57.0883V57.099V57.1097V57.1204V57.1312V57.1419V57.1526V57.1633V57.1741V57.1848V57.1955V57.2062V57.217V57.2277V57.2384V57.2491V57.2599V57.2706V57.2813V57.292V57.3028V57.3135V57.3242V57.3349V57.3457V57.3564V57.3671V57.3779V57.3886V57.3993V57.41V57.4208V57.4315V57.4422V57.453V57.4637V57.4744V57.4852V57.4959V57.5066V57.5174V57.5281V57.5388V57.5496V57.5603V57.571V57.5818V57.5925V57.6032V57.614V57.6247V57.6354V57.6462V57.6569V57.6676V57.6784V57.6891V57.6999V57.7106V57.7213V57.7321V57.7428V57.7535V57.7643V57.775V57.7858V57.7965V57.8072V57.818V57.8287V57.8395V57.8502V57.8609V57.8717V57.8824V57.8932V57.9039V57.9147V57.9254V57.9361V57.9469V57.9576V57.9684V57.9791V57.9899V58.0006V58.0114V58.0221V58.0329V58.0436V58.0544V58.0651V58.0759V58.0866V58.0974V58.1081V58.1189V58.1296V58.1404V58.1511V58.1619V58.1726V58.1834V58.1941V58.2049V58.2156V58.2264V58.2371V58.2479V58.2587V58.2694V58.2802V58.2909V58.3017V58.3124V58.3232V58.334V58.3447V58.3555V58.3662V58.377V58.3878V58.3985V58.4093V58.42V58.4308V58.4416V58.4523V58.4631V58.4739V58.4846V58.4954V58.5062V58.5169V58.5277C50.4971 59.0577 50.5824 59.6537 50.9544 60.1289C51.3655 60.6539 51.9531 60.8222 52.4875 60.837ZM55.0688 64.8288L55.5343 63.815L54.9931 63.6349C54.9883 63.574 54.981 63.5104 54.9701 63.4455L54.9683 63.4347L54.9663 63.4239C54.7381 62.2198 53.7161 61.4096 52.5171 61.478L52.5029 61.4788L52.4888 61.48C51.93 61.5278 51.3876 61.7543 51.0055 62.2472C50.6477 62.7085 50.5293 63.2779 50.5169 63.8219L50.5167 63.8333V63.8447C50.5167 63.9188 50.5131 64.0009 50.5076 64.106C50.5069 64.1193 50.5062 64.133 50.5055 64.1471C50.5007 64.2373 50.4949 64.3452 50.4925 64.4518C50.4869 64.6914 50.4928 65.0268 50.6 65.3702C50.6759 65.6213 50.7931 65.9191 50.9572 66.1932C51.1049 66.4401 51.3744 66.8111 51.8139 67.0059C52.114 67.1403 52.5388 67.2604 52.9967 67.218C53.4986 67.1715 54.0433 66.9211 54.3797 66.3389L54.3797 66.339L54.3841 66.3313C54.5401 66.0558 54.6655 65.7742 54.772 65.5235C54.8084 65.4379 54.8416 65.3583 54.8733 65.2825C54.9407 65.121 55.0008 64.977 55.0688 64.8288Z" stroke="black" stroke-width="2"/>
<path d="M11.4277 8.06301L11.4277 8.06299L11.4225 8.06751C11.4145 8.07459 11.4066 8.08142 11.399 8.088C11.0098 7.6166 10.542 7.16688 10.1189 6.76736C10.5573 6.31207 11.1998 5.79937 12.0332 5.26174C13.2394 4.48366 14.7432 3.71787 16.3445 3.05488C17.9445 2.3924 19.6191 1.84191 21.1609 1.48553C22.2871 1.2252 23.3087 1.07645 24.1623 1.05081V1.05735V1.06428V1.07122V1.07815V1.08508V1.09201V1.09893V1.10586V1.11278V1.1197V1.12662V1.13354V1.14046V1.14737V1.15429V1.1612V1.16811V1.17502V1.18193V1.18883V1.19574V1.20264V1.20954V1.21644V1.22334V1.23024V1.23713V1.24403V1.25092V1.25781V1.2647V1.27158V1.27847V1.28535V1.29224V1.29912V1.306V1.31287V1.31975V1.32662V1.33349V1.34036V1.34723V1.3541V1.36096V1.36783V1.37469V1.38155V1.38841V1.39527V1.40212V1.40897V1.41583V1.42268V1.42952V1.43637V1.44322V1.45006V1.4569V1.46374V1.47058V1.47741V1.48425V1.49108V1.49791V1.50474V1.51157V1.51839V1.52521V1.53204V1.53886V1.54567V1.55249V1.5593V1.56612V1.57293V1.57974V1.58654V1.59335V1.60015V1.60695V1.61375V1.62055V1.62735V1.63414V1.64093V1.64772V1.65451V1.6613V1.66808V1.67487V1.68165V1.68843V1.6952V1.70198V1.70875V1.71552V1.72229V1.72906V1.73583V1.74259V1.74935V1.75611V1.76287V1.76963V1.77638V1.78313V1.78988V1.79663V1.80338V1.81012V1.81686V1.8236V1.83034V1.83708V1.84381V1.85054V1.85727V1.864V1.87073V1.87745V1.88417V1.89089V1.89761V1.90433V1.91104V1.91775V1.92446V1.93117V1.93788V1.94458V1.95128V1.95798V1.96468V1.97137V1.97807V1.98476V1.99145V1.99813V2.00482V2.0115V2.01818V2.02486V2.03154V2.03821V2.04488V2.05155V2.05822V2.06489V2.07155V2.07821V2.08487V2.09153V2.09818V2.10484V2.11149V2.11813V2.12478V2.13142V2.13807V2.14471V2.15134V2.15798V2.16461V2.17124V2.17787V2.1845V2.19112V2.19774V2.20436V2.21098V2.2176V2.22421V2.23082V2.23743V2.24403V2.25064V2.25724V2.26384V2.27044V2.27703V2.28362V2.29021V2.2968V2.30339V2.30997V2.31655V2.32313V2.32971V2.33628V2.34285V2.34942V2.35599V2.36255V2.36911V2.37567V2.38223V2.38879V2.39534V2.40189V2.40844V2.41499V2.42153V2.42807V2.43461V2.44114V2.44768V2.45421V2.46074V2.46727V2.47379V2.48031V2.48683V2.49335V2.49986V2.50637V2.51288V2.51939V2.5259V2.5324V2.5389V2.5454V2.55189V2.55838V2.56487V2.57136V2.57784V2.58433V2.59081V2.59728V2.60376V2.61023V2.6167V2.62317V2.62963V2.6361V2.64256V2.64901V2.65547V2.66192V2.66837V2.67482V2.68126V2.6877V2.69414V2.70058V2.70096C23.8082 2.77838 23.4506 2.85457 23.0909 2.9312C21.6852 3.23067 20.2474 3.53699 18.8648 3.95103C16.0989 4.77543 13.6052 6.17623 11.4277 8.06301Z" stroke="black" stroke-width="2"/>
<path d="M41.9372 45.024C42.1273 45.2159 42.3178 45.4083 42.5091 45.601C38.2393 49.265 32.5781 51.1006 28.7266 51.2926V51.2886V51.2813V51.274V51.2668V51.2595V51.2522V51.2449V51.2376V51.2303V51.223V51.2157V51.2085V51.2012V51.1939V51.1866V51.1793V51.1721V51.1648V51.1575V51.1502V51.1429V51.1357V51.1284V51.1211V51.1138V51.1066V51.0993V51.092V51.0848V51.0775V51.0702V51.0629V51.0557V51.0484V51.0411V51.0339V51.0266V51.0193V51.0121V51.0048V50.9976V50.9903V50.983V50.9758V50.9685V50.9613V50.954V50.9467V50.9395V50.9322V50.925V50.9177V50.9105V50.9032V50.896V50.8887V50.8815V50.8742V50.867V50.8597V50.8525V50.8452V50.838V50.8307V50.8235V50.8162V50.809V50.8018V50.7945V50.7873V50.78V50.7728V50.7655V50.7583V50.7511V50.7438V50.7366V50.7294V50.7221V50.7149V50.7076V50.7004V50.6932V50.6859V50.6787V50.6715V50.6642V50.657V50.6498V50.6425V50.6353V50.6281V50.6209V50.6136V50.6064V50.5992V50.5919V50.5847V50.5775V50.5703V50.563V50.5558V50.5486V50.5414V50.5342V50.5269V50.5197V50.5125V50.5053V50.498V50.4908V50.4836V50.4764V50.4692V50.4619V50.4547V50.4475V50.4403V50.4331V50.4259V50.4187V50.4114V50.4042V50.397V50.3898V50.3826V50.3754V50.3682V50.3609V50.3537V50.3465V50.3393V50.3321V50.3249V50.3177V50.3105V50.3033V50.2961V50.2888V50.2816V50.2744V50.2672V50.26V50.2528V50.2456V50.2384V50.2312V50.224V50.2168V50.2096V50.2024V50.1952V50.188V50.1808V50.1736V50.1664V50.1592V50.152V50.1448V50.1376V50.1304V50.1232V50.116V50.1088V50.1016V50.0944V50.0872V50.08V50.0728V50.0656V50.0584V50.0512V50.044V50.0368V50.0296V50.0224V50.0152V50.008V50.0008V49.9936V49.9864V49.9792V49.972V49.9648V49.9576V49.9504V49.9433V49.9361V49.9289V49.9217V49.9145V49.9073V49.9001V49.8929V49.8857V49.8785V49.8713V49.8641V49.8569V49.8498V49.8426V49.8354V49.8282V49.821V49.8138V49.8066V49.7994V49.7922V49.785V49.7778V49.7707V49.7635V49.7563V49.7491V49.7419V49.7347V49.7275V49.7203V49.7131V49.706V49.6988V49.6916V49.6844V49.6772V49.67V49.6628V49.6556V49.6484V49.6413V49.6341V49.6269V49.6197V49.6125V49.6053V49.5981V49.5909V49.5838V49.5766V49.5694V49.5622V49.555V49.5478V49.5406V49.5334V49.5263V49.5206C33.4844 49.0789 37.6175 47.2198 41.2648 44.3458C41.4887 44.5712 41.7122 44.7969 41.9364 45.0232L41.9372 45.024Z" stroke="black" stroke-width="2"/>
<path d="M24.1587 51.3372C18.9042 50.8613 14.2919 48.9237 10.1404 45.4892C10.5756 45.0715 10.9888 44.6789 11.416 44.3027C14.1848 46.614 17.3475 48.1345 20.7922 49.0386C21.7234 49.2846 22.7397 49.4225 23.6868 49.5511C23.8463 49.5727 24.0038 49.5941 24.1587 49.6157V49.6206V49.6275V49.6345V49.6415V49.6485V49.6555V49.6624V49.6694V49.6764V49.6834V49.6904V49.6973V49.7043V49.7113V49.7183V49.7253V49.7323V49.7392V49.7462V49.7532V49.7602V49.7672V49.7742V49.7812V49.7882V49.7951V49.8021V49.8091V49.8161V49.8231V49.8301V49.8371V49.8441V49.8511V49.8581V49.865V49.872V49.879V49.886V49.893V49.9V49.907V49.914V49.921V49.928V49.935V49.942V49.949V49.956V49.963V49.97V49.977V49.984V49.991V49.998V50.005V50.012V50.019V50.026V50.033V50.0401V50.0471V50.0541V50.0611V50.0681V50.0751V50.0821V50.0891V50.0961V50.1032V50.1102V50.1172V50.1242V50.1312V50.1382V50.1453V50.1523V50.1593V50.1663V50.1733V50.1804V50.1874V50.1944V50.2014V50.2085V50.2155V50.2225V50.2295V50.2366V50.2436V50.2506V50.2577V50.2647V50.2717V50.2788V50.2858V50.2928V50.2999V50.3069V50.3139V50.321V50.328V50.3351V50.3421V50.3491V50.3562V50.3632V50.3703V50.3773V50.3844V50.3914V50.3985V50.4055V50.4126V50.4196V50.4267V50.4337V50.4408V50.4479V50.4549V50.462V50.469V50.4761V50.4832V50.4902V50.4973V50.5044V50.5114V50.5185V50.5256V50.5326V50.5397V50.5468V50.5538V50.5609V50.568V50.5751V50.5821V50.5892V50.5963V50.6034V50.6105V50.6176V50.6246V50.6317V50.6388V50.6459V50.653V50.6601V50.6672V50.6743V50.6814V50.6885V50.6956V50.7027V50.7097V50.7169V50.724V50.7311V50.7382V50.7453V50.7524V50.7595V50.7666V50.7737V50.7808V50.7879V50.795V50.8022V50.8093V50.8164V50.8235V50.8306V50.8378V50.8449V50.852V50.8591V50.8663V50.8734V50.8805V50.8877V50.8948V50.9019V50.9091V50.9162V50.9233V50.9305V50.9376V50.9448V50.9519V50.9591V50.9662V50.9734V50.9805V50.9877V50.9948V51.002V51.0091V51.0163V51.0235V51.0306V51.0378V51.045V51.0521V51.0593V51.0665V51.0736V51.0808V51.088V51.0952V51.1023V51.1095V51.1167V51.1239V51.1311V51.1382V51.1454V51.1526V51.1598V51.167V51.1742V51.1814V51.1886V51.1958V51.203V51.2102V51.2174V51.2246V51.2318V51.239V51.2462V51.2534V51.2607V51.2679V51.2751V51.2823V51.2895V51.2968V51.304V51.3112V51.3184V51.3257V51.3329V51.3372Z" stroke="black" stroke-width="2"/>
<path d="M6.56876 10.4657L6.57938 10.4519L6.58951 10.4378L6.58952 10.4378C6.58972 10.4375 6.59379 10.4319 6.60412 10.4203C6.61497 10.4081 6.62998 10.3922 6.65163 10.3706C6.67394 10.3483 6.69794 10.3252 6.7299 10.2946L6.73329 10.2913C6.7622 10.2636 6.79884 10.2285 6.83521 10.1922L6.84713 10.1803L6.85865 10.168C6.91163 10.1114 6.95891 10.0609 7.00201 10.0153C7.06256 10.0736 7.13003 10.1395 7.20774 10.2155C7.53872 10.5458 7.87713 10.8761 8.22998 11.218C5.23764 14.9219 3.48428 19.1343 2.96476 23.8882H2.96002H2.95278H2.94554H2.93831H2.93107H2.92382H2.91658H2.90934H2.90209H2.89484H2.88759H2.88034H2.87309H2.86584H2.85858H2.85132H2.84406H2.8368H2.82954H2.82228H2.81501H2.80775H2.80048H2.79321H2.78594H2.77866H2.77139H2.76411H2.75683H2.74955H2.74227H2.73499H2.72771H2.72042H2.71313H2.70584H2.69855H2.69125H2.68396H2.67666H2.66936H2.66206H2.65476H2.64746H2.64015H2.63284H2.62553H2.61822H2.61091H2.60359H2.59628H2.58896H2.58164H2.57432H2.56699H2.55966H2.55234H2.54501H2.53767H2.53034H2.52301H2.51567H2.50833H2.50099H2.49364H2.4863H2.47895H2.4716H2.46425H2.4569H2.44954H2.44218H2.43482H2.42746H2.4201H2.41273H2.40537H2.398H2.39062H2.38325H2.37587H2.3685H2.36112H2.35373H2.34635H2.33896H2.33158H2.32419H2.31679H2.3094H2.302H2.2946H2.2872H2.2798H2.27239H2.26498H2.25757H2.25016H2.24275H2.23533H2.22791H2.22049H2.21307H2.20564H2.19821H2.19078H2.18335H2.17591H2.16848H2.16104H2.15359H2.14615H2.1387H2.13126H2.1238H2.11635H2.10889H2.10144H2.09398H2.08651H2.07905H2.07158H2.06411H2.05664H2.04916H2.04168H2.0342H2.02672H2.01924H2.01175H2.00426H1.99677H1.98927H1.98178H1.97428H1.96677H1.95927H1.95176H1.94425H1.93674H1.92922H1.92171H1.91419H1.90666H1.89914H1.89161H1.88408H1.87655H1.86901H1.86147H1.85393H1.84639H1.83884H1.83129H1.82374H1.81619H1.80863H1.80107H1.79351H1.78594H1.77838H1.77081H1.76323H1.75566H1.74808H1.7405H1.73291H1.72533H1.71774H1.71014H1.70255H1.69495H1.68735H1.67975H1.67214H1.66453H1.65692H1.6493H1.64169H1.63407H1.62644H1.61882H1.61119H1.60355H1.59592H1.58828H1.58064H1.573H1.56535H1.5577H1.55005H1.54239H1.53473H1.52707H1.51941H1.51174H1.50407H1.4964H1.48872H1.48104H1.47336H1.46567H1.45798H1.45029H1.4426H1.4349H1.4272H1.4195H1.41179H1.40408H1.39637H1.38865H1.38093H1.37321H1.36548H1.35775H1.35002H1.34229H1.33455H1.32681H1.31906H1.31131H1.30356H1.29581H1.28805H1.28029H1.27253H1.26476H1.25699H1.24922H1.24144H1.23366H1.22588H1.21809H1.2103H1.20251H1.19471H1.18691H1.18117C1.21753 23.6597 1.25269 23.434 1.28748 23.2108C1.46271 22.0862 1.62863 21.0213 1.89129 19.9471C2.75468 16.4627 4.37069 13.3222 6.56876 10.4657Z" stroke="black" stroke-width="2"/>
<path d="M8.2062 41.0438C7.79799 41.4427 7.38459 41.848 6.95822 42.2693C3.62505 38.3092 1.76414 33.6953 1.18992 28.4453H1.19235H1.19983H1.2073H1.21478H1.22225H1.22972H1.23718H1.24465H1.25212H1.25958H1.26704H1.2745H1.28196H1.28941H1.29687H1.30432H1.31177H1.31922H1.32667H1.33411H1.34155H1.349H1.35644H1.36388H1.37131H1.37875H1.38618H1.39362H1.40105H1.40847H1.4159H1.42333H1.43075H1.43817H1.44559H1.45301H1.46043H1.46785H1.47526H1.48268H1.49009H1.4975H1.5049H1.51231H1.51972H1.52712H1.53452H1.54192H1.54932H1.55672H1.56411H1.57151H1.5789H1.58629H1.59368H1.60107H1.60846H1.61585H1.62323H1.63061H1.63799H1.64537H1.65275H1.66013H1.6675H1.67488H1.68225H1.68962H1.69699H1.70436H1.71173H1.71909H1.72646H1.73382H1.74118H1.74854H1.7559H1.76326H1.77062H1.77797H1.78532H1.79268H1.80003H1.80738H1.81473H1.82207H1.82942H1.83676H1.84411H1.85145H1.85879H1.86613H1.87347H1.8808H1.88814H1.89547H1.90281H1.91014H1.91747H1.9248H1.93213H1.93946H1.94678H1.95411H1.96143H1.96875H1.97608H1.9834H1.99071H1.99803H2.00535H2.01267H2.01998H2.02729H2.03461H2.04192H2.04923H2.05654H2.06384H2.07115H2.07846H2.08576H2.09306H2.10037H2.10767H2.11497H2.12227H2.12957H2.13686H2.14416H2.15146H2.15875H2.16604H2.17334H2.18063H2.18792H2.19521H2.2025H2.20978H2.21707H2.22435H2.23164H2.23892H2.24621H2.25349H2.26077H2.26805H2.27533H2.28261H2.28988H2.29716H2.30443H2.31171H2.31898H2.32626H2.33353H2.3408H2.34807H2.35534H2.36261H2.36987H2.37714H2.38441H2.39167H2.39894H2.4062H2.41346H2.42073H2.42799H2.43525H2.44251H2.44977H2.45702H2.46428H2.47154H2.47879H2.48605H2.4933H2.50056H2.50781H2.51506H2.52231H2.52957H2.53682H2.54406H2.55131H2.55856H2.56581H2.57306H2.5803H2.58755H2.59479H2.60204H2.60928H2.61652H2.62377H2.63101H2.63825H2.64549H2.65273H2.65997H2.66721H2.67445H2.68168H2.68892H2.69616H2.70339H2.71063H2.71786H2.7251H2.73233H2.73957H2.7468H2.75403H2.76126H2.76849H2.77573H2.78296H2.79019H2.79742H2.80464H2.81187H2.8191H2.82633H2.83356H2.84078H2.84801H2.85523H2.86246H2.86968H2.87691H2.88413H2.89136H2.89858H2.9058H2.91303H2.92025H2.92747H2.93469H2.94191H2.94913H2.95636H2.95811C3.46306 33.1654 5.21518 37.3722 8.2062 41.0438Z" stroke="black" stroke-width="2"/>
<path d="M45.8112 10.0381L45.8181 10.0312C49.1583 14.0645 51.0776 18.6704 51.5382 23.885H51.5334H51.5262H51.519H51.5117H51.5045H51.4973H51.49H51.4828H51.4756H51.4683H51.4611H51.4539H51.4466H51.4394H51.4322H51.4249H51.4177H51.4105H51.4032H51.396H51.3887H51.3815H51.3743H51.367H51.3598H51.3525H51.3453H51.338H51.3308H51.3235H51.3163H51.3091H51.3018H51.2946H51.2873H51.2801H51.2728H51.2656H51.2583H51.2511H51.2438H51.2366H51.2293H51.2221H51.2148H51.2075H51.2003H51.193H51.1858H51.1785H51.1713H51.164H51.1568H51.1495H51.1422H51.135H51.1277H51.1205H51.1132H51.1059H51.0987H51.0914H51.0841H51.0769H51.0696H51.0623H51.0551H51.0478H51.0405H51.0333H51.026H51.0187H51.0115H51.0042H50.9969H50.9897H50.9824H50.9751H50.9678H50.9606H50.9533H50.946H50.9388H50.9315H50.9242H50.9169H50.9097H50.9024H50.8951H50.8878H50.8805H50.8733H50.866H50.8587H50.8514H50.8442H50.8369H50.8296H50.8223H50.815H50.8077H50.8005H50.7932H50.7859H50.7786H50.7713H50.764H50.7568H50.7495H50.7422H50.7349H50.7276H50.7203H50.713H50.7057H50.6985H50.6912H50.6839H50.6766H50.6693H50.662H50.6547H50.6474H50.6401H50.6328H50.6255H50.6182H50.611H50.6037H50.5964H50.5891H50.5818H50.5745H50.5672H50.5599H50.5526H50.5453H50.538H50.5307H50.5234H50.5161H50.5088H50.5015H50.4942H50.4869H50.4796H50.4723H50.465H50.4577H50.4504H50.4431H50.4358H50.4285H50.4212H50.4139H50.4066H50.3993H50.3919H50.3846H50.3773H50.37H50.3627H50.3554H50.3481H50.3408H50.3335H50.3262H50.3189H50.3116H50.3043H50.2969H50.2896H50.2823H50.275H50.2677H50.2604H50.2531H50.2458H50.2384H50.2311H50.2238H50.2165H50.2092H50.2019H50.1946H50.1872H50.1799H50.1726H50.1653H50.158H50.1507H50.1434H50.136H50.1287H50.1214H50.1141H50.1068H50.0994H50.0921H50.0848H50.0775H50.0702H50.0628H50.0555H50.0482H50.0409H50.0336H50.0262H50.0189H50.0116H50.0043H49.997H49.9896H49.9823H49.975H49.9677H49.9603H49.953H49.9457H49.9384H49.931H49.9237H49.9164H49.9091H49.9017H49.8944H49.8871H49.8798H49.8724H49.8651H49.8578H49.8504H49.8431H49.8358H49.8285H49.8211H49.8138H49.8076C49.3205 19.1468 47.5844 14.9204 44.5896 11.2576L44.6033 11.2439L44.6856 11.1618L44.6908 11.1566L44.6959 11.1515L44.7062 11.1413L44.7267 11.1207L44.7472 11.1002L44.7524 11.0951L44.7575 11.09L44.7678 11.0798L44.7729 11.0746L44.778 11.0695L44.7832 11.0644L44.7883 11.0593L44.8088 11.0388L44.8498 10.9979L44.8907 10.957L44.8959 10.9519L44.901 10.9468L44.9061 10.9417L44.9112 10.9365L44.9215 10.9263L44.9266 10.9212L44.9317 10.9161L44.9522 10.8957L44.9624 10.8855L44.9726 10.8753L44.9777 10.8702L44.9828 10.8651L44.9879 10.8599L44.9931 10.8548L45.0033 10.8446L45.0135 10.8344L45.0544 10.7936L45.0646 10.7834L45.0697 10.7783L45.0748 10.7732L45.0799 10.7681L45.085 10.763L45.0953 10.7528L45.1361 10.712L45.177 10.6712L45.2178 10.6305L45.2382 10.6101L45.2587 10.5897L45.2689 10.5795L45.2791 10.5693L45.2995 10.5489L45.3097 10.5387L45.3148 10.5336L45.3199 10.5285L45.3301 10.5183L45.3404 10.5081L45.4221 10.4265L45.5038 10.3449L45.5856 10.2632L45.5908 10.2581L45.5959 10.253L45.6061 10.2428C45.6194 10.2295 45.6175 10.2314 45.6135 10.2355C45.608 10.241 45.5985 10.2504 45.6163 10.2326L45.6266 10.2224L45.6317 10.2173L45.6368 10.2121L45.6471 10.2019L45.6573 10.1917L45.6676 10.1815L45.7496 10.0996L45.7701 10.0791C45.8041 10.0451 45.7463 10.1029 45.7804 10.0689L45.7855 10.0637L45.7882 10.061C45.7909 10.0583 45.795 10.0542 45.8009 10.0484L45.806 10.0432L45.8112 10.0381Z" stroke="black" stroke-width="2"/>
<path d="M28.7617 1.0845C33.9358 1.60117 38.5193 3.48112 42.642 6.86694C42.6256 6.88286 42.6091 6.89876 42.5927 6.91464C42.1776 7.31614 41.7765 7.70405 41.3681 8.0847C39.0143 6.0782 36.3313 4.61889 33.3426 3.76903C32.0934 3.41075 30.7885 3.16886 29.5028 2.93053C29.2549 2.88457 29.0077 2.83875 28.7617 2.79225V2.78784V2.78118V2.77452V2.76785V2.76117V2.7545V2.74782V2.74113V2.73444V2.72775V2.72105V2.71435V2.70764V2.70093V2.69422V2.6875V2.68078V2.67405V2.66732V2.66059V2.65385V2.64711V2.64036V2.63361V2.62686V2.6201V2.61334V2.60657V2.5998V2.59303V2.58625V2.57947V2.57269V2.5659V2.5591V2.55231V2.5455V2.5387V2.53189V2.52508V2.51826V2.51144V2.50461V2.49779V2.49095V2.48412V2.47728V2.47043V2.46359V2.45673V2.44988V2.44302V2.43616V2.42929V2.42242V2.41554V2.40867V2.40178V2.3949V2.38801V2.38112V2.37422V2.36732V2.36041V2.3535V2.34659V2.33968V2.33276V2.32583V2.31891V2.31198V2.30504V2.2981V2.29116V2.28422V2.27727V2.27032V2.26336V2.2564V2.24943V2.24247V2.2355V2.22852V2.22154V2.21456V2.20758V2.20059V2.19359V2.1866V2.1796V2.1726V2.16559V2.15858V2.15156V2.14455V2.13752V2.1305V2.12347V2.11644V2.1094V2.10236V2.09532V2.08828V2.08123V2.07417V2.06712V2.06006V2.05299V2.04593V2.03886V2.03178V2.02471V2.01763V2.01054V2.00345V1.99636V1.98927V1.98217V1.97507V1.96796V1.96086V1.95374V1.94663V1.93951V1.93239V1.92526V1.91814V1.911V1.90387V1.89673V1.88959V1.88244V1.8753V1.86814V1.86099V1.85383V1.84667V1.8395V1.83234V1.82517V1.81799V1.81081V1.80363V1.79645V1.78926V1.78207V1.77487V1.76768V1.76047V1.75327V1.74606V1.73885V1.73164V1.72442V1.7172V1.70998V1.70275V1.69552V1.68829V1.68106V1.67382V1.66657V1.65933V1.65208V1.64483V1.63757V1.63032V1.62306V1.61579V1.60852V1.60125V1.59398V1.5867V1.57943V1.57214V1.56486V1.55757V1.55028V1.54298V1.53568V1.52838V1.52108V1.51377V1.50646V1.49915V1.49183V1.48452V1.47719V1.46987V1.46254V1.45521V1.44788V1.44054V1.4332V1.42586V1.41851V1.41116V1.40381V1.39646V1.3891V1.38174V1.37438V1.36701V1.35964V1.35227V1.3449V1.33752V1.33014V1.32276V1.31537V1.30798V1.30059V1.29319V1.2858V1.2784V1.27099V1.26359V1.25618V1.24877V1.24135V1.23394V1.22652V1.21909V1.21167V1.20424V1.19681V1.18938V1.18194V1.1745V1.16706V1.15961V1.15217V1.14472V1.13726V1.12981V1.12235V1.11489V1.10743V1.09996V1.09249V1.08502V1.0845Z" stroke="black" stroke-width="2"/>
<path d="M51.6229 28.4453H51.6275C51.6177 28.7311 51.5955 28.9578 51.5456 29.1572L51.5435 29.1653L51.5417 29.1734C51.2 30.6415 50.8251 32.095 50.4475 33.5593C50.3314 34.0095 50.215 34.4606 50.0992 34.9136C49.9149 35.6001 49.5402 36.2146 48.9981 36.882L48.998 36.882L48.9896 36.8927C48.3604 37.6894 47.8344 38.6177 47.3582 39.4582C47.1865 39.7612 47.0212 40.0528 46.86 40.3227L46.8595 40.3235C46.7841 40.4499 46.7082 40.5768 46.6319 40.7042C46.322 41.222 46.0064 41.7492 45.7022 42.2903C45.596 42.184 45.4914 42.0801 45.388 41.9774C45.1015 41.6927 44.8246 41.4176 44.5504 41.1299C47.1084 38.0222 48.7148 34.4819 49.5388 30.5843L49.5393 30.5818C49.6843 29.8869 49.7538 29.1475 49.8187 28.4453H49.8215H49.8287H49.8359H49.8431H49.8503H49.8575H49.8647H49.8719H49.8791H49.8863H49.8935H49.9007H49.9079H49.9151H49.9224H49.9296H49.9368H49.944H49.9512H49.9584H49.9656H49.9728H49.98H49.9872H49.9944H50.0017H50.0089H50.0161H50.0233H50.0305H50.0377H50.0449H50.0521H50.0593H50.0666H50.0738H50.081H50.0882H50.0954H50.1026H50.1098H50.117H50.1243H50.1315H50.1387H50.1459H50.1531H50.1603H50.1675H50.1748H50.182H50.1892H50.1964H50.2036H50.2109H50.2181H50.2253H50.2325H50.2397H50.2469H50.2542H50.2614H50.2686H50.2758H50.2831H50.2903H50.2975H50.3047H50.3119H50.3192H50.3264H50.3336H50.3408H50.3481H50.3553H50.3625H50.3697H50.377H50.3842H50.3914H50.3987H50.4059H50.4131H50.4203H50.4276H50.4348H50.442H50.4493H50.4565H50.4637H50.471H50.4782H50.4854H50.4927H50.4999H50.5071H50.5144H50.5216H50.5288H50.5361H50.5433H50.5506H50.5578H50.565H50.5723H50.5795H50.5868H50.594H50.6012H50.6085H50.6157H50.623H50.6302H50.6375H50.6447H50.652H50.6592H50.6665H50.6737H50.681H50.6882H50.6955H50.7027H50.71H50.7172H50.7245H50.7317H50.739H50.7462H50.7535H50.7607H50.768H50.7752H50.7825H50.7898H50.797H50.8043H50.8115H50.8188H50.8261H50.8333H50.8406H50.8479H50.8551H50.8624H50.8697H50.8769H50.8842H50.8915H50.8987H50.906H50.9133H50.9205H50.9278H50.9351H50.9424H50.9496H50.9569H50.9642H50.9715H50.9788H50.986H50.9933H51.0006H51.0079H51.0152H51.0224H51.0297H51.037H51.0443H51.0516H51.0589H51.0662H51.0734H51.0807H51.088H51.0953H51.1026H51.1099H51.1172H51.1245H51.1318H51.1391H51.1464H51.1537H51.161H51.1683H51.1756H51.1829H51.1902H51.1975H51.2048H51.2121H51.2194H51.2267H51.234H51.2413H51.2487H51.256H51.2633H51.2706H51.2779H51.2852H51.2925H51.2999H51.3072H51.3145H51.3218H51.3291H51.3365H51.3438H51.3511H51.3584H51.3658H51.3731H51.3804H51.3878H51.3951H51.4024H51.4097H51.4171H51.4244H51.4318H51.4391H51.4464H51.4538H51.4611H51.4685H51.4758H51.4831H51.4905H51.4978H51.5052H51.5125H51.5199H51.5272H51.5346H51.5419H51.5493H51.5566H51.564H51.5714H51.5787H51.5861H51.5934H51.6008H51.6082H51.6155H51.6229ZM44.2673 41.4675L44.2691 41.4655C44.2685 41.4661 44.2679 41.4668 44.2673 41.4675Z" stroke="black" stroke-width="2"/>
<path d="M23.251 17.4458C23.5293 17.0864 23.8434 16.8013 24.1625 16.5917V16.6027V16.6211V16.6395V16.6578V16.6762V16.6946V16.7129V16.7313V16.7497V16.768V16.7864V16.8048V16.8231V16.8415V16.8599V16.8783V16.8966V16.915V16.9334V16.9517V16.9701V16.9885V17.0069V17.0252V17.0436V17.062V17.0804V17.0988V17.1171V17.1355V17.1539V17.1723V17.1907V17.209V17.2274V17.2458V17.2642V17.2826V17.3009V17.3193V17.3377V17.3561V17.3745V17.3929V17.4113V17.4296V17.448V17.4664V17.4848V17.5032V17.5216V17.54V17.5584V17.5768V17.5952V17.6136V17.6319V17.6503V17.6687V17.6871V17.7055V17.7239V17.7423V17.7607V17.7791V17.7975V17.8159V17.8343V17.8527V17.8711V17.8895V17.9079V17.9263V17.9447V17.9631V17.9815V17.9999V18.0183V18.0368V18.0552V18.0736V18.092V18.1104V18.1288V18.1472V18.1656V18.184V18.2024V18.2208V18.2393V18.2577V18.2761V18.2945V18.3129V18.3313V18.3497V18.3682V18.3866V18.405V18.4234V18.4418V18.4603V18.4787V18.4971V18.5155V18.5339V18.5524V18.5708V18.5892V18.6076V18.6261V18.6445V18.6629V18.6813V18.6998V18.7182V18.7366V18.7551V18.7735V18.7919V18.8104V18.8288V18.8472V18.8657V18.8841V18.9025V18.921V18.9394V18.9578V18.9763V18.9947V19.0131V19.0316V19.05V19.0685V19.0869V19.1053V19.1238V19.1422V19.1607V19.1791V19.1976V19.216V19.2345V19.2529V19.2713V19.2898V19.3082V19.3267V19.3451V19.3636V19.382V19.4005V19.4189V19.4374V19.4559V19.4743V19.4928V19.5112V19.5297V19.5481V19.5666V19.585V19.6035V19.622V19.6404V19.6589V19.6774V19.6958V19.7143V19.7327V19.7512V19.7697V19.7881V19.8066V19.8251V19.8435V19.862V19.8805V19.8989V19.9174V19.9359V19.9544V19.9728V19.9913V20.0098V20.0282V20.0467V20.0652V20.0837V20.1022V20.1206V20.1391V20.1576V20.1761V20.1945V20.213V20.2315V20.25V20.2685V20.287V20.3054V20.3239V20.3424V20.3609V20.3794V20.3979V20.4164V20.4349V20.4533V20.4718V20.4903V20.5088V20.5273V20.5458V20.5643V20.5828V20.6013V20.6198V20.6383V20.6568V20.6753V20.6938V20.7123V20.7308V20.7493V20.7678V20.7863V20.8048V20.8233V20.8418V20.8603V20.8788V20.8973V20.9158V20.9343V20.9529V20.9714V20.9899V21.0084V21.0269V21.0454V21.0639V21.0824V21.101V21.1195V21.138V21.1565V21.175V21.1935V21.2121V21.2306V21.2491V21.2676V21.2861V21.3047V21.3232V21.3417V21.3602V21.3788V21.3973V21.4158V21.4343V21.4529V21.4714V21.4899V21.5085V21.527V21.5455V21.5641V21.5826V21.6011V21.6197V21.6382V21.6567V21.6753V21.6938V21.7124V21.7309V21.7494V21.768V21.7865V21.8051V21.8236V21.8422V21.8607V21.8793V21.8978V21.9164V21.9349V21.9535V21.972V21.9906V22.0091V22.0277V22.0462V22.0648V22.0833V22.1019V22.1204V22.139V22.1575V22.1761V22.1947V22.2132V22.2318V22.2503V22.2689V22.2875V22.306V22.3246V22.3432V22.3617V22.3803V22.3989V22.4174V22.436V22.4546V22.4732V22.4917V22.5103V22.5289V22.5474V22.566V22.5846V22.6032V22.6218V22.6403V22.6589V22.6775V22.6961V22.7147V22.7332V22.7518V22.7704V22.789V22.8076V22.8262V22.8448V22.8633V22.8819V22.9005V22.9191V22.9377V22.9563V22.9749V22.9935V23.0121V23.0307V23.0493V23.0679V23.0865V23.1051V23.1237V23.1423V23.1609V23.1795V23.1981V23.2167V23.235C23.9549 23.0894 23.7356 22.9009 23.5159 22.6645C22.9007 22.0027 22.4708 21.1589 22.3986 20.3948L22.3984 20.3933C22.2879 19.243 22.6577 18.2118 23.251 17.4458Z" stroke="black" stroke-width="2"/>
<path d="M30.3941 32.0464C30.5501 33.5422 29.7892 34.864 28.707 35.641V35.6245V35.6058V35.5872V35.5685V35.5499V35.5312V35.5126V35.494V35.4753V35.4567V35.438V35.4194V35.4008V35.3822V35.3635V35.3449V35.3263V35.3076V35.289V35.2704V35.2518V35.2332V35.2145V35.1959V35.1773V35.1587V35.1401V35.1215V35.1029V35.0842V35.0656V35.047V35.0284V35.0098V34.9912V34.9726V34.954V34.9354V34.9168V34.8982V34.8796V34.861V34.8424V34.8238V34.8053V34.7867V34.7681V34.7495V34.7309V34.7123V34.6937V34.6752V34.6566V34.638V34.6194V34.6008V34.5823V34.5637V34.5451V34.5265V34.508V34.4894V34.4708V34.4523V34.4337V34.4151V34.3966V34.378V34.3594V34.3409V34.3223V34.3038V34.2852V34.2666V34.2481V34.2295V34.211V34.1924V34.1739V34.1553V34.1368V34.1182V34.0997V34.0811V34.0626V34.0441V34.0255V34.007V33.9884V33.9699V33.9514V33.9328V33.9143V33.8957V33.8772V33.8587V33.8401V33.8216V33.8031V33.7846V33.766V33.7475V33.729V33.7104V33.6919V33.6734V33.6549V33.6363V33.6178V33.5993V33.5808V33.5623V33.5438V33.5252V33.5067V33.4882V33.4697V33.4512V33.4327V33.4142V33.3957V33.3771V33.3586V33.3401V33.3216V33.3031V33.2846V33.2661V33.2476V33.2291V33.2106V33.1921V33.1736V33.1551V33.1366V33.1181V33.0996V33.0811V33.0626V33.0441V33.0256V33.0071V32.9887V32.9702V32.9517V32.9332V32.9147V32.8962V32.8777V32.8592V32.8408V32.8223V32.8038V32.7853V32.7668V32.7483V32.7299V32.7114V32.6929V32.6744V32.656V32.6375V32.619V32.6005V32.582V32.5636V32.5451V32.5266V32.5082V32.4897V32.4712V32.4527V32.4343V32.4158V32.3973V32.3789V32.3604V32.3419V32.3235V32.305V32.2866V32.2681V32.2496V32.2312V32.2127V32.1942V32.1758V32.1573V32.1389V32.1204V32.1019V32.0835V32.065V32.0466V32.0281V32.0097V31.9912V31.9728V31.9543V31.9359V31.9174V31.899V31.8805V31.862V31.8436V31.8252V31.8067V31.7883V31.7698V31.7514V31.7329V31.7145V31.696V31.6776V31.6591V31.6407V31.6222V31.6038V31.5854V31.5669V31.5485V31.53V31.5116V31.4931V31.4747V31.4563V31.4378V31.4194V31.401V31.3825V31.3641V31.3456V31.3272V31.3088V31.2903V31.2719V31.2535V31.235V31.2166V31.1982V31.1797V31.1613V31.1429V31.1244V31.106V31.0876V31.0691V31.0507V31.0323V31.0138V30.9954V30.977V30.9585V30.9401V30.9217V30.9033V30.8848V30.8664V30.848V30.8295V30.8111V30.7927V30.7743V30.7558V30.7374V30.719V30.7006V30.6821V30.6637V30.6453V30.6269V30.6084V30.59V30.5716V30.5532V30.5347V30.5163V30.4979V30.4795V30.4611V30.4426V30.4242V30.4058V30.3874V30.3689V30.3505V30.3321V30.3137V30.2953V30.2768V30.2584V30.24V30.2216V30.2032V30.1847V30.1663V30.1479V30.1295V30.1111V30.0926V30.0742V30.0558V30.0374V30.019V30.0006V29.9821V29.9637V29.9453V29.9269V29.9085V29.89V29.8716V29.8532V29.8348V29.8164V29.7979V29.7795V29.7611V29.7427V29.7243V29.7059V29.6874V29.669V29.6506V29.6322V29.6138V29.5954V29.5769V29.5585V29.5401V29.5217V29.5033V29.4848V29.4664V29.448V29.4296V29.4112V29.3928V29.3743V29.3559V29.3375V29.3191V29.3007V29.2822V29.2638V29.2454V29.227V29.2086V29.1916C29.6079 29.785 30.254 30.8339 30.3941 32.0464Z" stroke="black" stroke-width="2"/>
</svg>
