<svg width="58" height="70" viewBox="0 0 58 70" fill="none" xmlns="http://www.w3.org/2000/svg">
<path d="M16.4999 55.793C16.4414 55.7734 16.3828 55.7539 16.3047 55.7344C16.3047 55.7344 16.2656 55.8125 16.2656 55.8515C16.3242 55.8711 16.3828 55.9101 16.4414 55.9101C16.4609 55.9101 16.4804 55.8515 16.4999 55.793Z" fill="white"/>
<path d="M43.2307 31.7835C37.3533 23.8765 26.1844 21.7394 17.8273 27.7425C13.2387 31.0452 10.7003 35.669 10.4074 41.4001C10.1145 47.1118 12.2819 51.8133 16.4409 55.9319C16.0309 55.9319 15.7966 55.9319 15.5623 55.9319C10.876 55.9319 6.18976 55.9319 1.50351 55.9319C0.312416 55.9319 0 55.6405 0 54.4554C0 36.7763 0 19.0973 0 1.41821C0 0.388549 0.370996 0 1.32777 0C12.1257 0 22.9041 0 33.702 0C33.7801 0 33.8386 0.0194228 33.9949 0.0194228C33.9949 0.466256 33.9949 0.913095 33.9949 1.35993C33.9949 3.0307 34.0534 4.72089 33.9753 6.39166C33.9168 7.84872 35.3226 9.40293 36.9042 9.32522C39.0131 9.24751 41.1414 9.30579 43.3478 9.30579C43.3478 16.8048 43.3478 24.265 43.3478 31.7446C43.3283 31.7446 43.2893 31.764 43.2307 31.7835ZM10.3098 22.3028C12.0085 21.9143 12.9067 21.0595 13.1801 20.1464C13.7659 18.2425 13.1606 16.5134 10.8174 15.7169C9.93876 15.4255 8.98199 15.2895 8.12284 14.9398C7.7909 14.8038 7.36132 14.2598 7.40037 13.9295C7.45895 13.405 7.90805 12.9776 8.53288 12.9193C9.60682 12.8222 10.5245 12.9582 11.0517 14.1238C11.1884 14.4152 11.8328 14.6678 12.1843 14.6289C12.6529 14.5707 13.0825 14.2404 13.0629 13.5799C13.0434 12.5502 12.1257 11.2874 10.9932 10.8989C10.5441 10.7434 10.2512 10.6463 10.2316 10.0635C10.2121 9.44179 9.62634 9.07267 8.9234 9.13095C8.27905 9.18923 7.98615 9.55835 7.88852 10.1995C7.869 10.3937 7.61516 10.6463 7.4199 10.724C5.36966 11.54 4.1981 13.9101 5.74066 15.9889C6.48265 16.9991 7.65421 17.2905 8.82577 17.5819C9.41156 17.7179 10.0364 17.8345 10.5636 18.1259C11.2275 18.4756 11.1884 19.2721 10.5831 19.6801C9.2163 20.5932 7.65421 20.1269 7.00985 18.6504C6.77554 18.1259 6.03355 17.8345 5.42824 18.0288C4.94009 18.1842 4.68625 18.8642 4.84246 19.4275C5.29156 20.9818 6.38502 21.856 7.88852 22.3028C7.96663 23.3519 8.3181 23.8182 9.02104 23.8376C9.70445 23.8959 10.2512 23.2548 10.3098 22.3028ZM28.0004 20.8263C31.0464 20.8263 34.0925 20.8263 37.1581 20.8263C38.0758 20.8263 38.5639 20.4183 38.5639 19.6607C38.5639 18.903 38.0953 18.495 37.1581 18.495C31.0659 18.495 24.9543 18.495 18.8622 18.495C18.0225 18.495 17.593 18.9224 17.6125 19.6995C17.632 20.4183 18.0616 20.8263 18.8622 20.8263C21.9082 20.8263 24.9543 20.8263 28.0004 20.8263ZM28.0004 14.4347C28.2737 14.4347 28.5276 14.4347 28.8009 14.4347C31.6127 14.4347 34.4049 14.4347 37.2167 14.4347C38.1344 14.4347 38.6811 13.8324 38.5444 13.0553C38.4273 12.453 37.8805 12.1228 36.9823 12.1228C31.0464 12.1228 25.13 12.1228 19.1941 12.1228C18.9598 12.1228 18.6474 12.0645 18.4716 12.1811C18.1397 12.3948 17.7492 12.6862 17.632 13.0359C17.3391 13.8324 18.1006 14.493 18.8426 14.4735C21.9082 14.4152 24.9543 14.4347 28.0004 14.4347Z" fill="white"/>
<path d="M41.4277 51.3434C43.0874 52.917 44.7081 54.4907 46.3288 56.0449C47.3441 55.2483 48.1447 55.462 48.8671 56.2003C50.5073 57.8516 52.2061 59.4447 53.8853 61.0766C54.9397 62.0868 55.9746 63.097 57.0486 64.0879C57.9858 64.9427 57.9077 65.6615 57.1657 66.4774C56.1504 67.5848 55.0569 68.6339 53.9634 69.683C53.4753 70.1492 52.6747 70.0715 52.1475 69.5858C50.1363 67.6431 48.1447 65.7003 46.1335 63.7576C45.3524 62.9999 44.5324 62.2811 43.7513 61.5234C42.8726 60.6686 42.8141 60.0275 43.3803 59.2115C41.8768 57.5213 40.3928 55.8506 38.8698 54.1409C35.4527 57.1328 31.6061 58.2984 27.4275 58.0653C23.0928 57.8322 19.4023 55.9671 16.5515 52.6645C11.0257 46.2728 11.3967 36.7533 17.7036 30.8667C23.3856 25.5436 32.27 25.2133 38.4598 30.1868C45.0986 35.5099 45.9968 44.8157 41.4277 51.3434ZM28.4234 30.2839C21.5502 30.0119 16.6101 35.8596 16.2782 41.513C15.8486 48.9344 21.9993 54.6072 28.56 54.4907C35.0817 54.3741 40.8224 49.1675 40.7443 42.057C40.6467 35.7625 35.3356 30.0119 28.4234 30.2839Z" fill="white"/>
<path d="M36.5937 0.3125C38.7806 2.50781 40.987 4.70312 43.2521 6.97615C42.0805 6.97615 40.9675 6.97615 39.8741 6.97615C38.9563 6.97615 38.0191 6.95672 37.1014 6.97615C36.5742 6.97615 36.3594 6.74302 36.3594 6.2379C36.3789 4.29515 36.3789 2.35239 36.3789 0.429061C36.457 0.390205 36.5351 0.351355 36.5937 0.3125Z" fill="white"/>
<path d="M36.5937 0.307448C36.5156 0.346303 36.457 0.385154 36.3789 0.424009C36.3789 0.346299 36.3594 0.24917 36.3594 0.09375C36.4765 0.190888 36.5351 0.249166 36.5937 0.307448Z" fill="#171717"/>
<path d="M43.2266 31.7812C43.2656 31.7617 43.3242 31.7617 43.3632 31.7422C43.3437 31.8008 43.3242 31.8789 43.3242 31.9374C43.3047 31.8789 43.2656 31.8203 43.2266 31.7812Z" fill="#EEEEEE"/>
<path d="M16.4999 55.793C16.4804 55.8515 16.4414 55.9101 16.4414 55.9101C16.3828 55.8906 16.3242 55.8711 16.2656 55.8515C16.2852 55.8125 16.3047 55.7344 16.3047 55.7344C16.3828 55.7539 16.4414 55.7734 16.4999 55.793Z" fill="#343434"/>
<path d="M26.8824 43.3988C28.6007 41.6891 30.2995 39.9989 31.9982 38.3282C32.3302 37.9979 32.6426 37.6482 33.0136 37.3374C33.6384 36.8128 34.3804 36.8711 35.0443 37.1819C35.7277 37.5122 36.0011 38.1727 35.923 38.9304C35.8839 39.2218 35.7668 39.5521 35.5715 39.7658C33.1112 42.2914 30.6509 44.7975 28.1516 47.3037C27.4291 48.0419 26.3943 48.0031 25.6523 47.2843C24.305 45.9826 22.9772 44.6616 21.669 43.3211C20.9465 42.5828 20.927 41.4171 21.5908 40.7372C22.2547 40.0572 23.4849 40.0572 24.2269 40.7955C25.1055 41.6114 25.9842 42.5051 26.8824 43.3988Z" fill="white"/>
</svg>
