<svg width="83" height="71" viewBox="0 0 83 71" fill="none" xmlns="http://www.w3.org/2000/svg">
<path d="M25.5426 2.77113L25.5423 2.75734C25.5388 2.62101 25.4988 2.5286 25.3721 2.39922C25.2427 2.26705 25.0879 2.15823 24.8586 2.00186C24.6701 2.00508 24.5101 2.01375 24.3584 2.03677C24.0048 2.17986 23.7525 2.47378 23.4782 3.07656C23.1046 3.91324 22.7077 4.75731 22.3158 5.59085C22.1218 6.00321 21.9292 6.413 21.7411 6.81804L21.7374 6.826L21.7374 6.82598C21.476 7.37634 21.6533 7.87145 21.9557 8.06764L21.9574 8.06874C23.4041 9.01126 24.8877 9.90545 26.4096 10.7099L26.4115 10.7108C26.6384 10.8314 26.9501 10.8155 27.2785 10.4871C27.4716 10.294 27.5755 10.1283 27.6171 10.0035C27.6487 9.90868 27.6538 9.82 27.5916 9.68776L27.586 9.6758L27.586 9.67576C27.4589 9.39618 27.3055 9.15511 27.1216 8.86603C27.0282 8.71925 26.9269 8.5601 26.8172 8.37725L26.0615 7.11782L27.5103 6.87636C27.7362 6.83871 27.9613 6.79118 28.2133 6.73796C28.3048 6.71864 28.3998 6.69857 28.4997 6.67795C28.8571 6.60421 29.2566 6.52822 29.669 6.48956L29.6718 6.4893C31.1315 6.3566 32.655 6.21967 34.1855 6.19664C35.241 6.17307 36.2831 6.3152 37.2358 6.44513L37.2645 6.44907C37.2656 6.44922 37.2667 6.44936 37.2678 6.4495C38.4709 6.60549 39.7343 6.78834 40.9861 7.08946C43.5794 7.69192 46.0223 8.70829 48.3138 10.0144L25.5426 2.77113ZM25.5426 2.77113L25.5433 2.78491M25.5426 2.77113L25.5433 2.78491M25.5433 2.78491C25.55 2.9116 25.5409 3.05133 25.5185 3.23785C25.5125 3.28831 25.5035 3.35527 25.4935 3.43048C25.4741 3.57572 25.4506 3.75169 25.4359 3.89879L25.3047 5.21058M25.5433 2.78491L25.3047 5.21058M25.3047 5.21058L26.6033 4.98332M25.3047 5.21058L26.6033 4.98332M26.6033 4.98332C27.4941 4.82743 28.4502 4.64959 29.4 4.47288C29.5836 4.44335 29.747 4.41401 29.8969 4.38708C30.2795 4.31835 30.5743 4.26538 30.895 4.26538V4.26544M26.6033 4.98332L30.895 4.26544M30.895 4.26544L30.9065 4.26531M30.895 4.26544L30.9065 4.26531M30.9065 4.26531C31.4495 4.25907 31.9786 4.24501 32.4987 4.23118C33.9028 4.19386 35.2401 4.15832 36.6002 4.28338L36.6002 4.28341M30.9065 4.26531L36.6002 4.28341M36.6002 4.28341L36.6066 4.28396M36.6002 4.28341L36.6066 4.28396M36.6066 4.28396C40.9041 4.65108 44.9996 5.79278 48.6952 7.92899L48.6996 7.93146M36.6066 4.28396L48.6996 7.93146M48.6996 7.93146C50.5048 8.96301 52.2138 10.1945 53.8506 11.5258L53.8529 11.5277M48.6996 7.93146L53.8529 11.5277M53.8529 11.5277C57.4328 14.4216 60.1384 18.0249 62.0551 22.246L62.0558 22.2476M53.8529 11.5277L62.0558 22.2476M62.0558 22.2476C63.1838 24.7205 64.032 27.2383 64.3491 29.9018L64.349 29.9018M62.0558 22.2476L64.349 29.9018M64.349 29.9018L64.3503 29.9116M64.349 29.9018L64.3503 29.9116M64.3503 29.9116C64.5203 31.229 64.6284 32.5707 64.7373 33.9204L64.7451 34.0172L64.7453 34.0198M64.3503 29.9116L64.7453 34.0198M64.7453 34.0198C64.7913 34.5726 64.8203 34.9804 64.7558 35.3695C64.6821 35.7982 64.3256 36.154 63.5922 36.1152C63.3483 36.0899 62.9246 35.7524 62.8986 35.1795L62.8981 35.1708L64.7453 34.0198ZM57.4299 18.293L57.4332 18.2973C59.3164 20.7851 60.6056 23.5585 61.5413 26.4795C61.5414 26.4797 61.5415 26.48 61.5416 26.4803L60.5892 26.7853L57.4299 18.293ZM57.4299 18.293C56.3208 16.8444 55.1158 15.4338 53.8142 14.132M57.4299 18.293L53.8142 14.132M53.8142 14.132C52.1785 12.4734 50.2778 11.1335 48.3139 10.0145L53.8142 14.132Z" stroke="white" stroke-width="2"/>
<path d="M27.74 65.8083C28.6189 66.0088 29.5299 66.1129 30.4433 66.2173C30.8455 66.2632 31.2482 66.3092 31.6488 66.3636C33.6033 66.6079 35.5577 66.5635 37.49 66.2525L27.74 65.8083ZM27.74 65.8083C26.0742 65.4308 24.4085 65.0088 22.8094 64.4313L27.74 65.8083ZM31.7779 65.3719C33.6335 65.6034 35.491 65.5613 37.3311 65.2652L37.3398 65.2638L37.3485 65.2626C37.8298 65.1938 38.347 65.16 38.7825 65.1315C38.9457 65.1209 39.0974 65.111 39.2314 65.1002L40.3593 65.01L40.3102 66.1405C40.3013 66.3451 40.2852 66.5491 40.2715 66.7236C40.2667 66.7836 40.2623 66.84 40.2585 66.8918C40.2424 67.1114 40.2355 67.2762 40.2431 67.4215L40.2433 67.4241C40.2509 67.5757 40.2978 67.6699 40.4163 67.7896C40.5396 67.9143 40.6846 68.0147 40.9034 68.1614C41.04 68.1607 41.1753 68.1591 41.3134 68.1553C41.4099 68.0738 41.5058 67.9956 41.5908 67.9263C41.6591 67.8706 41.7204 67.8206 41.7694 67.7792C41.9844 67.5974 42.1051 67.4713 42.1765 67.3592C42.5454 66.7795 42.8807 66.1734 43.2288 65.5386C43.2497 65.5005 43.2706 65.4623 43.2916 65.4239C43.6152 64.8334 43.9527 64.2174 44.3222 63.6194C44.4167 63.4635 44.4839 63.1691 44.4271 62.8318C44.372 62.5047 44.2235 62.2686 44.0516 62.1454C43.5252 61.7912 43.029 61.4429 42.5425 61.1014C41.7793 60.5656 41.04 60.0466 40.2457 59.5485L40.2388 59.5441L40.232 59.5397C39.7933 59.2545 39.4813 59.2765 39.2935 59.3477C39.0836 59.4272 38.8657 59.6307 38.7478 59.9779L38.7473 59.9794C38.6486 60.2684 38.6556 60.4797 38.7052 60.6435C38.7562 60.8119 38.8784 61.0158 39.1496 61.2405L39.9952 61.9411L39.2187 62.7176C39.2103 62.726 39.2031 62.7336 39.1873 62.7503L39.1738 62.7645L39.1732 62.7651C39.1538 62.7856 39.115 62.8264 39.0705 62.8674C39.0277 62.907 38.9469 62.9778 38.836 63.0411C38.7336 63.0997 38.5711 63.1716 38.3624 63.1857C38.0977 63.2107 37.812 63.2437 37.5143 63.2782C36.8527 63.3548 36.1319 63.4383 35.4512 63.4543C35.45 63.4544 35.4489 63.4544 35.4477 63.4544L35.4245 62.4547C33.2035 62.5213 31.027 62.3658 28.8282 61.9439L31.7779 65.3719ZM31.7779 65.3719C31.3315 65.3115 30.9052 65.2629 30.4924 65.2158C29.6082 65.115 28.7862 65.0213 27.9623 64.8334L27.961 64.8331C26.3079 64.4584 24.6897 64.0471 23.1491 63.4908L23.1463 63.4898C20.8135 62.6551 18.6083 61.4992 16.5732 60.0424L16.5702 60.0403C14.2586 58.3985 12.1902 56.5231 10.3602 54.3488L31.7779 65.3719ZM4.76772 44.4115L4.7684 44.4136C5.99362 48.0677 7.86298 51.3778 10.3599 54.3484L4.76772 44.4115ZM4.76772 44.4115C4.36781 43.2272 4.11872 42.0112 3.85421 40.7199M4.76772 44.4115L3.85421 40.7199M3.85421 40.7199C3.75183 40.2202 3.64715 39.7091 3.53051 39.1842M3.85421 40.7199L3.53051 39.1842M3.53051 39.1842C3.07249 37.1231 3.10949 35.0021 3.15427 32.7401M3.53051 39.1842L3.15427 32.7401M3.15427 32.7401C3.16365 32.4143 3.21326 32.1649 3.29613 31.9849C3.36896 31.8267 3.47252 31.7068 3.65786 31.6166L3.15427 32.7401ZM21.1254 60.3987C23.5043 61.5652 25.989 62.4415 28.6442 62.9268L3.65807 31.6165C4.18037 31.3629 4.52559 31.4325 4.78185 31.6707C4.95019 31.8281 5.09134 32.115 5.11216 32.2987C5.15153 32.7778 5.15226 33.267 5.14677 33.7939C5.14601 33.8672 5.14512 33.9416 5.14421 34.0167C5.13875 34.4719 5.1329 34.9583 5.15309 35.4438C5.26777 38.3544 5.77267 41.2092 6.76513 43.9793C7.49651 46.0361 8.41501 48.0136 9.59203 49.8831C11.1823 52.4182 13.1376 54.6245 15.404 56.5708C17.1521 58.0886 19.0657 59.3804 21.1225 60.3973L21.1254 60.3987Z" stroke="white" stroke-width="2"/>
<path d="M76.4898 61.9755C78.9447 62.8397 80.4587 64.4825 81.1116 67.0123C81.1602 67.2348 81.2435 67.4192 81.3029 67.5413C81.3231 67.5828 81.339 67.6148 81.352 67.6404V67.6409V67.6453V67.6498V67.6542V67.6586V67.663V67.6675V67.6719V67.6763V67.6807V67.6852V67.6896V67.694V67.6984V67.7029V67.7073V67.7117V67.7161V67.7206V67.725V67.7294V67.7338V67.7383V67.7427V67.7471V67.7515V67.756V67.7604V67.7648V67.7692V67.7737V67.7781V67.7825V67.7869V67.7914V67.7958V67.8002V67.8046V67.8091V67.8135V67.8179V67.8223V67.8268V67.8312V67.8356V67.84V67.8445V67.8489V67.8533V67.8577V67.8622V67.8666V67.871V67.8754V67.8799V67.8843V67.8887V67.8931V67.8976V67.902V67.9064V67.9108V67.9152V67.9197V67.9241V67.9285V67.9329V67.9374V67.9418V67.9462V67.9506V67.9551V67.9595V67.9639V67.9683V67.9728V67.9772V67.9816V67.986V67.9905V67.9949V67.9993V68.0037V68.0082V68.0126V68.017V68.0214V68.0259V68.0303V68.0347V68.0391V68.0436V68.048V68.0524V68.0568V68.0613V68.0657V68.0701V68.0745V68.079V68.0834V68.0878V68.0922V68.0967V68.1011V68.1055V68.1099V68.1144V68.1188V68.1232V68.1276V68.1321V68.1365V68.1409V68.1453V68.1497V68.1542V68.1586V68.163V68.1674V68.1719V68.1763V68.1807V68.1851V68.1896V68.194V68.1984V68.2028V68.2073V68.2117V68.2161V68.2205V68.225V68.2294V68.2338V68.2382V68.2427V68.2471V68.2515V68.2559V68.2604V68.2648V68.2692V68.2736V68.2781V68.2825V68.2869V68.2913V68.2958V68.3002V68.3046V68.309V68.3135V68.3179V68.3223V68.3267V68.3312V68.3356V68.34V68.3444V68.3489V68.3533V68.3577V68.3621V68.3666V68.371V68.3754V68.3798V68.3843V68.3887V68.3931V68.3975V68.4019V68.4064V68.4108V68.4152V68.4196V68.4241V68.4285V68.4329V68.4373V68.4418V68.4462V68.4506V68.455V68.4595V68.4639V68.4683V68.4727V68.4772V68.4816V68.486V68.4904V68.4949V68.4993V68.5037V68.5081V68.5126V68.517V68.5214V68.5258V68.5303V68.5347V68.5391V68.5435V68.548V68.5524V68.5568V68.5612V68.5657V68.5701V68.5745V68.5789V68.5834V68.5878V68.5922V68.5966V68.6011V68.6055V68.6099V68.6143V68.6188V68.6232V68.6276V68.632V68.6364V68.6409V68.6453V68.6497V68.6541V68.6586V68.663V68.6674V68.6718V68.6763V68.6807V68.6851V68.6895V68.694V68.6984V68.7028V68.7072V68.7117V68.7161V68.7205V68.7249V68.7294V68.7338V68.7382V68.7426V68.7471V68.7515V68.7559V68.7603V68.7648V68.7692V68.7736V68.778V68.7825V68.7869V68.7913V68.7957V68.8002V68.8046V68.809V68.8134V68.8179V68.8223V68.8267V68.8311V68.8356V68.84V68.8444V68.8488V68.8533V68.8577V68.8621V68.8665V68.871V68.8754V68.8798V68.8842V68.8886V68.8931V68.8975V68.9019V68.9063V68.9108V68.9152V68.9196V68.924V68.9285V68.9329V68.9373V68.9417V68.9462V68.9506V68.955V68.9594V68.9639V68.9683V68.9727V68.9771V68.9816V68.986V68.9904V68.9948V68.9993V69.0037V69.0081V69.0125V69.017V69.0214V69.0258V69.0302V69.0347V69.0391V69.0435V69.0479V69.0524V69.0568V69.0612V69.0656V69.0701V69.0745V69.0789V69.0833V69.0878V69.0922V69.0966V69.101V69.1055V69.1099V69.1143V69.1187V69.1231V69.1276V69.132V69.1364V69.1408V69.1453V69.1497V69.1541V69.1585V69.163V69.1674V69.1718V69.1762V69.1807V69.1851V69.1895V69.1939V69.1984V69.2028V69.2072V69.2116V69.2161V69.2205V69.2249V69.2293V69.2294L80.9464 69.5981L80.4996 70.0044H80.4978H80.4719H80.446H80.4201H80.3943H80.3684H80.3166H80.2907H80.2648H80.2389H80.2131H80.1872H80.1613H80.1354H80.1095H80.0836H80.0578H80.0319H80.006H79.9801H79.9542H79.9284H79.9025H79.8766H79.8507H79.8249H79.799H79.7731H79.7472H79.7213H79.6955H79.6696H79.6437H79.6179H79.592H79.5661H79.5402H79.5144H79.4885H79.4626H79.4368H79.4109H79.385H79.3591H79.3333H79.3074H79.2815H79.2557H79.2298H79.2039H79.1781H79.1522H79.1263H79.1005H79.0746H79.0488H79.0229H78.997H78.9712H78.9453H78.9194H78.8936H78.8677H78.8419H78.816H78.7901H78.7643H78.7384H78.7126H78.6609H78.635H78.6091H78.5833H78.5574H78.5316H78.5057H78.4799H78.454H78.4282H78.4023H78.3765H78.3506H78.3248H78.2989H78.2731H78.2472H78.2214H78.1955H78.1697H78.1438H78.118H78.0921H78.0663H78.0404H78.0146H77.9887H77.9629H77.937H77.9112H77.8853H77.8595H77.8337H77.8078H77.782H77.7561H77.7303H77.7044H77.6786H77.6528H77.6269H77.6011H77.5752H77.5494H77.5236H77.4977H77.4719H77.446H77.4202H77.3944H77.3685H77.3427H77.3169H77.291H77.2652H77.2394H77.2135H77.1877H77.1619H77.136H77.1102H77.0844H77.0585H77.0327H77.0069H76.981H76.9552H76.9294H76.9035H76.8777H76.8519H76.826H76.8002H76.7744H76.7486H76.7227H76.6969H76.6711H76.6452H76.6194H76.5936H76.5678H76.5419H76.5161H76.4903H76.4645H76.4386H76.4128H76.387H76.3612H76.3354H76.3095H76.2837H76.2579H76.2321H76.2062H76.1804H76.1546H76.1288H76.103H76.0771H76.0513H76.0255H75.9997H75.9739H75.9481H75.9222H75.8964H75.8706H75.8448H75.819H75.7932H75.7673H75.7415H75.7157H75.6899H75.6641H75.6383H75.6124H75.5866H75.5608H75.535H75.5092H75.4834H75.4576H75.4318H75.4059H75.3801H75.3543H75.3285H75.3027H75.2769H75.2511H75.2253H75.1995H75.1737H75.1479H75.122H75.0962H75.0704H75.0446H75.0188H74.993H74.9672H74.9414H74.9156H74.8898H74.864H74.8382H74.8124H74.7866H74.7608H74.735H74.7091H74.6833H74.2705H70.97H70.5576H70.5318H70.5061H70.4803H70.4545H70.4287H70.403H70.3772H70.3514H70.3256H70.2999H70.2741H70.2483H70.2226H70.1968H70.171H70.1452H70.1195H70.0937H70.0679H70.0422H70.0164H69.9906H69.9649H69.9391H69.9133H69.8875H69.8618H69.836H69.8102H69.7845H69.7587H69.7329H69.7072H69.6814H69.6556H69.6298H69.6041H69.5783H69.5525H69.5268H69.501H69.4752H69.4495H69.4237H69.3979H69.3722H69.3464H69.3206H69.2948H69.2691H69.2433H69.2175H69.1918H69.166H69.1402H69.1145H69.0887H69.0629H69.0372H69.0114H68.9856H68.9599H68.9341H68.9083H68.8826H68.8568H68.831H68.8053H68.7795H68.7537H68.728H68.7022H68.6764H68.6506H68.6249H68.5991H68.5733H68.5476H68.5218H68.496H68.4703H68.4445H68.4187H68.393H68.3672H68.3414H68.3157H68.2899H68.2641H68.2384H68.2126H68.1868H68.1611H68.1353H68.1095H68.0838H68.058H68.0322H68.0065H67.9807H67.9549H67.9292H67.9259C67.5886 69.7973 67.3865 69.5406 67.2699 69.2497C67.1257 68.89 67.0794 68.3929 67.2083 67.7368C67.5355 66.1443 68.1554 64.7721 69.2007 63.6483C70.1558 62.6369 71.3636 61.9967 72.8033 61.7009L72.8151 61.6984L72.8269 61.6957C72.9994 61.6559 73.1584 61.6276 73.36 61.5918C73.4654 61.573 73.5825 61.5522 73.7191 61.5265L73.7365 59.5642C71.2028 59.0426 69.995 57.0062 70.3019 55.1306L70.302 55.1306L70.3036 55.12C70.495 53.8662 70.9997 53.0173 71.638 52.4809C72.2799 51.9414 73.1367 51.6511 74.1475 51.6604L74.1494 51.6604C76.6775 51.6787 77.9304 53.2674 78.1393 54.8925C78.3271 56.459 77.8759 57.518 77.2231 58.2298C76.5433 58.971 75.5754 59.4076 74.6618 59.5567L74.5939 61.5171C74.9035 61.5899 75.1631 61.6435 75.3924 61.6909C75.8147 61.778 76.1344 61.844 76.4745 61.97L76.4821 61.9728L76.4898 61.9755Z" stroke="white" stroke-width="2"/>
<path d="M8.77278 1H8.66173H8.1287H7.99544H7.46241H7.19589M8.77278 1L12.8371 6.97437C12.5067 8.5606 11.6353 9.65512 10.3511 10.3219C10.1263 10.2556 9.90583 10.1943 9.69617 10.1361C9.46187 10.071 9.24107 10.0097 9.04278 9.94911L8.8306 10.6435L8.82138 10.6737L8.75056 10.9055V10.9349L8.74298 10.9303L8.60958 10.8493M8.77278 1L8.31646 1.88982C8.60858 2.03962 8.94579 2.19046 9.24895 2.32608C9.40796 2.39721 9.55761 2.46415 9.68647 2.52455C10.1075 2.72193 10.4447 2.90738 10.7136 3.12693C11.804 4.0313 12.1712 5.29724 11.859 6.76651L11.8581 6.77042C11.6735 7.65686 11.2983 8.31361 10.7863 8.80234C10.268 9.29708 9.56019 9.66606 8.64616 9.8897L8.60641 9.89943L8.5676 9.91236C8.53525 9.92315 8.50759 9.93327 8.48692 9.94102L8.46146 9.95067L8.45009 9.955C8.45588 9.95291 8.47142 9.94747 8.49141 9.94164C8.50738 9.93699 8.53511 9.9294 8.57097 9.92249C8.57252 9.92219 8.57408 9.92189 8.57566 9.92159C8.59466 9.91803 8.62027 9.91383 8.65127 9.91061C8.68006 9.90761 8.71348 9.90547 8.75056 9.90547L8.71245 10.1606L8.69323 10.2893L8.60958 10.8493M8.77278 1L5.25335 8.82713M7.19589 1C6.21867 1.31093 5.28587 1.66629 4.53074 2.3992M7.19589 1V2H7.19641H7.19693H7.19745H7.19797H7.19849H7.19901H7.19954H7.20006H7.20058H7.2011H7.20162H7.20214H7.20266H7.20318H7.2037H7.20422H7.20474H7.20526H7.20578H7.2063H7.20682H7.20734H7.20786H7.20838H7.2089H7.20943H7.20995H7.21047H7.21099H7.21151H7.21203H7.21255H7.21307H7.21359H7.21411H7.21463H7.21515H7.21567H7.21619H7.21671H7.21723H7.21775H7.21827H7.2188H7.21932H7.21984H7.22036H7.22088H7.2214H7.22192H7.22244H7.22296H7.22348H7.224H7.22452H7.22504H7.22556H7.22608H7.2266H7.22712H7.22764H7.22816H7.22869H7.22921H7.22973H7.23025H7.23077H7.23129H7.23181H7.23233H7.23285H7.23337H7.23389H7.23441H7.23493H7.23545H7.23597H7.23649H7.23701H7.23753H7.23806H7.23858H7.2391H7.23962H7.24014H7.24066H7.24118H7.2417H7.24222H7.24274H7.24326H7.24378H7.2443H7.24482H7.24534H7.24586H7.24638H7.2469H7.24743H7.24795H7.24847H7.24899H7.24951H7.25003H7.25055H7.25107H7.25159H7.25211H7.25263H7.25315H7.25367H7.25419H7.25471H7.25523H7.25575H7.25627H7.25679H7.25732H7.25784H7.25836H7.25888H7.2594H7.25992H7.26044H7.26096H7.26148H7.262H7.26252H7.26304H7.26356H7.26408H7.2646H7.26512H7.26564H7.26616H7.26669H7.26721H7.26773H7.26825H7.26877H7.26929H7.26981H7.27033H7.27085H7.27137H7.27189H7.27241H7.27293H7.27345H7.27397H7.27449H7.27501H7.27553H7.27605H7.27658H7.2771H7.27762H7.27814H7.27866H7.27918H7.2797H7.28022H7.28074H7.28126H7.28178H7.2823H7.28282H7.28334H7.28386H7.28438H7.2849H7.28542H7.28594H7.28647H7.28699H7.28751H7.28803H7.28855H7.28907H7.28959H7.29011H7.29063H7.29115H7.29167H7.29219H7.29271H7.29323H7.29375H7.29427H7.29479H7.29531H7.29584H7.29636H7.29688H7.2974H7.29792H7.29844H7.29896H7.29948H7.3H7.30052H7.30104H7.30156H7.30208H7.3026H7.30312H7.30364H7.30416H7.30468H7.30521H7.30573H7.30625H7.30677H7.30729H7.30781H7.30833H7.30885H7.30937H7.30989H7.31041H7.31093H7.31145H7.31197H7.31249H7.31301H7.31353H7.31405H7.31458H7.3151H7.31562H7.31614H7.31666H7.31718H7.3177H7.31822H7.31874H7.31926H7.31978H7.3203H7.32082H7.32134H7.32186H7.32238H7.3229H7.32342H7.32395H7.32447H7.32499H7.32551H7.32603H7.32655H7.32707H7.32759H7.32811H7.32863H7.32915H7.32967H7.33019H7.33071H7.33123H7.33175H7.33227H7.33279H7.33331H7.33384H7.33436H7.33488H7.3354H7.33592H7.33644H7.33696H7.33748H7.338H7.33852H7.33904H7.33956H7.34008H7.3406H7.34112H7.34164H7.34216H7.34268H7.3432H7.34373H7.34425H7.34477H7.34529H7.34581H7.34633H7.34685H7.34737H7.34789H7.34841H7.34893H7.34945H7.34997H7.35049H7.35101H7.35153H7.35205H7.35257H7.35288M7.19589 1L7.46241 1.83763L7.49909 1.95293C7.48683 1.95683 7.4746 1.96073 7.46241 1.96463C7.42557 1.97642 7.38906 1.9882 7.35288 2M4.53074 2.3992C2.68735 4.19818 2.53189 7.32973 4.26424 9.17312C4.30866 9.22865 4.35308 9.28972 4.39749 9.3508C4.44191 9.41187 4.48632 9.47295 4.53074 9.52847M4.53074 2.3992L5.22722 3.11678C5.22755 3.11646 5.22788 3.11615 5.22821 3.11583M4.53074 2.3992L5.22918 3.11488C5.22885 3.1152 5.22853 3.11551 5.22821 3.11583M4.53074 9.52847C4.55295 9.55068 4.57516 9.56734 4.59738 9.584C4.61959 9.60066 4.6418 9.61731 4.66401 9.63952M4.53074 9.52847L4.92426 9.21366L4.66401 9.63952M4.53074 9.52847L5.04793 9.01129L5.18546 8.78624C5.20011 8.7952 5.21474 8.80412 5.22933 8.81303C5.21106 8.79553 5.19487 8.7823 5.18949 8.77802M4.66401 9.63952C5.02458 9.85987 5.38515 10.0757 5.72942 10.2809C5.78265 10.2654 5.83402 10.2505 5.88374 10.236C6.13862 10.1621 6.35049 10.1007 6.55056 10.0297L6.88497 10.9721L6.36599 11.8269C6.14627 11.6935 5.88155 11.5355 5.59504 11.3649C5.17104 11.4959 4.7275 11.6511 4.30865 11.8605C2.02106 12.9932 0.666282 14.9032 0.133252 17.3907C0.118445 17.4499 0.0838964 17.5091 0.0493481 17.5683C0.0320765 17.598 0.0148049 17.6276 0 17.6572M4.66401 9.63952L5.37112 8.93242C5.32932 8.89062 5.28824 8.85535 5.25612 8.82937M0 17.6572V20.0558M0 17.6572H1V17.6619V17.6665V17.6712V17.6759V17.6806V17.6853V17.69V17.6947V17.6993V17.704V17.7087V17.7134V17.7181V17.7228V17.7274V17.7321V17.7368V17.7415V17.7462V17.7509V17.7556V17.7602V17.7649V17.7696V17.7743V17.779V17.7837V17.7884V17.793V17.7977V17.8024V17.8071V17.8118V17.8165V17.8211V17.8258V17.8305V17.8352V17.8399V17.8446V17.8493V17.8539V17.8586V17.8633V17.868V17.8727V17.8774V17.882V17.8867V17.8914V17.8961V17.9008V17.9055V17.9102V17.913M0 17.6572L0.894427 18.1044C0.893542 18.1062 0.892984 18.1072 0.892989 18.1072C0.892999 18.1072 0.895385 18.1028 0.902183 18.091C0.903123 18.0894 0.9049 18.0864 0.907268 18.0823C0.916309 18.0668 0.933964 18.0365 0.946545 18.0142C0.959039 17.9919 0.978364 17.9574 1 17.913M0 20.0558L0.266518 20.4556M0 20.0558L0.83205 19.5011L0.965306 19.701L1 19.753M0 20.0558H0.841192L0.266518 20.4556M0.266518 20.4556C0.621871 20.9664 1.06605 21.3662 1.68792 21.3662C5.8189 21.3884 9.97209 21.3884 14.1253 21.3662C15.0581 21.3662 15.9687 20.5222 15.9687 19.6782V19.6782C15.9687 18.9453 15.9687 18.1902 15.8354 17.4573M0.266518 20.4556L0.866178 20.0558H1V20.0511V20.0464V20.0418V20.0371V20.0324V20.0277V20.023V20.0183V20.0136V20.009V20.0043V19.9996V19.9949V19.9902V19.9855V19.9809V19.9762V19.9715V19.9668V19.9666L1.09857 19.9009L1.09269 19.8921M15.8354 17.4573C15.3246 14.7033 13.7477 12.7489 11.1714 11.6606C10.9265 11.5585 10.6795 11.4711 10.4317 11.3918C10.0341 11.5675 9.61351 11.709 9.17487 11.8192C9.16919 11.8213 9.1617 11.8242 9.15163 11.8279L9.15132 11.828C9.13696 11.8334 9.09776 11.8481 9.05135 11.8617C9.02637 11.8689 8.98928 11.8789 8.9442 11.8873C8.90062 11.8955 8.83312 11.9055 8.75056 11.9055V11.3712L8.59095 11.4278L8.51937 11.4532M15.8354 17.4573L14.8522 17.6397C14.8521 17.6391 14.852 17.6384 14.8519 17.6378M15.8354 17.4573L14.8515 17.6362C14.8516 17.6367 14.8518 17.6373 14.8519 17.6378M8.51937 11.4532L8.60958 10.8493M8.51937 11.4532L8.45834 11.8618C8.76229 11.9547 9.04052 12.0316 9.30406 12.1045C9.8267 12.249 10.2915 12.3775 10.7845 12.5827M8.51937 11.4532L7.21938 11.9145C6.96717 12.004 6.65668 12.0944 6.36096 12.1805C6.22255 12.2208 6.08738 12.2601 5.96292 12.298C5.53356 12.4287 5.12474 12.5705 4.75586 12.7549L4.75238 12.7566L4.75238 12.7566C2.76663 13.7399 1.58709 15.3787 1.11105 17.6002L1.1075 17.6168L1.10339 17.6332C1.07545 17.745 1.03474 17.8417 1 17.913M8.60958 10.8493L7.40394 10.1173C7.10931 9.93842 6.80507 9.75739 6.48655 9.56787C6.1002 9.33799 5.69284 9.0956 5.25612 8.82937M5.25612 8.82937C5.25544 8.82895 5.25476 8.82854 5.25408 8.82812C5.25384 8.82779 5.25359 8.82746 5.25335 8.82713M5.25612 8.82937C5.25519 8.82862 5.25426 8.82787 5.25335 8.82713M5.18949 8.77802C5.19105 8.77922 5.19361 8.78118 5.19734 8.78397C5.19844 8.78479 5.19975 8.78577 5.20127 8.78691C5.21113 8.79425 5.22965 8.80805 5.25335 8.82713M5.18949 8.77802C5.18829 8.77706 5.18763 8.77655 5.1876 8.77654C5.18758 8.77653 5.18818 8.77701 5.18949 8.77802ZM5.25335 8.82713C5.23953 8.80837 5.22407 8.78716 5.20624 8.76265L5.20137 8.75595C5.16021 8.69933 5.10413 8.6222 5.04511 8.54843L5.02023 8.51733L4.99295 8.4883C3.6606 7.07054 3.74743 4.56198 5.22821 3.11583M5.25335 8.82713L8.1287 2H8.12844H8.12818H8.12792H8.12766H8.12739H8.12713H8.12687H8.12661H8.12635H8.12609H8.12583H8.12557H8.12531H8.12505H8.12479H8.12453H8.12427H8.12401H8.12375H8.12349H8.12323H8.12297H8.12271H8.12245H8.12219H8.12193H8.12167H8.12141H8.12115H8.12089H8.12063H8.12037H8.12011H8.11985H8.11959H8.11933H8.11907H8.11881H8.11855H8.11829H8.11802H8.11776H8.11751H8.11724H8.11698H8.11672H8.11646H8.1162H8.11594H8.11568H8.11542H8.11516H8.1149H8.11464H8.11438H8.11412H8.11386H8.1136H8.11334H8.11308H8.11282H8.11256H8.1123H8.11204H8.11178H8.11152H8.11126H8.111H8.11074H8.11048H8.11022H8.10996H8.1097H8.10944H8.10918H8.10892H8.10866H8.1084H8.10814H8.10787H8.10761H8.10735H8.10709H8.10683H8.10657H8.10631H8.10605H8.10579H8.10553H8.10527H8.10501H8.10475H8.10449H8.10423H8.10397H8.10371H8.10345H8.10319H8.10293H8.10267H8.10241H8.10215H8.10189H8.10163H8.10137H8.10111H8.10085H8.10059H8.10033H8.10007H8.09981H8.09955H8.09929H8.09903H8.09877H8.09851H8.09825H8.09799H8.09772H8.09746H8.0972H8.09694H8.09668H8.09642H8.09616H8.0959H8.09564H8.09538H8.09512H8.09486H8.0946H8.09434H8.09408H8.09382H8.09356H8.0933H8.09304H8.09278H8.09252H8.09226H8.092H8.09174H8.09148H8.09122H8.09096H8.0907H8.09044H8.09018H8.08992H8.08966H8.0894H8.08914H8.08888H8.08862H8.08836H8.0881H8.08784H8.08757H8.08731H8.08705H8.08679H8.08653H8.08627H8.08601H8.08575H8.08549H8.08523H8.08497H8.08471H8.08445H8.08419H8.08393H8.08367H8.08341H8.08315H8.08289H8.08263H8.08237H8.08211H8.08185H8.08159H8.08133H8.08107H8.08081H8.08055H8.08029H8.08003H8.07977H8.07951H8.07925H8.07899H8.07873H8.07847H8.07821H8.07795H8.07769H8.07743H8.07716H8.0769H8.07664H8.07638H8.07612H8.07586H8.0756H8.07534H8.07508H8.07482H8.07456H8.0743H8.07404H8.07378H8.07352H8.07326H8.073H8.07274H8.07248H8.07222H8.07196H8.0717H8.07144H8.07118H8.07092H8.07066H8.0704H8.07014H8.06988H8.06962H8.06936H8.0691H8.06884H8.06858H8.06832H8.06806H8.0678H8.06754H8.06728H8.06701H8.06675H8.06649H8.06623H8.06597H8.06571H8.06545H8.06519H8.06493H8.06467H8.06441H8.06415H8.06389H8.06363H8.06337H8.06311H8.06285H8.06259H8.06233H8.06207H8.06181H8.06155H8.06129H8.06103H8.06077H8.06051H8.06025H8.05999H8.05973H8.05947H8.05921H8.05895H8.05869H8.05843H8.05817H8.05791H8.05765H8.05739H8.05713H8.05686H8.0566H8.05634H8.05608H8.05582H8.05556H8.0553H8.05504H8.05478H8.05452H8.05426H8.054H8.05374H8.05348H8.05322H8.05296H8.0527H8.05244H8.05218H8.05192H8.05166H8.0514H8.05114H8.05088H8.05062H8.05036H8.0501H8.04984H8.04958H8.04932H8.04906H8.0488H8.04854H8.04828H8.04802H8.04776H8.0475H8.04724H8.04698H8.04671H8.04645H8.0462H8.04593H8.04567H8.04541H8.04515H8.04489H8.04463H8.04437H8.04411H8.04385H8.04359H8.04333H8.04307H8.04281H8.04255H8.04229H8.04203H8.04177H8.04151H8.04125H8.04099H8.04073H8.04047H8.04021H8.03995H8.03969H8.03943H8.03917H8.03891H8.03865H8.03839H8.03813H8.03787H8.03761H8.03735H8.03709H8.03683H8.03656H8.03631H8.03605H8.03578H8.03552H8.03526H8.035H8.03474H8.03448H8.03422H8.03396H8.0337H8.03344H8.03318H8.03292H8.03266H8.0324H8.03214H8.03188H8.03162H8.03136H8.0311H8.03084H8.03058H8.03032H8.03006H8.0298H8.02954H8.02928H8.02902H8.02876H8.0285H8.02824H8.02798H8.02772H8.02746H8.0272H8.02694H8.02668H8.02641H8.02615H8.0259H8.02563H8.02537H8.02511H8.02485H8.02459H8.02433H8.02407H8.02381H8.02355H8.02329H8.02303H8.02277H8.02251H8.02225H8.02199H8.02173H8.02147H8.02121H8.02095H8.02069H8.02043H8.02017H8.01991H8.01965H8.01939H8.01913H8.01887H8.01861H8.01835H8.01809H8.01783H8.01757H8.01731H8.01705H8.01679H8.01653H8.01626H8.016H8.01574H8.01548H8.01522H8.01496H8.0147H8.01444H8.01418H8.01392H8.01366H8.0134H8.01314H8.01288H8.01262H8.01236H8.0121H8.01184H8.01158H8.01132H8.01106H8.0108H8.01054H8.01028H8.01002H8.00976H8.0095H8.00924H8.00898H8.00872H8.00846H8.0082H8.00794H8.00768H8.00742H8.00716H8.0069H8.00664H8.00638H8.00611H8.00585H8.00559H8.00533H8.00507H8.00481H8.00455H8.00429H8.00403H8.00377H8.00351H8.00325H8.00299H8.00273H8.00247H8.00221H8.00195H8.00169H8.00143H8.00117H8.00091H8.00065H8.00039H8.00013H7.99987H7.99961H7.99935H7.99909H7.99883H7.99857H7.99831H7.99805H7.99779H7.99753H7.99727H7.99701H7.99675H7.99649H7.99622H7.99596H7.9957H7.99544H7.9944H7.99336H7.99232H7.99128H7.99024H7.9892H7.98816H7.98712H7.98607H7.98503H7.98399H7.98295H7.98191H7.98087H7.97983H7.97879H7.97775H7.9767H7.97566H7.97462H7.97358H7.97254H7.9715H7.97046H7.96942H7.96838H7.96734H7.96629H7.96525H7.96421H7.96317H7.96213H7.96109H7.96005H7.95901H7.95797H7.95692H7.95588H7.95484H7.9538H7.95276H7.95172H7.95068H7.94964H7.9486H7.94755H7.94651H7.94547H7.94443H7.94339H7.94235H7.94131H7.94027H7.93923H7.93818H7.93714H7.9361H7.93506H7.93402H7.93298H7.93194H7.9309H7.92986H7.92881H7.92777H7.92673H7.92569H7.92465H7.92361H7.92257H7.92153H7.92049H7.91945H7.9184H7.91736H7.91632H7.91528H7.91424H7.9132H7.91216H7.91112H7.91008H7.90903H7.90799H7.90695H7.90591H7.90487H7.90383H7.90279H7.90175H7.90071H7.89966H7.89862H7.89758H7.89654H7.8955H7.89446H7.89342H7.89238H7.89134H7.8903H7.88925H7.88821H7.88717H7.88613H7.88509H7.88405H7.88301H7.88197H7.88093H7.87988H7.87884H7.8778H7.87676H7.87572H7.87468H7.87364H7.8726H7.87156H7.87051H7.86947H7.86843H7.86739H7.86635H7.86531H7.86427H7.86323H7.86219H7.86114H7.8601H7.85906H7.85802H7.85698H7.85594H7.8549H7.85386H7.85282H7.85178H7.85073H7.84969H7.84865H7.84761H7.84657H7.84553H7.84449H7.84345H7.84241H7.84136H7.84032H7.83928H7.83824H7.8372H7.83616H7.83512H7.83408H7.83304H7.83199H7.83095H7.82991H7.82887H7.82783H7.82679H7.82575H7.82471H7.82367H7.82262H7.82158H7.82054H7.8195H7.81846H7.81742H7.81638H7.81534H7.8143H7.81325H7.81221H7.81117H7.81013H7.80909H7.80805H7.80701H7.80597H7.80493H7.80388H7.80284H7.8018H7.80076H7.79972H7.79868H7.79764H7.7966H7.79556H7.79452H7.79347H7.79243H7.79139H7.79035H7.78931H7.78827H7.78723H7.78619H7.78515H7.7841H7.78306H7.78202H7.78098H7.77994H7.7789H7.77786H7.77682H7.77578H7.77473H7.77369H7.77265H7.77161H7.77057H7.76953H7.76849H7.76745H7.76641H7.76536H7.76432H7.76328H7.76224H7.7612H7.76016H7.75912H7.75808H7.75704H7.75599H7.75495H7.75391H7.75287H7.75183H7.75079H7.74975H7.74871H7.74767H7.74662H7.74558H7.74454H7.7435H7.74246H7.74142H7.74038H7.73934H7.7383H7.73726H7.73621H7.73517H7.73413H7.73309H7.73205H7.73101H7.72997H7.72893H7.72789H7.72684H7.7258H7.72476H7.72372H7.72268H7.72164H7.7206H7.71956H7.71852H7.71747H7.71643H7.71539H7.71435H7.71331H7.71227H7.71123H7.71019H7.70915H7.7081H7.70706H7.70602H7.70498H7.70394H7.7029H7.70186H7.70082H7.69978H7.69873H7.69769H7.69665H7.69561H7.69457H7.69353H7.69249H7.69145H7.69041H7.68937H7.68832H7.68728H7.68624H7.6852H7.68416H7.68312H7.68208H7.68104H7.68H7.67895H7.67791H7.67687H7.67583H7.67479H7.67375H7.67271H7.67167H7.67063H7.66958H7.66854H7.6675H7.66646H7.66542H7.66438H7.66334H7.6623H7.66126H7.66021H7.65917H7.65813H7.65709H7.65605H7.65501H7.65397H7.65293H7.65189H7.65085H7.6498H7.64876H7.64772H7.64668H7.64564H7.6446H7.64356H7.64252H7.64148H7.64043H7.63939H7.63835H7.63731H7.63627H7.63523H7.63419H7.63315H7.63211H7.63106H7.63002H7.62898H7.62794H7.6269H7.62586H7.62482H7.62378H7.62274H7.62169H7.62065H7.61961H7.61857H7.61753H7.61649H7.61545H7.61441H7.61337H7.61232H7.61128H7.61024H7.6092H7.60816H7.60712H7.60608H7.60504H7.604H7.60295H7.60191H7.60087H7.59983H7.59879H7.59775H7.59671H7.59567H7.59463H7.59359H7.59254H7.5915H7.59046H7.58942H7.58838H7.58734H7.5863H7.58526H7.58422H7.58317H7.58213H7.58109H7.58005H7.57901H7.57797H7.57693H7.57589H7.57485H7.5738H7.57276H7.57172H7.57068H7.56964H7.5686H7.56756H7.56652H7.56548H7.56443H7.56339H7.56235H7.56131H7.56027H7.55923H7.55819H7.55715H7.55611H7.55507H7.55402H7.55298H7.55194H7.5509H7.54986H7.54882H7.54778H7.54674H7.5457H7.54465H7.54361H7.54257H7.54153H7.54049H7.53945H7.53841H7.53737H7.53633H7.53528H7.53424H7.5332H7.53216H7.53112H7.53008H7.52904H7.528H7.52696H7.52591H7.52487H7.52383H7.52279H7.52175H7.52071H7.51967H7.51863H7.51759H7.51654H7.5155H7.51446H7.51342H7.51238H7.51134H7.5103H7.50926H7.50822H7.50718H7.50613H7.50509H7.50405H7.50301H7.50197H7.50093H7.49989H7.49885H7.49781H7.49676H7.49572H7.49468H7.49364H7.4926H7.49156H7.49052H7.48948H7.48844H7.48739H7.48635H7.48531H7.48427H7.48323H7.48219H7.48115H7.48011H7.47907H7.47802H7.47698H7.47594H7.4749H7.47386H7.47282H7.47178H7.47074H7.4697H7.46866H7.46761H7.46657H7.46553H7.46449H7.46345H7.46241H7.46189H7.46137H7.46085H7.46033H7.45981H7.45929H7.45877H7.45824H7.45772H7.4572H7.45668H7.45616H7.45564H7.45512H7.4546H7.45408H7.45356H7.45304H7.45252H7.452H7.45148H7.45096H7.45044H7.44992H7.4494H7.44887H7.44835H7.44783H7.44731H7.44679H7.44627H7.44575H7.44523H7.44471H7.44419H7.44367H7.44315H7.44263H7.44211H7.44159H7.44107H7.44055H7.44003H7.43951H7.43898H7.43846H7.43794H7.43742H7.4369H7.43638H7.43586H7.43534H7.43482H7.4343H7.43378H7.43326H7.43274H7.43222H7.4317H7.43118H7.43066H7.43014H7.42962H7.42909H7.42857H7.42805H7.42753H7.42701H7.42649H7.42597H7.42545H7.42493H7.42441H7.42389H7.42337H7.42285H7.42233H7.42181H7.42129H7.42077H7.42025H7.41972H7.4192H7.41868H7.41816H7.41764H7.41712H7.4166H7.41608H7.41556H7.41504H7.41452H7.414H7.41348H7.41296H7.41244H7.41192H7.4114H7.41088H7.41036H7.40983H7.40931H7.40879H7.40827H7.40775H7.40723H7.40671H7.40619H7.40567H7.40515H7.40463H7.40411H7.40359H7.40307H7.40255H7.40203H7.40151H7.40099H7.40047H7.39994H7.39942H7.3989H7.39838H7.39786H7.39734H7.39682H7.3963H7.39578H7.39526H7.39474H7.39422H7.3937H7.39318H7.39266H7.39214H7.39162H7.3911H7.39057H7.39005H7.38953H7.38901H7.38849H7.38797H7.38745H7.38693H7.38641H7.38589H7.38537H7.38485H7.38433H7.38381H7.38329H7.38277H7.38225H7.38173H7.3812H7.38068H7.38016H7.37964H7.37912H7.3786H7.37808H7.37756H7.37704H7.37652H7.376H7.37548H7.37496H7.37444H7.37392H7.3734H7.37288H7.37236H7.37183H7.37131H7.37079H7.37027H7.36975H7.36923H7.36871H7.36819H7.36767H7.36715H7.36663H7.36611H7.36559H7.36507H7.36455H7.36403H7.36351H7.36299H7.36246H7.36194H7.36142H7.3609H7.36038H7.35986H7.35934H7.35882H7.3583H7.35778H7.35726H7.35674H7.35622H7.3557H7.35518H7.35466H7.35414H7.35362H7.3531H7.35288M5.22821 3.11583C5.77384 2.58669 6.46315 2.29009 7.35288 2M10.7845 12.5827C13.0502 13.5405 14.4023 15.217 14.8519 17.6378M10.7845 12.5827C10.7853 12.583 10.786 12.5834 10.7868 12.5837L11.1714 11.6607L10.7823 12.5818C10.783 12.5821 10.7838 12.5824 10.7845 12.5827ZM1 17.913V17.9148V17.9195V17.9242V17.9289V17.9336V17.9383V17.943V17.9476V17.9523V17.957V17.9617V17.9664V17.9711V17.9757V17.9804V17.9851V17.9898V17.9945V17.9992V18.0039V18.0085V18.0132V18.0179V18.0226V18.0273V18.032V18.0366V18.0413V18.046V18.0507V18.0554V18.0601V18.0648V18.0694V18.0741V18.0788V18.0835V18.0882V18.0929V18.0976V18.1022V18.1069V18.1116V18.1163V18.121V18.1257V18.1303V18.135V18.1397V18.1444V18.1491V18.1538V18.1585V18.1631V18.1678V18.1725V18.1772V18.1819V18.1866V18.1912V18.1959V18.2006V18.2053V18.21V18.2147V18.2194V18.224V18.2287V18.2334V18.2381V18.2428V18.2475V18.2521V18.2568V18.2615V18.2662V18.2709V18.2756V18.2803V18.2849V18.2896V18.2943V18.299V18.3037V18.3084V18.3131V18.3177V18.3224V18.3271V18.3318V18.3365V18.3412V18.3458V18.3505V18.3552V18.3599V18.3646V18.3693V18.374V18.3786V18.3833V18.388V18.3927V18.3974V18.4021V18.4067V18.4114V18.4161V18.4208V18.4255V18.4302V18.4349V18.4395V18.4442V18.4489V18.4536V18.4583V18.463V18.4677V18.4723V18.477V18.4817V18.4864V18.4911V18.4958V18.5004V18.5051V18.5098V18.5145V18.5192V18.5239V18.5286V18.5332V18.5379V18.5426V18.5473V18.552V18.5567V18.5613V18.566V18.5707V18.5754V18.5801V18.5848V18.5895V18.5941V18.5988V18.6035V18.6082V18.6129V18.6176V18.6223V18.6269V18.6316V18.6363V18.641V18.6457V18.6504V18.655V18.6597V18.6644V18.6691V18.6738V18.6785V18.6832V18.6878V18.6925V18.6972V18.7019V18.7066V18.7113V18.7159V18.7206V18.7253V18.73V18.7347V18.7394V18.7441V18.7487V18.7534V18.7581V18.7628V18.7675V18.7722V18.7768V18.7815V18.7862V18.7909V18.7956V18.8003V18.805V18.8096V18.8143V18.819V18.8237V18.8284V18.8331V18.8378V18.8424V18.8471V18.8518V18.8565V18.8612V18.8659V18.8705V18.8752V18.8799V18.8846V18.8893V18.894V18.8987V18.9033V18.908V18.9127V18.9174V18.9221V18.9268V18.9314V18.9361V18.9408V18.9455V18.9502V18.9549V18.9596V18.9642V18.9689V18.9736V18.9783V18.983V18.9877V18.9924V18.997V19.0017V19.0064V19.0111V19.0158V19.0205V19.0251V19.0298V19.0345V19.0392V19.0439V19.0486V19.0533V19.0579V19.0626V19.0673V19.072V19.0767V19.0814V19.086V19.0907V19.0954V19.1001V19.1048V19.1095V19.1142V19.1188V19.1235V19.1282V19.1329V19.1376V19.1423V19.147V19.1516V19.1563V19.161V19.1657V19.1704V19.1751V19.1797V19.1844V19.1891V19.1938V19.1985V19.2032V19.2079V19.2125V19.2172V19.2219V19.2266V19.2313V19.236V19.2406V19.2453V19.25V19.2547V19.2594V19.2641V19.2688V19.2734V19.2781V19.2828V19.2875V19.2922V19.2969V19.3015V19.3062V19.3109V19.3156V19.3203V19.325V19.3297V19.3343V19.339V19.3437V19.3484V19.3531V19.3578V19.3625V19.3671V19.3718V19.3765V19.3812V19.3859V19.3906V19.3952V19.3999V19.4046V19.4093V19.414V19.4187V19.4234V19.428V19.4327V19.4374V19.4421V19.4468V19.4515V19.4562V19.4608V19.4655V19.4702V19.4749V19.4796V19.4843V19.4889V19.4936V19.4983V19.503V19.5077V19.5124V19.5171V19.5217V19.5264V19.5311V19.5358V19.5405V19.5452V19.5498V19.5545V19.5592V19.5639V19.5686V19.5733V19.578V19.5826V19.5873V19.592V19.5967V19.6014V19.6061V19.6107V19.6154V19.6201V19.6248V19.6295V19.6342V19.6389V19.6435V19.6482V19.6529V19.6576V19.6623V19.667V19.6717V19.6763V19.681V19.6857V19.6904V19.6951V19.6998V19.7044V19.7091V19.7138V19.7185V19.7232V19.7279V19.7326V19.7372V19.7419V19.7466V19.7513V19.753M1 19.753V19.756V19.7607V19.7653V19.77V19.7747V19.7794V19.7841V19.7888V19.7935V19.7981V19.8028V19.8075V19.8122V19.8169V19.8216V19.8263V19.8309V19.8356V19.8403V19.845V19.8497V19.8544V19.859V19.8637V19.8684V19.8731V19.8778V19.8825V19.8872V19.8918V19.8965V19.9012V19.9059V19.9106V19.9153V19.9199V19.9246V19.9293V19.934V19.9387V19.9434V19.9453L1.08742 19.8845C1.08918 19.887 1.09094 19.8896 1.09269 19.8921M1 19.753L1.09269 19.8921M1.09269 19.8921C1.23151 20.0904 1.35151 20.2135 1.45205 20.2841C1.53985 20.3458 1.60907 20.3662 1.68792 20.3662H1.6933C5.82068 20.3884 9.9703 20.3884 14.1199 20.3662L14.1253 20.3662C14.2981 20.3662 14.526 20.2808 14.72 20.1025C14.9198 19.9188 14.9687 19.7465 14.9687 19.6782C14.9687 18.9304 14.966 18.2667 14.8519 17.6378" stroke="white" stroke-width="2"/>
<path d="M7.97044 1C7.79276 1 7.61509 1 7.43742 1" stroke="white" stroke-width="2"/>
<path d="M8.63458 1C8.45691 1 8.27924 1 8.10156 1" stroke="white" stroke-width="2"/>
<path d="M33.8298 28.1174L33.8337 28.1174C36.0287 28.1422 37.8477 28.8985 39.1166 30.1907C40.3819 31.4792 41.0315 33.2309 41.0188 35.1207C40.9927 39.1978 37.841 42.0407 33.8955 42.0661M33.8298 28.1174L33.889 41.0661M33.8298 28.1174C30.2663 28.091 26.7401 31.299 27.0727 35.6974M33.8298 28.1174L28.0701 35.6248M33.8955 42.0661L33.889 41.0661M33.8955 42.0661C33.8956 42.0661 33.8958 42.0661 33.896 42.0661L33.889 41.0661M33.8955 42.0661C31.9794 42.0793 30.3217 41.2134 29.136 40.0149C27.9603 38.8266 27.1813 37.245 27.0727 35.6974M33.889 41.0661C30.6908 41.0883 28.2478 38.1789 28.0701 35.6248M27.0727 35.6974C27.0728 35.6985 27.0729 35.6995 27.073 35.7006L28.0701 35.6248M27.0727 35.6974C27.0727 35.6964 27.0726 35.6953 27.0725 35.6942L28.0701 35.6248M46.0226 38.115L45.4126 38.165L45.1796 38.7309C45.1129 38.8928 45.0483 39.0842 44.9989 39.2304C44.9814 39.2821 44.9659 39.3282 44.9528 39.3653C44.8915 39.5394 44.8434 39.6495 44.7929 39.7316C44.5146 40.165 44.4218 40.6527 44.5762 41.1404C44.695 41.5153 44.9434 41.8041 45.0638 41.9441C45.0682 41.9493 45.0725 41.9543 45.0766 41.959C45.3272 42.2552 45.5768 42.5472 45.8245 42.837C46.3139 43.4095 46.7957 43.9733 47.2634 44.5433L47.2634 44.5433L47.2667 44.5473C47.5367 44.8729 47.638 45.1655 47.6483 45.3924C47.6579 45.6039 47.5937 45.839 47.3732 46.0928C46.596 46.9747 45.7283 47.7802 44.807 48.5301C44.582 48.7121 44.3914 48.7517 44.2259 48.7372C44.0414 48.7211 43.7895 48.6268 43.4968 48.3746C42.5608 47.5501 41.5975 46.7211 40.631 45.9343C40.3634 45.7139 40.0578 45.6421 39.8805 45.6141C39.6787 45.5822 39.4733 45.5818 39.2951 45.604L39.2483 45.6099L39.2022 45.6201C39.0318 45.658 38.895 45.7221 38.8051 45.7696C38.7299 45.8094 38.6564 45.8551 38.6181 45.8789C38.6131 45.8821 38.6087 45.8848 38.6049 45.8871C38.6049 45.8872 38.6048 45.8872 38.6047 45.8873C38.312 45.9369 38.0289 46.0354 37.7763 46.2065C37.4847 46.4039 37.289 46.6603 37.163 46.927C36.9625 47.3514 36.9325 47.8449 36.9156 48.1249C36.914 48.1502 36.9126 48.1739 36.9112 48.1955L36.9111 48.1955L36.9107 48.2021C36.8441 49.3127 36.7792 50.389 36.6512 51.4605C36.6392 51.5285 36.5555 51.7169 36.3097 51.9165C36.064 52.1161 35.8186 52.1926 35.688 52.1926H35.6816H35.6752H35.6688H35.6625H35.6561H35.6497H35.6433H35.637H35.6306H35.6242H35.6178H35.6115H35.6051H35.5987H35.5923H35.586H35.5796H35.5732H35.5668H35.5604H35.5541H35.5477H35.5413H35.5349H35.5286H35.5222H35.5158H35.5094H35.5031H35.4967H35.4903H35.4839H35.4776H35.4712H35.4648H35.4584H35.452H35.4457H35.4393H35.4329H35.4265H35.4202H35.4138H35.4074H35.401H35.3947H35.3883H35.3819H35.3755H35.3692H35.3628H35.3564H35.35H35.3436H35.3373H35.3309H35.3245H35.3181H35.3118H35.3054H35.299H35.2926H35.2863H35.2799H35.2735H35.2671H35.2607H35.2544H35.248H35.2416H35.2352H35.2289H35.2225H35.2161H35.2097H35.2034H35.197H35.1906H35.1842H35.1779H35.1715H35.1651H35.1587H35.1523H35.146H35.1396H35.1332H35.1268H35.1205H35.1141H35.1077H35.1013H35.095H35.0886H35.0822H35.0758H35.0695H35.0631H35.0567H35.0503H35.0439H35.0376H35.0312H35.0248H35.0184H35.0121H35.0057H34.9993H34.9929H34.9866H34.9802H34.9738H34.9674H34.961H34.9547H34.9483H34.9419H34.9355H34.9292H34.9228H34.9164H34.91H34.9037H34.8973H34.8909H34.8845H34.8782H34.8718H34.8654H34.859H34.8526H34.8463H34.8399H34.8335H34.8271H34.8208H34.8144H34.808H34.8016H34.7953H34.7889H34.7825H34.7761H34.7698H34.7634H34.757H34.7506H34.7442H34.7379H34.7315H34.7251H34.7187H34.7124H34.706H34.6996H34.6932H34.6869H34.6805H34.6741H34.6677H34.6613H34.655H34.6486H34.6422H34.6358H34.6295H34.6231H34.6167H34.6103H34.604H34.5976H34.5912H34.5848H34.5785H34.5721H34.5657H34.5593H34.5529H34.5466H34.5402H34.5338H34.5274H34.5211H34.5147H34.5083H34.5019H34.4956H34.4892H34.4828H34.4764H34.47H34.4637H34.4573H34.4509H34.4445H34.4382H34.4318H34.4254H34.419H34.4127H34.4063H34.3999H34.3935H34.3872H34.3808H34.3744H34.368H34.3616H34.3553H34.3489H34.3425H34.3361H34.3298H34.3234H34.317H34.3106H34.3043H34.2979H34.2915H34.2851H34.2788H34.2724H34.266H34.2596H34.2532H34.2469H34.2405H34.2341H34.2277H34.2214H34.215H34.2086H34.2022H34.1959H34.1895H34.1831H34.1767H34.1703H34.164H34.1576H34.1512H34.1448H34.1385H34.1321H34.1257H34.1193H34.113H34.1066H34.1002H34.0938H34.0875H34.0811H34.0747H34.0683H34.0619H34.0556H34.0492H34.0428H34.0364H34.0301H34.0237H34.0173H34.0109H34.0046H33.9982H33.9918H33.9854H33.979H33.9727H33.9663H33.9599H33.9535H33.9472H33.9408H33.9344H33.928H33.9217H33.9153H33.9089H33.9025H33.8962H33.8898H33.8834H33.877H33.8706H33.8643H33.8579H33.8515H33.8451H33.8388H33.8324H33.826H33.8196H33.8133H33.8069H33.8005H33.7941H33.7878H33.7814H33.775H33.7686H33.7622H33.7559H33.7495H33.7431H33.7367H33.7304H33.724H33.7176H33.7112H33.7049H33.6985H33.6921H33.6857H33.6793H33.673H33.6666H33.6602H33.6538H33.6475H33.6411H33.6347H33.6283H33.622H33.6156H33.6092H33.6028H33.5965H33.5901H33.5837H33.5773H33.5709H33.5646H33.5582H33.5518H33.5454H33.5391H33.5327H33.5263H33.5199H33.5136H33.5072H33.5008H33.4944H33.4881H33.4817H33.4753H33.4689H33.4625H33.4562H33.4498H33.4434H33.437H33.4307H33.4243H33.4179H33.4115H33.4052H33.3988H33.3924H33.386H33.3796H33.3733H33.3669H33.3605H33.3541H33.3478H33.3414H33.335H33.3286H33.3223H33.3159H33.3095H33.3031H33.2968H33.2904H33.284H33.2776H33.2712H33.2649H33.2585H33.2521H33.2457H33.2394H33.233H33.2266H33.2202H33.2139H33.2075H33.2011H33.1947H33.1883H33.182H33.1756H33.1692H33.1628H33.1565H33.1501H33.1437H33.1373H33.131H33.1246H33.1182H33.1118H33.1055H33.0991H33.0927H33.0863H33.0799H33.0736H33.0672H33.0608H33.0544H33.0481H33.0417H33.0353H33.0289H33.0226H33.0162H33.0098H33.0034H32.9971H32.9907H32.9843H32.9779H32.9715H32.9652H32.9588H32.9524H32.946H32.9397H32.9333H32.9269H32.9205H32.9142H32.9078H32.9014H32.895H32.8886H32.8823H32.8759H32.8695H32.8631H32.8568H32.8504H32.844H32.8376H32.8313H32.8249H32.8185H32.8121H32.8058H32.7994H32.793H32.7866H32.7802H32.7739H32.7675H32.7611H32.7547H32.7484H32.742H32.7356H32.7292H32.7229H32.7165H32.7101H32.7037H32.6974H32.691H32.6846H32.6782H32.6718H32.6655H32.6591H32.6527H32.6463H32.64H32.6336H32.6272H32.6208H32.6145H32.6081H32.6017H32.5953H32.5889H32.5826H32.5762H32.5698H32.5634H32.5571H32.5507H32.5443H32.5379H32.5316H32.5252H32.5188H32.5124H32.5061H32.4997H32.4933H32.4869H32.4805H32.4742H32.4678H32.4614H32.455H32.4487H32.4423H32.4359H32.4295H32.4232C31.8536 52.1926 31.3785 51.7434 31.3295 51.3061C31.1997 50.1164 31.1343 48.9223 31.0675 47.6967L31.0674 47.6957C31.0488 47.3616 30.9647 47.0198 30.7302 46.707C30.5329 46.444 30.2739 46.2714 30.119 46.1681L30.1128 46.164L30.1129 46.164L30.1049 46.1588C29.3518 45.667 28.5893 45.5362 27.8458 45.779C27.2015 45.9893 26.6897 46.4518 26.3211 46.7986C25.7079 47.368 25.0944 47.9169 24.4695 48.3965C24.1203 48.6551 23.8642 48.7425 23.6873 48.7477C23.5537 48.7517 23.334 48.7152 23.0117 48.3858C22.503 47.8622 21.9787 47.3428 21.4591 46.8282C21.2039 46.5754 20.9497 46.3237 20.6992 46.0732C20.3103 45.6683 20.2962 45.2327 20.5469 44.8793C21.3424 43.8268 22.2053 42.8338 23.0946 41.8111L23.0947 41.8112L23.1034 41.8009C23.2338 41.6469 23.4643 41.3635 23.5494 40.9804C23.6514 40.5217 23.512 40.1237 23.3174 39.8193C23.1768 39.2206 22.8727 38.7042 22.3209 38.3833C21.8042 38.0828 21.2109 38.0451 20.7409 38.0451C19.7219 38.0451 18.6616 37.9023 17.5896 37.6881C17.2846 37.6217 16.9659 37.2745 16.9659 36.7797V36.7701L16.9657 36.7605C16.9437 35.6191 16.9437 34.4777 16.9657 33.3363C16.9765 32.8907 17.3174 32.5135 17.8084 32.4677C19.1277 32.3559 20.4702 32.2216 21.7916 32.0649L21.8149 32.0621L21.8381 32.0582C22.1379 32.0083 22.3692 31.8591 22.5133 31.7401C22.6625 31.6168 22.8114 31.449 22.9168 31.2435C23.1347 30.8312 23.3449 30.3642 23.4812 29.8736L23.4847 29.8611L23.4878 29.8485C23.5861 29.4556 23.4733 29.1049 23.4094 28.9388C23.3323 28.7385 23.2272 28.559 23.1315 28.4251L23.1149 28.4018L23.097 28.3796C22.7344 27.9287 22.3588 27.4901 21.9949 27.0651C21.9345 26.9946 21.8744 26.9244 21.8148 26.8547C21.3931 26.3613 20.9883 25.8816 20.6079 25.3854C20.3827 25.0778 20.3528 24.8649 20.3689 24.7193C20.387 24.5569 20.4815 24.314 20.7911 23.9961L20.7925 23.9946C21.2603 23.5123 21.7317 23.0457 22.2083 22.5741C22.4495 22.3353 22.6921 22.0953 22.9361 21.8513C23.0869 21.7005 23.3542 21.5725 23.6712 21.5429C23.992 21.513 24.2268 21.5946 24.3419 21.6853L24.3429 21.6862C25.2497 22.3986 26.1189 23.1587 26.9802 23.9317L26.9802 23.9317L26.9837 23.9348L26.9952 23.945C27.1759 24.1058 27.5112 24.404 27.9447 24.5323C28.5068 24.6985 29.0379 24.5451 29.4863 24.2137L29.4863 24.2137L29.4919 24.2095C29.4916 24.2097 29.4976 24.2052 29.5117 24.1976C29.5257 24.19 29.5447 24.181 29.5686 24.1714C29.6119 24.1541 29.6615 24.139 29.7115 24.1279C29.9214 24.0952 30.148 24.0273 30.3597 23.8911C30.5974 23.7381 30.7629 23.5336 30.868 23.3142C31.0219 22.993 31.0376 22.6204 31.0434 22.4816C31.0438 22.4721 31.0442 22.4636 31.0445 22.4564C31.0641 22.2207 31.0829 21.9866 31.1016 21.7538C31.1897 20.6557 31.2755 19.5875 31.4334 18.5304C31.4508 18.4419 31.5239 18.3002 31.6962 18.1662C31.8727 18.0289 32.067 17.9688 32.2011 17.9688C33.444 17.9688 34.7088 18.0124 35.9511 18.0996L35.9511 18.0996L35.9641 18.1004C36.0798 18.107 36.2374 18.1684 36.3822 18.3047C36.5288 18.4428 36.5937 18.593 36.6053 18.6882L36.6054 18.6894C36.7354 19.751 36.822 20.8123 36.8653 21.8734L36.8654 21.8761C36.8959 22.5755 37.1342 23.2729 37.6208 23.7962C38.1266 24.3402 38.846 24.6321 39.6613 24.5612L39.6703 24.5604L39.6793 24.5595C40.1816 24.5066 40.5737 24.2343 40.8049 24.0545C40.9324 23.9554 41.0519 23.8505 41.1497 23.7639C41.1657 23.7497 41.1811 23.736 41.1959 23.7229C41.278 23.6501 41.3431 23.5923 41.4074 23.5393C42.1345 22.9484 42.8358 22.3373 43.5319 21.7086L43.532 21.7086L43.5387 21.7024C43.5387 21.7025 43.5428 21.6986 43.5525 21.6918C43.5621 21.6851 43.5759 21.6762 43.5944 21.666C43.6321 21.6451 43.6835 21.6218 43.7488 21.5997C43.8812 21.5549 44.0459 21.5237 44.2224 21.5192C44.5877 21.5099 44.8812 21.6135 45.0572 21.7775C45.9057 22.6045 46.7212 23.4422 47.4892 24.3372C47.5285 24.3891 47.5989 24.5503 47.5778 24.8348C47.557 25.1155 47.4565 25.3542 47.3575 25.4784C46.669 26.2818 45.9904 27.0996 45.3299 27.8958C45.0926 28.1818 44.8576 28.465 44.6253 28.7437L44.2393 29.207L44.4689 29.7646C44.5464 29.953 44.6094 30.0934 44.6613 30.2091C44.7484 30.4033 44.8042 30.5278 44.8454 30.6925L44.8483 30.7042L44.8515 30.7159C45.0002 31.2549 45.3052 31.6875 45.782 31.9488C46.1958 32.1755 46.6403 32.2136 46.9435 32.2261C48.0799 32.2918 49.2163 32.3792 50.3528 32.4884C50.7218 32.5321 51.0508 32.8305 51.0809 33.2495C51.1653 34.5379 51.1236 35.8575 50.9949 37.1676C50.9853 37.257 50.9249 37.3997 50.7267 37.5514C50.5293 37.7025 50.264 37.8042 50.0147 37.825C48.7704 37.8896 47.4877 37.9948 46.2019 38.1003L46.0226 38.115Z" stroke="white" stroke-width="2"/>
<mask id="path-8-inside-1_2_31" fill="white">
<path d="M4.64106 9.61886C4.59665 9.57444 4.55223 9.55223 4.50781 9.50781C4.55223 9.55223 4.59665 9.59665 4.64106 9.61886Z"/>
</mask>
<path d="M4.64106 9.61886L3.74664 11.4077L6.05528 8.20465L4.64106 9.61886ZM6.05528 8.20465C5.9845 8.13387 5.91969 8.07803 5.86897 8.03682C5.82296 7.99943 5.78112 7.96835 5.77449 7.96337C5.75891 7.95169 5.77854 7.96611 5.80235 7.98546C5.83085 8.00862 5.87346 8.04503 5.92203 8.0936L3.0936 10.922C3.16437 10.9928 3.22919 11.0486 3.27991 11.0899C3.32592 11.1272 3.36776 11.1583 3.37439 11.1633C3.38997 11.175 3.37034 11.1606 3.34653 11.1412C3.31802 11.1181 3.27542 11.0816 3.22685 11.0331L6.05528 8.20465ZM3.0936 10.922C3.10571 10.9341 3.17597 11.0055 3.25738 11.0768C3.33508 11.1448 3.50476 11.2868 3.74664 11.4077L5.53549 7.83001C5.64105 7.88279 5.72169 7.93602 5.77506 7.97438C5.82902 8.01317 5.86873 8.04664 5.89149 8.06655C5.92849 8.09893 5.95433 8.1259 5.92203 8.0936L3.0936 10.922Z" fill="white" mask="url(#path-8-inside-1_2_31)"/>
<path d="M33.0719 35.0695V34.9984L33.0618 34.9281C33.0457 34.8152 33.0907 34.5935 33.2844 34.3746C33.4684 34.1667 33.694 34.0681 33.8898 34.0704C34.3744 34.0876 34.6239 34.2277 34.7575 34.358C34.8952 34.4926 35.0196 34.7246 35.0503 35.124L35.0503 35.124L35.0511 35.1339C35.0625 35.2642 35.0013 35.4825 34.7672 35.705C34.5358 35.9249 34.2361 36.0462 33.9819 36.0462H33.9717L33.9615 36.0464C33.4826 36.0561 33.0719 35.7147 33.0719 35.0695Z" stroke="white" stroke-width="2"/>
</svg>
