<svg width="70" height="70" viewBox="0 0 70 70" fill="none" xmlns="http://www.w3.org/2000/svg">
<path d="M68.2163 17.2312L68.218 17.2266C68.4388 16.6455 68.5954 16.0701 68.7647 15.4477C68.8359 15.1859 68.9094 14.9157 68.9909 14.6334C68.9908 13.6326 68.9901 12.6388 68.9749 11.6318C68.8903 11.3461 68.8117 11.07 68.7349 10.8C68.5662 10.2068 68.4059 9.64343 68.2083 9.07387C67.2671 6.36767 65.5626 4.30684 63.1257 2.80044C61.6974 1.92027 60.0974 1.40794 58.3806 1.11311L58.3436 1.10677L58.3073 1.09768C58.2044 1.07196 58.1182 1.03526 58.0504 1H58.0452H58.0391H58.033H58.0269H58.0208H58.0148H58.0087H58.0026H57.9965H57.9904H57.9843H57.9782H57.9722H57.9661H57.96H57.9539H57.9478H57.9417H57.9356H57.9295H57.9235H57.9174H57.9113H57.9052H57.8991H57.893H57.8869H57.8809H57.8748H57.8687H57.8626H57.8565H57.8504H57.8443H57.8382H57.8322H57.8261H57.82H57.8139H57.8078H57.8017H57.7956H57.7895H57.7835H57.7774H57.7713H57.7652H57.7591H57.753H57.7469H57.7408H57.7347H57.7287H57.7226H57.7165H57.7104H57.7043H57.6982H57.6921H57.686H57.6799H57.6739H57.6678H57.6617H57.6556H57.6495H57.6434H57.6373H57.6312H57.6251H57.619H57.613H57.6069H57.6008H57.5947H57.5886H57.5825H57.5764H57.5703H57.5642H57.5581H57.552H57.546H57.5399H57.5338H57.5277H57.5216H57.5155H57.5094H57.5033H57.4972H57.4911H57.485H57.4789H57.4728H57.4668H57.4607H57.4546H57.4485H57.4424H57.4363H57.4302H57.4241H57.418H57.4119H57.4058H57.3997H57.3936H57.3875H57.3814H57.3753H57.3692H57.3632H57.3571H57.351H57.3449H57.3388H57.3327H57.3266H57.3205H57.3144H57.3083H57.3022H57.2961H57.29H57.2839H57.2778H57.2717H57.2656H57.2595H57.2534H57.2473H57.2412H57.2351H57.229H57.2229H57.2168H57.2107H57.2046H57.1985H57.1924H57.1863H57.1802H57.1741H57.168H57.1619H57.1558H57.1497H57.1436H57.1375H57.1314H57.1253H57.1192H57.1131H57.107H57.1009H57.0948H57.0887H57.0826H57.0765H57.0704H57.0643H57.0582H57.0521H57.046H57.0399H57.0338H57.0277H57.0216H57.0155H57.0094H57.0033H56.9972H56.9911H56.985H56.9789H56.9727H56.9666H56.9605H56.9544H56.9483H56.9422H56.9361H56.93H56.9239H56.9178H56.9117H56.9056H56.8995H56.8934H56.8873H56.8811H56.875H56.8689H56.8628H56.8567H56.8506H56.8445H56.8384H56.8323H56.8262H56.8201H56.8139H56.8078H56.8017H56.7956H56.7895H56.7834H56.7773H56.7712H56.7651H56.7589H56.7528H56.7467H56.7406H56.7345H56.7284H56.7223H56.7162H56.71H56.7039H56.6978H56.6917H56.6856H56.6795H56.6733H56.6672H56.6611H56.655H56.6489H56.6428H56.6367H56.6305H56.6244H56.6183H56.6122H56.6061H56.5999H56.5938H56.5877H56.5816H56.5755H56.5694H56.5632H56.5571H56.551H56.5449H56.5388H56.5326H56.5265H56.5204H56.5143H56.5082H56.502H56.4959H56.4898H56.4837H56.4775H56.4714H56.4653H56.4592H56.453H56.4469H56.4408H56.4347H56.4285H56.4224H56.4163H56.4102H56.404H56.3979H56.3918H56.3857H56.3795H56.3734H56.3673H56.3612H56.355H56.3489H56.3428H56.3366H56.3305H56.3244H56.3183H56.3121H56.306H56.2999H56.2937H56.2876H56.2815H56.2753H56.2692H56.2631H56.2569H56.2508H56.2447H56.2385H56.2324H56.2263H56.2201H56.214H56.2079H56.2017H56.1956H56.1895H56.1833H56.1772H56.1711H56.1649H56.1588H56.1527H56.1465H56.1404H56.1342H56.1281H56.122H56.1158H56.1097H56.1035H56.0974H56.0913H56.0851H56.079H56.0728H56.0667H56.0606H56.0544H56.0483H56.0421H56.036H56.0298H56.0237H56.0176H56.0114H56.0053H55.9991H55.993H55.9868H55.9807H55.9745H55.9684H55.9622H55.9561H55.95H55.9438H55.9377H55.9315H55.9254H55.9192H55.9131H55.9069H55.9008H55.8946H55.8885H55.8823H55.8762H55.87H55.8639H55.8577H55.8516H55.8454H55.8392H55.8331H55.8269H55.8208H55.8146H55.8085H55.8023H55.7962H55.79H55.7839H55.7777H55.7715H55.7654H55.7592H55.7531H55.7469H55.7408H55.7346H55.7284H55.7223H55.7161H55.71H55.7038H55.6976H55.6915H55.6853H55.6791H55.673H55.6668H55.6607H55.6545H55.6483H55.6422H55.636H55.6298H55.6237H55.6175H55.6113H55.6052H55.599H55.5928H55.5867H55.5805H55.5743H55.5682H55.562H55.5558H55.5497H55.5435H55.5373H55.5311H55.525H55.5188H55.5126H55.5065H55.5003H55.4941H55.4879H55.4818H55.4756H55.4694H55.4632H55.4571H55.4509H55.4447H55.4385H55.4324H55.4262H55.42H55.4138H55.4076H55.4015H55.3953H55.3891H55.3829H55.3767H55.3706H55.3644H55.3582H55.352H55.3458H55.3397H55.3335H55.3311C55.1802 1.03498 55.0338 1.06798 54.8905 1.10026C54.4489 1.19981 54.0377 1.29246 53.6219 1.41477L68.2163 17.2312ZM68.2163 17.2312C66.9322 20.6615 64.6065 23.0084 61.2129 24.3999L61.2119 24.4003M68.2163 17.2312L61.2119 24.4003M61.2119 24.4003C59.4197 25.1373 57.5591 25.3907 55.6502 25.2218L55.6502 25.2217M61.2119 24.4003L55.6502 25.2217M55.6502 25.2217L55.6405 25.221M55.6502 25.2217L55.6405 25.221M55.6405 25.221C53.5187 25.0539 51.5464 24.3035 49.8159 23.0265L49.8143 23.0253M55.6405 25.221L49.8143 23.0253M49.8143 23.0253C47.5687 21.375 45.9819 19.2409 45.2291 16.5811C44.1277 12.6837 44.7475 9.12298 47.1668 5.84053L47.1677 5.83935M49.8143 23.0253L47.1677 5.83935M47.1677 5.83935C48.7923 3.62834 50.9678 2.19758 53.6216 1.41485L47.1677 5.83935ZM54.7875 21.2729L54.7874 21.2729L54.786 21.2868C54.675 22.3596 55.3743 23.1044 56.1309 23.3314L56.1361 23.3329C56.522 23.4464 56.9298 23.4049 57.2299 23.3307C57.5232 23.2582 57.9303 23.1011 58.228 22.7785L58.2356 22.7703L58.243 22.7619C58.5354 22.4305 58.6613 22.041 58.7318 21.7968C58.77 21.6645 58.7946 21.5687 58.815 21.4896C58.8442 21.3764 58.8645 21.2974 58.9032 21.1942L58.9032 21.1943L58.9067 21.1849C58.917 21.1564 58.9273 21.1263 58.9368 21.0973C60.1567 20.6711 61.0901 19.8744 61.7709 18.8434L61.7709 18.8435L61.7758 18.836C62.523 17.682 62.8951 16.0952 62.5594 14.652C62.2997 13.5351 61.6227 12.551 60.4873 11.9597C60.6533 11.9495 60.8145 11.9201 60.9667 11.8772C61.2909 11.7891 61.7149 11.6181 62.048 11.2656C62.4228 10.8691 62.5952 10.3343 62.5101 9.73844C62.2393 7.68148 61.004 6.26847 59.3019 5.47125L59.3019 5.47122L59.2953 5.46817C59.1365 5.3952 59.0359 5.34336 58.9664 5.30013C58.9557 5.29344 58.9465 5.28745 58.9387 5.28216C58.9385 5.25879 58.9395 5.22574 58.9438 5.18117C59.034 4.27238 58.5341 3.08243 57.2309 2.92446L57.2205 2.9232L57.2101 2.92216C56.8525 2.8864 56.4983 2.95029 56.2045 3.04823C55.9092 3.14667 55.5998 3.30453 55.3443 3.52592L55.3354 3.53369L55.3266 3.54167C54.954 3.88043 54.8611 4.35027 54.8279 4.5746C54.793 4.80994 54.7897 5.04633 54.796 5.23738C53.0895 5.78608 51.9462 7.02811 51.3477 8.60941C50.8563 9.90275 50.8022 11.3045 51.3431 12.5095C51.6969 13.2978 52.2814 13.9471 53.0663 14.4C52.8517 14.4062 52.6302 14.446 52.4054 14.5254L52.3895 14.531L52.3738 14.5371C51.8521 14.7413 51.5055 15.1853 51.319 15.5653C51.1323 15.9459 50.9888 16.5017 51.1638 17.0584C51.753 18.9921 52.9675 20.3866 54.7959 21.1492C54.7945 21.1959 54.7918 21.2364 54.7875 21.2729ZM59.0212 20.8434C59.0212 20.8434 59.0206 20.8449 59.0193 20.8478C59.0205 20.8448 59.0211 20.8434 59.0212 20.8434ZM58.5646 10.6914C58.684 11 58.8639 11.2748 59.1027 11.4902C59.0804 11.4859 59.058 11.4818 59.0355 11.4778L59.0316 11.4771C58.2368 11.3383 57.4255 11.2155 56.6249 11.0944C56.2601 11.0392 55.8976 10.9843 55.5398 10.9284C55.395 10.9039 55.3033 10.8715 55.2487 10.8448C55.1972 10.8197 55.182 10.8015 55.1797 10.7988L55.1797 10.7987L55.1796 10.7986C55.1776 10.7963 55.1667 10.7834 55.1557 10.7416C55.1432 10.694 55.1305 10.6067 55.1392 10.4645L55.1398 10.4535L55.1403 10.4425C55.1594 9.95497 55.4241 9.57291 55.9575 9.27284C56.4698 8.99049 57.0329 8.99639 57.6545 9.33314L57.6545 9.33322L57.6668 9.33968C58.0647 9.54815 58.2873 9.934 58.5581 10.674L58.5612 10.6828L58.5646 10.6914ZM55.1856 15.777C55.0405 15.473 54.8305 15.1938 54.573 14.9673C54.5773 14.9683 54.5816 14.9692 54.5859 14.9701C55.3784 15.1445 56.2144 15.2568 56.9986 15.3622C57.3192 15.4053 57.6311 15.4472 57.9278 15.4917L57.931 15.4922C58.2239 15.5351 58.4004 15.5886 58.5004 15.6342C58.5121 15.6396 58.5221 15.6445 58.5304 15.6489C58.5304 15.6547 58.5302 15.6611 58.5299 15.6682C58.5252 15.7681 58.4935 15.9414 58.3949 16.2158C58.3019 16.4596 58.0899 16.7483 57.8284 16.9824L57.819 16.9908L57.8098 16.9994C57.5703 17.2248 57.1815 17.3647 56.7694 17.3542C56.3432 17.3434 56.0922 17.1834 56.0036 17.0627L55.9988 17.0561L55.9939 17.0497C55.6778 16.6338 55.4058 16.2158 55.1856 15.777ZM58.5688 15.6727C58.5688 15.6727 58.5682 15.6722 58.5671 15.6712C58.5683 15.6721 58.5688 15.6726 58.5688 15.6727ZM58.5283 15.6061C58.528 15.605 58.5279 15.6044 58.5279 15.6044L58.5283 15.6061Z" stroke="white" stroke-width="2"/>
<path d="M17.2378 1.79706L17.2373 1.79688C16.6166 1.57006 15.995 1.40857 15.3212 1.23353C15.0603 1.16575 14.7917 1.09595 14.5122 1.01953H11.6127C11.3332 1.09595 11.0645 1.16575 10.8037 1.23353C10.1299 1.40857 9.50827 1.57006 8.88754 1.79688L8.88457 1.79797C5.53303 3.01067 3.22795 5.27869 1.8924 8.57555L1.8906 8.57999L1.89059 8.57998C1.61832 9.24296 1.4384 9.90907 1.24138 10.6385C1.16554 10.9193 1.08716 11.2095 1 11.5125V11.516V11.5229V11.5299V11.5368V11.5438V11.5507V11.5576V11.5646V11.5715V11.5785V11.5854V11.5923V11.5993V11.6062V11.6132V11.6201V11.627V11.634V11.6409V11.6479V11.6548V11.6617V11.6687V11.6756V11.6825V11.6895V11.6964V11.7034V11.7103V11.7172V11.7242V11.7311V11.7381V11.745V11.7519V11.7589V11.7658V11.7728V11.7797V11.7866V11.7936V11.8005V11.8075V11.8144V11.8213V11.8283V11.8352V11.8421V11.8491V11.856V11.863V11.8699V11.8768V11.8838V11.8907V11.8977V11.9046V11.9115V11.9185V11.9254V11.9324V11.9393V11.9462V11.9532V11.9601V11.967V11.974V11.9809V11.9879V11.9948V12.0017V12.0087V12.0156V12.0226V12.0295V12.0364V12.0434V12.0503V12.0573V12.0642V12.0711V12.0781V12.085V12.092V12.0989V12.1058V12.1128V12.1197V12.1266V12.1336V12.1405V12.1475V12.1544V12.1613V12.1683V12.1752V12.1822V12.1891V12.196V12.203V12.2099V12.2169V12.2238V12.2307V12.2377V12.2446V12.2516V12.2585V12.2654V12.2724V12.2793V12.2862V12.2932V12.3001V12.3071V12.314V12.3209V12.3279V12.3348V12.3418V12.3487V12.3556V12.3626V12.3695V12.3765V12.3834V12.3903V12.3973V12.4042V12.4111V12.4181V12.425V12.432V12.4389V12.4458V12.4528V12.4597V12.4667V12.4736V12.4805V12.4875V12.4944V12.5014V12.5083V12.5152V12.5222V12.5291V12.5361V12.543V12.5499V12.5569V12.5638V12.5707V12.5777V12.5846V12.5916V12.5985V12.6054V12.6124V12.6193V12.6263V12.6332V12.6401V12.6471V12.654V12.661V12.6679V12.6748V12.6818V12.6887V12.6957V12.7026V12.7095V12.7165V12.7234V12.7303V12.7373V12.7442V12.7512V12.7581V12.765V12.772V12.7789V12.7859V12.7928V12.7997V12.8067V12.8136V12.8206V12.8275V12.8344V12.8414V12.8483V12.8553V12.8622V12.8691V12.8761V12.883V12.8899V12.8969V12.9038V12.9108V12.9177V12.9246V12.9316V12.9385V12.9455V12.9524V12.9593V12.9663V12.9732V12.9802V12.9871V12.994V13.001V13.0079V13.0148V13.0218V13.0287V13.0357V13.0426V13.0495V13.0565V13.0634V13.0704V13.0773V13.0842V13.0912V13.0981V13.1051V13.112V13.1189V13.1259V13.1328V13.1398V13.1467V13.1536V13.1606V13.1675V13.1744V13.1814V13.1883V13.1953V13.2022V13.2091V13.2161V13.223V13.23V13.2369V13.2438V13.2508V13.2577V13.2647V13.2716V13.2785V13.2855V13.2924V13.2994V13.3063V13.3132V13.3202V13.3271V13.334V13.341V13.3479V13.3549V13.3618V13.3687V13.3757V13.3826V13.3896V13.3965V13.4034V13.4104V13.4173V13.4243V13.4312V13.4381V13.4451V13.452V13.4589V13.4659V13.4728V13.4798V13.4867V13.4936V13.5006V13.5075V13.5145V13.5214V13.5283V13.5353V13.5422V13.5492V13.5561V13.563V13.57V13.5769V13.5839V13.5908V13.5977V13.6047V13.6116V13.6185V13.6255V13.6324V13.6394V13.6463V13.6532V13.6602V13.6671V13.6741V13.681V13.6879V13.6949V13.7018V13.7088V13.7157V13.7226V13.7296V13.7365V13.7435V13.7504V13.7573V13.7643V13.7712V13.7781V13.7851V13.792V13.799V13.8059V13.8128V13.8198V13.8267V13.8337V13.8406V13.8475V13.8545V13.8614V13.8684V13.8753V13.8822V13.8892V13.8961V13.9031V13.91V13.9169V13.9239V13.9308V13.9377V13.9447V13.9516V13.9586V13.9655V13.9724V13.9794V13.9863V13.9933V14.0002V14.0071V14.0141V14.021V14.028V14.0349V14.0418V14.0488V14.0557V14.0626V14.0696V14.0765V14.0835V14.0904V14.0973V14.1043V14.1112V14.1182V14.1251V14.132V14.139V14.1459V14.1529V14.1598V14.1667V14.1737V14.1806V14.1876V14.1945V14.2014V14.2084V14.2153V14.2222V14.2292V14.2361V14.2431V14.25V14.2569V14.2639V14.2708V14.2778V14.2847V14.2916V14.2986V14.3055V14.3125V14.3194V14.3263V14.3333V14.3402V14.3472V14.3541V14.361V14.368V14.3749V14.3818V14.3888V14.3957V14.4027V14.4096V14.4165V14.4235V14.4304V14.4374V14.4443V14.4512V14.4582V14.4651V14.4721V14.479V14.4859V14.4929V14.4998V14.5068V14.5137V14.5206V14.5215C1.04559 14.6108 1.08532 14.7212 1.10153 14.8514C1.54364 17.7973 2.86608 20.2376 5.10774 22.2271C8.2302 24.9777 11.8184 25.8322 15.8168 24.9511C18.3984 24.381 20.5924 23.028 22.3314 20.9343L22.3337 20.9315C24.4055 18.4553 25.2966 15.6622 25.1443 12.4215C25.0431 10.4362 24.4904 8.62669 23.4798 6.92535L17.2378 1.79706ZM17.2378 1.79706C19.9255 2.77753 22.0167 4.47035 23.4798 6.92529L17.2378 1.79706ZM11.6961 8.43694C10.9674 8.85599 10.4208 9.53012 10.4026 10.4593C10.3844 11.2974 10.7852 11.7893 11.6232 11.9169C12.0179 11.9776 12.4147 12.0343 12.8114 12.091L11.6961 8.43694ZM11.6961 8.43694C12.5341 7.94501 13.4815 7.99968 14.3741 8.45517L11.6961 8.43694ZM18.0094 18.8885L18.007 18.892C17.3322 19.8855 16.44 20.6749 15.2394 21.0969C15.2134 21.4514 15.1453 21.8658 14.9446 22.256C14.7098 22.7127 14.3306 23.0655 13.8095 23.2805C12.4972 23.8259 11.1339 22.9141 11.0619 21.5355C11.0618 21.5347 11.0618 21.534 11.0618 21.5333L12.0604 21.4821C12.0483 21.2641 12.0523 21.0381 12.0564 20.8094L18.0094 18.8885ZM18.0094 18.8885C18.7833 17.7385 19.1646 16.1491 18.8412 14.7006C18.5933 13.5908 17.9361 12.6021 16.827 11.9946C17.021 11.9819 17.2122 11.9417 17.3955 11.8787L17.4039 11.8758L17.4122 11.8728C18.5336 11.465 19.1267 10.2354 18.7033 9.06296L18.7032 9.06268C18.1047 7.40675 17.0207 6.03776 15.2662 5.35568M18.0094 18.8885L15.2447 5.6793C15.2523 5.59691 15.2625 5.48469 15.2662 5.35568M11.0513 5.278C9.35804 5.80497 8.24771 7.06573 7.65048 8.58025L7.65019 8.58099C7.13419 9.89259 7.087 11.3069 7.62983 12.5156C7.98669 13.3102 8.57663 13.9653 9.36503 14.4178C9.12873 14.4278 8.88541 14.4814 8.64077 14.5876C7.53669 15.0589 7.32479 16.3306 7.56014 17.1861C8.07404 19.1703 9.37313 20.4009 11.0527 21.1403L12.0969 5.13921C12.0787 4.8477 12.1333 4.42865 12.3155 4.28289M11.0513 5.278C11.0519 5.27782 11.0525 5.27763 11.0531 5.27745L11.3499 6.23238L11.0501 5.27839C11.0505 5.27826 11.0509 5.27813 11.0513 5.278ZM11.0513 5.278C11.07 5.27212 11.0867 5.26649 11.1016 5.26117M11.1016 5.26117C11.1022 5.28348 11.1022 5.30241 11.1018 5.3184C11.101 5.347 11.099 5.36243 11.0981 5.36781C11.0979 5.36908 11.0978 5.36958 11.0978 5.36937C11.0979 5.36877 11.0993 5.36216 11.1033 5.3511C11.1089 5.33557 11.1182 5.31494 11.1325 5.29243C11.1469 5.2698 11.1626 5.25121 11.1768 5.23729C11.1899 5.22449 11.1985 5.21879 11.1985 5.21879L11.1985 5.21884C11.1971 5.21973 11.1861 5.2266 11.1613 5.23759C11.1459 5.24442 11.1262 5.25236 11.1016 5.26117ZM11.1016 5.26117C11.1011 5.2435 11.1002 5.22371 11.0988 5.20158C11.0848 4.97705 11.0975 4.70691 11.1532 4.44686C11.1968 4.24334 11.3121 3.81638 11.6723 3.5171M11.6723 3.5171C11.6684 3.52047 11.6644 3.52384 11.6605 3.52723L12.3155 4.28289M11.6723 3.5171C12.1106 3.1428 12.798 2.85988 13.4564 2.92196M11.6723 3.5171C11.6784 3.51204 11.6846 3.50703 11.6908 3.50204L12.3155 4.28289M12.3155 4.28289L13.4564 2.92196M13.4564 2.92196C13.4498 2.92147 13.4432 2.92101 13.4365 2.92058L13.3721 3.9185L13.4768 2.924C13.47 2.92328 13.4632 2.9226 13.4564 2.92196ZM13.4564 2.92196C14.0737 2.968 14.5267 3.29267 14.8102 3.7038C15.0662 4.07495 15.1758 4.49871 15.2314 4.81954M13.4564 2.92196L14.2466 5.61291L14.8956 5.64707L15.0206 5.28068C14.9993 5.26397 14.9827 5.25372 14.9743 5.24887C14.9705 5.24666 14.9683 5.24556 14.9683 5.24553C14.9684 5.24545 14.9852 5.25368 15.0293 5.26922C15.1096 5.29667 15.1885 5.3255 15.2662 5.35568M15.2314 4.81954C15.2311 4.81789 15.2308 4.81624 15.2305 4.81458L14.2466 4.99346L15.2321 4.82356C15.2319 4.82222 15.2316 4.82088 15.2314 4.81954ZM15.2314 4.81954C15.2651 5.00754 15.2707 5.19468 15.2662 5.35568M0.388465 14.0023C0.384859 14.0009 0.385819 14.0012 0.390185 14.0029L0.388465 14.0023ZM14.8874 5.67116L14.7021 6.21417L14.8874 5.67116ZM15.2448 5.68616C15.2448 5.6862 15.2447 5.68476 15.2447 5.68168C15.2448 5.68459 15.2448 5.68613 15.2448 5.68616ZM14.7512 10.5051C14.8903 10.8745 15.0988 11.2193 15.3903 11.4865C15.3817 11.4848 15.3731 11.4831 15.3644 11.4814L15.3601 11.4806C14.5621 11.331 13.7295 11.2119 12.923 11.0966C12.532 11.0407 12.1471 10.9857 11.7753 10.9285L11.7737 10.9283C11.521 10.8898 11.4639 10.8191 11.4607 10.8152L11.4606 10.8151L11.4605 10.815C11.4565 10.8101 11.3968 10.7388 11.4024 10.481L11.4024 10.4789C11.4119 9.99366 11.6795 9.60001 12.1946 9.30383L12.1946 9.30386L12.2023 9.29934C12.6824 9.01753 13.2573 9.00982 13.9136 9.34283C14.2742 9.53463 14.5055 9.86721 14.7512 10.5051ZM11.4896 15.7909C11.3475 15.489 11.1332 15.2057 10.8682 14.9757C11.9623 15.198 13.0799 15.3844 14.2201 15.5153C14.4993 15.5495 14.6748 15.5993 14.7775 15.6442C14.7985 15.6534 14.8147 15.6615 14.8268 15.6683C14.8268 15.6706 14.8267 15.673 14.8267 15.6756C14.8242 15.7561 14.7984 15.9105 14.7 16.162L14.6999 16.162L14.6979 16.1675C14.585 16.4608 14.347 16.7897 14.0539 17.0561C13.8089 17.2707 13.4304 17.3931 13.0347 17.3725C12.6251 17.3512 12.3776 17.1916 12.2867 17.0685C11.9603 16.6151 11.6842 16.2101 11.4918 15.7956L11.4918 15.7956L11.4896 15.7909ZM14.8589 15.6894C14.8588 15.6894 14.8582 15.6889 14.8572 15.6879C14.8584 15.6889 14.8589 15.6894 14.8589 15.6894ZM15.2858 20.8177C15.2857 20.8179 15.2854 20.8189 15.2847 20.8206C15.2854 20.8185 15.2858 20.8175 15.2858 20.8177Z" stroke="white" stroke-width="2"/>
<path d="M12.2255 33.8323L12.2273 33.8333C13.6859 34.6538 15.1368 35.47 16.5685 36.3038L16.5685 36.3038L16.5807 36.3107C16.7504 36.4064 16.8615 36.4789 16.9335 36.5333C16.9031 36.6063 16.8523 36.7102 16.7693 36.8548L16.7692 36.8548L16.7655 36.8613C16.2342 37.8034 15.6893 38.7409 15.1408 39.6848C14.8648 40.1597 14.5878 40.6362 14.3112 41.1158C13.7766 42.0401 13.2325 42.9605 12.6857 43.8856L12.6844 43.8878C12.1391 44.8103 11.591 45.7376 11.0516 46.6702C10.2674 48.0108 9.49248 49.351 8.71906 50.6886L8.71837 50.6898C7.94389 52.0293 7.17089 53.3663 6.389 54.7028L6.38897 54.7028L6.38503 54.7097C6.31465 54.8322 6.26008 54.9046 6.22406 54.9452C6.15604 54.9245 6.04602 54.8782 5.88157 54.7824C5.05438 54.2946 4.19986 53.8132 3.35684 53.3383C2.75888 53.0014 2.1667 52.6678 1.59416 52.3374L1.59058 52.3354C1.46535 52.2638 1.33441 52.1688 1.17112 52.0395C1.13131 52.0079 1.08555 51.971 1.03601 51.9309C1.03651 51.8935 1.03686 51.8567 1.03711 51.8204C1.33358 51.3206 1.64067 50.8118 1.94986 50.2995C2.45142 49.4685 2.95852 48.6283 3.43481 47.8027C5.13026 44.9038 6.80718 41.9872 8.48193 39.0744C8.86016 38.425 9.24928 37.7667 9.64034 37.1052C10.2327 36.1031 10.8295 35.0935 11.3997 34.0955C11.5432 33.8443 11.6445 33.6795 11.7227 33.5688C11.8367 33.6197 11.9952 33.7021 12.2255 33.8323Z" stroke="white" stroke-width="2"/>
<path d="M63.6832 51.3627C63.6708 51.3702 63.6601 51.3755 63.651 51.3793C62.9452 50.1757 62.2393 48.9675 61.533 47.7584L61.5326 47.7577C60.8224 46.5423 60.1119 45.326 59.4012 44.1141C58.7371 42.9766 58.0716 41.8413 57.4059 40.7058C56.3516 38.9072 55.2969 37.1081 54.2474 35.2993C54.1562 35.1416 54.102 35.0284 54.0707 34.9497C54.1348 34.9058 54.2304 34.8484 54.3714 34.7752L54.3714 34.7752L54.3735 34.7741C55.4346 34.2199 56.4886 33.6075 57.5225 33.0068C58.0969 32.6731 58.665 32.343 59.2248 32.0285C59.2782 31.9991 59.3208 31.9793 59.3534 31.9661C59.3711 31.9909 59.3926 32.0239 59.4172 32.0674L59.4172 32.0674L59.4226 32.0767C60.005 33.0777 60.5875 34.0835 61.1705 35.0903L61.1707 35.0905C61.7532 36.0964 62.3364 37.1034 62.9196 38.1059C64.1151 40.1756 65.3201 42.2462 66.5205 44.3087C67.0219 45.1703 67.5226 46.0306 68.0214 46.8888L68.0213 46.8888L68.024 46.8933C68.1737 47.1478 68.32 47.3917 68.4644 47.6325C68.6008 47.86 68.7356 48.0847 68.87 48.3129C68.3465 48.6221 67.8235 48.9326 67.3017 49.2425L67.3005 49.2432C66.5726 49.6754 65.847 50.1063 65.1217 50.5324C64.9823 50.6128 64.8347 50.6961 64.6826 50.7819C64.3584 50.9649 64.0136 51.1595 63.6832 51.3627Z" stroke="white" stroke-width="2"/>
<path d="M28.1587 68.8593C28.1651 68.8648 28.1864 68.8829 28.2342 68.9151C28.264 68.9352 28.2953 68.9551 28.3351 68.98C28.4124 68.9806 28.4919 68.9817 28.5733 68.9838C28.6006 68.9653 28.6241 68.9496 28.6457 68.9351C28.6887 68.9063 28.724 68.8826 28.7661 68.8531C28.8845 68.7701 28.9109 68.7375 28.911 68.7376C28.911 68.7376 28.911 68.7376 28.911 68.7376M28.1587 68.8593L28.9103 68.7386C28.9107 68.738 28.911 68.7376 28.911 68.7376M28.1587 68.8593L28.1553 68.8547L28.144 68.8407C28.029 68.6983 28.0031 68.6097 27.9978 68.5735C27.9953 68.5566 27.9954 68.5408 27.9995 68.521C28.0038 68.5002 28.0153 68.4618 28.0487 68.4043L28.0528 68.3972L28.0568 68.39C28.1711 68.1854 28.2742 67.9938 28.3723 67.8113C28.6038 67.3811 28.8075 67.0024 29.0646 66.6285L29.0719 66.6178L29.079 66.607C29.214 66.3991 29.3227 66.3503 29.3701 66.336C29.4211 66.3206 29.528 66.3075 29.7192 66.3859L29.7192 66.3859L29.7273 66.3892C29.866 66.4447 29.9281 66.4935 29.9508 66.5151C29.9617 66.5255 29.9651 66.531 29.9653 66.5313C29.9654 66.5315 29.9657 66.5318 29.9666 66.5345C29.972 66.5512 30.002 66.6894 29.8706 67.0472L29.8682 67.0539L29.8658 67.0606C29.6789 67.5925 29.3338 68.1309 28.914 68.7333L28.914 68.7333L28.911 68.7376M28.1587 68.8593L28.911 68.7376" stroke="white" stroke-width="2"/>
<path d="M32.5451 63.2638L32.5407 63.2601C31.7521 62.578 30.8825 62.3281 30.0902 62.2097C29.9446 61.4438 29.491 60.7319 28.9942 60.2C28.4217 59.5872 27.6206 59.0293 26.761 58.8779C26.5718 58.8436 26.3872 58.8132 26.2011 58.7851C25.9972 58.0301 25.6498 57.35 25.1394 56.7876C24.4598 56.0388 23.5481 55.5617 22.4692 55.363C21.0308 55.0906 19.6585 55.4136 18.5882 56.3877C17.8931 55.8642 17.0781 55.5398 16.1408 55.459L16.1394 55.4589C15.0969 55.3705 14.1064 55.5415 13.1944 56.0789C12.9943 55.9298 12.7937 55.7801 12.5924 55.6299C12.1674 55.3127 11.7392 54.9932 11.3055 54.6719C11.7073 53.9823 12.107 53.2902 12.5029 52.6044C12.9662 51.802 13.4246 51.0083 13.8756 50.2373L13.8756 50.2373L13.8792 50.2311C14.9051 48.4485 15.9395 46.6668 16.9713 44.8896C17.4043 44.1437 17.8369 43.3986 18.2682 42.6545L18.2682 42.6545L18.2713 42.6491C18.3018 42.5958 18.3353 42.5383 18.3707 42.4776C18.4794 42.2911 18.6057 42.0743 18.714 41.8582C18.8019 41.687 18.8621 41.5742 18.9207 41.4846C18.948 41.4429 18.969 41.4156 18.9844 41.3979C18.9895 41.3921 18.9936 41.3876 18.997 41.3842C19.0243 41.3814 19.1006 41.3794 19.2479 41.4131C20.4337 41.7052 21.6813 41.8551 22.8495 41.9955C23.2015 42.0377 23.5463 42.0792 23.88 42.1234C24.0322 42.145 24.1897 42.1642 24.3495 42.1816C24.0253 42.7362 23.7012 43.3014 23.4054 43.8721C22.4941 45.5633 21.7955 47.3586 21.4639 49.308C21.2765 50.3936 21.7675 51.4118 22.4035 52.108C23.0407 52.8055 23.9854 53.363 25.0051 53.3919C27.4408 53.4772 29.2118 52.1728 30.6587 51.0514C31.5202 50.3843 32.3158 49.5847 33.0578 48.8388C33.3343 48.5609 33.6034 48.2905 33.8657 48.0372C33.8931 48.0118 33.9194 47.9861 33.9446 47.9603C34.6695 48.3743 35.3854 48.7838 36.0949 49.1895C37.7636 50.1439 39.3967 51.0779 41.0282 52.0036C41.8486 52.4747 42.6737 52.9534 43.5019 53.434C44.6404 54.0947 45.785 54.7588 46.932 55.4113C47.8715 55.9482 48.7953 56.4666 49.714 56.982C50.8263 57.6061 51.9309 58.2259 53.0462 58.869C53.1803 58.9499 53.3032 59.2779 53.1621 59.5153L53.1597 59.5193C53.0674 59.6763 52.7499 59.7808 52.5515 59.6769C51.5064 59.095 50.4864 58.5073 49.4567 57.9142C48.7467 57.5051 48.0321 57.0935 47.3017 56.6792C46.3879 56.1588 45.4725 55.6354 44.5563 55.1115C42.7212 54.0622 40.8826 53.011 39.0465 51.9773C38.5864 51.7164 38.0456 51.551 37.4833 51.6583C36.8941 51.7708 36.472 52.1454 36.2057 52.584L36.2056 52.5839L36.1991 52.5949C35.9599 53.0007 35.6928 53.5844 35.8591 54.2378C36.0256 54.8919 36.5418 55.2886 36.9924 55.5509C38.3577 56.3555 39.7443 57.1467 41.1237 57.9339C41.8104 58.3258 42.4954 58.7166 43.1751 59.1076C44.7196 59.9981 46.2464 60.8887 47.7757 61.7809L47.779 61.7828C47.8633 61.832 47.9415 61.9281 47.9777 62.054C48.0143 62.1814 47.9896 62.2693 47.9675 62.3069L47.9664 62.3088C47.7855 62.6178 47.4919 62.6505 47.297 62.5356L47.2971 62.5355L47.2891 62.5309C44.2244 60.7613 41.1408 59.0096 38.0567 57.294L38.0466 57.2884L38.0364 57.283C37.6762 57.0934 37.2654 57.0313 36.9239 57.0313C36.5881 57.0313 36.1855 57.0913 35.8297 57.2735C35.5505 57.4111 35.3766 57.6271 35.2823 57.7662C35.173 57.9275 35.0927 58.1019 35.0356 58.2639C34.935 58.5496 34.8475 58.9691 34.931 59.3787C35.0091 59.8033 35.2517 60.1348 35.4415 60.3437C35.6501 60.5731 35.8983 60.7675 36.1339 60.9061C37.7912 61.8862 39.4722 62.8554 41.1435 63.819C41.5903 64.0766 42.0364 64.3339 42.4812 64.5908L42.4885 64.595L42.4958 64.599L42.9877 64.8723L43.4585 65.1339C43.6737 65.2736 43.7483 65.6001 43.6198 65.8125L43.6142 65.8219L43.6087 65.8313C43.5929 65.8588 43.5205 65.9379 43.3667 65.9787C43.2194 66.0179 43.0946 65.9951 43.0196 65.9525L42.526 66.8222L43.0204 65.953C41.0386 64.8256 39.0561 63.6797 37.0907 62.5332L37.0871 62.5311C36.556 62.2242 35.9252 62.028 35.2849 62.157C34.5965 62.2957 34.106 62.7667 33.8349 63.3692L33.8348 63.3692L33.8306 63.3787C33.6435 63.8066 33.5691 64.2928 33.721 64.7826C33.4513 64.2129 33.0533 63.7086 32.5451 63.2638ZM29.7086 62.1602C29.7088 62.1601 29.7121 62.1606 29.7181 62.162C29.7114 62.161 29.7084 62.1603 29.7086 62.1602ZM33.8786 65.1639C33.8731 65.1485 33.8675 65.1331 33.8618 65.1178C34.0896 65.5414 34.4565 65.846 34.8265 66.0721L34.834 66.0767L34.8415 66.0812C35.2952 66.3476 35.7431 66.6079 36.1875 66.8662C36.8819 67.2697 37.568 67.6685 38.2549 68.0783C38.475 68.2151 38.5052 68.4602 38.4371 68.5928C38.362 68.7302 38.2469 68.8194 38.1373 68.8581C38.0333 68.8948 37.946 68.8847 37.8722 68.8439L37.8699 68.8426C36.9475 68.3359 36.0385 67.8128 35.1221 67.2855C34.7903 67.0945 34.4576 66.903 34.1228 66.7116C34.1317 66.1809 34.056 65.6629 33.8786 65.1639Z" stroke="white" stroke-width="2"/>
<path d="M29.1402 46.8744L29.1454 46.8695C29.8092 46.2567 30.3844 45.5914 31.0029 44.8758C31.2204 44.6242 31.4433 44.3664 31.6773 44.1024C31.9729 43.7623 32.3926 43.3162 33.011 43.1936C33.6295 43.071 34.187 43.3213 34.6073 43.5398C35.0847 43.7695 35.5397 44.0163 35.9887 44.2781C39.0327 46.0099 42.0579 47.7595 45.0795 49.5071L45.0811 49.508L44.5805 50.3737M29.1402 46.8744L55.4749 43.7235C54.8895 42.699 54.2944 41.6842 53.6967 40.6649C53.4759 40.2884 53.2548 39.9114 53.0337 39.5331M29.1402 46.8744L29.135 46.8793C28.0897 47.8724 27.0297 48.6724 25.785 49.0635C26.3275 46.9874 27.3836 45.0966 28.6336 43.2215C28.6621 43.1787 28.6902 43.1366 28.7178 43.095C29.3434 42.1552 29.766 41.5203 30.4826 41.1866L30.4826 41.1866L30.4869 41.1846C31.9726 40.4844 33.5215 40.0506 35.1209 39.967M29.1402 46.8744L44.5987 39.3144C46.3841 39.4055 48.1877 39.4055 49.9913 39.3509M44.5805 50.3737L45.0776 49.506C48.2234 51.3086 51.3693 53.1112 54.4857 54.8991C54.7264 54.6562 54.9665 54.4142 55.2061 54.1726C56.2946 53.0752 57.3718 51.9892 58.4418 50.8909C57.1793 48.6836 55.9017 46.4613 54.6091 44.2238L54.6067 44.2197C54.0243 43.2004 53.4334 42.1927 52.8366 41.175C52.6153 40.7976 52.3931 40.4189 52.1703 40.0376L52.3173 39.9517C52.2612 39.9646 52.2034 39.9781 52.1441 39.9921M44.5805 50.3737C41.5563 48.6246 38.532 46.8755 35.4896 45.1447M44.5805 50.3737C47.9508 52.3049 51.3212 54.2362 54.6551 56.1493L35.4896 45.1447M52.1441 39.9921C52.1244 39.9575 52.1066 39.9251 52.0923 39.8991L52.0907 39.8962C52.0674 39.8538 52.0523 39.8263 52.0377 39.8015C52.0215 39.7739 52.0138 39.7632 52.0138 39.7632C52.0139 39.7631 52.0204 39.7719 52.0329 39.7847C52.0687 39.8212 52.1422 39.8794 52.2506 39.9112C52.2912 39.9231 52.3265 39.9282 52.3543 39.9301L52.4162 39.8939L52.2139 38.95M52.1441 39.9921C52.153 40.0078 52.1623 40.0239 52.1718 40.0401L52.3249 39.95C52.3601 39.9419 52.3945 39.9342 52.4283 39.9268L52.421 39.8935L53.0337 39.5331M52.1441 39.9921C52.0988 40.0029 52.0527 40.0139 52.0057 40.0251C51.4212 40.1645 50.7142 40.3331 50.0188 40.3505M52.2139 38.95L52.4205 39.8914L53.0337 39.5331M52.2139 38.95C52.0468 38.9867 51.8807 39.0261 51.7151 39.0654C51.1401 39.2018 50.5712 39.3367 49.9913 39.3509M52.2139 38.95C52.6594 38.8546 52.8131 39.1343 52.9662 39.413C52.9884 39.4534 53.0106 39.4938 53.0337 39.5331M50.0188 40.3505C50.0197 40.3505 50.0206 40.3504 50.0216 40.3504L49.9913 39.3509M50.0188 40.3505C50.0177 40.3505 50.0167 40.3505 50.0156 40.3506L49.9913 39.3509M50.0188 40.3505C48.1965 40.4057 46.3658 40.4059 44.5477 40.3131L44.5424 40.3129C43.8822 40.2756 43.2272 40.1695 42.63 40.0727C42.5853 40.0654 42.5409 40.0582 42.4968 40.0511C41.8438 39.9457 41.2534 39.8565 40.6722 39.8403L40.6709 39.8403C38.8403 39.787 37.0032 39.8756 35.1209 39.967M35.1209 39.967C35.1214 39.967 35.122 39.9669 35.1226 39.9669L35.0706 38.9683L35.1191 39.9671C35.1197 39.9671 35.1203 39.967 35.1209 39.967ZM35.4896 45.1447C35.0524 44.8896 34.6151 44.6527 34.1597 44.4341C33.3216 43.9968 33.0301 44.0697 32.4289 44.7621L35.4896 45.1447ZM52.4234 39.9278C52.4223 39.928 52.3985 39.9326 52.3583 39.9303L52.4166 39.896L52.4234 39.9278L52.4234 39.9278Z" stroke="white" stroke-width="2"/>
<path d="M32.2883 15.4172H30.2212L31.5042 17.0379C31.6623 17.2376 31.7957 17.399 31.9153 17.5438C32.0635 17.7231 32.1904 17.8767 32.3166 18.0454C32.2985 18.0625 32.2778 18.0813 32.254 18.1018L32.2436 18.1108L32.2334 18.1201C32.2262 18.1267 32.2195 18.1325 32.2132 18.1378C31.2617 17.2376 30.3336 16.3406 29.4733 15.3878C29.4726 15.3746 29.4725 15.3618 29.4728 15.3499C29.4868 15.3366 29.5036 15.3221 29.5229 15.3077C29.554 15.2845 29.5827 15.268 29.6038 15.2581C29.6094 15.2555 29.6137 15.2538 29.6165 15.2527C29.8454 15.2135 30.1018 15.2037 30.4094 15.208C30.5071 15.2093 30.6365 15.2132 30.7765 15.2174C30.9898 15.2237 31.2274 15.2308 31.4138 15.2308C32.1467 15.2308 32.8771 15.2297 33.6061 15.2285C35.7847 15.2251 37.9499 15.2217 40.1278 15.249L40.1278 15.249H40.1403C40.1723 15.249 40.2597 15.2614 40.369 15.3068C40.3884 15.3149 40.4068 15.3233 40.4239 15.3318C40.4178 15.3361 40.4114 15.3403 40.4048 15.3445C40.3764 15.3624 40.3523 15.3745 40.3355 15.3818C38.321 15.4244 36.3197 15.4215 34.2983 15.4186C33.7877 15.4179 33.2757 15.4172 32.7619 15.4172H32.2883Z" stroke="white" stroke-width="2"/>
<path d="M40.2046 10.8558H37.7906C37.7748 10.8558 37.7588 10.8558 37.7424 10.8559C37.586 10.8561 37.4029 10.8563 37.2335 10.8376H37.2239H37.209H37.1941H37.1791H37.1642H37.1492H37.1343H37.1193H37.1044H37.0894H37.0745H37.0596H37.0446H37.0297H37.0147H36.9998H36.9848H36.9699H36.9549H36.94H36.9251H36.9101H36.8952H36.8802H36.8653H36.8503H36.8354H36.8204H36.8055H36.7906H36.7756H36.7607H36.7457H36.7308H36.7158H36.7009H36.6859H36.671H36.6561H36.6411H36.6262H36.6112H36.5963H36.5813H36.5664H36.5514H36.5365H36.5216H36.5066H36.4917H36.4767H36.4618H36.4468H36.4319H36.4169H36.402H36.3871H36.3721H36.3572H36.3422H36.3273H36.3123H36.2974H36.2824H36.2675H36.2525H36.2376H36.2227H36.2077H36.1928H36.1778H36.1629H36.1479H36.133H36.118H36.1031H36.0882H36.0732H36.0583H36.0433H36.0284H36.0134H35.9985H35.9835H35.9686H35.9537H35.9387H35.9238H35.9088H35.8939H35.8789H35.864H35.849H35.8341H35.8192H35.8042H35.7893H35.7743H35.7594H35.7444H35.7295H35.7145H35.6996H35.6847H35.6697H35.6548H35.6398H35.6249H35.6099H35.595H35.58H35.5651H35.5502H35.5352H35.5203H35.5053H35.4904H35.4754H35.4605H35.4455H35.4306H35.4157H35.4007H35.3858H35.3708H35.3559H35.3409H35.326H35.311H35.2961H35.2811H35.2662H35.2513H35.2363H35.2214H35.2064H35.1915H35.1765H35.1616H35.1466H35.1317H35.1168H35.1018H35.0869H35.0719H35.057H35.042H35.0271H35.0121H34.9972H34.9823H34.9673H34.9524H34.9374H34.9225H34.9075H34.8926H34.8776H34.8627H34.8478H34.8328H34.8179H34.8029H34.788H34.773H34.7581H34.7431H34.7282H34.7133H34.6983H34.6834H34.6684H34.6535H34.6385H34.6236H34.6086H34.5937H34.5788H34.5638H34.5489H34.5339H34.519H34.504H34.4891H34.4741H34.4592H34.4443H34.4293H34.4144H34.3994H34.3845H34.3695H34.3546H34.3396H34.3247H34.3098H34.2948H34.2799H34.2649H34.25H34.235H34.2201H34.2051H34.1902H34.1752H34.1603H34.1454H34.1304H34.1155H34.1005H34.0856H34.0706H34.0557H34.0407H34.0258H34.0109H33.9959H33.981H33.966H33.9511H33.9361H33.9212H33.9062H33.8913H33.8764H33.8614H33.8465H33.8315H33.8166H33.8016H33.7867H33.7717H33.7568H33.7419H33.7269H33.712H33.697H33.6821H33.6671H33.6522H33.6372H33.6223H33.6074H33.5924H33.5775H33.5625H33.5476H33.5326H33.5177H33.5027H33.4878H33.4729H33.4579H33.443H33.428H33.4131H33.3981H33.3832H33.3682H33.3533H33.3384H33.3234H33.3085H33.2935H33.2786H33.2636H33.2487H33.2337H33.2188H33.2038H33.1889H33.174H33.159H33.1441H33.1291H33.1142H33.0992H33.0843H33.0693H33.0544H33.0395H33.0245H33.0096H32.9946H32.9797H32.9647H32.9498H32.9348H32.9199H32.905H32.89H32.8751H32.8601H32.8452H32.8302H32.8153H32.8003H32.7854H32.7705H32.7555H32.7406H32.7256H32.7107H32.6957H32.6808H32.6658H32.6509H32.636H32.621H32.6061H32.5911H32.5762H32.5612H32.5463H32.5313H32.5164H32.5015H32.4865H32.4716H32.4566H32.4417H32.4267H32.4118H32.3968H32.3819H32.367H32.352H32.3371H32.3221H32.3072H32.2922H32.2773H32.2623H32.2474H32.2324H32.2175H32.2026H32.1876H32.1727H32.1577H32.1428H32.1278H32.1129H32.0979H32.083H32.0681H32.0531H32.0382H32.0232H32.0083H31.9933H31.9784H31.9634H31.9485H31.9336H31.9186H31.9037H31.8887H31.8738H31.8588H31.8439H31.8289H31.814H31.7991H31.7841H31.7692H31.7542H31.7393H31.7243H31.7094H31.6944H31.6795H31.6646H31.6496H31.6347H31.6197H31.6048H31.5898H31.5749H31.5599H31.545H31.5301H31.5151H31.5002H31.4852H31.4703H31.4553H31.4404H31.4254H31.4105H31.3956H31.3806H31.3657H31.3507H31.3358H31.3208H31.3059H31.2909H31.276H31.261H31.2461H31.2312H31.2162H31.2013H31.1863H31.1714H31.1564H31.1415H31.1265H31.1116H31.0967H31.0817H31.0668H31.0518H31.0369H31.0219H31.007H30.992H30.9771H30.9622H30.9472H30.9323H30.9173H30.9024H30.8874H30.8725H30.8575H30.8426H30.8277H30.8127H30.7978H30.7828H30.7679H30.7529H30.738H30.723H30.7081H30.6932H30.6782H30.6633H30.6483H30.6334H30.6184H30.6035H30.5885H30.5736H30.5587H30.5437H30.5288H30.5138H30.4989H30.4839H30.469H30.454H30.4391H30.4242H30.4092H30.3943H30.3793H30.3644H30.3494H30.3345H30.3195H30.3046H30.2897H30.2747H30.2598H30.2448H30.2299H30.2149H30.2H30.185H30.1701H30.1551H30.1402H30.1253H30.1103H30.0954H30.0804H30.0655H30.0505H30.0356H30.0206H30.0057H29.9908H29.9758H29.9609H29.9459H29.931H29.916H29.9011H29.8861H29.8712H29.8563H29.8413H29.8264H29.8114H29.7965H29.7815H29.7666H29.7516H29.7367H29.7218H29.7068H29.6919H29.6769H29.662H29.6601C29.5748 10.8402 29.5183 10.8492 29.4832 10.8577L40.2046 10.8558ZM40.2046 10.8558L38.4977 9.14875C38.3402 8.99123 38.204 8.85068 38.0748 8.71694C38.064 8.70578 38.0533 8.69464 38.0425 8.68351C37.9262 8.56304 37.8114 8.44416 37.6961 8.32887C37.6567 8.28953 37.6474 8.25272 37.6474 8.22518C37.6474 8.19999 37.6552 8.16705 37.6866 8.13152C37.7059 8.14621 37.7297 8.16655 37.7575 8.19437L37.7575 8.19441L37.7648 8.20162C38.2069 8.63468 38.645 9.07285 39.0874 9.51528L39.0891 9.51695C39.5285 9.9564 39.9722 10.4001 40.421 10.8398C40.4589 10.8778 40.4895 10.9089 40.5149 10.9356C40.4814 10.9845 40.4584 11.0033 40.4514 11.0084C40.4468 11.0118 40.4436 11.0135 40.4371 11.0155C40.4296 11.0178 40.4062 11.0239 40.3593 11.0239H40.3543H40.3493H40.3443H40.3392H40.3342H40.3292H40.3242H40.3192H40.3141H40.3091H40.3041H40.2991H40.2941H40.289H40.284H40.279H40.274H40.2689H40.2639H40.2589H40.2539H40.2488H40.2438H40.2388H40.2338H40.2287H40.2237H40.2187H40.2136H40.2086H40.2036H40.1986H40.1935H40.1885H40.1835H40.1784H40.1734H40.1684H40.1633H40.1583H40.1533H40.1482H40.1432H40.1382H40.1331H40.1281H40.1231H40.118H40.113H40.108H40.1029H40.0979H40.0929H40.0878H40.0828H40.0778H40.0727H40.0677H40.0626H40.0576H40.0526H40.0475H40.0425H40.0374H40.0324H40.0274H40.0223H40.0173H40.0122H40.0072H40.0021H39.9971H39.9921H39.987H39.982H39.9769H39.9719H39.9668H39.9618H39.9568H39.9517H39.9467H39.9416H39.9366H39.9315H39.9265H39.9214H39.9164H39.9113H39.9063H39.9012H39.8962H39.8911H39.8861H39.881H39.876H39.8709H39.8659H39.8608H39.8558H39.8507H39.8457H39.8406H39.8356H39.8305H39.8255H39.8204H39.8154H39.8103H39.8053H39.8002H39.7952H39.7901H39.7851H39.78H39.7749H39.7699H39.7648H39.7598H39.7547H39.7497H39.7446H39.7396H39.7345H39.7294H39.7244H39.7193H39.7143H39.7092H39.7042H39.6991H39.694H39.689H39.6839H39.6789H39.6738H39.6688H39.6637H39.6586H39.6536H39.6485H39.6435H39.6384H39.6333H39.6283H39.6232H39.6182H39.6131H39.608H39.603H39.5979H39.5929H39.5878H39.5827H39.5777H39.5726H39.5675H39.5625H39.5574H39.5524H39.5473H39.5422H39.5372H39.5321H39.527H39.522H39.5169H39.5118H39.5068H39.5017H39.4967H39.4916H39.4865H39.4815H39.4764H39.4713H39.4663H39.4612H39.4561H39.4511H39.446H39.4409H39.4359H39.4308H39.4257H39.4207H39.4156H39.4105H39.4055H39.4004H39.3953H39.3903H39.3852H39.3801H39.3751H39.37H39.3649H39.3599H39.3548H39.3497H39.3447H39.3396H39.3345H39.3295H39.3244H39.3193H39.3142H39.3092H39.3041H39.299H39.294H39.2889H39.2838H39.2788H39.2737H39.2686H39.2636H39.2585H39.2534H39.2484H39.2433H39.2382H39.2331H39.2281H39.223H39.2179H39.2129H39.2078H39.2027H39.1977H39.1926H39.1875H39.1824H39.1774H39.1723H39.1672H39.1622H39.1571H39.152H39.147H39.1419H39.1368H39.1317H39.1267H39.1216H39.1165H39.1115H39.1064H39.1013H39.0963H39.0912H39.0861H39.081H39.076H39.0709H39.0658H39.0608H39.0557H39.0506H39.0455H39.0405H39.0354H39.0303H39.0253H39.0202H39.0151H39.0101H39.005H38.9999H38.9948H38.9898H38.9847H38.9796H38.9746H38.9695H38.9644H38.9594H38.9543H38.9492H38.9441H38.9391H38.934H38.9289H38.9239H38.9188H38.9137H38.9087H38.9036H38.8985H38.8934H38.8884H38.8833H38.8782H38.8732H38.8681H38.863H38.858H38.8529H38.8478H38.8428H38.8377H38.8326H38.8275H38.8225H38.8174H38.8123H38.8073H38.8022H38.7971H38.7921H38.787H38.7819H38.7769H38.7718H38.7667H38.7617H38.7566H38.7515H38.7465H38.7414H38.7363H38.7313H38.7262H38.7211H38.7161H38.711H38.7059H38.7009H38.6958H38.6907H38.6857H38.6806H38.6755H38.6705H38.6654H38.6603H38.6553H38.6502H38.6451H38.6401H38.635H38.6299H38.6249H38.6198H38.6147H38.6097H38.6046H38.5996H38.5945H38.5894H38.5844H38.5793H38.5742H38.5692H38.5641H38.5591H38.554H38.5489H38.5439H38.5388H38.5337H38.5287H38.5236H38.5186H38.5135H38.5084H38.5034H38.4983H38.4933H38.4882H38.4831H38.4781H38.473H38.468H38.4629H38.4578H38.4528H38.4477H38.4427H38.4376H38.4325H38.4275H38.4224H38.4174H38.4123H38.4073H38.4022H38.3972H38.3921H38.387H38.382H38.3769H38.3719H38.3668H38.3618H38.3567H38.3517H38.3466H38.3415H38.3365H38.3314H38.3264H38.3213H38.3163H38.3112H38.3062H38.3011H38.2961H38.291H38.286H38.2809H38.2759H38.2708H38.2658H38.2607H38.2557H38.2506H38.2456H38.2405H38.2355H38.2304H38.2254H38.2203H38.2153H38.2102H38.2052H38.2001H38.1951H38.19H38.185H38.1799H38.1749H38.1699H38.1648H38.1598H38.1547H38.1497H38.1446H38.1396H38.1346H38.1295H38.1245H38.1194H38.1144H38.1093H38.1043H38.0993H38.0942H38.0892H38.0841H38.0791H38.0741H38.069H38.064H38.0589H38.0539H38.0489H38.0438H38.0388H38.0338H38.0287H38.0237H38.0186H38.0136H38.0086H38.0035H37.9985H37.9935H37.9884H37.9834H37.9784H37.9733H37.9683H37.9633H37.9582H37.9532H37.9482H37.9432H37.9381H37.9331H37.9281H37.923H37.918H37.913H37.9079H37.9029H37.8979H37.8929H37.8878H37.8828H37.8778H37.8728H37.8677H37.8627H37.8577H37.8527H37.8476H37.8426H37.8376H37.8326H37.8276H37.8225H37.8175H37.8125H37.8075H37.8025H37.7974H37.7924H37.7874H37.7824H37.7774H37.7723H37.7564H37.7405H37.7246H37.7087H37.6928H37.6769H37.661H37.6451H37.6292H37.6133H37.5974H37.5815H37.5656H37.5497H37.5338H37.5179H37.502H37.4861H37.4702H37.4543H37.4384H37.4225H37.4066H37.3907H37.3748H37.3589H37.343H37.3271H37.3113H37.2954H37.2795H37.2636H37.2477H37.2318H37.2159H37.2H37.1841H37.1682H37.1523H37.1364H37.1206H37.1047H37.0888H37.0729H37.057H37.0411H37.0252H37.0093H36.9934H36.9776H36.9617H36.9458H36.9299H36.914H36.8981H36.8822H36.8664H36.8505H36.8346H36.8187H36.8028H36.7869H36.7711H36.7552H36.7393H36.7234H36.7075H36.6917H36.6758H36.6599H36.644H36.6281H36.6123H36.5964H36.5805H36.5646H36.5487H36.5329H36.517H36.5011H36.4852H36.4694H36.4535H36.4376H36.4217H36.4059H36.39H36.3741H36.3582H36.3424H36.3265H36.3106H36.2947H36.2789H36.263H36.2471H36.2312H36.2154H36.1995H36.1836H36.1677H36.1519H36.136H36.1201H36.1043H36.0884H36.0725H36.0567H36.0408H36.0249H36.009H35.9932H35.9773H35.9614H35.9456H35.9297H35.9138H35.898H35.8821H35.8662H35.8504H35.8345H35.8186H35.8028H35.7869H35.771H35.7552H35.7393H35.7234H35.7076H35.6917H35.6758H35.66H35.6441H35.6283H35.6124H35.5965H35.5807H35.5648H35.5489H35.5331H35.5172H35.5013H35.4855H35.4696H35.4538H35.4379H35.422H35.4062H35.3903H35.3745H35.3586H35.3427H35.3269H35.311H35.2952H35.2793H35.2634H35.2476H35.2317H35.2159H35.2H35.1841H35.1683H35.1524H35.1366H35.1207H35.1048H35.089H35.0731H35.0573H35.0414H35.0256H35.0097H34.9938H34.978H34.9621H34.9463H34.9304H34.9146H34.8987H34.8828H34.867H34.8511H34.8353H34.8194H34.8036H34.7877H34.7718H34.756H34.7401H34.7243H34.7084H34.6926H34.6767H34.6609H34.645H34.6292H34.6133H34.5974H34.5816H34.5657H34.5499H34.534H34.5182H34.5023H34.4865H34.4706H34.4548H34.4389H34.423H34.4072H34.3913H34.3755H34.3596H34.3438H34.3279H34.3121H34.2962H34.2804H34.2645H34.2487H34.2328H34.217H34.2011H34.1853H34.1694H34.1535H34.1377H34.1218H34.106H34.0901H34.0743H34.0584H34.0426H34.0267H34.0109H33.995H33.9792H33.9633H33.9475H33.9316H33.9158H33.8999H33.8841H33.8682H33.8524H33.8365H33.8206H33.8048H33.7889H33.7731H33.7572H33.7414H33.7255H33.7097H33.6938H33.678H33.6621H33.6463H33.6304H33.6146H33.5987H33.5829H33.567H33.5512H33.5353H33.5195H33.5036H33.4878H33.4719H33.4561H33.4402H33.4243H33.4085H33.3926H33.3768H33.3609H33.3451H33.3292H33.3134H33.2975H33.2817H33.2658H33.25H33.2341H33.2183H33.2024H33.1866H33.1707H33.1549H33.139H33.1232H33.1073H33.0914H33.0756H33.0597H33.0439H33.028H33.0122H32.9963H32.9805H32.9646H32.9488H32.9329H32.9171H32.9012H32.8853H32.8695H32.8536H32.8378H32.8219H32.8061H32.7902H32.7744H32.7585H32.7427H32.7268H32.7109H32.6951H32.6792H32.6634H32.6475H32.6317H32.6158H32.6H32.5841H32.5682H32.5524H32.5365H32.5207H32.5048H32.489H32.4731H32.4572H32.4414H32.4255H32.4097H32.3938H32.378H32.3621H32.3462H32.3304H32.3145H32.2987H32.2828H32.267H32.2511H32.2352H32.2194H32.2035H32.1877H32.1718H32.1559H32.1401H32.1242H32.1084H32.0925H32.0766H32.0608H32.0449H32.0291H32.0132H31.9973H31.9815H31.9656H31.9497H31.9339H31.918H31.9022H31.8863H31.8704H31.8546H31.8387H31.8228H31.807H31.7911H31.7753H31.7594H31.7435H31.7277H31.7118H31.6959H31.6801H31.6642H31.6483H31.6325H31.6166H31.6007H31.5849H31.569H31.5531H31.5373H31.5214H31.5055H31.4897H31.4738H31.4579H31.4421H31.4262H31.4103H31.3945H31.3786H31.3627H31.3468H31.331H31.3151H31.2992H31.2834H31.2675H31.2516H31.2358H31.2199H31.204H31.1881H31.1723H31.1564H31.1405H31.1246H31.1088H31.0929H31.077H31.0611H31.0453H31.0294H31.0135H30.9976H30.9818H30.9659H30.95H30.9341H30.9183H30.9024H30.8865H30.8706H30.8548H30.8389H30.823H30.8071H30.7912H30.7754H30.7595H30.7436H30.7277H30.7118H30.696H30.6801H30.6642H30.6483H30.6324H30.6165H30.6007H30.5848H30.5689H30.553H30.5371H30.5212H30.5054H30.4895H30.4736H30.4577H30.4418H30.4259H30.41H30.3942H30.3783H30.3624H30.3465H30.3306H30.3147H30.2988H30.2829H30.267H30.2511H30.2353H30.2194H30.2035H30.1876H30.1717H30.1558H30.1399H30.124H30.1081H30.0922H30.0763H30.0604H30.0445H30.0286H30.0127H29.9969H29.981H29.9651H29.9492H29.9333H29.9174H29.9015H29.8856H29.8697H29.8538H29.8379H29.822H29.8061H29.7902H29.7743H29.7584H29.7425H29.7266H29.7106H29.6947H29.6788H29.6629H29.647C29.5732 11.0239 29.5207 11.0182 29.4858 11.0118C29.4835 10.9936 29.4815 10.9704 29.4807 10.9416L40.2046 10.8558ZM29.4345 10.874C29.4345 10.874 29.4351 10.8736 29.4363 10.873C29.4352 10.8737 29.4346 10.874 29.4345 10.874Z" stroke="white" stroke-width="2"/>
<path d="M21.5304 59.4944L21.5709 59.4983L21.6115 59.499C21.8822 59.5031 22.0115 59.6222 22.0642 59.7141C22.1159 59.8043 22.1492 59.9623 22.0222 60.1778L22.0222 60.1777L22.0183 60.1844C21.0195 61.9098 20.021 63.5982 18.9865 65.3044C18.8826 65.4752 18.7948 65.5754 18.7318 65.6315C18.6725 65.6842 18.6414 65.693 18.638 65.6939L18.638 65.6939L18.6378 65.694C18.6358 65.6946 18.6204 65.6994 18.576 65.6901C18.5239 65.6792 18.4329 65.6483 18.299 65.5682C18.1621 65.4849 18.1251 65.4038 18.1127 65.3472C18.0984 65.2821 18.0923 65.1275 18.2337 64.877C18.7891 63.8998 19.3465 62.9449 19.9059 61.9867C20.3401 61.243 20.7754 60.4973 21.2118 59.7377C21.3088 59.5802 21.3793 59.5263 21.4066 59.51C21.4191 59.5025 21.429 59.4988 21.4407 59.4963C21.4533 59.4936 21.481 59.4896 21.5304 59.4944Z" stroke="white" stroke-width="2"/>
<path d="M25.989 63.4973L25.989 63.4973L25.9872 63.5007C25.3156 64.791 24.5516 66.0361 23.7523 67.3078C23.7428 67.3224 23.7355 67.3306 23.7315 67.3345C23.7275 67.3386 23.725 67.3402 23.7239 67.3408L23.7239 67.3409C23.7231 67.3413 23.7138 67.3473 23.6864 67.3504C23.623 67.3575 23.4668 67.3451 23.2372 67.2131L23.2372 67.213L23.2265 67.2071C23.0883 67.1298 23.0385 67.047 23.0255 67.0133C23.0195 66.9977 23.0193 66.9889 23.0196 66.9835C23.0199 66.9787 23.0215 66.9604 23.0395 66.9263L23.0395 66.9263L23.0428 66.9202C23.7201 65.6189 24.4298 64.3409 25.1894 63.1018C25.2025 63.0884 25.2494 63.0447 25.3789 62.9639C25.4383 62.9268 25.496 62.8932 25.5669 62.8518C25.5821 62.843 25.5979 62.8338 25.6144 62.8241C25.7837 62.8919 25.9092 62.9932 25.979 63.0899C26.0277 63.1574 26.0458 63.2159 26.0498 63.2639C26.0534 63.3086 26.0483 63.3843 25.989 63.4973Z" stroke="white" stroke-width="2"/>
<path d="M16.1074 60.0085L16.1057 60.0319L16.1052 60.0554C16.1052 60.0554 16.1051 60.0555 16.1051 60.0557C16.1042 60.0625 16.09 60.1682 16.003 60.3626C15.9206 60.5469 15.8002 60.749 15.6576 60.9281C15.512 61.111 15.3708 61.2353 15.2593 61.302C15.201 61.3369 15.1674 61.3468 15.1545 61.3495C14.9828 61.3207 14.8349 61.2151 14.7522 61.0821C14.6741 60.9566 14.6731 60.8462 14.7164 60.7515L14.7177 60.7486C14.892 60.3652 15.0624 60.0306 15.2643 59.7422L15.2755 59.7261L15.2862 59.7095C15.2862 59.7095 15.2864 59.7092 15.2869 59.7085L15.2891 59.7057C15.2912 59.7031 15.2943 59.6995 15.2988 59.695C15.308 59.6857 15.3219 59.6736 15.3414 59.6601C15.3816 59.6323 15.4367 59.6048 15.5025 59.5852C15.646 59.5424 15.7567 59.5594 15.8034 59.5792L15.8104 59.5822L15.8175 59.5851C15.9953 59.6573 16.0532 59.7217 16.0704 59.7461C16.0705 59.7463 16.0707 59.7465 16.0708 59.7467C16.0792 59.7586 16.121 59.8178 16.1074 60.0085ZM15.1484 61.3503C15.1484 61.3502 15.1494 61.3501 15.1512 61.35L15.1484 61.3503Z" stroke="white" stroke-width="2"/>
</svg>
