<svg width="56" height="70" viewBox="0 0 56 70" fill="none" xmlns="http://www.w3.org/2000/svg">
<path d="M40.567 31.9159C41.48 31.9306 42.3962 31.51 43.0531 30.8905C43.7209 30.2607 44.2352 29.3118 44.1124 28.201L44.1116 28.1945L40.4023 26.011L40.4048 25.011C40.4043 25.011 40.4038 25.011 40.4032 25.011C32.0945 24.9906 23.7858 24.9906 15.4571 25.011M40.567 31.9159C40.5665 31.9159 40.5659 31.9159 40.5654 31.9159L40.5821 30.916L40.5676 31.9159C40.5674 31.9159 40.5672 31.9159 40.567 31.9159ZM40.567 31.9159C37.5514 31.8724 34.53 31.8807 31.5029 31.889C30.2896 31.8923 29.0754 31.8957 27.8603 31.8957C26.8303 31.8957 25.7981 31.8969 24.7642 31.8982C21.6564 31.902 18.5338 31.9059 15.413 31.8753C14.5757 31.8748 13.7904 31.7415 13.1397 31.2524C12.4942 30.7672 12.1425 30.052 11.89 29.269L11.886 29.2564L11.886 29.2564C11.624 28.4051 11.8385 27.4836 12.2085 26.788C12.5766 26.0961 13.2265 25.3898 14.1127 25.164L14.1257 25.1607L14.1387 25.1578C14.5725 25.0596 15.0258 25.011 15.4571 25.011M15.4571 25.011C15.4574 25.011 15.4577 25.011 15.458 25.011V26.0108L15.4556 25.011C15.4561 25.011 15.4566 25.011 15.4571 25.011ZM23.6613 44.9577C22.9518 44.96 22.2412 44.9622 21.5293 44.9622C20.8163 44.9622 20.1103 44.9576 19.4081 44.9531C18.0201 44.9441 16.6469 44.9352 15.2631 44.9619C13.3314 45.0179 11.7772 43.296 11.7224 41.5098C11.6643 39.6565 13.2634 38.079 15.136 38.0775M23.6613 44.9577L27.9002 43.9622C29.2583 43.9826 30.3367 42.8225 30.3767 41.4588C30.4166 40.2173 29.2982 39.0775 28.0201 39.0775M23.6613 44.9577C25.0746 44.9532 26.4834 44.9487 27.8887 44.9622M23.6613 44.9577L27.8887 44.9622M15.136 38.0775C15.1368 38.0775 15.1377 38.0775 15.1385 38.0775V39.0775M15.136 38.0775C15.1352 38.0775 15.1345 38.0775 15.1338 38.0775L15.1385 39.0775M15.136 38.0775C19.4315 38.0572 23.7271 38.0572 28.0226 38.0775C28.0233 38.0775 28.0241 38.0775 28.0248 38.0775L28.0201 39.0775M15.1385 39.0775C13.8004 39.0775 12.682 40.2173 12.7219 41.4792C12.7619 42.7818 13.9202 44.0029 15.2384 43.9622L28.0201 39.0775M15.1385 39.0775C19.4324 39.0572 23.7262 39.0572 28.0201 39.0775M27.8887 44.9622C29.8594 44.9897 31.3216 43.3271 31.3762 41.4895L27.8887 44.9622ZM1.00014 5.97781L1.00013 5.97697C0.982888 3.42866 2.60889 1.44185 4.61745 1.10863L4.61746 1.10869L4.62831 1.10677C5.02847 1.03584 5.44934 1 5.85179 1H5.93827H6.02474H6.11122H6.1977H6.28418H6.37066H6.45713H6.54361H6.63009H6.71657H6.80304H6.88952H6.976H7.06248H7.14896H7.23543H7.32191H7.40839H7.49487H7.58134H7.66782H7.7543H7.84078H7.92726H8.01373H8.10021H8.18669H8.27317H8.35964H8.44612H8.5326H8.61908H8.70556H8.79203H8.87851H8.96499H9.05147H9.13794H9.22442H9.3109H9.39738H9.48386H9.57033H9.65681H9.74329H9.82977H9.91624H10.0027H10.0892H10.1757H10.2622H10.3486H10.4351H10.5216H10.6081H10.6945H10.781H10.8675H10.954H11.0405H11.1269H11.2134H11.2999H11.3864H11.4728H11.5593H11.6458H11.7323H11.8188H11.9052H11.9917H12.0782H12.1647H12.2511H12.3376H12.4241H12.5106H12.5971H12.6835H12.77H12.8565H12.943H13.0294H13.1159H13.2024H13.2889H13.3754H13.4618H13.5483H13.6348H13.7213H13.8077H13.8942H13.9807H14.0672H14.1537H14.2401H14.3266H14.4131H14.4996H14.586H14.6725H14.759H14.8455H14.932H15.0184H15.1049H15.1914H15.2779H15.3643H15.4508H15.5373H15.6238H15.7103H15.7967H15.8832H15.9697H16.0562H16.1426H16.2291H16.3156H16.4021H16.4886H16.575H16.6615H16.748H16.8345H16.9209H17.0074H17.0939H17.1804H17.2669H17.3533H17.4398H17.5263H17.6128H17.6992H17.7857H17.8722H17.9587H18.0452H18.1316H18.2181H18.3046H18.3911H18.4775H18.564H18.6505H18.737H18.8235H18.9099H18.9964H19.0829H19.1694H19.2558H19.3423H19.4288H19.5153H19.6018H19.6882H19.7747H19.8612H19.9477H20.0341H20.1206H20.2071H20.2936H20.3801H20.4665H20.553H20.6395H20.726H20.8124H20.8989H20.9854H21.0719H21.1584H21.2448H21.3313H21.4178H21.5043H21.5907H21.6772H21.7637H21.8502H21.9367H22.0231H22.1096H22.1961H22.2826H22.369H22.4555H22.542H22.6285H22.715H22.8014H22.8879H22.9744H23.0609H23.1473H23.2338H23.3203H23.4068H23.4932H23.5797H23.6662H23.7527H23.8392H23.9256H24.0121H24.0986H24.1851H24.2716H24.358H24.4445H24.531H24.6175H24.7039H24.7904H24.8769H24.9634H25.0499H25.1363H25.2228H25.3093H25.3958H25.4822H25.5687H25.6552H25.7417H25.8281H25.9146H26.0011H26.0876H26.1741H26.2605H26.347H26.4335H26.52H26.6064H26.6929H26.7794H26.8659H26.9524H27.0388H27.1253H27.2118H27.2983H27.3847H27.4712H27.5577H27.6442H27.7307H27.8171H27.9036H27.9901H28.0766H28.163H28.2495H28.336H28.4225H28.509H28.5954H28.6819H28.7684H28.8549H28.9413H29.0278H29.1143H29.2008H29.2873H29.3737H29.4602H29.5467H29.6332H29.7196H29.8061H29.8926H29.9791H30.0656H30.152H30.2385H30.325H30.4115H30.4979H30.5844H30.6709H30.7574H30.8439H30.9303H31.0168H31.1033H31.1898H31.2762H31.3627H31.4492H31.5357H31.6222H31.7086H31.7951H31.8816H31.9681H32.0545H32.141H32.2275H32.314H32.4005H32.4869H32.5734H32.6599H32.7464H32.8328H32.9193H33.0058H33.0923H33.1788H33.2652H33.3517H33.4382H33.5247H33.6111H33.6976H33.7841H33.8706H33.9571H34.0435H34.13H34.2165H34.303H34.3894H34.4759H34.5624H34.6489H34.7354H34.8218H34.9083H34.9948H35.0813H35.1677H35.2542H35.3407H35.4272H35.5137H35.6001H35.6866H35.7731H35.8596H35.946H36.0325H36.119H36.2055H36.292H36.3784H36.4649H36.5514H36.6379H36.7243H36.8108H36.8973H36.9838H37.0703H37.1567H37.2432H37.3297H37.4162H37.5026H37.5891H37.6756H37.7621H37.8486H37.935H38.0215H38.108H38.1945H38.2809H38.3674H38.4539H38.5404H38.6269H38.7133H38.7998H38.8863H38.9728H39.0592H39.1457H39.2322H39.3187H39.4052H39.4916H39.5781H39.6646H39.7511H39.8375H39.924H40.0105H40.097H40.1835H40.2699H40.3564H40.4429H40.5294H40.6158H40.7023H40.7888H40.8753H40.9618H41.0482H41.1347H41.2212H41.3077H41.3941H41.4806H41.5671H41.6536H41.7401H41.8265H41.913H41.9995H42.086H42.1724H42.2589H42.3454H42.4319H42.5184H42.6048H42.6913H42.7778H42.8643H42.9507H43.0372H43.1237H43.2102H43.2967H43.3831H43.4696H43.5561H43.6426H43.729H43.8155H43.902H43.9885H44.075H44.1614H44.2479H44.3344H44.4209H44.5073H44.5938H44.6803H44.7668H44.8533H44.9397H45.0262H45.1127H45.1992H45.2856H45.3721H45.4586H45.5451H45.6316H45.718H45.8045H45.891H45.9775H46.0639H46.1504H46.2369H46.3234H46.4099H46.4963H46.5828H46.6693H46.7558H46.8422H46.9287H47.0152H47.1017H47.1882H47.2746H47.3611H47.4476H47.5341H47.6205H47.707H47.7935H47.88H47.9665H48.0529H48.1394H48.2259H48.3124H48.3988H48.4853H48.5718H48.6583H48.7448H48.8312H48.9177H49.0042H49.0907H49.1771H49.2636H49.3501H49.4366H49.5231H49.6095H49.696H49.7825H49.869H49.9554H50.0419H50.1284C52.4957 1 54.257 2.38695 54.8287 4.73459L54.8291 4.73623C54.9414 5.19405 54.98 5.7341 54.98 6.28903V6.31222C54.98 26.5555 54.98 46.7993 55 67.0433C54.9998 67.7184 54.8012 68.2384 54.5259 68.5484C54.2797 68.8256 53.9075 69.0141 53.3063 68.94L53.2985 68.939L53.2907 68.9382C53.1183 68.9197 52.8568 68.818 52.6394 68.6657L52.6395 68.6657L52.6291 68.6586C50.1514 66.9684 47.6827 65.2844 45.2551 63.5608L45.2552 63.5608L45.2482 63.5559C45.0104 63.3901 44.6429 63.1723 44.1721 63.1804C43.7031 63.1885 43.3477 63.4159 43.1115 63.6009C40.7443 65.3443 38.3563 67.068 35.9671 68.7724L35.9659 68.7732C35.4815 69.1199 34.8266 69.0797 34.2699 68.5664L34.2695 68.566C32.6049 67.0331 30.9014 65.5217 29.206 64.0175L29.2058 64.0174C29.0002 63.8327 28.6295 63.5371 28.1147 63.4985C27.546 63.4559 27.1005 63.7389 26.7859 64.0437C25.9823 64.8162 25.148 65.5366 24.2917 66.2759C24.0458 66.4882 23.7981 66.7021 23.5488 66.9192L23.5459 66.9217C23.3077 67.1308 23.0849 67.3335 22.8695 67.5293C22.3789 67.9757 21.9269 68.3869 21.4182 68.7591L21.4097 68.7653L21.4014 68.7716C21.0786 69.0183 20.3394 69.1382 19.6202 68.5885L19.6168 68.5859C17.3477 66.8669 15.041 65.2113 12.7235 63.5621C12.3963 63.3286 12.0052 63.2677 11.7443 63.2596C11.4959 63.2519 11.0762 63.2829 10.7177 63.5316C10.5225 63.6631 10.3272 63.7947 10.1316 63.9264C7.8533 65.4608 5.54569 67.0149 3.30502 68.6567C2.84554 68.992 2.29886 69.0324 1.8732 68.8575C1.47524 68.6939 1.1292 68.3214 1.07735 67.6608C1.06045 67.4175 1.06008 67.188 1.06009 66.8999L1.06007 66.896C1.02014 56.7015 1.02013 46.4863 1.02013 36.2892C1.02013 33.4083 1.02339 30.5247 1.02665 27.6398C1.0348 20.4208 1.04296 13.1932 1.00014 5.97781ZM40.6724 18.9105V18.9105H40.6819C41.4232 18.9105 42.1424 18.5752 42.6664 18.2078C43.1736 17.8523 43.7216 17.3091 43.9291 16.6746C44.2777 15.6087 44.1929 14.45 43.5747 13.5275C42.9424 12.584 41.8543 12.0387 40.5117 12.0259L40.507 12.0259C34.1821 11.9953 27.8451 11.9991 21.5168 12.0029C19.4094 12.0042 17.303 12.0055 15.1984 12.0055C13.3607 12.0055 11.6537 13.5329 11.743 15.4734L11.743 15.4734L11.7433 15.4791C11.8209 16.9826 12.9185 18.9105 15.2184 18.9105V18.9106L15.228 18.9105C18.3818 18.88 21.5338 18.8838 24.7005 18.8876C25.7586 18.8889 26.8183 18.8902 27.8803 18.8902C28.9516 18.8902 30.0219 18.8889 31.0912 18.8876C34.2941 18.8838 37.4879 18.88 40.6724 18.9105Z" stroke="black" stroke-width="2"/>
</svg>
