<svg width="57" height="61" viewBox="0 0 57 61" fill="none" xmlns="http://www.w3.org/2000/svg">
<path d="M19.8261 47.8736H44.6087V50.3863H19.8261V47.8736ZM2.47826 46.6172V32.6239C0.956609 31.0383 0 28.895 0 26.5154C0 21.6659 3.89087 17.7209 8.67391 17.7209C13.457 17.7209 17.3478 21.6659 17.3478 26.5154C17.3478 28.895 16.3912 31.0383 14.8696 32.6239V46.6172L8.67391 41.9059L2.47826 46.6172ZM12.3913 34.428C11.2612 34.9783 10.0097 35.31 8.67391 35.31C7.33813 35.31 6.08661 34.9758 4.95652 34.428V41.5918L8.67391 38.765L12.3913 41.5918V34.428ZM2.47826 26.5154C2.47826 29.9805 5.25887 32.7973 8.67391 32.7973C12.089 32.7973 14.8696 29.9805 14.8696 26.5154C14.8696 23.0504 12.089 20.2336 8.67391 20.2336C5.25887 20.2336 2.47826 23.0504 2.47826 26.5154ZM19.8261 40.3354H44.6087V37.8227H19.8261V40.3354ZM44.6087 27.7718H22.2424C22.1656 28.6362 22.0045 29.4729 21.779 30.2845H44.6087V27.7718ZM57 18.4571V60.4372H7.43478V47.8736H9.91304V57.9245H54.5217V20.2336H37.1739V2.64456H13.6304C11.5809 2.64456 9.91304 4.33562 9.91304 6.41365V12.6955H7.43478V6.41365C7.43478 2.9486 10.2154 0.131836 13.6304 0.131836H38.926L57 18.4571ZM52.7696 17.7209L39.6522 4.42106V17.7209H52.7696Z" fill="#3C166B"/>
</svg>
