<svg width="60" height="61" viewBox="0 0 60 61" fill="none" xmlns="http://www.w3.org/2000/svg">
<path d="M60 59.1809C60 59.8744 59.44 60.4372 58.75 60.4372H6.25C2.805 60.4372 0 57.618 0 54.1554V1.3882C0 0.694686 0.56 0.131836 1.25 0.131836C1.94 0.131836 2.5 0.694686 2.5 1.3882V54.1554C2.5 56.2334 4.1825 57.9245 6.25 57.9245H58.75C59.44 57.9245 60 58.4874 60 59.1809ZM53.75 12.6955H43.75C43.06 12.6955 42.5 13.2583 42.5 13.9518C42.5 14.6453 43.06 15.2082 43.75 15.2082H53.75C54.3275 15.2082 54.875 15.3414 55.365 15.575L40.9375 29.1789C39.4775 30.6489 37.0975 30.6514 35.555 29.1061L33.17 27.0984C30.8125 24.7264 26.6775 24.7389 24.345 27.0858L10.38 40.6897C9.885 41.1722 9.8725 41.9687 10.3525 42.4662C10.5975 42.72 10.925 42.8482 11.25 42.8482C11.5625 42.8482 11.8775 42.7301 12.12 42.4939L26.0975 28.8774C27.5125 27.4552 29.905 27.3798 31.48 28.9503L33.865 30.9579C36.3 33.4078 40.2675 33.4078 42.675 30.9856L57.1025 17.3817L57.13 17.3541C57.365 17.8465 57.4975 18.3968 57.4975 18.9798V29.0307C57.4975 29.7242 58.0575 30.287 58.7475 30.287C59.4375 30.287 59.9975 29.7242 59.9975 29.0307V18.9773C59.9975 15.5147 57.195 12.6955 53.75 12.6955Z" fill="#3C166B"/>
</svg>
