<svg width="45" height="45" viewBox="0 0 45 45" fill="none" xmlns="http://www.w3.org/2000/svg">
<path d="M39.5442 13.0875C37.9504 11.325 35.2879 10.4437 31.4254 10.4437H30.9754V10.3687C30.9754 7.21873 30.9754 3.31873 23.9254 3.31873H21.0754C14.0254 3.31873 14.0254 7.23748 14.0254 10.3687V10.4625H13.5754C9.69419 10.4625 7.05044 11.3437 5.45669 13.1062C3.60044 15.1687 3.65669 17.9437 3.84419 19.8375L3.86294 19.9687L4.02789 21.7008C4.04216 21.8505 4.12246 21.9855 4.24811 22.0683C4.6481 22.3318 5.55919 22.9257 6.07544 23.2125C6.33794 23.3812 6.61919 23.5312 6.90044 23.6812C10.1067 25.4437 13.6317 26.625 17.2129 27.2062C17.3817 28.9687 18.1504 31.0312 22.2567 31.0312C26.3629 31.0312 27.1692 28.9875 27.3004 27.1687C31.1254 26.55 34.8192 25.2187 38.1567 23.2687C38.2692 23.2125 38.3442 23.1562 38.4379 23.1C39.2368 22.6485 40.0678 22.0844 40.8118 21.5418C40.9243 21.4596 40.9967 21.3337 41.0121 21.1952L41.0629 20.7375L41.1567 19.8562C41.1754 19.7437 41.1754 19.65 41.1942 19.5187C41.3442 17.625 41.3067 15.0375 39.5442 13.0875ZM24.5442 25.9312C24.5442 27.9187 24.5442 28.2187 22.2379 28.2187C19.9317 28.2187 19.9317 27.8625 19.9317 25.95V23.5875H24.5442V25.9312ZM16.7067 10.4437V10.3687C16.7067 7.18123 16.7067 5.99998 21.0754 5.99998H23.9254C28.2942 5.99998 28.2942 7.19998 28.2942 10.3687V10.4625H16.7067V10.4437Z" fill="white"/>
<path d="M39.8472 25.4109C40.1997 25.2403 40.6035 25.5214 40.5681 25.9114L39.8242 34.1063C39.4305 37.8563 37.893 41.6813 29.643 41.6813H15.3555C7.10547 41.6813 5.56797 37.8563 5.17422 34.125L4.46601 26.3347C4.43097 25.9492 4.82558 25.6685 5.17723 25.8302C7.07392 26.7023 11.9251 28.8721 14.6229 29.5269C14.7879 29.567 14.9216 29.6841 14.9879 29.8405C16.0786 32.415 18.5864 33.7875 22.2555 33.7875C25.8882 33.7875 28.43 32.3623 29.5229 29.7845C29.5893 29.628 29.7227 29.5109 29.8879 29.4708C32.7458 28.7766 37.8758 26.3647 39.8472 25.4109Z" fill="white"/>
</svg>
