<?xml version="1.0" encoding="utf-8"?>
<!-- Generator: Adobe Illustrator 27.9.0, SVG Export Plug-In . SVG Version: 6.00 Build 0)  -->
<svg version="1.1" id="Layer_1" xmlns="http://www.w3.org/2000/svg" xmlns:xlink="http://www.w3.org/1999/xlink" x="0px" y="0px"
	 viewBox="0 0 620.8 124" style="enable-background:new 0 0 620.8 124;" xml:space="preserve">
<g>
	<path d="M16.8,18.84h25.26c6.44,0,11.5,1.77,14.71,4.99c2.49,2.49,3.79,5.55,3.79,9.32v0.16c0,6.76-3.86,10.37-8.04,12.55
		c6.6,2.25,11.18,6.04,11.18,13.67v0.16c0,10.06-8.28,15.43-20.83,15.43H16.8V18.84z M50.66,34.77c0-4.42-3.53-7.16-9.9-7.16H26.54
		v14.96h13.51c6.35,0,10.62-2.49,10.62-7.64C50.66,34.93,50.66,34.77,50.66,34.77z M42.22,50.94H26.54v15.43h16.41
		c6.76,0,10.85-2.65,10.85-7.72v-0.16C53.8,53.75,50.01,50.94,42.22,50.94z"/>
	<path d="M75.56,18.84h25.1c7.08,0,12.62,2.09,16.24,5.63c2.98,3.06,4.67,7.25,4.67,12.15v0.16c0,9.25-5.55,14.8-13.34,17.05
		l15.2,21.31h-11.74L97.86,55.53H85.48v19.62h-9.9v-56.3H75.56z M99.94,46.75c7.08,0,11.58-3.7,11.58-9.41v-0.16
		c0-6.04-4.34-9.32-11.66-9.32H85.46v18.9C85.46,46.75,99.94,46.75,99.94,46.75z"/>
	<path d="M130.37,47.18v-0.16c0-16.01,12.34-29.41,29.81-29.41s29.65,13.24,29.65,29.25v0.16c0,16.01-12.34,29.41-29.81,29.41
		S130.37,63.19,130.37,47.18z M179.35,47.18v-0.16c0-11.05-8.04-20.22-19.34-20.22s-19.18,9.01-19.18,20.06v0.16
		c0,11.05,8.04,20.15,19.34,20.15C171.47,67.17,179.35,58.23,179.35,47.18z"/>
	<path d="M202.02,18.84h20.99c17.69,0,29.91,12.15,29.91,27.98v0.16c0,15.85-12.22,28.15-29.91,28.15h-20.99
		C202.02,75.13,202.02,18.84,202.02,18.84z M211.92,27.86v38.28h11.1c11.83,0,19.54-7.97,19.54-18.98v-0.16
		c0-11.02-7.72-19.15-19.54-19.15h-11.1V27.86z"/>
	<path d="M265.26,18.84h9.9v56.3h-9.9V18.84z"/>
	<path d="M290.21,18.84h41.74v8.85h-31.86v14.64h28.23v8.85h-28.23v15.13h32.25v8.85h-42.14L290.21,18.84L290.21,18.84z"/>
	<path d="M340.67,67.15l5.95-7.14c5.39,4.71,10.85,7.39,17.78,7.39c6.11,0,9.97-2.93,9.97-7.14V60.1c0-4.06-2.25-6.26-12.71-8.69
		c-11.99-2.93-18.73-6.5-18.73-16.98v-0.16c0-9.75,8.04-16.5,19.22-16.5c8.2,0,14.71,2.52,20.43,7.14l-5.3,7.56
		c-5.07-3.81-10.13-5.85-15.29-5.85c-5.79,0-9.18,3-9.18,6.75v0.16c0,4.39,2.58,6.33,13.43,8.94c11.9,2.93,18.01,7.23,18.01,16.66
		v0.16c0,10.65-8.28,16.98-20.1,16.98c-8.6,0-16.73-3-23.49-9.1L340.67,67.15z"/>
	<path d="M37.64,96.7v19.79h-2v-15.83l-7.78,13.31h-0.99l-7.78-13.23v15.74h-2.02V96.7h1.72l8.6,14.67l8.51-14.67
		C35.92,96.7,37.64,96.7,37.64,96.7z"/>
	<path d="M52.06,96.7h2.09v19.79h-2.09V96.7z"/>
	<path d="M68.57,96.7h8.06c2.09,0,3.93,0.43,5.54,1.25c1.61,0.82,2.84,2,3.73,3.51c0.88,1.5,1.33,3.21,1.33,5.13
		s-0.44,3.64-1.33,5.13c-0.88,1.5-2.14,2.67-3.73,3.51c-1.61,0.84-3.45,1.25-5.54,1.25h-8.06V96.67V96.7z M76.51,114.68
		c1.74,0,3.25-0.34,4.55-1.03c1.3-0.69,2.31-1.63,3.02-2.86c0.72-1.22,1.08-2.62,1.08-4.2s-0.35-2.99-1.08-4.2
		c-0.72-1.22-1.72-2.17-3.02-2.86c-1.3-0.69-2.81-1.03-4.55-1.03h-5.85v16.17H76.51z"/>
	<path d="M99.89,96.7h8.06c2.09,0,3.93,0.43,5.54,1.25c1.61,0.82,2.84,2,3.73,3.51c0.88,1.5,1.33,3.21,1.33,5.13
		s-0.44,3.64-1.33,5.13c-0.88,1.5-2.14,2.67-3.73,3.51c-1.61,0.84-3.45,1.25-5.54,1.25h-8.06V96.67V96.7z M107.83,114.68
		c1.74,0,3.25-0.34,4.55-1.03c1.3-0.69,2.31-1.63,3.02-2.86c0.72-1.22,1.08-2.62,1.08-4.2s-0.35-2.99-1.08-4.2
		c-0.72-1.22-1.72-2.17-3.02-2.86c-1.3-0.69-2.81-1.03-4.55-1.03h-5.85v16.17C101.99,114.68,107.83,114.68,107.83,114.68z"/>
	<path d="M131.22,96.7h2.09v17.98h11.09v1.81h-13.18C131.22,116.49,131.22,96.7,131.22,96.7z"/>
	<path d="M169.84,114.68v1.81h-13.99V96.7h13.56v1.81h-11.47v7.04h10.24v1.78h-10.24v7.35H169.84z"/>
	<path d="M212.11,114.68v1.81h-13.99V96.7h13.56v1.81h-11.47v7.04h10.24v1.78h-10.24v7.35H212.11L212.11,114.68z"/>
	<path d="M237.41,111.2h-11.03l-2.37,5.29h-2.18l9.04-19.79h2.06l9.04,19.79h-2.21l-2.37-5.29H237.41z M236.64,109.51l-4.74-10.63
		l-4.76,10.63H236.64z"/>
	<path d="M254.48,115.96c-1.35-0.47-2.39-1.09-3.12-1.87l0.82-1.61c0.72,0.72,1.66,1.3,2.86,1.74c1.19,0.44,2.42,0.66,3.68,0.66
		c1.77,0,3.11-0.32,3.99-0.97c0.88-0.65,1.33-1.49,1.33-2.53c0-0.8-0.24-1.43-0.72-1.9c-0.49-0.47-1.08-0.84-1.77-1.09
		c-0.69-0.25-1.66-0.53-2.92-0.84c-1.49-0.38-2.68-0.74-3.56-1.09c-0.88-0.35-1.65-0.88-2.27-1.59c-0.63-0.72-0.94-1.68-0.94-2.92
		c0-1,0.27-1.91,0.8-2.72c0.53-0.82,1.34-1.47,2.43-1.96c1.09-0.49,2.44-0.74,4.06-0.74c1.13,0,2.24,0.16,3.33,0.47
		c1.09,0.31,2.02,0.74,2.81,1.28l-0.71,1.66c-0.82-0.54-1.71-0.96-2.65-1.22c-0.94-0.28-1.87-0.41-2.77-0.41
		c-1.74,0-3.03,0.34-3.92,1c-0.87,0.66-1.31,1.53-1.31,2.59c0,0.8,0.24,1.43,0.72,1.91s1.09,0.85,1.81,1.1
		c0.72,0.25,1.69,0.53,2.93,0.84c1.46,0.35,2.62,0.71,3.52,1.06c0.9,0.35,1.65,0.87,2.27,1.59c0.62,0.71,0.93,1.66,0.93,2.87
		c0,1-0.27,1.91-0.81,2.72c-0.54,0.82-1.35,1.47-2.47,1.96s-2.47,0.72-4.09,0.72c-1.47,0-2.89-0.24-4.23-0.71L254.48,115.96z"/>
	<path d="M282.17,98.51h-6.95V96.7h16.01v1.81h-6.95v17.98h-2.09V98.51L282.17,98.51z"/>
	<path d="M317.91,96.7H320v17.98h11.09v1.81h-13.18C317.91,116.49,317.91,96.7,317.91,96.7z"/>
	<path d="M342.54,96.7h2.09v17.98h11.09v1.81h-13.18C342.54,116.49,342.54,96.7,342.54,96.7z"/>
	<path d="M380.51,98.51c1.43,1.21,2.15,2.87,2.15,4.98s-0.72,3.77-2.15,4.96c-1.43,1.19-3.42,1.8-5.94,1.8h-5.32v6.24h-2.09V96.7
		h7.41C377.09,96.7,379.08,97.3,380.51,98.51z M379,107.12c1.03-0.85,1.56-2.06,1.56-3.64c0-1.58-0.52-2.83-1.56-3.68
		c-1.03-0.85-2.53-1.28-4.49-1.28h-5.26v9.9h5.26c1.96,0,3.46-0.43,4.49-1.28V107.12z"/>
	<path d="M401.98,63.16c1.86,0.53,3.4,0.91,4.64,1.15c1.24,0.24,2.39,0.34,3.43,0.34c2.17,0,3.93-0.38,5.3-1.15
		c1.37-0.77,2.44-1.78,3.21-3.08s1.31-2.77,1.59-4.46c0.28-1.69,0.43-3.48,0.43-5.35s-0.12-3.58-0.37-5.36s-0.6-3.64-1.09-5.57
		c-0.49-1.93-1.08-3.96-1.78-6.11c-0.71-2.15-1.52-4.49-2.43-7.04h9.48c0.94,2.36,1.75,4.74,2.43,7.17
		c0.68,2.43,1.24,4.83,1.66,7.22c0.1,0.53,0.29,1.03,0.54,1.49c0.25,0.46,0.66,0.85,1.25,1.21s1.34,0.62,2.31,0.82
		c0.97,0.21,2.21,0.29,3.74,0.29v10.93h-1.05c-0.78,0-1.44-0.06-2-0.16s-1.06-0.25-1.5-0.44c-0.44-0.19-0.82-0.43-1.16-0.71
		c-0.34-0.28-0.66-0.6-0.99-0.99l-0.21,0.04c-0.19,3.89-0.82,7.23-1.91,10.03c-1.09,2.8-2.49,5.11-4.23,6.94
		c-1.74,1.83-3.71,3.17-5.95,4.04s-4.58,1.31-7.01,1.31c-1.28,0-2.58-0.13-3.87-0.38c-1.3-0.25-2.8-0.69-4.48-1.31v-10.9V63.16z
		 M423.2,17.9h-9.44V9.42h9.44C423.2,9.42,423.2,17.9,423.2,17.9z"/>
	<path d="M441.66,55.68h-5.3c-0.94,0-1.63-0.49-2.11-1.47c-0.47-0.99-0.71-2.31-0.71-4.01s0.24-3.02,0.71-4.01
		c0.47-0.99,1.18-1.47,2.11-1.47h5.7c1.08,0,2-0.04,2.81-0.12s1.47-0.29,1.99-0.65c0.52-0.35,0.91-0.88,1.16-1.59
		s0.38-1.71,0.38-2.99V20.32h8.56v19.37c0,3.27-0.43,5.94-1.27,8.01s-1.97,3.71-3.37,4.89c-1.4,1.18-3.03,1.99-4.89,2.43
		c-1.86,0.44-3.79,0.66-5.79,0.66H441.66z M447.49,69.18h-9.44V60.7h9.44V69.18z M461.23,69.18h-9.44V60.7h9.44V69.18z"/>
	<path d="M479.6,55.84c-1.53,0-3.33-0.09-5.39-0.27c-2.06-0.18-4.27-0.47-6.63-0.9l-2.17-11.05c3,0.43,5.73,0.75,8.17,0.96
		c2.44,0.21,4.64,0.32,6.57,0.32c2.75,0,4.87-0.37,6.33-1.09c1.46-0.72,2.19-2.05,2.19-3.98c0-1.93-0.37-3.81-1.12-5.8
		c-0.75-1.99-1.81-4.11-3.18-6.33s-2.99-4.58-4.89-7.07c-1.9-2.49-3.98-5.18-6.24-8.09h11.21c2.15,2.42,4.06,4.8,5.77,7.17
		s3.14,4.71,4.32,7.01s2.08,4.6,2.71,6.88c0.63,2.28,0.94,4.52,0.94,6.72c0,3.05-0.49,5.58-1.44,7.6c-0.96,2.02-2.28,3.59-3.96,4.76
		c-1.68,1.16-3.64,1.99-5.91,2.44C484.62,55.59,482.19,55.84,479.6,55.84L479.6,55.84z"/>
	<path d="M505.08,61.67c1.41,0.53,2.74,0.99,3.98,1.37s2.4,0.68,3.49,0.93c1.09,0.25,2.15,0.41,3.15,0.52c1,0.1,1.99,0.16,2.96,0.16
		c2.22,0,4.08-0.29,5.55-0.87s2.67-1.34,3.58-2.3c0.91-0.96,1.59-2.05,2.03-3.3c0.44-1.25,0.74-2.55,0.9-3.92
		c-1.86,0.66-3.77,1-5.74,1c-1.69,0-3.4-0.25-5.13-0.74c-1.72-0.49-3.28-1.3-4.67-2.42s-2.52-2.56-3.4-4.36s-1.33-3.98-1.33-6.55
		c0-2.17,0.37-4.34,1.09-6.52c0.72-2.18,1.71-4.14,2.96-5.86s2.7-3.14,4.36-4.23c1.66-1.09,3.45-1.63,5.35-1.63
		c2.09,0,3.98,0.59,5.67,1.78s3.3,3,4.82,5.45c1.61,2.52,2.8,5.49,3.58,8.93c0.78,3.43,1.16,7.1,1.16,11.02
		c0,3.53-0.4,6.86-1.21,9.97c-0.81,3.11-2.05,5.82-3.74,8.14c-1.69,2.33-3.84,4.15-6.45,5.48s-5.74,2-9.38,2
		c-1.1,0-2.18-0.06-3.25-0.18c-1.08-0.12-2.15-0.31-3.25-0.59c-1.1-0.28-2.22-0.59-3.4-0.96c-1.18-0.37-2.39-0.82-3.68-1.37V61.66
		L505.08,61.67z M523.88,34.15c-0.75,0-1.43,0.24-2.05,0.71c-0.62,0.47-1.15,1.05-1.59,1.72s-0.8,1.4-1.05,2.15
		s-0.38,1.41-0.38,1.97c0,0.85,0.18,1.56,0.54,2.14c0.37,0.57,0.85,1.02,1.47,1.34s1.34,0.57,2.15,0.72
		c0.81,0.15,1.66,0.22,2.55,0.22c0.82,0,1.69-0.07,2.58-0.22c0.88-0.15,1.69-0.37,2.42-0.66c-0.22-0.99-0.53-2.08-0.94-3.24
		c-0.41-1.16-0.91-2.25-1.49-3.27c-0.57-1.02-1.22-1.87-1.93-2.55c-0.71-0.68-1.47-1.03-2.27-1.03H523.88z"/>
	<path d="M539.44,63.16c1.86,0.53,3.4,0.91,4.64,1.15c1.24,0.24,2.39,0.34,3.43,0.34c2.17,0,3.93-0.38,5.3-1.15
		c1.37-0.77,2.44-1.78,3.21-3.08c0.77-1.3,1.31-2.77,1.59-4.46c0.28-1.69,0.43-3.48,0.43-5.35s-0.12-3.58-0.37-5.36
		c-0.25-1.78-0.6-3.64-1.09-5.57c-0.49-1.93-1.08-3.96-1.78-6.11s-1.52-4.49-2.43-7.04h9.48c0.94,2.36,1.75,4.74,2.43,7.17
		s1.24,4.83,1.66,7.22c0.1,0.53,0.29,1.03,0.54,1.49c0.25,0.46,0.66,0.85,1.25,1.21s1.34,0.62,2.31,0.82
		c0.97,0.21,2.21,0.29,3.74,0.29v10.93h-1.05c-0.78,0-1.44-0.06-2-0.16s-1.06-0.25-1.5-0.44c-0.44-0.19-0.82-0.43-1.16-0.71
		c-0.34-0.28-0.66-0.6-0.99-0.99l-0.21,0.04c-0.19,3.89-0.82,7.23-1.91,10.03c-1.09,2.8-2.49,5.11-4.23,6.94
		c-1.74,1.83-3.71,3.17-5.95,4.04c-2.24,0.87-4.58,1.31-7.01,1.31c-1.28,0-2.58-0.13-3.87-0.38c-1.3-0.25-2.8-0.69-4.48-1.31v-10.9
		V63.16z"/>
	<path d="M579.1,55.68h-5.3c-0.94,0-1.63-0.49-2.11-1.47s-0.71-2.31-0.71-4.01s0.24-3.02,0.71-4.01s1.18-1.47,2.11-1.47h5.7
		c1.08,0,2-0.04,2.81-0.12s1.47-0.29,1.99-0.65c0.52-0.35,0.91-0.88,1.16-1.59c0.25-0.71,0.38-1.71,0.38-2.99V20.32h8.56v19.37
		c0,3.27-0.43,5.94-1.27,8.01s-1.97,3.71-3.37,4.89c-1.4,1.18-3.03,1.99-4.89,2.43c-1.86,0.44-3.79,0.66-5.79,0.66H579.1z
		 M594.09,69.18h-9.44V60.7h9.44V69.18z"/>
	<path d="M418.71,110.58v1.89h-0.25c-0.5,0-0.94-0.06-1.34-0.19s-0.72-0.28-1.02-0.49c-0.29-0.21-0.54-0.43-0.77-0.69
		c-0.22-0.27-0.41-0.52-0.59-0.8c-0.18-0.28-0.32-0.53-0.46-0.78c-0.13-0.25-0.28-0.49-0.41-0.69c-0.18-0.27-0.34-0.44-0.5-0.54
		s-0.34-0.16-0.52-0.16c-0.22,0-0.4,0.06-0.54,0.19c-0.15,0.13-0.22,0.32-0.22,0.6c0,0.25,0.06,0.46,0.18,0.62
		c0.12,0.16,0.25,0.34,0.4,0.52s0.28,0.38,0.4,0.62c0.12,0.24,0.18,0.54,0.18,0.93c0,0.44-0.09,0.82-0.25,1.18
		c-0.16,0.35-0.4,0.65-0.69,0.91c-0.29,0.27-0.63,0.49-1.03,0.68c-0.4,0.19-0.81,0.34-1.25,0.46s-0.91,0.21-1.38,0.27
		c-0.47,0.06-0.96,0.07-1.41,0.07c-1.18,0-2.15-0.15-2.92-0.46c-0.77-0.31-1.38-0.71-1.86-1.21c-0.47-0.5-0.78-1.09-0.97-1.77
		s-0.28-1.37-0.28-2.12c0-0.47,0.03-0.94,0.1-1.4c0.07-0.46,0.16-0.96,0.29-1.47h1.74c-0.1,0.49-0.19,0.93-0.27,1.34
		c-0.07,0.41-0.1,0.85-0.1,1.33c0,0.56,0.06,1.06,0.19,1.53c0.13,0.47,0.35,0.87,0.69,1.22c0.34,0.35,0.81,0.62,1.41,0.81
		c0.6,0.19,1.38,0.29,2.36,0.29c0.63,0,1.19-0.04,1.68-0.12c0.49-0.07,0.9-0.19,1.22-0.34c0.32-0.15,0.59-0.32,0.75-0.52
		c0.16-0.19,0.25-0.41,0.25-0.66c0-0.21-0.06-0.4-0.18-0.56s-0.25-0.34-0.4-0.52s-0.28-0.4-0.4-0.63c-0.12-0.24-0.18-0.56-0.18-0.93
		c0-0.4,0.07-0.77,0.22-1.09c0.15-0.32,0.34-0.6,0.57-0.84c0.24-0.24,0.53-0.41,0.85-0.54c0.32-0.13,0.68-0.19,1.03-0.19
		c0.35,0,0.74,0.09,1.09,0.25s0.69,0.47,0.99,0.9c0.13,0.19,0.25,0.41,0.35,0.63c0.1,0.22,0.24,0.46,0.35,0.69
		c0.12,0.24,0.27,0.46,0.43,0.68c0.16,0.22,0.35,0.41,0.57,0.57c0.22,0.16,0.49,0.29,0.8,0.4c0.31,0.1,0.68,0.15,1.09,0.15
		L418.71,110.58z M407.34,118.58h-2.09v-2.03h2.09V118.58z M410.96,118.58h-2.09v-2.03h2.09V118.58z"/>
	<path d="M420.43,110.58c0.34,0,0.65-0.03,0.91-0.09c0.27-0.06,0.49-0.16,0.68-0.32c0.19-0.16,0.31-0.37,0.41-0.65
		c0.1-0.28,0.13-0.62,0.13-1.05v-5.01h1.75v5.08c0,0.56-0.06,1.05-0.16,1.46c-0.1,0.41-0.25,0.77-0.43,1.05
		c-0.18,0.28-0.4,0.52-0.65,0.71s-0.53,0.32-0.82,0.43c-0.29,0.1-0.6,0.16-0.93,0.21s-0.66,0.06-1,0.06h-1.61
		c-0.27,0-0.46-0.1-0.59-0.29c-0.13-0.19-0.19-0.41-0.19-0.65c0-0.24,0.06-0.46,0.19-0.65c0.13-0.19,0.32-0.29,0.59-0.29h1.72
		L420.43,110.58z M424.12,116.21h-2.09v-2.03h2.09V116.21z"/>
	<path d="M436.5,107.55c-0.09,0.54-0.15,1.05-0.19,1.5c-0.04,0.46-0.06,0.9-0.06,1.31c0,0.71,0.06,1.31,0.19,1.81
		c0.13,0.5,0.34,0.9,0.65,1.19s0.68,0.53,1.15,0.66s1.05,0.21,1.71,0.21c0.78,0,1.44-0.09,1.99-0.28c0.54-0.19,1-0.49,1.35-0.9
		c0.35-0.41,0.6-0.96,0.77-1.63s0.24-1.49,0.24-2.46V95.22h1.75v13.96c0,1.08-0.1,2.03-0.31,2.9c-0.21,0.87-0.56,1.58-1.05,2.18
		c-0.49,0.6-1.12,1.06-1.91,1.38c-0.8,0.32-1.78,0.49-2.96,0.49c-1.02,0-1.86-0.13-2.55-0.38c-0.69-0.25-1.24-0.63-1.63-1.1
		s-0.71-1.06-0.88-1.75s-0.27-1.46-0.27-2.31c0-0.47,0.03-0.96,0.07-1.44s0.13-1.02,0.24-1.58h1.71L436.5,107.55z"/>
	<path d="M450.07,95.22h1.75v17.08h-1.75C450.07,112.31,450.07,95.22,450.07,95.22z"/>
	<path d="M464.01,107.55c-0.09,0.54-0.15,1.05-0.19,1.5c-0.04,0.46-0.06,0.9-0.06,1.31c0,0.71,0.06,1.31,0.19,1.81
		c0.13,0.5,0.34,0.9,0.65,1.19c0.31,0.29,0.68,0.53,1.15,0.66c0.47,0.13,1.05,0.21,1.71,0.21c0.78,0,1.44-0.09,1.99-0.28
		c0.54-0.19,1-0.49,1.35-0.9c0.35-0.41,0.6-0.96,0.77-1.63s0.24-1.49,0.24-2.46V95.22h1.75v13.96c0,1.08-0.1,2.03-0.31,2.9
		c-0.21,0.87-0.56,1.58-1.05,2.18s-1.12,1.06-1.91,1.38c-0.8,0.32-1.78,0.49-2.96,0.49c-1.02,0-1.86-0.13-2.55-0.38
		c-0.69-0.25-1.24-0.63-1.63-1.1c-0.4-0.47-0.71-1.06-0.88-1.75s-0.27-1.46-0.27-2.31c0-0.47,0.03-0.96,0.07-1.44
		c0.04-0.49,0.13-1.02,0.24-1.58h1.71L464.01,107.55z"/>
	<path d="M477.58,95.22h1.75v17.08h-1.75C477.58,112.31,477.58,95.22,477.58,95.22z"/>
	<path d="M506.86,103.49v4.23c0,0.5,0.03,0.93,0.07,1.3c0.04,0.37,0.15,0.66,0.29,0.88c0.15,0.22,0.35,0.41,0.63,0.52
		c0.28,0.1,0.65,0.16,1.1,0.16v1.89h-0.25c-0.72,0-1.3-0.1-1.72-0.32s-0.75-0.57-0.99-1.05h-0.04c-0.32,0.35-0.74,0.63-1.22,0.82
		c-0.49,0.19-1.02,0.34-1.61,0.44c-0.59,0.1-1.22,0.15-1.9,0.16s-1.37,0.03-2.09,0.03c-1.02,0-1.96,0-2.8-0.03
		c-0.84-0.03-1.61-0.06-2.28-0.15c-0.68-0.09-1.28-0.21-1.78-0.37c-0.5-0.16-0.94-0.4-1.31-0.71c-0.49-0.41-0.81-0.9-0.99-1.47
		c-0.18-0.57-0.27-1.19-0.27-1.84c0-0.46,0.03-0.9,0.1-1.31c0.07-0.41,0.15-0.82,0.22-1.21h1.74c-0.07,0.32-0.13,0.68-0.19,1.06
		c-0.06,0.38-0.1,0.77-0.1,1.18c0,0.46,0.06,0.87,0.18,1.24c0.12,0.37,0.35,0.69,0.71,0.96c0.22,0.16,0.5,0.29,0.84,0.38
		c0.34,0.09,0.8,0.18,1.34,0.24s1.21,0.09,2,0.12c0.8,0.03,1.72,0.03,2.83,0.03c0.96,0,1.8-0.01,2.52-0.06s1.33-0.13,1.8-0.29
		s0.84-0.38,1.08-0.69c0.24-0.31,0.35-0.74,0.35-1.28v-4.85h1.75L506.86,103.49z M497.59,100.81h-2.09v-2.03h2.09V100.81z
		 M501.22,100.81h-2.09v-2.03h2.09V100.81z"/>
	<path d="M522.41,110.58c0.28,0,0.54-0.03,0.8-0.09c0.25-0.06,0.44-0.16,0.62-0.32s0.31-0.37,0.4-0.65
		c0.09-0.28,0.15-0.62,0.15-1.05v-5.01h1.75v4.15c0,0.5,0.03,0.94,0.07,1.31c0.04,0.37,0.15,0.68,0.29,0.91
		c0.15,0.24,0.35,0.43,0.63,0.54c0.28,0.12,0.65,0.18,1.1,0.18v1.89h-0.25c-0.69,0-1.25-0.1-1.68-0.31s-0.75-0.52-0.99-0.94h-0.07
		c-0.18,0.25-0.37,0.46-0.59,0.6c-0.22,0.15-0.46,0.28-0.69,0.38s-0.5,0.16-0.77,0.21c-0.27,0.04-0.53,0.06-0.81,0.06
		c-0.32,0-0.65-0.03-0.94-0.07c-0.29-0.04-0.57-0.13-0.81-0.24c-0.24-0.1-0.47-0.25-0.66-0.43c-0.19-0.18-0.35-0.4-0.5-0.66h-0.04
		c-0.19,0.27-0.41,0.49-0.66,0.66c-0.25,0.18-0.5,0.32-0.77,0.43s-0.53,0.19-0.81,0.24c-0.28,0.04-0.53,0.07-0.78,0.07
		c-0.75,0-1.36-0.12-1.8-0.35c-0.44-0.24-0.78-0.57-1-1.03h-0.04c-0.19,0.27-0.41,0.49-0.66,0.66c-0.25,0.18-0.5,0.32-0.77,0.43
		c-0.27,0.1-0.53,0.19-0.8,0.24c-0.27,0.04-0.53,0.07-0.77,0.07h-1.61c-0.27,0-0.46-0.1-0.59-0.29c-0.13-0.19-0.19-0.41-0.19-0.65
		c0-0.24,0.06-0.46,0.19-0.65c0.13-0.19,0.32-0.29,0.59-0.29h1.72c0.22,0,0.46-0.03,0.71-0.1s0.49-0.18,0.69-0.35
		c0.21-0.18,0.38-0.38,0.53-0.65c0.15-0.27,0.21-0.6,0.21-1v-3h1.75v2.27c0,0.49,0.01,0.91,0.06,1.27c0.04,0.35,0.13,0.65,0.27,0.88
		c0.13,0.24,0.32,0.41,0.59,0.52c0.27,0.1,0.6,0.16,1.03,0.16c0.27,0,0.53-0.03,0.78-0.09c0.25-0.06,0.47-0.16,0.66-0.32
		c0.19-0.16,0.34-0.37,0.46-0.65c0.12-0.28,0.18-0.62,0.18-1.03v-3h1.75v2.22c0,0.5,0.01,0.93,0.06,1.3
		c0.04,0.37,0.13,0.66,0.28,0.88s0.35,0.41,0.62,0.52s0.63,0.16,1.1,0.16L522.41,110.58z"/>
	<path d="M529.94,110.58c0.34,0,0.65-0.03,0.91-0.09s0.49-0.16,0.68-0.32s0.31-0.37,0.41-0.65c0.1-0.28,0.13-0.62,0.13-1.05v-5.01
		h1.75v5.08c0,0.56-0.06,1.05-0.16,1.46c-0.1,0.41-0.25,0.77-0.43,1.05c-0.18,0.28-0.4,0.52-0.65,0.71
		c-0.25,0.19-0.53,0.32-0.82,0.43c-0.29,0.1-0.6,0.16-0.93,0.21c-0.32,0.04-0.66,0.06-1,0.06h-1.61c-0.27,0-0.46-0.1-0.59-0.29
		c-0.13-0.19-0.19-0.41-0.19-0.65c0-0.24,0.06-0.46,0.19-0.65c0.13-0.19,0.32-0.29,0.59-0.29h1.72L529.94,110.58z M531.16,116.21
		h-2.09v-2.03h2.09V116.21z M534.78,116.21h-2.09v-2.03h2.09V116.21z"/>
	<path d="M537.84,95.22h1.75v17.08h-1.75C537.84,112.31,537.84,95.22,537.84,95.22z"/>
	<path d="M551.78,107.55c-0.09,0.54-0.15,1.05-0.19,1.5c-0.04,0.46-0.06,0.9-0.06,1.31c0,0.71,0.06,1.31,0.19,1.81
		c0.13,0.5,0.34,0.9,0.65,1.19c0.31,0.29,0.68,0.53,1.15,0.66s1.05,0.21,1.71,0.21c0.78,0,1.44-0.09,1.99-0.28
		c0.54-0.19,1-0.49,1.35-0.9c0.35-0.41,0.6-0.96,0.77-1.63s0.24-1.49,0.24-2.46V95.22h1.75v13.96c0,1.08-0.1,2.03-0.31,2.9
		c-0.21,0.87-0.56,1.58-1.05,2.18c-0.49,0.6-1.12,1.06-1.91,1.38c-0.8,0.32-1.78,0.49-2.96,0.49c-1.02,0-1.86-0.13-2.55-0.38
		c-0.69-0.25-1.24-0.63-1.63-1.1s-0.71-1.06-0.88-1.75c-0.18-0.69-0.27-1.46-0.27-2.31c0-0.47,0.03-0.96,0.07-1.44
		s0.13-1.02,0.24-1.58h1.71V107.55z"/>
	<path d="M564.35,110.41c0.72,0.09,1.4,0.15,2.03,0.19s1.15,0.06,1.58,0.06c1.09,0,1.89-0.13,2.36-0.4
		c0.47-0.27,0.72-0.69,0.72-1.28c0-0.34-0.06-0.8-0.16-1.34c-0.1-0.54-0.25-1.15-0.43-1.81c-0.18-0.66-0.4-1.35-0.63-2.09
		s-0.5-1.46-0.77-2.17h1.87c0.43,1.25,0.78,2.42,1.06,3.49c0.28,1.08,0.54,2.09,0.77,3.05c0.06,0.24,0.12,0.5,0.22,0.8
		s0.22,0.56,0.38,0.81c0.16,0.25,0.38,0.46,0.65,0.63c0.27,0.18,0.6,0.25,1,0.25v1.89h-0.25c-0.25,0-0.49-0.03-0.72-0.09
		s-0.46-0.16-0.68-0.29c-0.22-0.13-0.4-0.31-0.57-0.52s-0.31-0.47-0.43-0.78h-0.06c-0.19,0.34-0.44,0.62-0.75,0.84
		c-0.31,0.22-0.65,0.41-1.02,0.54c-0.37,0.13-0.78,0.24-1.22,0.29c-0.44,0.06-0.9,0.09-1.35,0.09c-0.44,0-0.94-0.03-1.52-0.07
		c-0.57-0.04-1.15-0.1-1.71-0.18l-0.35-1.9L564.35,110.41z"/>
	<path d="M580.6,107.71c0,0.5,0.03,0.93,0.07,1.3c0.04,0.37,0.15,0.66,0.29,0.88s0.35,0.41,0.63,0.52s0.65,0.16,1.1,0.16v1.89h-0.25
		c-0.75,0-1.35-0.12-1.8-0.35c-0.44-0.24-0.8-0.57-1.02-1.03h-0.04c-0.19,0.27-0.41,0.49-0.66,0.66c-0.25,0.18-0.5,0.32-0.77,0.43
		s-0.53,0.19-0.8,0.24c-0.27,0.04-0.53,0.07-0.77,0.07H575c-0.27,0-0.46-0.1-0.59-0.29c-0.13-0.19-0.19-0.41-0.19-0.65
		s0.06-0.46,0.19-0.65c0.13-0.19,0.32-0.29,0.59-0.29h1.72c0.22,0,0.46-0.03,0.71-0.1c0.25-0.07,0.49-0.18,0.69-0.35
		s0.38-0.38,0.53-0.65c0.15-0.27,0.21-0.6,0.21-1v-5.01h1.75v4.23L580.6,107.71z M577.93,116.21h-2.09v-2.03h2.09V116.21z
		 M581.56,116.21h-2.09v-2.03h2.09V116.21z"/>
	<path d="M582.69,112.47c-0.27,0-0.46-0.1-0.59-0.29s-0.19-0.41-0.19-0.65s0.06-0.46,0.19-0.65c0.13-0.19,0.32-0.29,0.59-0.29h0.29
		c0.47,0,0.87-0.09,1.19-0.27c0.32-0.18,0.6-0.38,0.82-0.62c0.22-0.24,0.4-0.5,0.53-0.77c0.13-0.27,0.24-0.5,0.31-0.69
		c0.15-0.35,0.32-0.74,0.53-1.18s0.47-0.82,0.78-1.19c0.31-0.37,0.71-0.68,1.15-0.93c0.44-0.25,1-0.37,1.65-0.37
		c0.72,0,1.35,0.15,1.87,0.43c0.52,0.28,0.94,0.65,1.28,1.09c0.34,0.44,0.57,0.9,0.74,1.41c0.16,0.52,0.24,0.97,0.24,1.41
		c0,0.44-0.07,0.88-0.24,1.31c-0.16,0.43-0.4,0.81-0.72,1.15s-0.72,0.6-1.21,0.81s-1.06,0.31-1.71,0.31c-0.41,0-0.8-0.04-1.16-0.13
		c-0.37-0.09-0.72-0.21-1.06-0.35s-0.63-0.32-0.91-0.53c-0.28-0.21-0.54-0.41-0.77-0.65c-0.4,0.6-0.88,1.03-1.46,1.28
		c-0.57,0.25-1.22,0.38-1.93,0.38h-0.22L582.69,112.47z M587.02,109.38c0.31,0.4,0.74,0.69,1.28,0.9c0.54,0.21,1.12,0.31,1.77,0.31
		c0.71,0,1.25-0.13,1.65-0.38s0.6-0.65,0.6-1.18c0-0.25-0.04-0.52-0.15-0.82c-0.1-0.31-0.25-0.57-0.44-0.84s-0.46-0.47-0.77-0.65
		c-0.31-0.18-0.68-0.27-1.09-0.27c-0.37,0-0.71,0.07-1,0.22s-0.56,0.35-0.8,0.62c-0.24,0.27-0.44,0.57-0.6,0.93
		c-0.16,0.35-0.32,0.74-0.44,1.15L587.02,109.38z"/>
</g>
</svg>
