<svg width="48" height="69" viewBox="0 0 48 69" fill="none" xmlns="http://www.w3.org/2000/svg">
<path d="M0.0172585 35.4941C0.0172585 25.6202 0.0514889 15.7265 0.000133887 5.85263C-0.0169845 2.96613 1.60927 0.537482 3.81753 0.119437C4.21126 0.039809 4.6221 0 5.01582 0C17.6663 0 30.3167 0 42.9672 0C45.398 0 47.2468 1.67218 47.8288 4.39943C47.9486 4.95682 47.9829 5.57394 47.9829 6.15124C47.9829 25.9586 47.9829 45.766 48 65.5734C48 67.2456 47.1441 68.6192 45.5863 68.4002C45.2611 68.3604 44.9016 68.1813 44.6277 67.9623C42.505 66.31 40.3823 64.6577 38.2939 62.9656C37.9686 62.7068 37.7803 62.7068 37.4722 62.9855C35.4351 64.6975 33.3809 66.3896 31.3267 68.0618C30.5222 68.7187 29.5122 68.5396 28.7932 67.7831C27.3724 66.2901 25.9173 64.817 24.4623 63.3439C24.1713 63.0453 23.9145 62.9457 23.555 63.3439C22.6477 64.3392 21.6891 65.2549 20.7476 66.1906C20.1313 66.8077 19.5322 67.4845 18.8646 68.0419C18.2483 68.5794 17.187 68.6391 16.2968 67.8627C14.3624 66.1906 12.3938 64.5781 10.4081 62.9656C10.2369 62.8263 9.84319 62.8064 9.672 62.9457C7.54933 64.5781 5.40953 66.2105 3.33821 67.9424C2.07145 68.9974 0.205558 68.2808 0.0686115 66.2503C0.0514931 65.9716 0.0514973 65.7128 0.0514973 65.4341C0.0172606 55.4607 0.0172585 45.4674 0.0172585 35.4941ZM23.8974 17.4982C27.5607 17.4982 31.224 17.4783 34.8702 17.5181C35.6577 17.5181 36.6505 16.6621 36.8388 16.0052C37.301 14.3927 36.5478 12.7603 34.7162 12.7404C27.4922 12.7006 20.2512 12.7205 13.0272 12.7205C11.8803 12.7205 10.8703 13.8154 10.9217 15.0895C10.973 16.2242 11.6749 17.5181 13.0443 17.5181C16.6563 17.4783 20.2683 17.4982 23.8974 17.4982ZM23.8802 30.2187C27.5093 30.2187 31.1555 30.1789 34.7846 30.2386C35.8288 30.2585 37.0956 29.1039 36.9587 27.6905C36.8217 26.3568 36.1712 25.4411 34.6306 25.4411C27.5093 25.4212 20.3881 25.4212 13.2497 25.4411C12.9416 25.4411 12.6164 25.4809 12.3082 25.5605C11.4181 25.8193 10.7333 27.3123 11.0072 28.3276C11.401 29.7211 11.9316 30.1988 13.2155 30.1988C16.7761 30.2386 20.3367 30.2187 23.8802 30.2187ZM18.4537 42.999C20.2683 42.999 22.0999 42.9791 23.9145 42.999C25.0785 43.0189 26.0029 41.8842 26.0372 40.5504C26.0714 39.3361 25.1128 38.2213 24.0172 38.2213C20.3367 38.2014 16.6563 38.2014 12.9759 38.2213C11.8289 38.2213 10.8703 39.3361 10.9045 40.5703C10.9388 41.8444 11.9316 43.0388 13.0614 42.999C14.8589 42.9592 16.6563 42.999 18.4537 42.999Z" fill="#002A3A"/>
</svg>
