<svg width="83" height="110" viewBox="0 0 83 110" fill="none" xmlns="http://www.w3.org/2000/svg">
<path d="M81.9557 30.0208C81.6979 29.3906 81.3828 28.7891 80.9531 28.2734L56.9479 2.00521C56.4036 1.40365 55.7448 0.973958 55.0286 0.601562C54.1979 0.171875 53.2813 0 52.3073 0H6.5026C2.95052 0 0 3.03646 0 6.84635V102.867C0 106.706 2.95052 110 6.5026 110H76.1406C79.6927 110 82.5 106.706 82.5 102.867V32.9427C82.5 31.9115 82.3568 30.9089 81.9557 30.0208ZM13.75 32.7135C13.75 32.2839 14.2656 32.112 14.724 32.112H35.0052C35.4635 32.112 35.8073 32.2839 35.8073 32.7135V35.8073C35.8073 36.2083 35.4922 36.6953 35.0052 36.6953H14.724C14.2656 36.6953 13.75 36.2083 13.75 35.8073V32.7135ZM13.75 69.3802C13.75 68.9505 14.2656 68.7786 14.724 68.7786H49.7292C50.1875 68.7786 50.4167 68.9505 50.4167 69.3802V72.474C50.4167 72.875 50.2161 73.362 49.7292 73.362H14.724C14.2656 73.362 13.75 72.875 13.75 72.474V69.3802ZM59.5833 90.8073C59.5833 91.2083 59.3828 91.6953 58.8958 91.6953H14.724C14.2656 91.6953 13.75 91.2083 13.75 90.8073V87.7135C13.75 87.2839 14.2656 87.112 14.724 87.112H58.8958C59.3542 87.112 59.5833 87.2839 59.5833 87.7135V90.8073ZM68.75 54.1406C68.75 54.5417 68.5495 55.0286 68.0625 55.0286H14.724C14.2656 55.0286 13.75 54.5417 13.75 54.1406V51.0469C13.75 50.6172 14.2656 50.4453 14.724 50.4453H68.0625C68.5208 50.4453 68.75 50.6172 68.75 51.0469V54.1406ZM55.3151 32.3984C53.7109 32.3984 52.1354 30.9089 52.1354 29.1615V10.2552L72.5313 32.3984H55.3151Z" fill="#002A3A"/>
</svg>
