<svg width="117" height="95" viewBox="0 0 117 95" fill="none" xmlns="http://www.w3.org/2000/svg">
<path d="M82.9 9.5H81.8V4.69998C81.8 4.39998 81.7 4.09999 81.6 3.89999C81.3 3.39999 80.8 3 80.1 3H79.7H79.3C78.4 3 77.6 3.79998 77.6 4.69998V9.5H68.1V4.69998C68.1 4.39998 68 4.09999 67.9 3.79999C67.6 3.29999 67.1 3 66.4 3H66H65.6C64.7 3 63.9 3.79998 63.9 4.69998V9.5H54.4V4.69998C54.4 4.39998 54.3 4.09999 54.2 3.79999C53.9 3.29999 53.4 3 52.7 3H52.3H51.9C51 3 50.2 3.79998 50.2 4.69998V9.5H40.7V4.69998C40.7 4.39998 40.6 4.09999 40.5 3.89999C40.2 3.39999 39.7 3 39 3H38.6H38.2C37.3 3 36.5 3.79998 36.5 4.69998V9.5H27V4.69998C27 4.39998 26.9 4.09999 26.8 3.89999C26.5 3.39999 26 3 25.3 3H24.9H24.5C23.6 3 22.8 3.79998 22.8 4.69998V9.5H21.7C17.1 9.5 13.4 13.2 13.4 17.8V19.3V29.9V31.2V32.5V76.1V77.6C13.4 82.2 17.1 85.9 21.7 85.9H83C87.6 85.9 91.3 82.2 91.3 77.6V76.1V32.5V31.2V29.9V19.2V17.7C91.2 13.2 87.5 9.5 82.9 9.5Z" fill="#D1D3D4"/>
<path d="M88.3 16.3V74.7C88.3 79.3 84.6 83 80 83H18.7C14.1 83 10.4 79.3 10.4 74.7V16.3C10.4 11.7 14.1 8 18.7 8H80C84.5 8 88.3 11.7 88.3 16.3Z" fill="#D1D3D4"/>
<path d="M88.3 14.8V73.2C88.3 77.8 84.6 81.5 80 81.5H18.7C14.1 81.5 10.4 77.8 10.4 73.2V14.8C10.4 10.2 14.1 6.5 18.7 6.5H80C84.5 6.5 88.3 10.2 88.3 14.8Z" fill="white"/>
<path d="M88.3 14.8V28.3H10.4V14.8C10.4 10.2 14.1 6.5 18.7 6.5H80C84.5 6.5 88.3 10.2 88.3 14.8Z" fill="#192B3A"/>
<path d="M22.1665 13.5342C23.4205 13.3318 24.273 12.151 24.0705 10.897C23.868 9.64305 22.6873 8.79064 21.4333 8.99312C20.1793 9.1956 19.3269 10.3763 19.5293 11.6303C19.7318 12.8843 20.9125 13.7367 22.1665 13.5342Z" fill="#B3B3B3"/>
<path d="M24 11.1C24 12 23.2 12.8 22.3 12.8H21.4C20.5 12.8 19.7 12 19.7 11.1V1.69998C19.7 0.799982 20.5 0 21.4 0H22.3C23.2 0 24 0.799982 24 1.69998V11.1Z" fill="#E6E6E6"/>
<path d="M24 1.69998V11.1C24 12 23.2 12.8 22.3 12.8H21.9V0H22.3C23.2 0 24 0.699982 24 1.69998Z" fill="#F1F2F2"/>
<path d="M35.8621 13.597C37.1262 13.4723 38.0499 12.3463 37.9251 11.0821C37.8004 9.81798 36.6744 8.89433 35.4103 9.01909C34.1461 9.14385 33.2224 10.2698 33.3472 11.5339C33.4719 12.7981 34.5979 13.7218 35.8621 13.597Z" fill="#B3B3B3"/>
<path d="M37.7 11.1C37.7 12 36.9 12.8 36 12.8H35.1C34.2 12.8 33.4 12 33.4 11.1V1.69998C33.4 0.799982 34.2 0 35.1 0H36C36.9 0 37.7 0.799982 37.7 1.69998V11.1Z" fill="#E6E6E6"/>
<path d="M37.7 1.69998V11.1C37.7 12 36.9 12.8 36 12.8H35.6V0H36C36.9 0 37.7 0.699982 37.7 1.69998Z" fill="#F1F2F2"/>
<path d="M49.6162 13.5904C50.877 13.4358 51.7739 12.2883 51.6193 11.0275C51.4647 9.76661 50.3172 8.86982 49.0563 9.02441C47.7955 9.179 46.8987 10.3264 47.0533 11.5873C47.2079 12.8481 48.3553 13.745 49.6162 13.5904Z" fill="#B3B3B3"/>
<path d="M51.4 11.1C51.4 12 50.6 12.8 49.7 12.8H48.8C47.9 12.8 47.1 12 47.1 11.1V1.69998C47.1 0.799982 47.9 0 48.8 0H49.7C50.6 0 51.4 0.799982 51.4 1.69998V11.1Z" fill="#E6E6E6"/>
<path d="M51.4 1.69998V11.1C51.4 12 50.6 12.8 49.7 12.8H49.3V0H49.7C50.7 0 51.4 0.699982 51.4 1.69998Z" fill="#F1F2F2"/>
<path d="M63 13.6C64.2703 13.6 65.3 12.5702 65.3 11.3C65.3 10.0297 64.2703 9 63 9C61.7297 9 60.7 10.0297 60.7 11.3C60.7 12.5702 61.7297 13.6 63 13.6Z" fill="#B3B3B3"/>
<path d="M65.2 11.1C65.2 12 64.4 12.8 63.5 12.8H62.6C61.7 12.8 60.9 12 60.9 11.1V1.69998C60.9 0.799982 61.7 0 62.6 0H63.5C64.4 0 65.2 0.799982 65.2 1.69998V11.1Z" fill="#E6E6E6"/>
<path d="M65.2 1.69998V11.1C65.2 12 64.4 12.8 63.5 12.8H63.1V0H63.5C64.4 0 65.2 0.699982 65.2 1.69998Z" fill="#F1F2F2"/>
<path d="M76.8903 13.5931C78.156 13.4856 79.0948 12.3723 78.9872 11.1066C78.8797 9.84095 77.7664 8.90212 76.5008 9.00969C75.2351 9.11727 74.2962 10.2305 74.4038 11.4962C74.5114 12.7619 75.6246 13.7007 76.8903 13.5931Z" fill="#B3B3B3"/>
<path d="M78.9 11.1C78.9 12 78.1 12.8 77.2 12.8H76.3C75.4 12.8 74.6 12 74.6 11.1V1.69998C74.6 0.799982 75.4 0 76.3 0H77.2C78.1 0 78.9 0.799982 78.9 1.69998V11.1Z" fill="#E6E6E6"/>
<path d="M78.9 1.69998V11.1C78.9 12 78.1 12.8 77.2 12.8H76.8V0H77.2C78.1 0 78.9 0.699982 78.9 1.69998Z" fill="#F1F2F2"/>
<path d="M88.2 26.9H10.3V28.2H88.2V26.9Z" fill="#B3B3B3"/>
<path d="M88.2 28.2H10.3V29.5H88.2V28.2Z" fill="#E6E7E8"/>
<path opacity="0.18" d="M23.5 43.6H20.1C18.9 43.6 17.9 42.6 17.9 41.4V38C17.9 36.8 18.9 35.8 20.1 35.8H23.5C24.7 35.8 25.7 36.8 25.7 38V41.4C25.7 42.6 24.8 43.6 23.5 43.6Z" fill="#192B3A"/>
<path opacity="0.18" d="M37.3 43.6H33.9C32.7 43.6 31.7 42.6 31.7 41.4V38C31.7 36.8 32.7 35.8 33.9 35.8H37.3C38.5 35.8 39.5 36.8 39.5 38V41.4C39.5 42.6 38.5 43.6 37.3 43.6Z" fill="#192B3A"/>
<path opacity="0.18" d="M51 43.6H47.6C46.4 43.6 45.4 42.6 45.4 41.4V38C45.4 36.8 46.4 35.8 47.6 35.8H51C52.2 35.8 53.2 36.8 53.2 38V41.4C53.2 42.6 52.2 43.6 51 43.6Z" fill="#192B3A"/>
<path opacity="0.18" d="M64.7 43.6H61.3C60.1 43.6 59.1 42.6 59.1 41.4V38C59.1 36.8 60.1 35.8 61.3 35.8H64.7C65.9 35.8 66.9 36.8 66.9 38V41.4C66.9 42.6 65.9 43.6 64.7 43.6Z" fill="#192B3A"/>
<path opacity="0.18" d="M78.4 43.6H75C73.8 43.6 72.8 42.6 72.8 41.4V38C72.8 36.8 73.8 35.8 75 35.8H78.4C79.6 35.8 80.6 36.8 80.6 38V41.4C80.7 42.6 79.7 43.6 78.4 43.6Z" fill="#192B3A"/>
<path opacity="0.18" d="M23.5 57.5H20.1C18.9 57.5 17.9 56.5 17.9 55.3V51.9C17.9 50.7 18.9 49.7 20.1 49.7H23.5C24.7 49.7 25.7 50.7 25.7 51.9V55.3C25.7 56.5 24.8 57.5 23.5 57.5Z" fill="#192B3A"/>
<path opacity="0.18" d="M37.3 57.5H33.9C32.7 57.5 31.7 56.5 31.7 55.3V51.9C31.7 50.7 32.7 49.7 33.9 49.7H37.3C38.5 49.7 39.5 50.7 39.5 51.9V55.3C39.5 56.5 38.5 57.5 37.3 57.5Z" fill="#192B3A"/>
<path opacity="0.18" d="M51 57.5H47.6C46.4 57.5 45.4 56.5 45.4 55.3V51.9C45.4 50.7 46.4 49.7 47.6 49.7H51C52.2 49.7 53.2 50.7 53.2 51.9V55.3C53.2 56.5 52.2 57.5 51 57.5Z" fill="#192B3A"/>
<path opacity="0.18" d="M64.7 57.5H61.3C60.1 57.5 59.1 56.5 59.1 55.3V51.9C59.1 50.7 60.1 49.7 61.3 49.7H64.7C65.9 49.7 66.9 50.7 66.9 51.9V55.3C66.9 56.5 65.9 57.5 64.7 57.5Z" fill="#192B3A"/>
<path opacity="0.18" d="M78.4 57.5H75C73.8 57.5 72.8 56.5 72.8 55.3V51.9C72.8 50.7 73.8 49.7 75 49.7H78.4C79.6 49.7 80.6 50.7 80.6 51.9V55.3C80.7 56.5 79.7 57.5 78.4 57.5Z" fill="#192B3A"/>
<path opacity="0.18" d="M23.5 71.4H20.1C18.9 71.4 17.9 70.4 17.9 69.2V65.8C17.9 64.6 18.9 63.6 20.1 63.6H23.5C24.7 63.6 25.7 64.6 25.7 65.8V69.2C25.7 70.4 24.8 71.4 23.5 71.4Z" fill="#192B3A"/>
<path d="M37.3 71.4H33.9C32.7 71.4 31.7 70.4 31.7 69.2V65.8C31.7 64.6 32.7 63.6 33.9 63.6H37.3C38.5 63.6 39.5 64.6 39.5 65.8V69.2C39.5 70.4 38.5 71.4 37.3 71.4Z" fill="#D4AE31"/>
<path opacity="0.18" d="M51 71.4H47.6C46.4 71.4 45.4 70.4 45.4 69.2V65.8C45.4 64.6 46.4 63.6 47.6 63.6H51C52.2 63.6 53.2 64.6 53.2 65.8V69.2C53.2 70.4 52.2 71.4 51 71.4Z" fill="#192B3A"/>
<path opacity="0.18" d="M64.7 71.4H61.3C60.1 71.4 59.1 70.4 59.1 69.2V65.8C59.1 64.6 60.1 63.6 61.3 63.6H64.7C65.9 63.6 66.9 64.6 66.9 65.8V69.2C66.9 70.4 65.9 71.4 64.7 71.4Z" fill="#192B3A"/>
<path opacity="0.18" d="M78.4 71.4H75C73.8 71.4 72.8 70.4 72.8 69.2V65.8C72.8 64.6 73.8 63.6 75 63.6H78.4C79.6 63.6 80.6 64.6 80.6 65.8V69.2C80.7 70.4 79.7 71.4 78.4 71.4Z" fill="#192B3A"/>
<path d="M31.7 62.6999L29.9 54.8999C31.1 52.6999 31.7 50.2999 31.7 47.7999C31.7 39.4999 25 32.7999 16.7 32.7999C8.40001 32.7999 1.70001 39.4999 1.70001 47.7999C1.70001 56.0999 8.40001 62.7999 16.7 62.7999C18.9 62.7999 21.2 62.2999 23.1 61.2999L30.5 63.5999C31.2 63.9999 31.8 63.3999 31.7 62.6999Z" fill="#D1D3D4"/>
<path d="M30.5 61.6L28.7 53.8C29.9 51.6 30.5 49.2 30.5 46.7C30.5 38.4 23.8 31.7 15.5 31.7C7.2 31.7 0.5 38.4 0.5 46.7C0.5 55 7.2 61.7 15.5 61.7C17.7 61.7 20 61.2 21.9 60.2L29.3 62.5C30 62.8 30.6 62.2 30.5 61.6Z" fill="#D4AE31"/>
<path d="M14.7 49.5L14.2 42.5C14.1 41.1 14.1 40.1 14.1 39.5C14.1 38.7 14.3 38.1 14.7 37.6C15.1 37.1 15.7 36.9 16.4 36.9C17.2 36.9 17.8 37.2 18.1 37.8C18.4 38.4 18.5 39.2 18.5 40.3C18.5 40.9 18.5 41.6 18.4 42.3L17.8 49.6C17.7 50.5 17.6 51.1 17.4 51.6C17.2 52.1 16.8 52.3 16.3 52.3C15.8 52.3 15.4 52.1 15.2 51.6C14.9 51 14.8 50.4 14.7 49.5Z" fill="#D1D3D4"/>
<path d="M16.3 58.1999C15.7 58.1999 15.2 57.9999 14.7 57.5999C14.3 57.1999 14 56.6999 14 55.9999C14 55.3999 14.2 54.8999 14.6 54.3999C15 53.9999 15.5 53.7999 16.2 53.7999C16.9 53.7999 17.3 53.9999 17.8 54.3999C18.2 54.7999 18.5 55.2999 18.5 55.9999C18.5 56.6999 18.3 57.1999 17.8 57.5999C17.4 57.9999 16.9 58.1999 16.3 58.1999Z" fill="#D1D3D4"/>
<path d="M13.9 48.7L13.4 41.7C13.3 40.3 13.3 39.3 13.3 38.7C13.3 37.9 13.5 37.3 13.9 36.8C14.3 36.3 14.9 36.1 15.6 36.1C16.4 36.1 17 36.4 17.3 37C17.6 37.6 17.7 38.4 17.7 39.5C17.7 40.1 17.7 40.8 17.6 41.5L17 48.8C16.9 49.7 16.8 50.3 16.6 50.8C16.4 51.3 16 51.5 15.5 51.5C15 51.5 14.6 51.3 14.4 50.8C14.2 50.3 14 49.6 13.9 48.7Z" fill="white"/>
<path d="M15.6 57.4C15 57.4 14.5 57.2 14 56.8C13.6 56.4 13.3 55.9 13.3 55.2C13.3 54.6 13.5 54.1 13.9 53.6C14.3 53.2 14.8 53 15.5 53C16.2 53 16.6 53.2 17.1 53.6C17.5 54 17.8 54.5 17.8 55.2C17.8 55.9 17.6 56.4 17.1 56.8C16.7 57.2 16.2 57.4 15.6 57.4Z" fill="white"/>
<path d="M94.4144 89.9212C106.544 87.2197 114.187 75.1969 111.485 63.0675C108.784 50.9381 96.7608 43.2952 84.6314 45.9967C72.502 48.6982 64.8591 60.7211 67.5606 72.8505C70.2621 84.9799 82.285 92.6227 94.4144 89.9212Z" fill="#D1D3D4"/>
<path d="M88.3 89.3C100.726 89.3 110.8 79.2264 110.8 66.8C110.8 54.3736 100.726 44.3 88.3 44.3C75.8736 44.3 65.8 54.3736 65.8 66.8C65.8 79.2264 75.8736 89.3 88.3 89.3Z" fill="#192B3A"/>
<path d="M110.7 66.8C110.7 79.2 100.6 89.3 88.2 89.3C82 89.3 76.4 86.7999 72.3 82.7L104.2 50.9C108.2 55 110.7 60.6 110.7 66.8Z" fill="#D1D3D4"/>
<path d="M88.3 85.3C98.5173 85.3 106.8 77.0173 106.8 66.8C106.8 56.5827 98.5173 48.3 88.3 48.3C78.0827 48.3 69.8 56.5827 69.8 66.8C69.8 77.0173 78.0827 85.3 88.3 85.3Z" fill="#F1F2F2"/>
<path d="M72.1 75.9C67.1 67.1 70.2 55.8 79 50.8C87.8 45.7 99 48.7 104.2 57.4C99.6 49.7 88.8 47.5 80 52.6C71.2 57.6 67.7 68 72.1 75.9Z" fill="#E6E7E8"/>
<path d="M88.3 52.1C88.8523 52.1 89.3 51.6523 89.3 51.1C89.3 50.5477 88.8523 50.1 88.3 50.1C87.7477 50.1 87.3 50.5477 87.3 51.1C87.3 51.6523 87.7477 52.1 88.3 52.1Z" fill="#192B3A"/>
<path d="M81.3 52.6999C81.6 53.1999 81.4 53.8 80.9 54.1C80.4 54.4 79.8 54.1999 79.5 53.6999C79.2 53.1999 79.4 52.6 79.9 52.3C80.4 52 81 52.1999 81.3 52.6999Z" fill="#192B3A"/>
<path d="M75.2 58.1C75.7 58.4 75.9001 59 75.6001 59.5C75.3001 60 74.7 60.2 74.2 59.9C73.7 59.6 73.5 59 73.8 58.5C74.1 57.9 74.7 57.8 75.2 58.1Z" fill="#192B3A"/>
<path d="M72.6 67.7999C73.1523 67.7999 73.6 67.3522 73.6 66.7999C73.6 66.2476 73.1523 65.7999 72.6 65.7999C72.0478 65.7999 71.6 66.2476 71.6 66.7999C71.6 67.3522 72.0478 67.7999 72.6 67.7999Z" fill="#192B3A"/>
<path d="M74.2 73.6999C74.7 73.3999 75.3001 73.5999 75.6001 74.0999C75.9001 74.5999 75.7 75.1999 75.2 75.4999C74.7 75.7999 74.1 75.5999 73.8 75.0999C73.5 74.6999 73.7 73.9999 74.2 73.6999Z" fill="#192B3A"/>
<path d="M79.5 79.9C79.8 79.4 80.4 79.2 80.9 79.5C81.4 79.8 81.6 80.4 81.3 80.9C81 81.4 80.4 81.6 79.9 81.3C79.4 81 79.2 80.4 79.5 79.9Z" fill="#192B3A"/>
<path d="M88.3 83.5C88.8523 83.5 89.3 83.0523 89.3 82.5C89.3 81.9477 88.8523 81.5 88.3 81.5C87.7477 81.5 87.3 81.9477 87.3 82.5C87.3 83.0523 87.7477 83.5 88.3 83.5Z" fill="#192B3A"/>
<path d="M95.2 80.9C94.9 80.4 95.1001 79.8 95.6001 79.5C96.1001 79.2 96.7 79.4 97 79.9C97.3 80.4 97.1001 81 96.6001 81.3C96.1001 81.6 95.5 81.4 95.2 80.9Z" fill="#192B3A"/>
<path d="M101.3 75.4999C100.8 75.1999 100.6 74.5999 100.9 74.0999C101.2 73.5999 101.8 73.3999 102.3 73.6999C102.8 73.9999 103 74.5999 102.7 75.0999C102.5 75.6999 101.8 75.7999 101.3 75.4999Z" fill="#192B3A"/>
<path d="M103.9 67.7999C104.452 67.7999 104.9 67.3522 104.9 66.7999C104.9 66.2476 104.452 65.7999 103.9 65.7999C103.348 65.7999 102.9 66.2476 102.9 66.7999C102.9 67.3522 103.348 67.7999 103.9 67.7999Z" fill="#192B3A"/>
<path d="M102.4 59.8999C101.9 60.1999 101.3 59.9999 101 59.4999C100.7 58.9999 100.9 58.3999 101.4 58.0999C101.9 57.7999 102.5 57.9999 102.8 58.4999C103 58.8999 102.9 59.5999 102.4 59.8999Z" fill="#192B3A"/>
<path d="M97 53.6999C96.7 54.1999 96.1001 54.4 95.6001 54.1C95.1001 53.8 94.9 53.1999 95.2 52.6999C95.5 52.1999 96.1001 52 96.6001 52.3C97.1001 52.6 97.3 53.1999 97 53.6999Z" fill="#192B3A"/>
<path d="M88.3 70.1C87.9 70.1 87.6 69.8 87.6 69.4V54.4C87.6 54 87.9 53.7 88.3 53.7C88.7 53.7 89 54 89 54.4V69.4C89 69.8 88.7 70.1 88.3 70.1Z" fill="#D4AE31"/>
<path d="M98.4 67.7H85.7C85.2 67.7 84.8 67.3 84.8 66.8C84.8 66.3 85.2 65.9 85.7 65.9H98.4C98.9 65.9 99.3 66.3 99.3 66.8C99.3 67.3 98.9 67.7 98.4 67.7Z" fill="#D4AE31"/>
<path d="M88.3 68.8C89.4046 68.8 90.3 67.9046 90.3 66.8C90.3 65.6954 89.4046 64.8 88.3 64.8C87.1954 64.8 86.3 65.6954 86.3 66.8C86.3 67.9046 87.1954 68.8 88.3 68.8Z" fill="#D4AE31"/>
</svg>
