<svg width="70" height="50" viewBox="0 0 70 50" fill="none" xmlns="http://www.w3.org/2000/svg">
<path d="M64.4775 1.1475C64.0185 0.43225 63.225 0 62.3755 0H45C40.8643 0 37.5 3.36425 37.5 7.5V25C37.5 29.1357 40.8643 32.5 45 32.5H49.9635C47.6417 39.2238 45.6592 42.4438 39.0625 45.1928C37.9615 45.6518 37.3387 46.8235 37.5732 47.993C37.8075 49.1603 38.833 50 40.0245 50H40.0295C53.7918 49.9755 61.697 44.458 67.3025 30.9718C69.0917 26.7358 70 22.2022 70 17.5C70 10.2685 67.8125 6.3305 64.4775 1.1475ZM24.8755 0H7.5C3.36425 0 0 3.36425 0 7.5V25C0 29.1357 3.36425 32.5 7.5 32.5H12.4635C10.1418 39.2238 8.15925 42.4438 1.5625 45.1928C0.4615 45.6518 -0.16125 46.8235 0.0732499 47.993C0.3075 49.1603 1.333 50 2.5245 50H2.5295C16.2917 49.9755 24.197 44.458 29.8025 30.9718C31.5917 26.7358 32.5 22.2022 32.5 17.5C32.5 10.2685 30.3125 6.3305 26.9775 1.1475C26.5185 0.43225 25.725 0 24.8755 0Z" fill="#002A3A"/>
</svg>
