<svg width="105" height="97" viewBox="0 0 105 97" fill="none" xmlns="http://www.w3.org/2000/svg">
<path d="M65.2 96.4C87.1257 96.4 104.9 94.7882 104.9 92.8C104.9 90.8118 87.1257 89.2 65.2 89.2C43.2743 89.2 25.5 90.8118 25.5 92.8C25.5 94.7882 43.2743 96.4 65.2 96.4Z" fill="#E6E6E6"/>
<path d="M8.29998 14.2C6.99998 15.8 6.09997 17.7 5.59997 19.7C5.09997 21.7 4.99998 23.8 5.29998 25.8C5.59998 27.8 6.39999 29.8 7.49999 31.4C6.59999 29.6 5.99998 27.7 5.79998 25.7C5.59998 23.7 5.7 21.7 6.2 19.8C6.7 17.9 7.6 16.1 8.7 14.5C9.9 12.9 11.3 11.5 13 10.4C11.2 11.3 9.59998 12.6 8.29998 14.2Z" fill="#E6E6E6"/>
<path d="M3.2 14.2C2.2 15.5 1.39999 16.9 0.999991 18.5C0.599991 20.1 0.499978 21.7 0.799978 23.3C1.09998 24.9 1.69997 26.4 2.59997 27.7C1.89997 26.3 1.49998 24.8 1.29998 23.2C1.09998 21.7 1.3 20.1 1.7 18.6C2.1 17.1 2.8 15.7 3.7 14.4C4.6 13.1 5.69999 12 6.99999 11.1C5.49999 11.9 4.2 13 3.2 14.2Z" fill="#E6E6E6"/>
<path d="M88.2 3.79999C86.8 2.29999 85.1 1.09999 83.3 0.299988C85 1.29999 86.6 2.59998 87.9 4.19998C89.2 5.69998 90.1 7.49996 90.7 9.39996C91.3 11.3 91.6 13.3 91.5 15.2C91.4 17.2 90.9 19.1 90.1 21C91.1 19.3 91.8 17.3 91.9 15.2C92.1 13.2 91.9 11.1 91.2 9.09998C90.7 7.09998 89.6 5.29999 88.2 3.79999Z" fill="#E6E6E6"/>
<path d="M95.7 7.59998C95.2 6.09998 94.4 4.59996 93.3 3.39996C92.2 2.19996 90.9 1.29998 89.4 0.699982C90.7 1.49998 91.9 2.49999 92.9 3.79999C93.9 4.99999 94.6 6.39999 95.1 7.79999C95.6 9.29999 95.8 10.8 95.7 12.3C95.6 13.8 95.3 15.4 94.7 16.8C95.5 15.4 96 13.9 96.2 12.3C96.4 10.8 96.2 9.19998 95.7 7.59998Z" fill="#E6E6E6"/>
<path d="M92.7 32.2C92.9 32.5 93.1 32.8 93.4 33.1C93.6 33.4 93.8 33.7 94 34.1C94.2 34.4 94.4 34.8 94.6 35.1C94.8 35.4 95 35.8 95.1 36.1C95.8 37.5 96.4 38.9 96.9 40.4C97.9 43.4 98.4 46.5 98.4 49.6C98.5 52.7 98 55.9 97.2 58.9C96.8 60.4 96.2 61.9 95.6 63.3C95.4 63.6 95.3 64 95.1 64.3C94.9 64.6 94.7 65 94.5 65.3C94.3 65.6 94.1 66 93.9 66.3C93.7 66.6 93.5 66.9 93.3 67.3C93.5 66.9 93.6 66.6 93.8 66.2L94.2 65.1L94.6 64L95 62.9C95.5 61.5 95.9 60 96.2 58.5C96.9 55.5 97.2 52.5 97.1 49.5C97 46.5 96.6 43.5 95.9 40.5C95.5 39 95.1 37.6 94.5 36.2L94.1 35.1L93.6 34L93.1 33C93.1 32.9 92.9 32.5 92.7 32.2Z" fill="#E6E6E6"/>
<path d="M98.9 34.5C99.1 34.8 99.3 35 99.5 35.3C99.7 35.6 99.9 35.9 100 36.1C100.2 36.4 100.3 36.7 100.5 37C100.7 37.3 100.8 37.6 101 37.9C101.6 39.1 102.1 40.3 102.5 41.6C103.3 44.2 103.8 46.8 103.8 49.5C103.8 52.2 103.5 54.9 102.8 57.5C102.4 58.8 102 60.1 101.4 61.3C101.3 61.6 101.1 61.9 101 62.2C100.8 62.5 100.7 62.8 100.5 63.1C100.3 63.4 100.2 63.7 100 64C99.8 64.3 99.6 64.6 99.5 64.8C99.6 64.5 99.8 64.2 99.9 63.9L100.3 63L100.7 62.1L101 61.2C101.4 60 101.8 58.7 102.1 57.4C102.7 54.9 102.9 52.3 102.9 49.7C102.9 47.1 102.5 44.5 101.8 42C101.5 40.7 101.1 39.5 100.6 38.3L100.2 37.4L99.8 36.5L99.4 35.6C99.2 35.1 99 34.8 98.9 34.5Z" fill="#E6E6E6"/>
<path d="M23.3 76.4C23 76.1 22.8 75.9 22.5 75.6C22.2 75.3 22 75 21.7 74.7C21.4 74.4 21.2 74.1 21 73.8C20.8 73.5 20.5 73.2 20.3 72.9C19.4 71.6 18.6 70.3 17.8 68.9C16.4 66.1 15.3 63.1 14.8 60.1C14.2 57 14.1 53.9 14.5 50.8C14.7 49.3 15 47.7 15.4 46.2C15.5 45.8 15.6 45.5 15.7 45.1C15.8 44.7 15.9 44.4 16.1 44C16.2 43.6 16.4 43.3 16.5 42.9C16.7 42.5 16.8 42.2 17 41.8C16.9 42.2 16.8 42.5 16.7 42.9L16.4 44L16.2 45.1L16 46.2C15.7 47.7 15.6 49.2 15.5 50.7C15.3 53.7 15.5 56.8 16.1 59.7C16.6 62.7 17.5 65.6 18.8 68.3C19.4 69.7 20.1 71 20.9 72.4L21.5 73.4L22.1 74.4L22.7 75.4C22.8 75.8 23.1 76.1 23.3 76.4Z" fill="#E6E6E6"/>
<path d="M16.8 75.1C16.6 74.9 16.3 74.6 16.1 74.4C15.9 74.2 15.7 73.9 15.4 73.7C15.2 73.4 15 73.2 14.8 72.9C14.6 72.6 14.4 72.4 14.2 72.1C13.4 71 12.7 69.9 12.1 68.7C10.9 66.3 9.99999 63.7 9.49999 61.1C8.99999 58.4 8.9 55.7 9.2 53.1C9.4 51.8 9.59999 50.4 9.99999 49.2C10.1 48.9 10.2 48.6 10.3 48.2C10.4 47.9 10.5 47.6 10.6 47.3C10.7 47 10.8 46.7 11 46.4C11.1 46.1 11.3 45.8 11.4 45.5C11.3 45.8 11.2 46.1 11.1 46.5L10.9 47.5L10.7 48.5L10.5 49.5C10.3 50.8 10.1 52.1 10.1 53.4C9.99997 56 10.1 58.6 10.6 61.2C11.1 63.8 11.8 66.3 12.9 68.6C13.4 69.8 14 71 14.7 72.1L15.2 72.9L15.7 73.7L16.3 74.5C16.4 74.6 16.6 74.8 16.8 75.1Z" fill="#E6E6E6"/>
<path d="M79.2 4.09996C78.2 3.59996 77 3.99996 76.6 4.99996L67.6 23.1L71.1 24.9L80.1 6.79997C80.6 5.69997 80.2 4.59996 79.2 4.09996Z" fill="#272727"/>
<path d="M16.7 17.8999C15.9 17.1999 14.6 17.3 13.9 18.2C13.2 19 13.3 20.3 14.2 21L29.8 33.7L32.3 30.6L16.7 17.8999Z" fill="#272727"/>
<path d="M82.6 24.3L61.3 13.7L62.3 11.6C65.2 5.69997 72.4 3.29998 78.3 6.19998C84.2 9.09998 86.6 16.3 83.7 22.2L82.6 24.3Z" fill="#D4AE32"/>
<path d="M19.2 38L34.2 19.5L32.3999 18C27.2999 13.8 19.7999 14.6 15.5999 19.7C11.3999 24.8 12.2 32.3 17.3 36.5L19.2 38Z" fill="#D4AE32"/>
<path d="M79 9.79998C81.8 11.2 83.8 13.5 84.8 16.2C84.6 12.1 82.2 8.19998 78.2 6.19998C72.3 3.29998 65.2 5.69997 62.2 11.6L61.2 13.7L63.2 14.7C66.3 9.09998 73.3 6.89998 79 9.79998Z" fill="#C49E33"/>
<path d="M16.4 23.3C20.4 18.3 27.7 17.5 32.8 21.3L34.2 19.5L32.4 18C27.3 13.8 19.8 14.6 15.6 19.7C12.8 23.1 12.2 27.6 13.7 31.5C13.6 28.7 14.5 25.7 16.4 23.3Z" fill="#C49E33"/>
<path d="M82.3 63.2L71.8 72.5L87.8 79.9L82.3 63.2Z" fill="#192B3A"/>
<path d="M87.8 82.6C89.2912 82.6 90.5 81.3911 90.5 79.9C90.5 78.4088 89.2912 77.2 87.8 77.2C86.3088 77.2 85.1 78.4088 85.1 79.9C85.1 81.3911 86.3088 82.6 87.8 82.6Z" fill="#192B3A"/>
<path d="M84 68.3C82.4 70.9 80.1 73.2 78.1 75.3L80.2 76.3C82.2 74.6 83.6 72.9 84.8 70.6L84 68.3Z" fill="#192B3A"/>
<path d="M35.5 73.3L48.9 77.4L37.4 90.8L35.5 73.3Z" fill="#192B3A"/>
<path d="M37.4 93.5C38.8911 93.5 40.1 92.2912 40.1 90.8C40.1 89.3088 38.8911 88.1 37.4 88.1C35.9088 88.1 34.7 89.3088 34.7 90.8C34.7 92.2912 35.9088 93.5 37.4 93.5Z" fill="#192B3A"/>
<path d="M36.1 78.7C38.6 80.4 41.7 81.5 44.4 82.7L42.9 84.5C40.4 83.8 38.4 82.8 36.4 81.3L36.1 78.7Z" fill="#192B3A"/>
<path d="M47.6511 10.1724L45.2076 10.7009L46.8565 18.3246L49.3 17.7961L47.6511 10.1724Z" fill="#272727"/>
<path d="M55.1 84.7C73.7672 84.7 88.9 69.5672 88.9 50.9C88.9 32.2327 73.7672 17.1 55.1 17.1C36.4328 17.1 21.3 32.2327 21.3 50.9C21.3 69.5672 36.4328 84.7 55.1 84.7Z" fill="#D4AE32"/>
<path d="M78.8 34.2C76.7 31.1 74 28.6 70.8 26.5C67.6 24.5 64.2 23.1 60.5 22.4C56.7 21.7 52.8 21.7 49 22.6C45.2 23.4 41.7 25 38.5 27.2C35.4 29.3 32.9 32 30.8 35.2C28.7 38.4 27.4 41.8 26.7 45.5C26 49.3 26 53.2 26.9 57C27.7 60.8 29.3 64.3 31.5 67.5C33.6 70.6 36.3 73.1 39.5 75.2C42.7 77.2 46.1 78.6 49.8 79.3C53.6 80 57.5 80 61.3 79.1C65.1 78.3 68.6 76.7 71.8 74.5C74.9 72.4 77.4 69.7 79.5 66.5C81.5 63.3 82.9 59.9 83.6 56.2C84.3 52.4 84.3 48.5 83.4 44.7C82.5 40.9 81 37.4 78.8 34.2ZM60.9 77.5C46.2 80.7 31.7 71.3 28.5 56.6C25.3 41.9 34.7 27.4 49.4 24.2C64.1 21 78.6 30.4 81.8 45.1C85 59.8 75.6 74.3 60.9 77.5Z" fill="#C49E33"/>
<path d="M51.2 8.49998L41.3 10.6C40.5 10.8 40 11.6 40.1 12.4L40.3999 13.9C40.5999 14.7 41.4 15.2 42.2 15.1L52.1 13C52.9 12.8 53.4 12 53.3 11.2L53 9.69999C52.8 8.79999 52 8.29998 51.2 8.49998Z" fill="#1A1A1A"/>
<path d="M51.2 8.49998L41.3 10.6C40.6 10.8 40.1 11.4 40.1 12.1C40.3 11.9 40.6 11.8 40.8 11.7L49.2 9.89998C50.9 9.49998 52.5 10.6 52.8 12.3C52.8 12.4 52.8 12.5 52.8 12.6C53.2 12.2 53.3 11.7 53.2 11.2L52.9 9.69999C52.8 8.79999 52 8.29998 51.2 8.49998Z" fill="#0D0D0D"/>
<path d="M55.1 78.2C70.1773 78.2 82.4 65.9773 82.4 50.9C82.4 35.8226 70.1773 23.6 55.1 23.6C40.0226 23.6 27.8 35.8226 27.8 50.9C27.8 65.9773 40.0226 78.2 55.1 78.2Z" fill="url(#paint0_radial_148_35)"/>
<path opacity="0.04" d="M64.8999 69.7C50.1999 72.9 35.7 63.5 32.5 48.8C31.4 43.9 31.8 39 33.2 34.6C28.7 40.7 26.6999 48.6 28.3999 56.6C31.5999 71.3 46.1 80.7 60.8 77.5C70.6 75.4 78.1 68.2 81 59.3C77.3 64.4 71.6999 68.2 64.8999 69.7Z" fill="black"/>
<path d="M76.2 54.1C76.1 54.1 76.1 54.1 76.2 54.1L48.8 50.2C48.7 50.2 48.6 50.1 48.6 50C48.6 49.9 48.7 49.8 48.8 49.8L76.2 53.7C76.3 53.7 76.4 53.8 76.4 53.9C76.3 54 76.2 54.1 76.2 54.1Z" fill="#D4AE31"/>
<path d="M48.9 70.2L55.3 52.7C56 52.6 56.6 52.2 56.8 51.5C57 50.9 56.9 50.2 56.4 49.7L57.1 47.9C57.3 47.4 57.1 46.9 56.6 46.7C56.1 46.5 55.6 46.8 55.4 47.3L54.8 49.1C54.2 49.2 53.6 49.6 53.4 50.3C53.2 51 53.4 51.7 53.8 52.2L47.9 69.9C47.8 70.2 47.9 70.4 48.2 70.5C48.5 70.6 48.8 70.4 48.9 70.2Z" fill="#192B3A"/>
<path d="M50.3 31.1L54 49.4C53.5 49.8 53.2 50.5 53.3 51.2C53.4 51.9 53.9 52.4 54.5 52.5L54.8 54.4C54.9 54.9 55.4 55.3 55.9 55.2C56.4 55.1 56.7 54.6 56.6 54.1L56.1 52.2C56.6 51.8 56.8 51.1 56.7 50.5C56.5 49.8 56 49.3 55.3 49.1L51.1 30.9C51 30.6 50.8 30.5 50.5 30.5C50.5 30.6 50.3 30.9 50.3 31.1Z" fill="#192B3A"/>
<path d="M54.9 49.5C54.2 49.7 53.7 50.4 53.9 51.1C54.1 51.8 54.8 52.3 55.5 52.1C56.2 51.9 56.7 51.2 56.5 50.5C56.3 49.8 55.6 49.4 54.9 49.5ZM55.3 51.8C54.8 51.9 54.3 51.6 54.2 51.1C54.1 50.6 54.4 50.1 54.9 50C55.4 49.9 55.9 50.2 56 50.7C56.2 51.2 55.9 51.7 55.3 51.8Z" fill="#D4AE31"/>
<path d="M50 28.5C50.8284 28.5 51.5 27.8284 51.5 27C51.5 26.1715 50.8284 25.5 50 25.5C49.1716 25.5 48.5 26.1715 48.5 27C48.5 27.8284 49.1716 28.5 50 28.5Z" fill="#192B3A"/>
<path d="M60.3 76.2C61.1284 76.2 61.8 75.5284 61.8 74.7C61.8 73.8716 61.1284 73.2 60.3 73.2C59.4716 73.2 58.8 73.8716 58.8 74.7C58.8 75.5284 59.4716 76.2 60.3 76.2Z" fill="#192B3A"/>
<path d="M50 27.7C50.3866 27.7 50.7 27.3866 50.7 27C50.7 26.6134 50.3866 26.3 50 26.3C49.6134 26.3 49.3 26.6134 49.3 27C49.3 27.3866 49.6134 27.7 50 27.7Z" fill="#192B3A"/>
<path d="M38.7 33.5C39.0866 33.5 39.4 33.1866 39.4 32.8C39.4 32.4134 39.0866 32.1 38.7 32.1C38.3134 32.1 38 32.4134 38 32.8C38 33.1866 38.3134 33.5 38.7 33.5Z" fill="#192B3A"/>
<path d="M71.6 69.7C71.9866 69.7 72.3 69.3866 72.3 69C72.3 68.6134 71.9866 68.3 71.6 68.3C71.2134 68.3 70.9 68.6134 70.9 69C70.9 69.3866 71.2134 69.7 71.6 69.7Z" fill="#192B3A"/>
<path d="M32.1 42.8C32.4 42.9 32.6 43.3 32.5 43.6C32.4 43.9 32 44.1 31.7 44C31.4 43.9 31.2 43.5 31.3 43.2C31.4 42.8 31.7 42.6 32.1 42.8Z" fill="#192B3A"/>
<path d="M78.6 57.7C78.9 57.8 79.1 58.2 79 58.5C78.9 58.8 78.5 59 78.2 58.9C77.9 58.8 77.7 58.4 77.8 58.1C77.9 57.8 78.3 57.6 78.6 57.7Z" fill="#192B3A"/>
<path d="M31.3 56.7C31.6866 56.7 32 56.3866 32 56C32 55.6134 31.6866 55.3 31.3 55.3C30.9134 55.3 30.6 55.6134 30.6 56C30.6 56.3866 30.9134 56.7 31.3 56.7Z" fill="black"/>
<path d="M78.8999 45C79.2999 44.9 79.6 45.1 79.7 45.5C79.8 45.9 79.6 46.2 79.2 46.3C78.8 46.4 78.4999 46.2 78.3999 45.8C78.2999 45.5 78.4999 45.1 78.8999 45Z" fill="black"/>
<path d="M36.6 66.8C36.9 66.6 37.3 66.6 37.5 66.8C37.7 67.1 37.7 67.5 37.5 67.7C37.3 67.9 36.8 67.9 36.6 67.7C36.3 67.4 36.3 67 36.6 66.8Z" fill="#192B3A"/>
<path d="M73.2 35.1C73.5866 35.1 73.9 34.7866 73.9 34.4C73.9 34.0134 73.5866 33.7 73.2 33.7C72.8134 33.7 72.5 34.0134 72.5 34.4C72.5 34.7866 72.8134 35.1 73.2 35.1Z" fill="#192B3A"/>
<path d="M47 73.9C47.1 73.6 47.5 73.4 47.8 73.5C48.1 73.6 48.3 74 48.2 74.3C48.1 74.6 47.7 74.8 47.4 74.7C47.1 74.6 46.9 74.3 47 73.9Z" fill="#192B3A"/>
<path d="M62 27.4C62.1 27.1 62.5 26.9 62.8 27C63.1 27.1 63.3 27.5 63.2 27.8C63.1 28.1 62.7 28.3 62.4 28.2C62.1 28.1 61.9 27.7 62 27.4Z" fill="#192B3A"/>
<path d="M31.3 57.5C32.1284 57.5 32.8 56.8284 32.8 56C32.8 55.1715 32.1284 54.5 31.3 54.5C30.4716 54.5 29.8 55.1715 29.8 56C29.8 56.8284 30.4716 57.5 31.3 57.5Z" fill="#192B3A"/>
<path d="M79 47.2C79.8284 47.2 80.5 46.5284 80.5 45.7C80.5 44.8716 79.8284 44.2 79 44.2C78.1716 44.2 77.5 44.8716 77.5 45.7C77.5 46.5284 78.1716 47.2 79 47.2Z" fill="#192B3A"/>
<defs>
<radialGradient id="paint0_radial_148_35" cx="0" cy="0" r="1" gradientUnits="userSpaceOnUse" gradientTransform="translate(55.1411 50.8563) rotate(-12.2044) scale(41.9921 41.9921)">
<stop stop-color="white"/>
<stop offset="0.2976" stop-color="#FDFDFD"/>
<stop offset="0.4623" stop-color="#F5F5F5"/>
<stop offset="0.5945" stop-color="#E7E7E7"/>
<stop offset="0.7095" stop-color="#D3D3D3"/>
<stop offset="0.8132" stop-color="#BABABA"/>
<stop offset="0.9075" stop-color="#9B9B9B"/>
<stop offset="0.9955" stop-color="#777777"/>
<stop offset="1" stop-color="#757575"/>
</radialGradient>
</defs>
</svg>
