<svg width="12" height="12" viewBox="0 0 12 12" fill="none" xmlns="http://www.w3.org/2000/svg">
<path d="M11.0401 9.96031C11.3101 10.2303 11.3101 10.7703 11.0401 11.0403C10.8601 11.2203 10.6801 11.2203 10.5001 11.2203C10.3201 11.2203 10.1401 11.1303 9.96007 11.0403L6.00007 7.08031L2.04007 11.0403C1.86007 11.2203 1.68007 11.2203 1.50007 11.2203C1.32007 11.2203 1.14007 11.1303 0.960068 11.0403C0.690068 10.7703 0.690068 10.2303 0.960068 9.96031L4.92007 6.00031L0.960068 2.04031C0.690068 1.77031 0.690068 1.23031 0.960068 0.960313C1.23007 0.690312 1.77007 0.690312 2.04007 0.960313L6.00007 4.92031L9.96007 0.960313C10.2301 0.690312 10.7701 0.690312 11.0401 0.960313C11.3101 1.23031 11.3101 1.77031 11.0401 2.04031L7.08007 6.00031L11.0401 9.96031Z" fill="#1C1C1C"/>
</svg>
