<svg width="42" height="42" viewBox="0 0 42 42" fill="none" xmlns="http://www.w3.org/2000/svg">
<path d="M25.1126 3.5H16.8876C15.0676 3.5 13.5801 4.97 13.5801 6.79V8.435C13.5801 10.255 15.0501 11.725 16.8701 11.725H25.1126C26.9326 11.725 28.4026 10.255 28.4026 8.435V6.79C28.4201 4.97 26.9326 3.5 25.1126 3.5Z" fill="#1E1E1E"/>
<path d="M30.1701 8.43503C30.1701 11.2175 27.8951 13.4925 25.1126 13.4925H16.8876C14.1051 13.4925 11.8301 11.2175 11.8301 8.43503C11.8301 7.45503 10.7801 6.84253 9.90507 7.29753C7.43757 8.61003 5.75757 11.2175 5.75757 14.21V30.6775C5.75757 34.9825 9.27507 38.5 13.5801 38.5H28.4201C32.7251 38.5 36.2426 34.9825 36.2426 30.6775V14.21C36.2426 11.2175 34.5626 8.61003 32.0951 7.29753C31.2201 6.84253 30.1701 7.45503 30.1701 8.43503ZM21.6651 29.6625H14.0001C13.2826 29.6625 12.6876 29.0675 12.6876 28.35C12.6876 27.6325 13.2826 27.0375 14.0001 27.0375H21.6651C22.3826 27.0375 22.9776 27.6325 22.9776 28.35C22.9776 29.0675 22.3826 29.6625 21.6651 29.6625ZM26.2501 22.6625H14.0001C13.2826 22.6625 12.6876 22.0675 12.6876 21.35C12.6876 20.6325 13.2826 20.0375 14.0001 20.0375H26.2501C26.9676 20.0375 27.5626 20.6325 27.5626 21.35C27.5626 22.0675 26.9676 22.6625 26.2501 22.6625Z" fill="#1E1E1E"/>
</svg>
