
<svg width="62" height="60" viewBox="0 0 62 60" fill="none" xmlns="http://www.w3.org/2000/svg">
<path d="M36.8844 4.92737H24.8034C22.1302 4.92737 19.9453 6.99748 19.9453 9.56048V11.877C19.9453 14.44 22.1045 16.5101 24.7777 16.5101H36.8844C39.5576 16.5101 41.7167 14.44 41.7167 11.877V9.56048C41.7424 6.99748 39.5576 4.92737 36.8844 4.92737Z" fill="#00466D"/>
<path d="M44.3104 11.8776C44.3104 15.796 40.9689 18.9998 36.8819 18.9998H24.801C20.714 18.9998 17.3725 15.796 17.3725 11.8776C17.3725 10.4975 15.8302 9.63497 14.545 10.2757C10.9207 12.124 8.45312 15.796 8.45312 20.0102V43.2004C8.45312 49.2628 13.6197 54.2163 19.9429 54.2163H41.74C48.0632 54.2163 53.2298 49.2628 53.2298 43.2004V20.0102C53.2298 15.796 50.7622 12.124 47.1379 10.2757C45.8527 9.63497 44.3104 10.4975 44.3104 11.8776ZM31.8182 41.771H20.5598C19.5059 41.771 18.632 40.9331 18.632 39.9227C18.632 38.9123 19.5059 38.0744 20.5598 38.0744H31.8182C32.8721 38.0744 33.746 38.9123 33.746 39.9227C33.746 40.9331 32.8721 41.771 31.8182 41.771ZM38.5527 31.9133H20.5598C19.5059 31.9133 18.632 31.0754 18.632 30.065C18.632 29.0546 19.5059 28.2167 20.5598 28.2167H38.5527C39.6066 28.2167 40.4805 29.0546 40.4805 30.065C40.4805 31.0754 39.6066 31.9133 38.5527 31.9133Z" fill="#00466D"/>
</svg>