<svg width="45" height="50" viewBox="0 0 45 50" fill="none" xmlns="http://www.w3.org/2000/svg">
<path d="M28.4313 0H16.3503C13.6771 0 11.4922 2.07011 11.4922 4.63311V6.94963C11.4922 9.51263 13.6514 11.5827 16.3246 11.5827H28.4313C31.1045 11.5827 33.2636 9.51263 33.2636 6.94963V4.63311C33.2893 2.07011 31.1045 0 28.4313 0Z" fill="white"/>
<path d="M35.8573 6.95023C35.8573 10.8686 32.5158 14.0724 28.4288 14.0724H16.3479C12.2609 14.0724 8.91938 10.8686 8.91938 6.95023C8.91938 5.57013 7.37708 4.7076 6.09188 5.34833C2.46758 7.19663 0 10.8686 0 15.0828V38.273C0 44.3354 5.16658 49.2889 11.4898 49.2889H33.2869C39.6101 49.2889 44.7767 44.3354 44.7767 38.273V15.0828C44.7767 10.8686 42.3091 7.19663 38.6848 5.34833C37.3996 4.7076 35.8573 5.57013 35.8573 6.95023ZM23.3651 36.8436H12.1067C11.0528 36.8436 10.1789 36.0057 10.1789 34.9953C10.1789 33.9849 11.0528 33.147 12.1067 33.147H23.3651C24.419 33.147 25.2929 33.9849 25.2929 34.9953C25.2929 36.0057 24.419 36.8436 23.3651 36.8436ZM30.0996 26.9859H12.1067C11.0528 26.9859 10.1789 26.148 10.1789 25.1376C10.1789 24.1272 11.0528 23.2893 12.1067 23.2893H30.0996C31.1535 23.2893 32.0274 24.1272 32.0274 25.1376C32.0274 26.148 31.1535 26.9859 30.0996 26.9859Z" fill="white"/>
</svg>
