<svg width="156" height="154" viewBox="0 0 156 154" fill="none" xmlns="http://www.w3.org/2000/svg">
<path d="M45.2703 110.467C45.1539 100.862 34.7305 94.3637 25.2176 101.739C25.5461 97.852 23.4547 95.4322 20.457 93.4448C28.0657 83.117 35.6078 72.8724 43.0002 62.8398C44.6549 63.5425 46.1975 64.4031 47.8522 64.8314C49.0954 65.1515 50.4841 64.9312 51.8062 64.9353C54.0264 64.9437 56.2467 64.9353 58.9284 64.9353C57.7933 66.008 56.9618 66.8022 56.1261 67.5838C54.4547 69.1429 52.5629 70.4734 51.6482 72.7352C49.8895 77.0967 52.1222 81.3957 56.2383 82.9175C63.1194 85.4661 69.7177 85.0545 76.0998 81.4373C78.6609 79.9863 81.3634 79.3294 84.0535 80.7513C85.7789 81.6618 87.2591 83.0588 88.8099 84.2895C93.9114 88.335 98.9922 92.4095 104.094 96.455C106.958 98.7293 109.798 101.037 112.742 103.207C115.581 105.303 118.87 106.317 122.363 106.691C122.974 110.309 122.03 112.308 118.849 113.722C116.687 114.687 114.663 114.021 112.879 112.695C106.659 108.076 100.489 103.394 94.2607 98.7875C93.6121 98.3093 92.739 98.089 91.9365 97.8769C90.7599 97.5693 89.8951 98.1056 89.55 99.2282C89.1841 100.413 89.5666 101.465 90.5811 102.209C96.7761 106.766 103.071 111.198 109.145 115.913C112.496 118.516 111.977 123.813 108.38 125.942C105.906 127.405 103.499 127.326 101.138 125.621C95.6078 121.626 90.103 117.593 84.4776 113.734C83.6294 113.152 82.116 113.181 81.0391 113.448C80.5568 113.568 79.9664 115.144 80.1993 115.772C80.5444 116.695 81.484 117.497 82.3363 118.117C87.4919 121.859 92.7057 125.513 97.8696 129.243C99.4869 130.411 100.497 132.698 99.6782 135.201C99.0545 137.109 97.0463 138.236 94.822 138.465C92.739 138.681 91.4625 137.404 90.0988 136.365C85.2052 132.635 80.3947 128.794 75.5509 124.994C74.4824 124.158 72.5948 124.112 71.9213 124.915C70.9733 126.041 71.1355 127.688 72.4368 128.706C75.4262 131.056 78.4905 133.317 81.4799 135.666C83.4465 137.209 85.305 138.889 87.2799 140.427C88.8556 141.658 89.2589 144.614 88.4898 146.501C87.6707 148.505 85.1095 150.202 83.3467 149.957C82.1409 149.79 80.9477 149.516 79.8334 149.304C80.4072 147.125 81.2304 145.346 81.2595 143.558C81.3011 140.639 80.3864 137.966 78.0872 135.833C75.921 133.829 73.4762 132.956 70.5949 133.114C69.8008 133.159 69.1356 133.114 69.1772 132.012C69.3559 127.11 64.0715 122.466 59.3774 122.811C59.0739 122.832 58.7662 122.811 58.3338 122.811C58.2715 119.21 57.4067 116.005 54.7042 113.427C52.0266 110.874 48.8667 110.304 45.2744 110.45L45.2703 110.467Z" fill="#002A3A"/>
<path d="M116.193 59.6217C121.79 73.4544 127.315 87.1084 132.949 101.033C129.868 101.344 126.958 101.76 124.039 101.902C119.786 102.109 116.264 100.243 113.058 97.6274C109.192 94.4758 105.313 91.3451 101.421 88.2268C98.0116 85.4952 94.5773 82.7926 91.1555 80.0735C88.4779 77.9489 85.95 75.6414 82.2829 75.2298C80.0752 74.9845 78.0254 75.2838 76.0755 76.186C73.1526 77.5373 70.3752 79.1505 67.0823 79.6203C63.6397 80.1109 60.4009 79.6203 57.3034 78.1901C55.6403 77.425 55.1372 75.2963 56.397 74.0822C61.1908 69.4672 66.0138 64.8729 70.9864 60.4491C73.3438 58.3494 76.4414 58.6654 79.331 58.9856C82.5989 59.3431 85.8378 59.9418 89.0891 60.4408C92.2407 60.9189 95.3881 61.4636 98.5479 61.8669C101.878 62.2909 105.229 62.8772 108.564 62.8231C110.397 62.794 112.227 61.6299 114.031 60.9023C114.713 60.6279 115.316 60.1539 116.197 59.6258L116.193 59.6217Z" fill="#002A3A"/>
<path d="M99.1227 22.295C99.6133 33.4294 89.2897 44.2145 76.5962 43.6116C66.1645 43.1168 55.7078 33.7703 56.4105 20.9853C56.9801 10.5702 65.412 0.350562 78.7416 0.837015C89.4311 1.22368 99.368 10.0297 99.1186 22.295H99.1227ZM68.7589 20.5196C67.8401 21.4052 67.0917 21.9291 66.6135 22.6359C65.8776 23.7169 66.7383 24.6275 67.3661 25.3301C68.8753 27.0098 70.4885 28.6064 72.1516 30.1365C73.137 31.0428 74.3718 31.2881 75.4653 30.2737C77.7728 28.1283 80.0388 25.933 82.2964 23.7294C84.3005 21.767 86.3128 19.8087 88.2337 17.7631C89.4893 16.4243 89.4727 14.9192 88.3875 13.9879C87.3481 13.094 85.9012 13.3019 84.6747 14.5284C81.9555 17.2434 79.2364 19.9625 76.5172 22.6817C74.0143 25.1846 74.0351 25.1638 71.449 22.6401C70.7338 21.9416 69.8732 21.3886 68.7589 20.5238V20.5196Z" fill="#002A3A"/>
<path d="M119.217 53.9553C119.5 53.631 119.728 53.1404 120.102 52.9699C123.84 51.2736 127.599 49.6271 131.353 47.9765C132.359 47.5316 133.42 47.1949 134.392 46.6876C135.428 46.143 135.889 46.4673 136.301 47.4817C138.845 53.7516 141.456 59.9965 144.013 66.2663C146.624 72.6775 149.194 79.1053 151.78 85.5249C152.886 88.2689 153.963 91.0214 155.098 93.753C155.613 94.9961 154.636 95.3495 153.917 95.678C149.726 97.5905 145.494 99.4075 141.298 101.308C139.078 102.314 138.733 102.268 137.831 100.039C133.74 89.957 129.686 79.8579 125.607 69.7671C123.649 64.9275 121.67 60.0921 119.703 55.2567C119.554 54.8908 119.429 54.5208 119.221 53.9511L119.217 53.9553Z" fill="#002A3A"/>
<path d="M0.00195313 84.9665C3.31981 80.4221 6.41731 76.1521 9.53976 71.903C13.5062 66.4979 17.4935 61.1095 21.4683 55.7128C23.6095 52.8107 25.7424 49.9003 27.8919 47.0065C28.4948 46.1958 29.2806 46.1417 30.0373 46.728C33.4882 49.4139 36.9266 52.1164 40.3484 54.8397C41.708 55.9248 41.7039 56.5527 40.6894 57.9122C36.461 63.575 32.2492 69.2503 28.0541 74.9339C23.4681 81.1456 18.9237 87.3863 14.3294 93.5896C13.211 95.0989 13.0073 95.1446 11.2818 93.8224C7.52326 90.9453 3.83537 87.985 0.00195313 84.9665Z" fill="#002A3A"/>
<path d="M25.6799 127.213C22.7113 127.23 20.8652 125.982 19.568 123.741C18.25 121.459 18.196 119.101 19.7052 117.052C22.7196 112.956 26.0291 109.086 29.085 105.019C30.3573 103.327 34.4485 103.119 36.3694 103.917C38.602 104.845 40.0365 107.177 40.2069 109.522C40.4231 112.437 38.6519 114.345 37.0928 116.382C34.964 119.168 32.8644 121.974 30.6359 124.677C29.3054 126.29 27.5924 127.371 25.6799 127.213Z" fill="#002A3A"/>
<path d="M46.4561 115.345C49.591 115.246 51.5119 116.481 52.6345 118.626C53.7488 120.75 53.7945 123.033 52.1605 125.07C49.221 128.733 46.3605 132.463 43.3004 136.018C41.6914 137.889 39.4795 138.704 37.0015 137.772C34.3696 136.787 32.9311 134.695 32.7481 132.001C32.6109 129.964 33.9331 128.326 35.1513 126.754C37.5212 123.698 39.862 120.622 42.2028 117.545C43.2588 116.156 45.0092 115.345 46.4561 115.345Z" fill="#002A3A"/>
<path d="M59.353 127.821C61.3695 127.497 62.8996 128.619 63.8808 130.457C65.1032 132.748 64.3797 134.844 62.8954 136.781C61.1325 139.084 59.3697 141.392 57.6567 143.729C56.2555 145.637 54.2889 146.252 52.1394 145.862C50.0813 145.487 48.7301 144.036 47.9983 142.045C47.2665 140.057 47.9443 138.353 49.1334 136.839C51.0584 134.386 53.0666 131.996 55.0789 129.613C56.5424 127.884 56.7711 127.821 59.3613 127.821H59.353Z" fill="#002A3A"/>
<path d="M62.0469 147.297C62.4419 146.349 62.6996 145.314 63.2568 144.474C64.3503 142.827 65.5976 141.285 66.8033 139.713C68.5288 137.468 71.8383 136.969 74.5283 139.094C76.2704 140.47 77.1768 143.276 75.6592 145.987C74.7238 147.663 73.6261 149.251 72.5118 150.819C71.0941 152.814 68.4248 153.613 66.1422 152.827C63.6892 151.983 62.3047 150.024 62.0469 147.297Z" fill="#002A3A"/>
</svg>
