<svg width="60" height="61" viewBox="0 0 60 61" fill="none" xmlns="http://www.w3.org/2000/svg">
<path d="M22.5 30.2845C30.7725 30.2845 37.5 23.5228 37.5 15.2082C37.5 6.89358 30.7725 0.131836 22.5 0.131836C14.2275 0.131836 7.5 6.89358 7.5 15.2082C7.5 23.5228 14.2275 30.2845 22.5 30.2845ZM22.5 2.64456C29.3925 2.64456 35 8.2806 35 15.2082C35 22.1358 29.3925 27.7718 22.5 27.7718C15.6075 27.7718 10 22.1358 10 15.2082C10 8.2806 15.6075 2.64456 22.5 2.64456ZM11.25 35.31H26.39C25.9375 36.0889 25.585 36.9282 25.355 37.8227H11.25C6.425 37.8227 2.5 41.7677 2.5 46.6172V60.4372H0V46.6172C0 40.3832 5.0475 35.31 11.25 35.31ZM55 35.31H52.5V34.0536C52.5 31.9756 50.8175 30.2845 48.75 30.2845H41.25C39.1825 30.2845 37.5 31.9756 37.5 34.0536V35.31H35C32.2425 35.31 30 37.5639 30 40.3354V60.4372H60V40.3354C60 37.5639 57.7575 35.31 55 35.31ZM40 34.0536C40 33.3601 40.56 32.7973 41.25 32.7973H48.75C49.44 32.7973 50 33.3601 50 34.0536V35.31H40V34.0536ZM35 37.8227H55C56.3775 37.8227 57.5 38.9509 57.5 40.3354V45.3609H32.5V40.3354C32.5 38.9509 33.6225 37.8227 35 37.8227ZM32.5 57.9245V47.8736H43.75V52.8991H46.25V47.8736H57.5V57.9245H32.5Z" fill="#3D176C"/>
</svg>
