<svg width="66" height="67" viewBox="0 0 66 67" fill="none" xmlns="http://www.w3.org/2000/svg">
<circle cx="33" cy="33.3516" r="31.75" stroke="black" stroke-width="2.5"/>
<path d="M39.337 19.6503V49.776H26.8047V19.6503C26.8047 18.3247 27.8892 17.3607 29.0942 17.3607H37.0474C38.373 17.2402 39.337 18.3247 39.337 19.6503Z" stroke="black" stroke-width="1.5" stroke-miterlimit="10" stroke-linecap="round" stroke-linejoin="round"/>
<path d="M34.76 26.2775H31.3859C30.7834 26.2775 30.4219 25.7955 30.4219 25.3135V21.6984C30.4219 21.0959 30.9039 20.7344 31.3859 20.7344H34.76C35.3625 20.7344 35.724 21.2164 35.724 21.6984V25.3135C35.724 25.7955 35.3625 26.2775 34.76 26.2775Z" fill="black" stroke="black" stroke-width="1.5" stroke-miterlimit="10" stroke-linecap="round" stroke-linejoin="round"/>
<path d="M34.76 36.2775H31.3859C30.7834 36.2775 30.4219 35.7955 30.4219 35.3135V31.6984C30.4219 31.0959 30.9039 30.7344 31.3859 30.7344H34.76C35.3625 30.7344 35.724 31.2164 35.724 31.6984V35.3135C35.724 35.7955 35.3625 36.2775 34.76 36.2775Z" fill="black" stroke="black" stroke-width="1.5" stroke-miterlimit="10" stroke-linecap="round" stroke-linejoin="round"/>
<path d="M34.76 46.2853H31.3859C30.7834 46.2853 30.4219 45.8033 30.4219 45.3213V41.7062C30.4219 41.1037 30.9039 40.7422 31.3859 40.7422H34.76C35.3625 40.7422 35.724 41.2242 35.724 41.7062V45.3213C35.724 45.8033 35.3625 46.2853 34.76 46.2853Z" fill="black" stroke="black" stroke-width="1.5" stroke-miterlimit="10" stroke-linecap="round" stroke-linejoin="round"/>
<path d="M26.8103 20.4922V49.6539H16.8086V30.1324C16.8086 29.4094 17.0496 28.8069 17.6521 28.3249L26.8103 20.4922Z" stroke="black" stroke-width="1.5" stroke-miterlimit="10" stroke-linecap="round" stroke-linejoin="round"/>
<path d="M19.4648 31.0938H24.1645" stroke="black" stroke-width="1.5" stroke-miterlimit="10" stroke-linecap="round" stroke-linejoin="round"/>
<path d="M44.4062 29.4105V24.7109" stroke="black" stroke-width="1.5" stroke-miterlimit="10" stroke-linecap="round" stroke-linejoin="round"/>
<path d="M44.4062 37.848V33.1484" stroke="black" stroke-width="1.5" stroke-miterlimit="10" stroke-linecap="round" stroke-linejoin="round"/>
<path d="M44.4062 46.3982V41.5781" stroke="black" stroke-width="1.5" stroke-miterlimit="10" stroke-linecap="round" stroke-linejoin="round"/>
<path d="M19.4648 34.9531H24.1645" stroke="black" stroke-width="1.5" stroke-miterlimit="10" stroke-linecap="round" stroke-linejoin="round"/>
<path d="M19.4648 38.8125H24.1645" stroke="black" stroke-width="1.5" stroke-miterlimit="10" stroke-linecap="round" stroke-linejoin="round"/>
<path d="M19.4648 42.5469H24.1645" stroke="black" stroke-width="1.5" stroke-miterlimit="10" stroke-linecap="round" stroke-linejoin="round"/>
<path d="M19.4648 46.4062H24.1645" stroke="black" stroke-width="1.5" stroke-miterlimit="10" stroke-linecap="round" stroke-linejoin="round"/>
<path d="M49.0017 23.9927V50.0213H39V21.7031H46.7122C47.9172 21.7031 49.0017 22.6671 49.0017 23.9927Z" stroke="black" stroke-width="1.5" stroke-miterlimit="10" stroke-linecap="round" stroke-linejoin="round"/>
<path d="M15 49.7812H51.1509" stroke="black" stroke-width="1.5" stroke-miterlimit="10" stroke-linecap="round" stroke-linejoin="round"/>
</svg>
