<svg width="55" height="55" viewBox="0 0 55 55" fill="none" xmlns="http://www.w3.org/2000/svg">
<circle cx="27.5" cy="27.5" r="27.5" fill="#E40D75"/>
<path d="M30.7417 15.3333H25.2583C24.045 15.3333 23.0533 16.3133 23.0533 17.5266V18.6233C23.0533 19.8366 24.0333 20.8166 25.2467 20.8166H30.7417C31.955 20.8166 32.935 19.8366 32.935 18.6233V17.5266C32.9467 16.3133 31.955 15.3333 30.7417 15.3333Z" fill="white"/>
<path d="M34.1133 18.6233C34.1133 20.4783 32.5967 21.995 30.7417 21.995H25.2583C23.4033 21.995 21.8867 20.4783 21.8867 18.6233C21.8867 17.97 21.1867 17.5616 20.6033 17.865C18.9583 18.74 17.8383 20.4783 17.8383 22.4733V33.4516C17.8383 36.3216 20.1833 38.6666 23.0533 38.6666H32.9467C35.8167 38.6666 38.1617 36.3216 38.1617 33.4516V22.4733C38.1617 20.4783 37.0417 18.74 35.3967 17.865C34.8133 17.5616 34.1133 17.97 34.1133 18.6233ZM31.8967 27.8516L27.23 32.5183C27.055 32.6933 26.8333 32.775 26.6117 32.775C26.39 32.775 26.1683 32.6933 25.9933 32.5183L24.2433 30.7683C23.905 30.43 23.905 29.87 24.2433 29.5316C24.5817 29.1933 25.1417 29.1933 25.48 29.5316L26.6117 30.6633L30.66 26.615C30.9983 26.2766 31.5583 26.2766 31.8967 26.615C32.235 26.9533 32.235 27.5133 31.8967 27.8516Z" fill="white"/>
</svg>
