<svg width="67" height="66" viewBox="0 0 67 66" fill="none" xmlns="http://www.w3.org/2000/svg">
<path d="M22.6399 26.1417H23.9346C24.4868 26.1417 24.9346 26.5895 24.9346 27.1417V28.4275C24.9346 28.8846 25.2405 29.1894 25.6994 29.1894C26.1584 29.1894 26.4643 28.8846 26.4643 28.4275V27.1417C26.4643 26.5895 26.912 26.1417 27.4643 26.1417H28.759C29.2179 26.1417 29.5239 25.837 29.5239 25.3798C29.5239 24.9227 29.2179 24.6179 28.759 24.6179H27.4643C26.912 24.6179 26.4643 24.1702 26.4643 23.6179V22.3322C26.4643 21.8751 26.1584 21.5703 25.6994 21.5703C25.2405 21.5703 24.9346 21.8751 24.9346 22.3322V23.6179C24.9346 24.1702 24.4868 24.6179 23.9346 24.6179H22.6399C22.181 24.6179 21.875 24.9227 21.875 25.3798C21.875 25.837 22.181 26.1417 22.6399 26.1417Z" fill="#05083B"/>
<path d="M48.6417 17H18.0461C17.5872 17 17.2812 17.3048 17.2812 17.7619V48.2381C17.2812 48.6952 17.5872 49 18.0461 49H48.6417C49.1006 49 49.4066 48.6952 49.4066 48.2381V17.7619C49.4066 17.3048 49.1006 17 48.6417 17ZM32.579 46.4762C32.579 47.0285 32.1313 47.4762 31.579 47.4762H19.811C19.2587 47.4762 18.811 47.0285 18.811 46.4762V34.7619C18.811 34.2096 19.2587 33.7619 19.811 33.7619H31.579C32.1313 33.7619 32.579 34.2096 32.579 34.7619V46.4762ZM32.579 31.2381C32.579 31.7904 32.1313 32.2381 31.579 32.2381H19.811C19.2587 32.2381 18.811 31.7904 18.811 31.2381V19.5238C18.811 18.9715 19.2587 18.5238 19.811 18.5238H31.579C32.1313 18.5238 32.579 18.9715 32.579 19.5238V31.2381ZM47.8768 46.4762C47.8768 47.0285 47.4291 47.4762 46.8768 47.4762H35.1088C34.5565 47.4762 34.1088 47.0285 34.1088 46.4762V34.7619C34.1088 34.2096 34.5565 33.7619 35.1088 33.7619H46.8768C47.4291 33.7619 47.8768 34.2096 47.8768 34.7619V46.4762ZM47.8768 31.2381C47.8768 31.7904 47.4291 32.2381 46.8768 32.2381H35.1088C34.5565 32.2381 34.1088 31.7904 34.1088 31.2381V19.5238C34.1088 18.9715 34.5565 18.5238 35.1088 18.5238H46.8768C47.4291 18.5238 47.8768 18.9715 47.8768 19.5238V31.2381Z" fill="#05083B"/>
<path d="M37.9339 26.141H44.053C44.5119 26.141 44.8179 25.8362 44.8179 25.3791C44.8179 24.9219 44.5119 24.6172 44.053 24.6172H37.9339C37.4749 24.6172 37.169 24.9219 37.169 25.3791C37.169 25.8362 37.4749 26.141 37.9339 26.141ZM23.0185 43.2839C23.1715 43.4362 23.401 43.5124 23.554 43.5124C23.7069 43.5124 23.9364 43.4362 24.0894 43.2839L24.9899 42.3868C25.3801 41.9981 26.0112 41.9981 26.4014 42.3868L27.3019 43.2839C27.4549 43.4362 27.6843 43.5124 27.8373 43.5124C27.9903 43.5124 28.2198 43.4362 28.3728 43.2839C28.6787 42.9791 28.6787 42.5219 28.3728 42.2172L27.4777 41.3257C27.0854 40.9348 27.0854 40.2995 27.4777 39.9087L28.3728 39.0172C28.6787 38.7124 28.6787 38.2553 28.3728 37.9505C28.0668 37.6458 27.6079 37.6458 27.3019 37.9505L26.4014 38.8475C26.0112 39.2362 25.3801 39.2362 24.9899 38.8475L24.0894 37.9505C23.7834 37.6458 23.3245 37.6458 23.0185 37.9505C22.7126 38.2553 22.7126 38.7124 23.0185 39.0172L23.9135 39.9087C24.3059 40.2995 24.3059 40.9348 23.9135 41.3257L23.0185 42.2172C22.7126 42.5219 22.7126 42.9791 23.0185 43.2839ZM37.9339 39.8553H44.053C44.5119 39.8553 44.8179 39.5505 44.8179 39.0934C44.8179 38.6362 44.5119 38.3315 44.053 38.3315H37.9339C37.4749 38.3315 37.169 38.6362 37.169 39.0934C37.169 39.5505 37.4749 39.8553 37.9339 39.8553ZM37.9339 42.9029H44.053C44.5119 42.9029 44.8179 42.5981 44.8179 42.141C44.8179 41.6839 44.5119 41.3791 44.053 41.3791H37.9339C37.4749 41.3791 37.169 41.6839 37.169 42.141C37.169 42.5981 37.4749 42.9029 37.9339 42.9029Z" fill="#05083B"/>
<path d="M65.2272 33C65.2272 50.5304 50.959 64.75 33.348 64.75C15.737 64.75 1.46875 50.5304 1.46875 33C1.46875 15.4696 15.737 1.25 33.348 1.25C50.959 1.25 65.2272 15.4696 65.2272 33Z" stroke="black" stroke-width="2.5"/>
</svg>
