<svg width="68" height="66" viewBox="0 0 68 66" fill="none" xmlns="http://www.w3.org/2000/svg">
<path d="M65.7741 33C65.7741 50.5304 51.5059 64.75 33.8949 64.75C16.2838 64.75 2.01562 50.5304 2.01562 33C2.01562 15.4696 16.2838 1.25 33.8949 1.25C51.5059 1.25 65.7741 15.4696 65.7741 33Z" stroke="black" stroke-width="2.5"/>
<path d="M35.4793 30.8502H30.7844C30.6149 30.8502 30.4523 30.7831 30.3324 30.6637C30.2125 30.5443 30.1451 30.3823 30.1451 30.2134C30.1451 30.0445 30.2125 29.8825 30.3324 29.7631C30.4523 29.6437 30.6149 29.5766 30.7844 29.5766H35.4793C35.8109 29.5766 36.129 29.4454 36.3635 29.2118C36.598 28.9782 36.7298 28.6613 36.7298 28.331C36.7298 28.0006 36.598 27.6838 36.3635 27.4502C36.129 27.2166 35.8109 27.0854 35.4793 27.0854H32.6742C32.3417 27.0859 32.0124 27.0212 31.705 26.8949C31.3976 26.7685 31.1183 26.5831 30.883 26.3491C30.6476 26.1151 30.461 25.8372 30.3336 25.5312C30.2062 25.2253 30.1406 24.8973 30.1406 24.5661C30.1406 24.2349 30.2062 23.907 30.3336 23.601C30.461 23.2951 30.6476 23.0172 30.883 22.7832C31.1183 22.5492 31.3976 22.3637 31.705 22.2374C32.0124 22.111 32.3417 22.0463 32.6742 22.0469H37.3694C37.5389 22.0469 37.7016 22.114 37.8215 22.2334C37.9413 22.3528 38.0087 22.5148 38.0087 22.6837C38.0087 22.8526 37.9413 23.0145 37.8215 23.134C37.7016 23.2534 37.5389 23.3205 37.3694 23.3205H32.6742C32.5097 23.3201 32.3468 23.352 32.1947 23.4144C32.0426 23.4768 31.9044 23.5685 31.7879 23.6842C31.6715 23.7999 31.5791 23.9374 31.5161 24.0887C31.453 24.24 31.4206 24.4023 31.4206 24.5661C31.4206 24.73 31.453 24.8922 31.5161 25.0435C31.5791 25.1949 31.6715 25.3323 31.7879 25.448C31.9044 25.5637 32.0426 25.6554 32.1947 25.7178C32.3468 25.7802 32.5097 25.8122 32.6742 25.8117H35.4793C36.15 25.8117 36.7933 26.0772 37.2676 26.5496C37.7419 27.0221 38.0084 27.6628 38.0084 28.331C38.0084 28.9991 37.7419 29.6399 37.2676 30.1123C36.7933 30.5848 36.15 30.8502 35.4793 30.8502Z" fill="#05083B"/>
<path d="M34.069 32.4956C33.985 32.4956 33.9019 32.4792 33.8243 32.4472C33.7467 32.4152 33.6763 32.3683 33.6169 32.3091C33.5575 32.25 33.5104 32.1798 33.4783 32.1025C33.4462 32.0252 33.4297 31.9424 33.4297 31.8588V21.0431C33.4297 20.8742 33.497 20.7122 33.6169 20.5928C33.7368 20.4733 33.8994 20.4062 34.069 20.4062C34.2385 20.4062 34.4011 20.4733 34.521 20.5928C34.6409 20.7122 34.7083 20.8742 34.7083 21.0431V31.8588C34.7083 31.9424 34.6918 32.0252 34.6597 32.1025C34.6275 32.1798 34.5805 32.25 34.5211 32.3091C34.4617 32.3683 34.3912 32.4152 34.3137 32.4472C34.2361 32.4792 34.1529 32.4956 34.069 32.4956Z" fill="#05083B"/>
<path d="M46.6589 49.1139C46.575 49.1139 46.4918 49.0974 46.4143 49.0654C46.3367 49.0334 46.2662 48.9865 46.2069 48.9273L44.1413 46.8701L42.0758 48.9273C42.0165 48.9865 41.946 49.0334 41.8684 49.0654C41.7909 49.0974 41.7078 49.1139 41.6238 49.1139C41.5399 49.1139 41.4567 49.0974 41.3792 49.0654C41.3016 49.0334 41.2311 48.9865 41.1718 48.9273L39.1063 46.8701L37.0407 48.9273C36.9814 48.9865 36.9109 49.0334 36.8333 49.0654C36.7558 49.0974 36.6727 49.1139 36.5887 49.1139C36.5047 49.1139 36.4216 49.0974 36.3441 49.0654C36.2665 49.0334 36.196 48.9865 36.1367 48.9273L34.0711 46.8701L32.0052 48.9273C31.9459 48.9865 31.8754 49.0334 31.7979 49.0654C31.7203 49.0974 31.6372 49.1139 31.5532 49.1139C31.4693 49.1139 31.3862 49.0974 31.3086 49.0654C31.231 49.0334 31.1606 48.9865 31.1012 48.9273L29.0357 46.8701L26.9701 48.9273C26.9108 48.9865 26.8403 49.0334 26.7628 49.0654C26.6852 49.0974 26.6021 49.1139 26.5181 49.1139C26.4342 49.1139 26.3511 49.0974 26.2735 49.0654C26.196 49.0334 26.1255 48.9865 26.0661 48.9273L24.0006 46.8701L21.9351 48.9273C21.8457 49.0164 21.7318 49.077 21.6077 49.1016C21.4837 49.1262 21.3552 49.1136 21.2384 49.0654C21.1216 49.0172 21.0217 48.9356 20.9515 48.8309C20.8812 48.7261 20.8437 48.603 20.8438 48.4771V16.6368C20.8437 16.5532 20.8602 16.4704 20.8924 16.3931C20.9245 16.3158 20.9716 16.2456 21.0309 16.1865C21.0903 16.1273 21.1608 16.0804 21.2384 16.0484C21.3159 16.0164 21.3991 16 21.483 16H46.6589C46.7429 16 46.826 16.0164 46.9036 16.0484C46.9811 16.0804 47.0516 16.1273 47.111 16.1865C47.1704 16.2456 47.2175 16.3158 47.2496 16.3931C47.2817 16.4704 47.2982 16.5532 47.2982 16.6368V48.4771C47.2982 48.646 47.2308 48.8079 47.111 48.9274C46.9911 49.0468 46.8285 49.1139 46.6589 49.1139ZM29.0357 45.3328C29.1197 45.3327 29.2028 45.3492 29.2804 45.3812C29.358 45.4132 29.4284 45.4602 29.4877 45.5194L31.5533 47.5766L33.6191 45.5194C33.6785 45.4603 33.7489 45.4133 33.8265 45.3813C33.9041 45.3493 33.9872 45.3328 34.0711 45.3328C34.1551 45.3328 34.2382 45.3493 34.3158 45.3813C34.3933 45.4133 34.4638 45.4603 34.5231 45.5194L36.5887 47.5766L38.6542 45.5194C38.7136 45.4603 38.784 45.4133 38.8616 45.3813C38.9392 45.3493 39.0223 45.3328 39.1062 45.3328C39.1902 45.3328 39.2733 45.3493 39.3509 45.3813C39.4284 45.4133 39.4989 45.4603 39.5582 45.5194L41.6238 47.5766L43.6893 45.5194C43.7487 45.4603 43.8192 45.4133 43.8967 45.3813C43.9743 45.3493 44.0574 45.3328 44.1413 45.3328C44.2253 45.3328 44.3084 45.3493 44.386 45.3813C44.4635 45.4133 44.534 45.4603 44.5933 45.5194L46.0196 46.9398V17.2736H22.1223V46.9398L23.5486 45.5194C23.6079 45.4603 23.6784 45.4133 23.756 45.3813C23.8335 45.3493 23.9167 45.3328 24.0006 45.3328C24.0846 45.3328 24.1677 45.3493 24.2452 45.3813C24.3228 45.4133 24.3933 45.4603 24.4526 45.5194L26.5182 47.5766L28.5837 45.5194C28.643 45.4602 28.7134 45.4132 28.791 45.3812C28.8686 45.3492 28.9517 45.3327 29.0357 45.3328Z" fill="#05083B"/>
<path d="M41.5473 37.4142H26.6002C26.4307 37.4142 26.2681 37.3471 26.1482 37.2277C26.0283 37.1083 25.9609 36.9463 25.9609 36.7774C25.9609 36.6085 26.0283 36.4466 26.1482 36.3271C26.2681 36.2077 26.4307 36.1406 26.6002 36.1406H41.5473C41.7169 36.1406 41.8795 36.2077 41.9994 36.3271C42.1192 36.4466 42.1866 36.6085 42.1866 36.7774C42.1866 36.9463 42.1192 37.1083 41.9994 37.2277C41.8795 37.3471 41.7169 37.4142 41.5473 37.4142Z" fill="#05083B"/>
<path d="M41.5473 41.5783H26.6002C26.4307 41.5783 26.2681 41.5112 26.1482 41.3918C26.0283 41.2724 25.9609 41.1104 25.9609 40.9415C25.9609 40.7726 26.0283 40.6106 26.1482 40.4912C26.2681 40.3718 26.4307 40.3047 26.6002 40.3047H41.5473C41.7169 40.3047 41.8795 40.3718 41.9994 40.4912C42.1192 40.6106 42.1866 40.7726 42.1866 40.9415C42.1866 41.1104 42.1192 41.2724 41.9994 41.3918C41.8795 41.5112 41.7169 41.5783 41.5473 41.5783Z" fill="#05083B"/>
</svg>
