<svg width="67" height="66" viewBox="0 0 67 66" fill="none" xmlns="http://www.w3.org/2000/svg">
<path d="M65.6882 33C65.6882 50.5304 51.42 64.75 33.8089 64.75C16.1979 64.75 1.92969 50.5304 1.92969 33C1.92969 15.4696 16.1979 1.25 33.8089 1.25C51.42 1.25 65.6882 15.4696 65.6882 33Z" stroke="black" stroke-width="2.5"/>
<path d="M33.3995 32.951C33.4934 33.0077 33.605 33.0361 33.7107 33.0361C33.8164 33.0361 33.928 33.0077 34.0219 32.951L36.0831 31.7085C37.8799 30.6248 38.9957 28.6447 38.9957 26.5397V23.0164C38.9957 22.7894 38.8547 22.5795 38.6316 22.4944L33.9338 20.6051C33.787 20.5483 33.6285 20.5483 33.4817 20.6051L28.7839 22.4944C28.5667 22.5852 28.4198 22.7894 28.4198 23.0164V26.5397C28.4198 28.6447 29.5356 30.6248 31.3325 31.7085L33.3936 32.951H33.3995ZM30.9449 25.8305C31.1739 25.6092 31.5439 25.6092 31.7729 25.8305L33.0824 27.0957L35.6074 24.1681C35.8129 23.9298 36.1829 23.8958 36.4354 24.0944C36.682 24.2929 36.7173 24.6504 36.5117 24.8944L33.5756 28.2986C33.4699 28.4234 33.3173 28.4971 33.1528 28.5028C33.147 28.5028 33.1352 28.5028 33.1293 28.5028C32.9767 28.5028 32.824 28.4461 32.7124 28.3383L30.9508 26.6362C30.7217 26.4149 30.7217 26.0575 30.9508 25.8362L30.9449 25.8305ZM26.6641 35.8729C26.6641 36.185 26.9283 36.4403 27.2513 36.4403H40.1701C40.4931 36.4403 40.7573 36.185 40.7573 35.8729C40.7573 35.5609 40.4931 35.3056 40.1701 35.3056H27.2513C26.9283 35.3056 26.6641 35.5609 26.6641 35.8729ZM27.2513 39.8445H40.1701C40.4931 39.8445 40.7573 39.5892 40.7573 39.2771C40.7573 38.9651 40.4931 38.7098 40.1701 38.7098H27.2513C26.9283 38.7098 26.6641 38.9651 26.6641 39.2771C26.6641 39.5892 26.9283 39.8445 27.2513 39.8445ZM40.7573 42.6814C40.7573 42.3693 40.4931 42.114 40.1701 42.114H27.2513C26.9283 42.114 26.6641 42.3693 26.6641 42.6814C26.6641 42.9934 26.9283 43.2487 27.2513 43.2487H40.1701C40.4931 43.2487 40.7573 42.9934 40.7573 42.6814ZM31.3618 45.5182C31.0388 45.5182 30.7746 45.7735 30.7746 46.0856C30.7746 46.3976 31.0388 46.6529 31.3618 46.6529H36.0596C36.3825 46.6529 36.6468 46.3976 36.6468 46.0856C36.6468 45.7735 36.3825 45.5182 36.0596 45.5182H31.3618Z" fill="#05083B"/>
<rect x="21.2578" y="17.5" width="24.8376" height="31.34" stroke="#05083B"/>
</svg>
