<svg width="160" height="160" viewBox="0 0 160 160" fill="none" xmlns="http://www.w3.org/2000/svg">
<path d="M159.368 65.0392C159.16 65.4009 158.806 65.746 158.769 66.1202C158.212 71.5211 156.881 76.6974 154.773 81.7241C152.511 87.125 149.634 92.1433 145.934 96.6378C140.213 103.585 133.265 109.044 125.071 112.849C119.902 115.248 114.527 117.04 108.851 117.589C104.311 118.029 99.7001 118.449 95.1724 118.142C90.944 117.855 86.728 116.799 82.6036 115.718C76.7246 114.179 71.3445 111.448 66.3469 107.984C65.6027 107.469 64.8751 106.932 63.9853 106.292C62.7214 107.598 61.4366 108.874 60.2184 110.204C59.6031 110.878 59.1457 110.969 58.4514 110.267C55.0712 106.833 51.6452 103.44 48.265 100.06C49.8906 98.4922 51.4831 96.9621 53.0963 95.4072C49.1132 90.0603 46.157 84.5805 44.1904 78.5767C42.8101 74.3525 41.6293 70.0867 41.438 65.6254C41.2675 61.713 40.831 57.759 41.1761 53.884C42.1906 42.4919 46.1196 32.1017 53.142 23.0338C59.8983 14.3109 68.4673 7.95787 78.8325 4.00388C83.8093 2.10381 88.9025 0.885594 94.1703 0.295198C94.3325 0.278567 94.478 0.0997852 94.6319 0C98.2615 0 101.895 0 105.525 0C106.964 0.311829 108.394 0.702654 109.849 0.918856C115.287 1.73377 120.46 3.40517 125.399 5.7626C130.201 8.0535 134.579 10.9888 138.608 14.5063C142.026 17.4874 145.265 20.6389 147.743 24.4058C150.283 28.2642 152.669 32.2722 154.648 36.4424C156.644 40.6459 157.937 45.1528 158.461 49.8386C158.602 51.0859 159.056 52.2999 159.368 53.5306V65.0475V65.0392ZM51.9612 59.2475C51.9861 73.0303 56.9837 84.8673 66.8999 94.2638C76.7952 103.644 88.8609 108.126 102.611 107.34C114.547 106.658 124.992 102.23 133.511 93.8023C144.333 83.1003 149.006 69.9661 147.822 54.8445C146.928 43.4523 142.362 33.611 134.28 25.5034C123.578 14.7682 110.51 10.4068 95.5133 11.5127C73.2321 13.155 51.7907 32.1599 51.9654 59.2475H51.9612Z" fill="#002A3A"/>
<path d="M0.0401526 137.066C-0.113683 135.083 0.730334 133.599 1.98181 132.343C12.6755 121.624 23.3899 110.927 34.0919 100.221C36.574 97.7342 40.9022 97.8881 43.2264 100.262C48.4817 105.638 53.7994 110.956 59.1712 116.211C61.5037 118.494 61.4787 122.597 59.271 124.813C48.3695 135.761 37.4471 146.696 26.4916 157.589C23.9844 160.079 20.1801 159.992 17.6481 157.489C12.3803 152.275 7.13738 147.028 1.9236 141.756C0.638864 140.459 -0.196837 138.891 0.0401526 137.066Z" fill="#002A3A"/>
<path d="M108.014 34.0207C109.382 34.5986 110.692 35.1516 112.18 35.7753C113.407 34.661 114.849 33.5634 116.026 32.2287C117.652 30.391 120.537 30.5948 122.071 32.2287C123.739 34.0041 125.456 35.742 127.244 37.3968C128.815 38.852 128.761 41.4214 127.231 42.8974C126.125 43.966 125.086 45.1177 124.138 46.3317C123.851 46.6976 123.801 47.4377 123.947 47.9116C124.3 49.0509 124.84 50.1319 125.306 51.2461C127.294 51.3418 129.343 51.4291 131.397 51.5455C133.667 51.6744 134.636 53.2668 134.711 55.1669C134.831 58.1854 134.661 61.2288 134.428 64.2515C134.316 65.7358 132.707 66.8916 131.202 66.9041C129.235 66.9207 127.264 66.9041 125.273 66.9041C124.795 68.2055 124.254 69.4361 123.922 70.725C123.793 71.2281 123.963 71.9973 124.296 72.3964C125.19 73.465 126.25 74.3963 127.231 75.3942C128.869 77.0573 128.898 79.1943 127.231 80.82C125.023 82.9778 122.807 85.1315 120.521 87.2062C119.344 88.2748 118.093 87.938 116.991 86.9401C115.656 85.7302 114.376 84.4663 113.003 83.3063C112.642 83.0028 111.648 82.7866 111.577 82.9072C110.75 84.3041 108.085 83.0818 108.002 85.46C107.939 87.2977 107.906 89.1479 107.669 90.9648C107.47 92.499 105.981 93.659 104.484 93.6632C101.528 93.6798 98.572 93.684 95.6159 93.6632C93.9071 93.6507 92.4768 92.1705 92.456 90.4243C92.4352 88.4577 92.4519 86.4869 92.4519 84.4788C91.5205 84.1836 90.477 84.1046 89.7618 83.5765C88.0073 82.2835 86.8556 82.9113 85.6831 84.3748C84.943 85.2978 84.0325 86.092 83.1677 86.9152C81.883 88.1376 80.249 88.1292 78.9726 86.8778C76.902 84.8405 74.8481 82.7907 72.815 80.716C71.1519 79.0197 71.1685 77.2111 72.8233 75.4981C73.8669 74.4171 75.0019 73.4151 75.9665 72.2676C76.2825 71.8934 76.3823 71.1159 76.2368 70.6253C75.8709 69.3946 75.3054 68.2179 74.7774 66.9083C73.0436 66.9083 71.181 66.9083 69.3183 66.9083C67.0233 66.9041 65.6928 65.6069 65.6845 63.3534C65.6762 60.5012 65.6803 57.649 65.6845 54.7968C65.6886 52.7845 67.0524 51.4166 69.1146 51.3584C70.1 51.3293 71.0854 51.3501 72.0707 51.3501C73.0021 51.3501 73.9334 51.3501 74.7275 51.3501C75.3221 50.0321 75.9166 48.8305 76.3906 47.5832C76.5112 47.2672 76.3657 46.6976 76.1287 46.419C75.0643 45.1634 74.0041 43.8953 72.7983 42.781C71.1062 41.2177 71.2808 39.1555 72.6778 37.6753C74.5654 35.6796 76.5195 33.7421 78.5027 31.8462C79.9787 30.4326 82.1823 30.5906 83.704 31.8961C84.8017 32.8399 85.8453 33.871 86.7641 34.9853C87.4252 35.7836 88.1112 35.6963 88.8638 35.4135C89.7036 35.0976 90.477 34.5196 91.3376 34.3492C92.3729 34.1413 92.4851 33.5883 92.456 32.7235C92.4103 31.1685 92.4436 29.6135 92.4477 28.0585C92.456 26.3123 93.5578 24.7074 95.2417 24.6534C98.3766 24.5536 101.524 24.6742 104.659 24.8446C107.366 24.9943 107.802 26.857 107.977 29.0813C108.106 30.7278 108.002 32.395 108.002 34.0249L108.014 34.0207ZM82.4941 59.2747C82.149 68.4549 90.8262 77.182 100.152 76.8909C109.802 76.5916 117.581 69.2657 117.548 59.0335C117.519 49.3211 110.388 41.7083 99.4826 41.7707C90.3439 41.8247 82.2696 49.5082 82.4941 59.2747Z" fill="#002A3A"/>
</svg>
