<svg width="30" height="30" viewBox="0 0 30 30" fill="none" xmlns="http://www.w3.org/2000/svg">
<g clip-path="url(#clip0_516_1044)">
<path d="M25.265 4.924L26.7434 4H25H5H3.2566L4.735 4.924L14.735 11.174L15 11.3396L15.265 11.174L25.265 4.924ZM25 20H25.5V19.5V7V6.09788L24.735 6.576L15 12.6604L5.265 6.576L4.5 6.09788V7V19.5V20H5H25ZM25 2.5C26.0989 2.5 27 3.40114 27 4.5V19.5C27 20.5989 26.0989 21.5 25 21.5H5C3.90114 21.5 3 20.5989 3 19.5V4.5C3 3.40114 3.90114 2.5 5 2.5H25Z" fill="white" stroke="#212120"/>
</g>
<defs>
<clipPath id="clip0_516_1044">
<rect width="30" height="30" fill="white"/>
</clipPath>
</defs>
</svg>
