<svg width="60" height="61" viewBox="0 0 60 61" fill="none" xmlns="http://www.w3.org/2000/svg">
<path d="M35 32.6986H40V35.2113H35V32.6986ZM45 35.2113H50V32.6986H45V35.2113ZM35 45.2622H40V42.7495H35V45.2622ZM45 45.2622H50V42.7495H45V45.2622ZM35 15.1096H40V12.5968H35V15.1096ZM45 15.1096H50V12.5968H45V15.1096ZM35 25.1604H40V22.6477H35V25.1604ZM45 25.1604H50V22.6477H45V25.1604ZM60 6.31501V60.3386H0V20.9617C0 19.2832 0.65 17.7052 1.83 16.5192L8.5975 9.71724C11.31 6.99094 16.1875 6.99094 18.9 9.71724L24.9975 15.8458V6.31501C24.9975 2.85248 27.8025 0.0332031 31.2475 0.0332031H53.7475C57.1925 0.0332031 60 2.85248 60 6.31501ZM25 20.9617C25 19.9541 24.61 19.0093 23.9025 18.2957L17.135 11.4937C15.3525 9.70217 12.15 9.70217 10.3675 11.4937L3.5975 18.2957C2.89 19.0093 2.5 19.9541 2.5 20.9617V57.8259H25V20.9617ZM57.5 6.31501C57.5 4.23699 55.8175 2.54593 53.75 2.54593H31.25C29.1825 2.54593 27.5 4.23699 27.5 6.31501V57.8259H57.5V6.31501ZM10 35.2113H17.5V32.6986H10V35.2113ZM10 25.1604H17.5V22.6477H10V25.1604ZM10 45.2622H17.5V42.7495H10V45.2622Z" fill="#260055"/>
</svg>
