<svg width="153" height="154" viewBox="0 0 153 154" fill="none" xmlns="http://www.w3.org/2000/svg">
<path d="M116.538 81.0841C116.538 84.3771 116.559 84.5891 113.303 84.9342C110.422 85.2419 108.742 86.4434 107.998 89.2707C107.541 91.0086 106.705 92.6509 105.952 94.3015C105.607 95.0582 105.678 95.6237 106.152 96.2889C107.15 97.6776 108.044 99.1411 109.042 100.53C109.462 101.116 109.399 101.469 108.9 101.96C106.202 104.613 103.52 107.286 100.868 109.989C100.34 110.525 99.9113 110.716 99.3167 110.163C99.167 110.026 98.9716 109.935 98.797 109.822C97.2337 108.812 95.7369 107.132 94.0905 106.978C92.444 106.825 90.7102 108.405 88.9224 108.845C85.4591 109.702 83.8542 111.743 83.638 115.298C83.4925 117.705 83.2513 117.689 80.8149 117.689C77.601 117.689 74.3829 117.66 71.169 117.705C70.2418 117.718 69.7637 117.522 69.6389 116.483C69.4602 114.994 69.0194 113.543 68.7991 112.059C68.6536 111.086 68.2669 110.512 67.3106 110.142C64.8492 109.194 62.417 108.163 59.9972 107.107C59.2446 106.779 58.6834 106.825 58.014 107.311C56.6336 108.317 55.1659 109.203 53.7731 110.192C53.1952 110.6 52.8251 110.567 52.3262 110.059C49.6362 107.324 46.9253 104.609 44.1812 101.923C43.6449 101.399 43.7031 101.037 44.0898 100.488C44.9878 99.2201 45.7736 97.8688 46.7133 96.634C47.3785 95.7567 47.5116 95.0083 47.0293 93.9648C45.9483 91.6156 44.9961 89.2042 44.044 86.7968C43.7447 86.0443 43.3455 85.6452 42.4974 85.5246C40.9091 85.3001 39.35 84.8968 37.7659 84.6307C36.9302 84.4893 36.4895 84.1983 36.5435 83.2378C36.6225 81.7369 36.5892 80.2318 36.556 78.7267C36.5393 77.9991 36.8013 77.7247 37.5455 77.7289C42.5223 77.7497 47.5033 77.7621 52.48 77.7247C53.5361 77.7164 53.4488 78.3525 53.4945 79.0427C54.0849 88.5015 60.2217 96.5841 69.0818 99.5694C83.613 104.471 98.6515 94.3639 99.5953 79.0261C99.6577 78.0241 99.9362 77.7081 100.951 77.7205C105.616 77.7704 110.285 77.7912 114.954 77.7081C116.284 77.6831 116.725 78.1031 116.559 79.3712C116.484 79.9325 116.546 80.5104 116.546 81.08L116.538 81.0841Z" fill="#002A3A"/>
<path d="M98.801 41.7761C98.801 34.155 98.7719 26.5297 98.8301 18.9086C98.8384 17.6197 98.485 17.1416 97.1794 17.2622C96.0984 17.362 95.005 17.2913 93.9156 17.2663C93.2005 17.2539 92.6101 17.0127 92.3108 16.2726C92.0322 15.5866 92.3024 15.0461 92.7307 14.568C96.6057 10.2439 100.489 5.92408 104.381 1.61252C105.266 0.631302 106.173 0.706141 107.033 1.66242C110.883 5.94071 114.733 10.219 118.583 14.4973C119.057 15.0253 119.361 15.5991 119.032 16.3308C118.708 17.046 118.097 17.258 117.382 17.2663C116.243 17.2788 115.095 17.3412 113.96 17.258C112.862 17.179 112.559 17.5823 112.567 18.6592C112.613 24.7793 112.588 30.8995 112.588 37.0155C112.588 46.0918 112.588 55.1639 112.588 64.2402C112.588 66.764 112.101 67.2546 109.619 67.2587C106.921 67.2629 104.227 67.2671 101.528 67.2587C99.2999 67.2504 98.8093 66.7556 98.8051 64.4814C98.7968 56.9102 98.8051 49.339 98.801 41.7678V41.7761Z" fill="#002A3A"/>
<path d="M57.8145 77.6128C57.8436 67.3183 66.263 58.899 76.5367 58.8906C86.8687 58.8782 95.313 67.3682 95.288 77.7459C95.2631 88.0986 86.7689 96.518 76.4078 96.4556C66.1466 96.3974 57.7854 87.9281 57.8145 77.6128ZM76.5991 92.5889C77.7633 92.4933 78.7445 91.8322 78.6572 90.5974C78.5407 88.9676 79.3266 88.61 80.6529 88.1984C83.1226 87.4292 84.6609 85.6539 84.9519 83.022C85.2596 80.2779 83.9624 78.3612 81.6258 77.0474C80.3951 76.3531 79.0646 75.9581 77.7092 75.6047C76.412 75.2637 75.0732 75.0434 73.855 74.4447C73.1815 74.112 72.5495 73.663 72.5869 72.8356C72.6243 72.0207 73.2812 71.6133 73.9673 71.3056C76.2041 70.3036 79.0854 70.8898 80.7651 72.7026C81.6341 73.6381 82.6319 73.7919 83.6922 73.1308C84.7233 72.4905 84.927 71.2765 84.2327 70.1206C83.3388 68.6363 82.0166 67.6094 80.366 67.1894C79.1104 66.8693 78.6073 66.3371 78.6821 64.9859C78.757 63.6803 77.9545 62.8613 76.5783 62.8031C75.3476 62.7532 74.3664 63.6013 74.4163 64.9235C74.4662 66.229 74.0463 66.7654 72.7698 67.152C69.9842 68.0002 68.2379 70.316 68.188 72.794C68.1423 75.2097 69.7472 77.4756 72.4289 78.5608C73.618 79.0431 74.8944 79.3258 76.1376 79.6751C77.3807 80.0202 78.6696 80.2655 79.7673 80.9889C80.9689 81.783 80.9356 83.1093 79.7257 83.8827C77.7591 85.1425 73.6762 84.4939 72.1337 82.6769C71.0901 81.4463 69.9551 81.2301 68.9073 82.0658C67.9053 82.864 67.8388 84.128 68.7368 85.3836C69.8095 86.8846 71.3105 87.8159 73.0401 88.2691C74.092 88.5435 74.4454 88.9593 74.4038 90.0486C74.3415 91.616 75.227 92.5557 76.5991 92.5806V92.5889Z" fill="#002A3A"/>
<path d="M69.6859 44.2719C69.6859 41.058 69.6443 37.8441 69.7109 34.6302C69.7316 33.5783 69.4905 33.1168 68.3513 33.2124C67.2204 33.3039 66.0728 33.2332 64.9336 33.229C64.2144 33.229 63.5616 33.0253 63.2498 32.3351C62.913 31.5951 63.1749 30.9589 63.7154 30.3602C67.5405 26.1318 71.3532 21.8909 75.1533 17.6459C76.0722 16.619 76.9702 16.5607 77.9057 17.6002C81.7516 21.8785 85.5975 26.1568 89.4517 30.4267C89.9506 30.9797 90.1543 31.5909 89.8716 32.2769C89.5806 32.9879 88.9445 33.2124 88.2252 33.2207C87.1899 33.2332 86.1422 33.3122 85.1194 33.2082C83.793 33.071 83.3606 33.4619 83.3773 34.8838C83.4646 41.2576 83.3856 47.6355 83.4396 54.0093C83.4521 55.3148 83.1694 55.5269 81.8805 55.2026C78.2591 54.2879 74.5879 54.2962 70.9665 55.2649C69.8855 55.556 69.6443 55.2774 69.661 54.2214C69.715 50.9035 69.6817 47.5856 69.6817 44.2678L69.6859 44.2719Z" fill="#002A3A"/>
<path d="M40.5101 58.3119C40.5101 56.2372 40.4311 54.1625 40.5392 52.0961C40.6099 50.7615 40.1276 50.3706 38.8637 50.4954C37.8367 50.5951 36.7931 50.5161 35.7579 50.512C35.0469 50.512 34.4232 50.3498 34.0865 49.6264C33.7497 48.903 34.0158 48.3292 34.4981 47.7928C38.3814 43.4771 42.2564 39.1614 46.148 34.854C46.9671 33.9476 47.8651 33.9352 48.6884 34.8416C52.5841 39.1448 56.4633 43.4605 60.3424 47.7762C60.8164 48.3001 61.0908 48.8822 60.7499 49.6181C60.4131 50.3498 59.7936 50.5037 59.0868 50.5078C58.0515 50.5161 57.0038 50.6076 55.981 50.4912C54.5424 50.3249 54.2514 50.9402 54.2763 52.2541C54.3512 56.2954 54.3096 60.3367 54.3013 64.3821C54.2971 66.8227 53.8356 67.2676 51.3784 67.2718C48.5803 67.2759 45.7821 67.2884 42.984 67.2676C41.1795 67.2551 40.5476 66.6356 40.5226 64.8436C40.4935 62.6692 40.5143 60.4905 40.5143 58.3119H40.5101Z" fill="#002A3A"/>
<path d="M74.3745 130.122C74.3745 127.79 74.3995 125.457 74.362 123.125C74.3496 122.343 74.5699 122.061 75.4056 122.027C78.7318 121.886 78.7318 121.853 78.7318 125.183C78.7318 129.125 78.7526 133.062 78.7152 137.003C78.7068 137.881 78.923 138.346 79.7879 138.75C83.2887 140.379 84.931 143.955 84.0163 147.643C83.1431 151.156 79.8377 153.58 76.1457 153.414C72.5243 153.252 69.5682 150.562 68.9237 146.845C68.3624 143.61 70.0796 140.246 73.2103 138.8C74.1999 138.342 74.4244 137.793 74.3953 136.808C74.3288 134.579 74.3745 132.351 74.3745 130.122Z" fill="#002A3A"/>
<path d="M20.7598 126.47C20.7889 120.445 25.9029 116.774 30.9171 118.516C31.8983 118.857 32.4637 118.732 33.1789 117.996C36.3221 114.77 39.5526 111.627 42.7 108.409C43.3902 107.702 43.7894 107.631 44.5253 108.379C46.7039 110.6 46.7413 110.566 44.5128 112.795C41.802 115.506 39.1244 118.246 36.3637 120.902C35.5488 121.684 35.3825 122.304 35.74 123.422C36.742 126.565 36.0061 129.397 33.4949 131.58C31.046 133.712 28.1813 134.137 25.2376 132.773C22.3023 131.413 20.8221 128.981 20.7598 126.474V126.47Z" fill="#002A3A"/>
<path d="M116.961 125.387C116.999 125.138 116.941 124.398 117.228 123.828C117.943 122.419 117.448 121.55 116.383 120.535C113.274 117.571 110.301 114.465 107.228 111.455C106.584 110.823 106.463 110.49 107.178 109.779C109.473 107.501 109.436 107.463 111.731 109.767C114.438 112.478 117.165 115.168 119.843 117.912C120.562 118.648 121.127 118.914 122.225 118.51C125.418 117.325 128.931 118.523 130.898 121.263C132.819 123.936 132.823 127.628 130.911 130.277C128.927 133.025 125.443 134.16 122.221 133.108C119.086 132.085 116.966 129.146 116.957 125.383L116.961 125.387Z" fill="#002A3A"/>
<path d="M24.0416 83.166C21.917 83.166 19.7924 83.2242 17.672 83.1452C16.5162 83.1036 15.8759 83.378 15.3229 84.5422C13.8178 87.727 10.2172 89.3361 6.87442 88.5627C3.41935 87.7561 0.982932 84.854 0.849885 81.3782C0.712681 77.7443 2.88717 74.6635 6.32144 73.6282C9.93866 72.5347 13.7638 74.177 15.4352 77.6695C15.8634 78.5676 16.3291 78.8461 17.2853 78.8337C21.7882 78.7838 26.2951 78.842 30.8021 78.7879C31.8748 78.7755 32.224 79.0873 32.224 80.1808C32.2199 83.166 32.2698 83.166 29.3219 83.166C27.5632 83.166 25.8003 83.166 24.0416 83.166Z" fill="#002A3A"/>
<path d="M120.9 81.0206C120.929 78.4469 120.672 78.8253 123.166 78.8128C127.361 78.792 131.557 78.7879 135.748 78.8253C136.654 78.8336 137.194 78.6756 137.639 77.7235C139.236 74.3142 142.832 72.6552 146.42 73.5117C149.83 74.3225 152.258 77.4366 152.262 81.0081C152.266 84.6419 149.855 87.6854 146.283 88.5419C142.837 89.3692 139.182 87.6687 137.652 84.3259C137.182 83.3031 136.612 83.141 135.652 83.1493C131.457 83.1867 127.262 83.1784 123.071 83.1618C120.676 83.1535 120.938 83.4986 120.905 81.0206H120.9Z" fill="#002A3A"/>
</svg>
