<svg width="68" height="52" viewBox="0 0 68 52" fill="none" xmlns="http://www.w3.org/2000/svg">
<path d="M38.0343 4.47082C37.9267 4.47082 37.8191 4.47081 37.7249 4.4439C37.6173 4.43045 37.5096 4.40354 37.4154 4.37664C37.3078 4.34973 37.2137 4.3094 37.1195 4.26904C37.0253 4.22868 36.9447 4.17487 36.8774 4.12106L37.106 3.75784C37.4154 3.97308 37.7249 4.08069 38.0343 4.08069C38.1958 4.08069 38.3302 4.05379 38.4243 3.98653C38.5185 3.91927 38.559 3.83856 38.559 3.71749C38.559 3.60987 38.5052 3.52914 38.3976 3.47533C38.2899 3.42152 38.1285 3.36772 37.8864 3.31391C37.7249 3.27355 37.5904 3.2332 37.4827 3.19284C37.3751 3.15249 37.281 3.11212 37.2003 3.05831C37.133 3.0045 37.0792 2.95069 37.0389 2.88342C37.012 2.81616 36.985 2.73547 36.985 2.62785C36.985 2.49332 37.0118 2.38569 37.0656 2.27807C37.1194 2.18391 37.1867 2.08974 37.2809 2.02247C37.3751 1.95521 37.4827 1.90141 37.6038 1.86105C37.7248 1.82069 37.8594 1.80725 37.9939 1.80725C38.1823 1.80725 38.3572 1.83415 38.5321 1.88796C38.7069 1.94177 38.8549 2.02248 38.9894 2.13009L38.7606 2.45296C38.5185 2.26463 38.2495 2.18392 37.9805 2.18392C37.8459 2.18392 37.7249 2.21082 37.6307 2.26463C37.5365 2.31844 37.4962 2.4126 37.4962 2.53367C37.4962 2.58748 37.4962 2.62785 37.5231 2.6682C37.5366 2.70856 37.5769 2.73545 37.6172 2.76236C37.6576 2.78926 37.7248 2.81617 37.7921 2.82962C37.8594 2.85653 37.9536 2.86999 38.0613 2.89689C38.2361 2.93725 38.3841 2.9776 38.5186 3.01796C38.6397 3.05831 38.7473 3.11212 38.828 3.16593C38.9087 3.21974 38.976 3.287 39.0163 3.36771C39.0567 3.44843 39.0702 3.52915 39.0702 3.65022C39.0702 3.77129 39.0432 3.87892 39.0029 3.97308C38.9625 4.06725 38.8818 4.14795 38.801 4.22866C38.7069 4.29592 38.5993 4.34975 38.4782 4.3901C38.3571 4.43046 38.2092 4.4439 38.0478 4.4439L38.0343 4.47082Z" fill="#B9B2B2" fill-opacity="0.133333"/>
<path d="M40.9266 4.28238C40.8593 4.30929 40.7652 4.34965 40.6441 4.39C40.523 4.43036 40.4019 4.4438 40.2539 4.4438C40.1732 4.4438 40.0926 4.44381 40.0119 4.40345C39.9446 4.37654 39.8773 4.34964 39.8101 4.29583C39.7563 4.25547 39.7025 4.18822 39.6756 4.12096C39.6487 4.0537 39.6217 3.95952 39.6217 3.8519V2.25108H39.2854V1.83404H39.6217V1H40.1598V1.83404H40.7114V2.25108H40.1598V3.67703C40.1598 3.7712 40.1868 3.83845 40.2406 3.87881C40.2944 3.91916 40.3616 3.94607 40.4288 3.94607C40.4961 3.94607 40.5768 3.94607 40.6441 3.90572C40.7114 3.87881 40.7652 3.86536 40.7921 3.83845L40.9132 4.26894L40.9266 4.28238Z" fill="#B9B2B2" fill-opacity="0.133333"/>
<path d="M27.4475 20.2235L32.3979 20.1831L32.2634 5.06267L28.2412 5.10302V2.89683C30.3128 2.50672 31.7926 1.94172 33.0974 1.13458L35.7206 1.10767L35.882 20.1562L40.281 20.1159L40.3079 22.9812L27.4743 23.0888L27.4475 20.2235Z" fill="#B9B2B2" fill-opacity="0.133333" stroke="#B9B2B2" stroke-width="1.5" stroke-linecap="round" stroke-linejoin="round"/>
<path d="M20.775 26.4786H46.9937" stroke="#B9B2B2" stroke-width="1.75" stroke-linecap="round" stroke-linejoin="round"/>
<path d="M1.00012 50.3297H66.5535" stroke="#B9B2B2" stroke-width="1.75" stroke-linecap="round" stroke-linejoin="round"/>
<path d="M46.9937 26.7073V44.1281" stroke="#B9B2B2" stroke-width="1.75" stroke-linecap="round" stroke-linejoin="round"/>
<path d="M20.5464 26.4786V44.1281" stroke="#B9B2B2" stroke-width="1.75" stroke-linecap="round" stroke-linejoin="round"/>
<path d="M5.47986 50.0336V34.0791" stroke="#B9B2B2" stroke-width="1.75" stroke-linecap="round" stroke-linejoin="round"/>
<path d="M62.5447 50.0337V40.5094" stroke="#B9B2B2" stroke-width="1.75" stroke-linecap="round" stroke-linejoin="round"/>
<path d="M5.47986 34.0791H20.5466" stroke="#B9B2B2" stroke-width="1.75" stroke-linecap="round" stroke-linejoin="round"/>
<path d="M47.2493 40.5094H62.5446" stroke="#B9B2B2" stroke-width="1.75" stroke-linecap="round" stroke-linejoin="round"/>
</svg>
