<svg width="108" height="108" viewBox="0 0 108 108" fill="none" xmlns="http://www.w3.org/2000/svg">
<circle cx="53.6041" cy="53.5845" r="53.5845" fill="#D4AE31"/>
<path d="M59.6896 31.4714H49.3105C47.0138 31.4714 45.1367 33.3264 45.1367 35.623V37.6989C45.1367 39.9955 46.9917 41.8505 49.2884 41.8505H59.6896C61.9863 41.8505 63.8413 39.9955 63.8413 37.6989V35.623C63.8634 33.3264 61.9863 31.4714 59.6896 31.4714Z" fill="white"/>
<path d="M66.0719 37.6989C66.0719 41.2101 63.201 44.081 59.6898 44.081H49.3106C45.7994 44.081 42.9285 41.2101 42.9285 37.6989C42.9285 36.4622 41.6035 35.6893 40.4994 36.2635C37.3856 37.9197 35.2656 41.2101 35.2656 44.9864V65.7668C35.2656 71.1993 39.7044 75.638 45.1369 75.638H63.8635C69.296 75.638 73.7348 71.1993 73.7348 65.7668V44.9864C73.7348 41.2101 71.6148 37.9197 68.501 36.2635C67.3969 35.6893 66.0719 36.4622 66.0719 37.6989ZM55.3394 64.486H45.6669C44.7615 64.486 44.0106 63.7351 44.0106 62.8297C44.0106 61.9243 44.7615 61.1735 45.6669 61.1735H55.3394C56.2448 61.1735 56.9956 61.9243 56.9956 62.8297C56.9956 63.7351 56.2448 64.486 55.3394 64.486ZM61.1252 55.6526H45.6669C44.7615 55.6526 44.0106 54.9018 44.0106 53.9964C44.0106 53.091 44.7615 52.3401 45.6669 52.3401H61.1252C62.0306 52.3401 62.7815 53.091 62.7815 53.9964C62.7815 54.9018 62.0306 55.6526 61.1252 55.6526Z" fill="white"/>
</svg>
