<svg width="78" height="89" viewBox="0 0 78 89" fill="none" xmlns="http://www.w3.org/2000/svg">
<path d="M42.0343 24.4708C41.9266 24.4708 41.8191 24.4708 41.7249 24.4439C41.6173 24.4305 41.5095 24.4035 41.4153 24.3766C41.3077 24.3497 41.2136 24.3094 41.1194 24.269C41.0253 24.2287 40.9446 24.1749 40.8774 24.1211L41.106 23.7578C41.4154 23.9731 41.7249 24.0807 42.0343 24.0807C42.1957 24.0807 42.3301 24.0538 42.4243 23.9865C42.5184 23.9193 42.5589 23.8386 42.5589 23.7175C42.5589 23.6099 42.5051 23.5291 42.3975 23.4753C42.2899 23.4215 42.1285 23.3677 41.8863 23.3139C41.7249 23.2736 41.5903 23.2332 41.4827 23.1928C41.3751 23.1525 41.2809 23.1121 41.2002 23.0583C41.133 23.0045 41.0792 22.9507 41.0388 22.8834C41.0119 22.8162 40.9849 22.7355 40.9849 22.6278C40.9849 22.4933 41.0118 22.3857 41.0656 22.2781C41.1194 22.1839 41.1867 22.0897 41.2809 22.0225C41.375 21.9552 41.4826 21.9014 41.6037 21.8611C41.7248 21.8207 41.8593 21.8073 41.9939 21.8073C42.1822 21.8073 42.3571 21.8342 42.532 21.888C42.7069 21.9418 42.8548 22.0225 42.9893 22.1301L42.7606 22.453C42.5184 22.2646 42.2495 22.1839 41.9804 22.1839C41.8459 22.1839 41.7248 22.2108 41.6306 22.2646C41.5365 22.3184 41.4961 22.4126 41.4961 22.5337C41.4961 22.5875 41.4962 22.6278 41.5231 22.6682C41.5365 22.7086 41.5768 22.7355 41.6172 22.7624C41.6575 22.7893 41.7248 22.8162 41.792 22.8296C41.8593 22.8565 41.9536 22.87 42.0612 22.8969C42.2361 22.9372 42.384 22.9776 42.5185 23.018C42.6396 23.0583 42.7472 23.1121 42.8279 23.1659C42.9086 23.2197 42.9759 23.287 43.0163 23.3677C43.0566 23.4484 43.0701 23.5291 43.0701 23.6502C43.0701 23.7713 43.0432 23.8789 43.0028 23.9731C42.9624 24.0673 42.8817 24.1479 42.801 24.2287C42.7068 24.2959 42.5992 24.3497 42.4781 24.3901C42.3571 24.4305 42.2092 24.4439 42.0477 24.4439L42.0343 24.4708Z" fill="#B9B2B2" fill-opacity="0.133333"/>
<path d="M44.9266 24.2824C44.8593 24.3093 44.7652 24.3496 44.6441 24.39C44.523 24.4304 44.4019 24.4438 44.2539 24.4438C44.1732 24.4438 44.0926 24.4438 44.0119 24.4034C43.9446 24.3765 43.8773 24.3496 43.8101 24.2958C43.7563 24.2555 43.7025 24.1882 43.6756 24.121C43.6487 24.0537 43.6217 23.9595 43.6217 23.8519V22.2511H43.2854V21.834H43.6217V21H44.1598V21.834H44.7114V22.2511H44.1598V23.677C44.1598 23.7712 44.1868 23.8385 44.2406 23.8788C44.2944 23.9192 44.3616 23.9461 44.4288 23.9461C44.4961 23.9461 44.5768 23.9461 44.6441 23.9057C44.7114 23.8788 44.7652 23.8654 44.7921 23.8385L44.9132 24.2689L44.9266 24.2824Z" fill="#B9B2B2" fill-opacity="0.133333"/>
<path d="M31.4476 40.2235L36.398 40.1831L36.2635 25.0627L32.2412 25.103V22.8968C34.3129 22.5067 35.7926 21.9417 37.0975 21.1346L39.7206 21.1077L39.8821 40.1562L44.281 40.1159L44.308 42.9812L31.4743 43.0888L31.4476 40.2235Z" fill="#B9B2B2" fill-opacity="0.133333" stroke="#B9B2B2" stroke-width="1.5" stroke-linecap="round" stroke-linejoin="round"/>
<path d="M24.775 46.4786H50.9936" stroke="#B9B2B2" stroke-width="1.75" stroke-linecap="round" stroke-linejoin="round"/>
<path d="M5.00006 70.3297H70.5535" stroke="#B9B2B2" stroke-width="1.75" stroke-linecap="round" stroke-linejoin="round"/>
<path d="M50.9937 46.7073V64.1281" stroke="#B9B2B2" stroke-width="1.75" stroke-linecap="round" stroke-linejoin="round"/>
<path d="M24.5464 46.4786V64.1281" stroke="#B9B2B2" stroke-width="1.75" stroke-linecap="round" stroke-linejoin="round"/>
<path d="M9.4798 70.0336V54.0791" stroke="#B9B2B2" stroke-width="1.75" stroke-linecap="round" stroke-linejoin="round"/>
<path d="M66.5447 70.0337V60.5094" stroke="#B9B2B2" stroke-width="1.75" stroke-linecap="round" stroke-linejoin="round"/>
<path d="M9.4798 54.0791H24.5466" stroke="#B9B2B2" stroke-width="1.75" stroke-linecap="round" stroke-linejoin="round"/>
<path d="M51.2492 60.5094H66.5446" stroke="#B9B2B2" stroke-width="1.75" stroke-linecap="round" stroke-linejoin="round"/>
</svg>
