<svg width="108" height="109" viewBox="0 0 108 109" fill="none" xmlns="http://www.w3.org/2000/svg">
<circle cx="54.189" cy="54.5299" r="53.5845" fill="#D4AE31"/>
<path d="M69.5351 44.3866C68.6034 39.685 65.1151 37.6266 60.2617 37.6266H41.2384C35.5184 37.6266 31.7051 40.4866 31.7051 47.16V58.3183C31.7051 63.1283 33.6767 65.945 36.9267 67.1583C37.4034 67.3316 37.9234 67.4833 38.4651 67.57C39.3317 67.765 40.2634 67.8516 41.2384 67.8516H60.2834C66.0034 67.8516 69.8167 64.9916 69.8167 58.3183V47.16C69.8167 46.1416 69.7301 45.2316 69.5351 44.3866ZM39.9817 56C39.9817 56.8883 39.2451 57.625 38.3567 57.625C37.4684 57.625 36.7317 56.8883 36.7317 56V49.5C36.7317 48.6116 37.4684 47.875 38.3567 47.875C39.2451 47.875 39.9817 48.6116 39.9817 49.5V56ZM50.7501 58.47C47.5867 58.47 45.0301 55.9133 45.0301 52.75C45.0301 49.5866 47.5867 47.03 50.7501 47.03C53.9134 47.03 56.4701 49.5866 56.4701 52.75C56.4701 55.9133 53.9134 58.47 50.7501 58.47ZM64.7467 56C64.7467 56.8883 64.0101 57.625 63.1217 57.625C62.2334 57.625 61.4967 56.8883 61.4967 56V49.5C61.4967 48.6116 62.2334 47.875 63.1217 47.875C64.0101 47.875 64.7467 48.6116 64.7467 49.5V56Z" fill="white"/>
<path d="M76.3171 53.66V64.8184C76.3171 71.4917 72.5038 74.3734 66.7621 74.3734H47.7388C46.1138 74.3734 44.6621 74.135 43.4055 73.6584C42.3871 73.29 41.4988 72.7484 40.7838 72.055C40.3938 71.6867 40.6971 71.1017 41.2388 71.1017H60.2621C68.2788 71.1017 73.0455 66.335 73.0455 58.34V47.16C73.0455 46.64 73.6305 46.315 73.9988 46.705C75.4721 48.265 76.3171 50.54 76.3171 53.66Z" fill="white"/>
</svg>
