<svg width="78" height="89" viewBox="0 0 78 89" fill="none" xmlns="http://www.w3.org/2000/svg">
<path d="M23.509 38.887V68.2101" stroke="#B9B2B2" stroke-width="1.5" stroke-linecap="round" stroke-linejoin="round"/>
<path d="M28.0623 37.8961C28.0623 37.8961 29.7487 36.5048 29.8647 36.2518" stroke="#B9B2B2" stroke-width="1.5" stroke-linecap="round" stroke-linejoin="round"/>
<path d="M31.0874 35.2927C31.0874 35.2927 34.5025 31.2031 33.7647 26.228" stroke="#B9B2B2" stroke-width="1.5" stroke-linecap="round" stroke-linejoin="round"/>
<path d="M19.5986 23.1924V28.5469C19.5986 29.9487 19.7779 31.3611 20.2101 32.6997C21.0849 35.4824 23.2245 39.8355 28.3471 43.4192C28.5158 43.5352 28.7371 43.5352 28.8953 43.4192C29.8544 42.7236 33.1113 40.215 35.4513 36.7472C37.1061 34.2913 37.886 31.3506 37.886 28.3993V23.1924L28.7477 21L19.6092 23.1924H19.5986Z" stroke="#B9B2B2" stroke-width="1.5" stroke-linecap="round" stroke-linejoin="round"/>
<path d="M39.9413 35.6721V68.21" stroke="#B9B2B2" stroke-width="1.5" stroke-linecap="round" stroke-linejoin="round"/>
<path d="M5.00024 68.2101H52.1998" stroke="#B9B2B2" stroke-width="1.5" stroke-linecap="round" stroke-linejoin="round"/>
<path d="M13.3589 64.1097H23.5093" stroke="#B9B2B2" stroke-width="1.5" stroke-linecap="round" stroke-linejoin="round"/>
<path d="M13.3589 60.0096H23.5093" stroke="#B9B2B2" stroke-width="1.5" stroke-linecap="round" stroke-linejoin="round"/>
<path d="M13.3589 55.8779H23.5093" stroke="#B9B2B2" stroke-width="1.5" stroke-linecap="round" stroke-linejoin="round"/>
<path d="M13.3589 51.9465H23.5093" stroke="#B9B2B2" stroke-width="1.5" stroke-linecap="round" stroke-linejoin="round"/>
<path d="M13.3589 47.7197H23.5093" stroke="#B9B2B2" stroke-width="1.5" stroke-linecap="round" stroke-linejoin="round"/>
<path d="M13.3589 43.6089H23.5093" stroke="#B9B2B2" stroke-width="1.5" stroke-linecap="round" stroke-linejoin="round"/>
<path d="M31.7303 47.8673V46.6024" stroke="#B9B2B2" stroke-width="1.5" stroke-linecap="round" stroke-linejoin="round"/>
<path d="M50.1758 35.4508V33.2268" stroke="#B9B2B2" stroke-width="1.5" stroke-linecap="round" stroke-linejoin="round"/>
<path d="M46.0969 35.4508V33.2268" stroke="#B9B2B2" stroke-width="1.5" stroke-linecap="round" stroke-linejoin="round"/>
<path d="M41.9756 35.4508V33.2268" stroke="#B9B2B2" stroke-width="1.5" stroke-linecap="round" stroke-linejoin="round"/>
<path d="M6.0965 31.0661V28.3467" stroke="#B9B2B2" stroke-width="1.5" stroke-linecap="round" stroke-linejoin="round"/>
<path d="M9.18469 40.6787V39.4244" stroke="#B9B2B2" stroke-width="1.5" stroke-linecap="round" stroke-linejoin="round"/>
<path d="M9.18469 36.5786V35.3243" stroke="#B9B2B2" stroke-width="1.5" stroke-linecap="round" stroke-linejoin="round"/>
<path d="M9.18469 44.7369V43.472" stroke="#B9B2B2" stroke-width="1.5" stroke-linecap="round" stroke-linejoin="round"/>
<path d="M9.18469 57.0373V55.783" stroke="#B9B2B2" stroke-width="1.5" stroke-linecap="round" stroke-linejoin="round"/>
<path d="M9.18469 61.127V59.8622" stroke="#B9B2B2" stroke-width="1.5" stroke-linecap="round" stroke-linejoin="round"/>
<path d="M9.18469 65.2377V63.9729" stroke="#B9B2B2" stroke-width="1.5" stroke-linecap="round" stroke-linejoin="round"/>
<path d="M9.18469 52.9267V51.6724" stroke="#B9B2B2" stroke-width="1.5" stroke-linecap="round" stroke-linejoin="round"/>
<path d="M9.18469 48.8475V47.5826" stroke="#B9B2B2" stroke-width="1.5" stroke-linecap="round" stroke-linejoin="round"/>
<path d="M35.8412 43.7564V42.4916" stroke="#B9B2B2" stroke-width="1.5" stroke-linecap="round" stroke-linejoin="round"/>
<path d="M35.8412 56.0572V54.8029" stroke="#B9B2B2" stroke-width="1.5" stroke-linecap="round" stroke-linejoin="round"/>
<path d="M35.8412 60.1465V58.8817" stroke="#B9B2B2" stroke-width="1.5" stroke-linecap="round" stroke-linejoin="round"/>
<path d="M35.8412 64.2575V62.9927" stroke="#B9B2B2" stroke-width="1.5" stroke-linecap="round" stroke-linejoin="round"/>
<path d="M35.8412 51.9462V50.6814" stroke="#B9B2B2" stroke-width="1.5" stroke-linecap="round" stroke-linejoin="round"/>
<path d="M31.7411 56.0572V54.8029" stroke="#B9B2B2" stroke-width="1.5" stroke-linecap="round" stroke-linejoin="round"/>
<path d="M27.6303 60.1465V58.8817" stroke="#B9B2B2" stroke-width="1.5" stroke-linecap="round" stroke-linejoin="round"/>
<path d="M27.6303 56.0572V54.8029" stroke="#B9B2B2" stroke-width="1.5" stroke-linecap="round" stroke-linejoin="round"/>
<path d="M27.6303 51.9567V50.6919" stroke="#B9B2B2" stroke-width="1.5" stroke-linecap="round" stroke-linejoin="round"/>
<path d="M27.6303 64.2575V62.9927" stroke="#B9B2B2" stroke-width="1.5" stroke-linecap="round" stroke-linejoin="round"/>
<path d="M31.7411 64.2575V62.9927" stroke="#B9B2B2" stroke-width="1.5" stroke-linecap="round" stroke-linejoin="round"/>
<path d="M31.7411 60.1465V58.8817" stroke="#B9B2B2" stroke-width="1.5" stroke-linecap="round" stroke-linejoin="round"/>
<path d="M31.7411 51.9567V50.6919" stroke="#B9B2B2" stroke-width="1.5" stroke-linecap="round" stroke-linejoin="round"/>
<path d="M35.8412 47.8673V46.6024" stroke="#B9B2B2" stroke-width="1.5" stroke-linecap="round" stroke-linejoin="round"/>
<path d="M13.3589 35.4508H21.1903" stroke="#B9B2B2" stroke-width="1.5" stroke-linecap="round" stroke-linejoin="round"/>
<path d="M34.1019 38.5182H39.7409" stroke="#B9B2B2" stroke-width="1.5" stroke-linecap="round" stroke-linejoin="round"/>
<path d="M13.3589 39.4878H23.5093" stroke="#B9B2B2" stroke-width="1.5" stroke-linecap="round" stroke-linejoin="round"/>
<path d="M5.00024 31.298H13.1268" stroke="#B9B2B2" stroke-width="1.5" stroke-linecap="round" stroke-linejoin="round"/>
<path d="M39.9413 35.4613H52.1997" stroke="#B9B2B2" stroke-width="1.5" stroke-linecap="round" stroke-linejoin="round"/>
<path d="M43.9993 35.6721V68.21" stroke="#B9B2B2" stroke-width="1.5" stroke-linecap="round" stroke-linejoin="round"/>
<path d="M48.142 35.6721V68.21" stroke="#B9B2B2" stroke-width="1.5" stroke-linecap="round" stroke-linejoin="round"/>
<path d="M13.1267 31.298V68.2101" stroke="#B9B2B2" stroke-width="1.5" stroke-linecap="round" stroke-linejoin="round"/>
<path d="M5.00024 31.298V68.2101" stroke="#B9B2B2" stroke-width="1.5" stroke-linecap="round" stroke-linejoin="round"/>
<path d="M52.1997 35.6721V68.21" stroke="#B9B2B2" stroke-width="1.5" stroke-linecap="round" stroke-linejoin="round"/>
</svg>
