<svg width="108" height="108" viewBox="0 0 108 108" fill="none" xmlns="http://www.w3.org/2000/svg">
<circle cx="53.8121" cy="53.5845" r="53.5845" fill="#D4AE31"/>
<path d="M73.8902 64.9597V70.9447H33.9902V64.9597C33.9902 63.8624 34.888 62.9647 35.9852 62.9647H71.8952C72.9925 62.9647 73.8902 63.8624 73.8902 64.9597Z" fill="white" stroke="white" stroke-width="1.5" stroke-miterlimit="10" stroke-linecap="round" stroke-linejoin="round"/>
<path d="M43.9646 48.9997H39.9746V62.9647H43.9646V48.9997Z" fill="white"/>
<path d="M51.9451 48.9997H47.9551V62.9647H51.9451V48.9997Z" fill="white"/>
<path d="M59.9246 48.9997H55.9346V62.9647H59.9246V48.9997Z" fill="white"/>
<path d="M67.905 48.9997H63.915V62.9647H67.905V48.9997Z" fill="white"/>
<path d="M75.8853 72.4409H31.9953C31.1773 72.4409 30.499 71.7626 30.499 70.9447C30.499 70.1267 31.1773 69.4484 31.9953 69.4484H75.8853C76.7032 69.4484 77.3815 70.1267 77.3815 70.9447C77.3815 71.7626 76.7032 72.4409 75.8853 72.4409Z" fill="white"/>
<path d="M72.6334 38.5259L54.6784 31.3439C54.2794 31.1843 53.6011 31.1843 53.2021 31.3439L35.2471 38.5259C34.5488 38.8052 33.9902 39.6232 33.9902 40.3813V47.0047C33.9902 48.1019 34.888 48.9997 35.9852 48.9997H71.8952C72.9925 48.9997 73.8902 48.1019 73.8902 47.0047V40.3813C73.8902 39.6232 73.3316 38.8052 72.6334 38.5259ZM53.9402 44.0122C52.2844 44.0122 50.9477 42.6755 50.9477 41.0197C50.9477 39.3638 52.2844 38.0272 53.9402 38.0272C55.5961 38.0272 56.9327 39.3638 56.9327 41.0197C56.9327 42.6755 55.5961 44.0122 53.9402 44.0122Z" fill="white"/>
</svg>
