<svg width="108" height="109" viewBox="0 0 108 109" fill="none" xmlns="http://www.w3.org/2000/svg">
<circle cx="54.3961" cy="54.5299" r="53.5845" fill="#D4AE31"/>
<path d="M62.7295 35.1667H45.2712C37.6878 35.1667 33.167 39.6875 33.167 47.2709V64.7084C33.167 72.3125 37.6878 76.8334 45.2712 76.8334H62.7087C70.292 76.8334 74.8128 72.3125 74.8128 64.7292V47.2709C74.8337 39.6875 70.3128 35.1667 62.7295 35.1667ZM51.9795 67.7917C52.5837 68.3959 52.5837 69.3959 51.9795 70C51.667 70.3125 51.2712 70.4584 50.8753 70.4584C50.4795 70.4584 50.0837 70.3125 49.7712 70L46.1878 66.4167L42.6045 70C42.292 70.2917 41.8962 70.4584 41.5003 70.4584C41.1045 70.4584 40.7087 70.3125 40.3962 70C39.792 69.3959 39.792 68.3959 40.3962 67.7917L43.9795 64.2084L40.3962 60.625C39.792 60.0209 39.792 59.0209 40.3962 58.4167C41.0003 57.8125 42.0003 57.8125 42.6045 58.4167L46.1878 62L49.7712 58.4167C50.3753 57.8125 51.3753 57.8125 51.9795 58.4167C52.5837 59.0209 52.5837 60.0209 51.9795 60.625L48.3962 64.2084L51.9795 67.7917ZM50.8753 49.3542H41.5003C40.6462 49.3542 39.9378 48.6459 39.9378 47.7917C39.9378 46.9375 40.6462 46.2292 41.5003 46.2292H50.8753C51.7295 46.2292 52.4378 46.9375 52.4378 47.7917C52.4378 48.6459 51.7295 49.3542 50.8753 49.3542ZM66.5003 69.6667H57.1253C56.2712 69.6667 55.5628 68.9584 55.5628 68.1042C55.5628 67.25 56.2712 66.5417 57.1253 66.5417H66.5003C67.3545 66.5417 68.0628 67.25 68.0628 68.1042C68.0628 68.9584 67.3545 69.6667 66.5003 69.6667ZM66.5003 61.8542H57.1253C56.2712 61.8542 55.5628 61.1459 55.5628 60.2917C55.5628 59.4375 56.2712 58.7292 57.1253 58.7292H66.5003C67.3545 58.7292 68.0628 59.4375 68.0628 60.2917C68.0628 61.1459 67.3545 61.8542 66.5003 61.8542ZM66.5003 49.3542H63.417V52.4792C63.417 53.3334 62.7087 54.0417 61.8545 54.0417C61.0003 54.0417 60.292 53.3334 60.292 52.4792V49.3542H57.1253C56.2712 49.3542 55.5628 48.6459 55.5628 47.7917C55.5628 46.9375 56.2712 46.2292 57.1253 46.2292H60.292V43.1042C60.292 42.25 61.0003 41.5417 61.8545 41.5417C62.7087 41.5417 63.417 42.25 63.417 43.1042V46.2292H66.5003C67.3545 46.2292 68.0628 46.9375 68.0628 47.7917C68.0628 48.6459 67.3545 49.3542 66.5003 49.3542Z" fill="white"/>
</svg>
