<svg width="49" height="49" viewBox="0 0 49 49" fill="none" xmlns="http://www.w3.org/2000/svg">
<path d="M19.509 18.887V48.2101" stroke="#B9B2B2" stroke-width="1.5" stroke-linecap="round" stroke-linejoin="round"/>
<path d="M24.0623 17.8961C24.0623 17.8961 25.7487 16.5048 25.8646 16.2518" stroke="#B9B2B2" stroke-width="1.5" stroke-linecap="round" stroke-linejoin="round"/>
<path d="M27.0874 15.2927C27.0874 15.2927 30.5025 11.2031 29.7647 6.22803" stroke="#B9B2B2" stroke-width="1.5" stroke-linecap="round" stroke-linejoin="round"/>
<path d="M15.5986 3.19239V8.54686C15.5986 9.94872 15.7779 11.3611 16.2101 12.6997C17.0849 15.4824 19.2245 19.8355 24.3471 23.4192C24.5158 23.5352 24.7371 23.5352 24.8953 23.4192C25.8544 22.7236 29.1113 20.215 31.4513 16.7472C33.1061 14.2913 33.886 11.3506 33.886 8.3993V3.19239L24.7477 1L15.6092 3.19239H15.5986Z" stroke="#B9B2B2" stroke-width="1.5" stroke-linecap="round" stroke-linejoin="round"/>
<path d="M35.9413 15.6721V48.21" stroke="#B9B2B2" stroke-width="1.5" stroke-linecap="round" stroke-linejoin="round"/>
<path d="M1.00024 48.2101H48.1998" stroke="#B9B2B2" stroke-width="1.5" stroke-linecap="round" stroke-linejoin="round"/>
<path d="M9.35901 44.1097H19.5093" stroke="#B9B2B2" stroke-width="1.5" stroke-linecap="round" stroke-linejoin="round"/>
<path d="M9.35901 40.0096H19.5093" stroke="#B9B2B2" stroke-width="1.5" stroke-linecap="round" stroke-linejoin="round"/>
<path d="M9.35901 35.8779H19.5093" stroke="#B9B2B2" stroke-width="1.5" stroke-linecap="round" stroke-linejoin="round"/>
<path d="M9.35901 31.9465H19.5093" stroke="#B9B2B2" stroke-width="1.5" stroke-linecap="round" stroke-linejoin="round"/>
<path d="M9.35901 27.7197H19.5093" stroke="#B9B2B2" stroke-width="1.5" stroke-linecap="round" stroke-linejoin="round"/>
<path d="M9.35901 23.6089H19.5093" stroke="#B9B2B2" stroke-width="1.5" stroke-linecap="round" stroke-linejoin="round"/>
<path d="M27.7302 27.8673V26.6024" stroke="#B9B2B2" stroke-width="1.5" stroke-linecap="round" stroke-linejoin="round"/>
<path d="M46.1758 15.4508V13.2268" stroke="#B9B2B2" stroke-width="1.5" stroke-linecap="round" stroke-linejoin="round"/>
<path d="M42.0969 15.4508V13.2268" stroke="#B9B2B2" stroke-width="1.5" stroke-linecap="round" stroke-linejoin="round"/>
<path d="M37.9756 15.4508V13.2268" stroke="#B9B2B2" stroke-width="1.5" stroke-linecap="round" stroke-linejoin="round"/>
<path d="M2.09644 11.0661V8.34668" stroke="#B9B2B2" stroke-width="1.5" stroke-linecap="round" stroke-linejoin="round"/>
<path d="M5.18469 20.6787V19.4244" stroke="#B9B2B2" stroke-width="1.5" stroke-linecap="round" stroke-linejoin="round"/>
<path d="M5.18469 16.5786V15.3243" stroke="#B9B2B2" stroke-width="1.5" stroke-linecap="round" stroke-linejoin="round"/>
<path d="M5.18469 24.7369V23.472" stroke="#B9B2B2" stroke-width="1.5" stroke-linecap="round" stroke-linejoin="round"/>
<path d="M5.18469 37.0373V35.783" stroke="#B9B2B2" stroke-width="1.5" stroke-linecap="round" stroke-linejoin="round"/>
<path d="M5.18469 41.127V39.8622" stroke="#B9B2B2" stroke-width="1.5" stroke-linecap="round" stroke-linejoin="round"/>
<path d="M5.18469 45.2377V43.9729" stroke="#B9B2B2" stroke-width="1.5" stroke-linecap="round" stroke-linejoin="round"/>
<path d="M5.18469 32.9267V31.6724" stroke="#B9B2B2" stroke-width="1.5" stroke-linecap="round" stroke-linejoin="round"/>
<path d="M5.18469 28.8475V27.5826" stroke="#B9B2B2" stroke-width="1.5" stroke-linecap="round" stroke-linejoin="round"/>
<path d="M31.8412 23.7564V22.4916" stroke="#B9B2B2" stroke-width="1.5" stroke-linecap="round" stroke-linejoin="round"/>
<path d="M31.8412 36.0572V34.8029" stroke="#B9B2B2" stroke-width="1.5" stroke-linecap="round" stroke-linejoin="round"/>
<path d="M31.8412 40.1465V38.8817" stroke="#B9B2B2" stroke-width="1.5" stroke-linecap="round" stroke-linejoin="round"/>
<path d="M31.8412 44.2575V42.9927" stroke="#B9B2B2" stroke-width="1.5" stroke-linecap="round" stroke-linejoin="round"/>
<path d="M31.8412 31.9462V30.6814" stroke="#B9B2B2" stroke-width="1.5" stroke-linecap="round" stroke-linejoin="round"/>
<path d="M27.7411 36.0572V34.8029" stroke="#B9B2B2" stroke-width="1.5" stroke-linecap="round" stroke-linejoin="round"/>
<path d="M23.6302 40.1465V38.8817" stroke="#B9B2B2" stroke-width="1.5" stroke-linecap="round" stroke-linejoin="round"/>
<path d="M23.6302 36.0572V34.8029" stroke="#B9B2B2" stroke-width="1.5" stroke-linecap="round" stroke-linejoin="round"/>
<path d="M23.6302 31.9567V30.6919" stroke="#B9B2B2" stroke-width="1.5" stroke-linecap="round" stroke-linejoin="round"/>
<path d="M23.6302 44.2575V42.9927" stroke="#B9B2B2" stroke-width="1.5" stroke-linecap="round" stroke-linejoin="round"/>
<path d="M27.7411 44.2575V42.9927" stroke="#B9B2B2" stroke-width="1.5" stroke-linecap="round" stroke-linejoin="round"/>
<path d="M27.7411 40.1465V38.8817" stroke="#B9B2B2" stroke-width="1.5" stroke-linecap="round" stroke-linejoin="round"/>
<path d="M27.7411 31.9567V30.6919" stroke="#B9B2B2" stroke-width="1.5" stroke-linecap="round" stroke-linejoin="round"/>
<path d="M31.8412 27.8673V26.6024" stroke="#B9B2B2" stroke-width="1.5" stroke-linecap="round" stroke-linejoin="round"/>
<path d="M9.35901 15.4508H17.1904" stroke="#B9B2B2" stroke-width="1.5" stroke-linecap="round" stroke-linejoin="round"/>
<path d="M30.1018 18.5182H35.7408" stroke="#B9B2B2" stroke-width="1.5" stroke-linecap="round" stroke-linejoin="round"/>
<path d="M9.35901 19.4878H19.5093" stroke="#B9B2B2" stroke-width="1.5" stroke-linecap="round" stroke-linejoin="round"/>
<path d="M1.00024 11.298H9.12678" stroke="#B9B2B2" stroke-width="1.5" stroke-linecap="round" stroke-linejoin="round"/>
<path d="M35.9413 15.4613H48.1997" stroke="#B9B2B2" stroke-width="1.5" stroke-linecap="round" stroke-linejoin="round"/>
<path d="M39.9993 15.6721V48.21" stroke="#B9B2B2" stroke-width="1.5" stroke-linecap="round" stroke-linejoin="round"/>
<path d="M44.142 15.6721V48.21" stroke="#B9B2B2" stroke-width="1.5" stroke-linecap="round" stroke-linejoin="round"/>
<path d="M9.12671 11.298V48.2101" stroke="#B9B2B2" stroke-width="1.5" stroke-linecap="round" stroke-linejoin="round"/>
<path d="M1.00024 11.298V48.2101" stroke="#B9B2B2" stroke-width="1.5" stroke-linecap="round" stroke-linejoin="round"/>
<path d="M48.1997 15.6721V48.21" stroke="#B9B2B2" stroke-width="1.5" stroke-linecap="round" stroke-linejoin="round"/>
</svg>
