<svg width="32" height="32" viewBox="0 0 32 32" fill="none" xmlns="http://www.w3.org/2000/svg">
<path d="M23.5 1H8.5C4.35786 1 1 4.35786 1 8.5V23.5C1 27.6421 4.35786 31 8.5 31H23.5C27.6421 31 31 27.6421 31 23.5V8.5C31 4.35786 27.6421 1 23.5 1Z" stroke="#FCFCFC" stroke-width="1.5" stroke-linecap="round" stroke-linejoin="round"/>
<path d="M22.0005 15.0555C22.1857 16.3038 21.9724 17.5788 21.3912 18.699C20.8099 19.8192 19.8903 20.7276 18.763 21.295C17.6357 21.8624 16.3582 22.0598 15.1122 21.8594C13.8662 21.6589 12.7152 21.0706 11.8228 20.1782C10.9304 19.2858 10.3421 18.1348 10.1416 16.8888C9.94114 15.6428 10.1386 14.3653 10.706 13.238C11.2734 12.1107 12.1818 11.1911 13.302 10.6098C14.4222 10.0286 15.6972 9.81533 16.9455 10.0005C18.2189 10.1893 19.3978 10.7826 20.3081 11.6929C21.2183 12.6032 21.8117 13.7821 22.0005 15.0555Z" stroke="#FCFCFC" stroke-width="1.5" stroke-linecap="round" stroke-linejoin="round"/>
<path d="M24.25 7.75H24.265" stroke="#FCFCFC" stroke-width="1.5" stroke-linecap="round" stroke-linejoin="round"/>
</svg>
