<svg width="17" height="17" viewBox="0 0 17 17" fill="none" xmlns="http://www.w3.org/2000/svg">
<g clip-path="url(#clip0_413_1071)">
<path d="M6.08155 8.77798C6.08155 7.29474 7.28363 6.09201 8.76687 6.09201C10.2501 6.09201 11.4528 7.29474 11.4528 8.77798C11.4528 10.2612 10.2501 11.464 8.76687 11.464C7.28363 11.464 6.08155 10.2612 6.08155 8.77798ZM4.62955 8.77798C4.62955 11.063 6.48181 12.9153 8.76687 12.9153C11.0519 12.9153 12.9042 11.063 12.9042 8.77798C12.9042 6.49292 11.0519 4.64065 8.76687 4.64065C6.48181 4.64065 4.62955 6.49292 4.62955 8.77798ZM12.1011 4.47664C12.1011 5.01032 12.5339 5.44378 13.0682 5.44378C13.6019 5.44378 14.0353 5.01032 14.0353 4.47664C14.0353 3.94296 13.6025 3.51016 13.0682 3.51016C12.5339 3.51016 12.1011 3.94296 12.1011 4.47664ZM5.51142 15.3364C4.72587 15.3006 4.29892 15.1698 4.01516 15.0591C3.63898 14.9127 3.37084 14.7383 3.08838 14.4565C2.80657 14.1747 2.6315 13.9065 2.48571 13.5303C2.37507 13.2466 2.24425 12.8196 2.20846 12.0341C2.16941 11.1848 2.1616 10.9296 2.1616 8.77798C2.1616 6.62634 2.17006 6.37186 2.20846 5.52188C2.24425 4.73633 2.37572 4.31003 2.48571 4.02562C2.63215 3.64944 2.80657 3.3813 3.08838 3.09884C3.37019 2.81703 3.63833 2.64195 4.01516 2.49617C4.29892 2.38553 4.72587 2.25471 5.51142 2.21891C6.36075 2.17986 6.61588 2.17205 8.76687 2.17205C10.9185 2.17205 11.173 2.18052 12.023 2.21891C12.8085 2.25471 13.2348 2.38618 13.5192 2.49617C13.8954 2.64195 14.1636 2.81703 14.446 3.09884C14.7278 3.38065 14.9022 3.64944 15.0487 4.02562C15.1593 4.30938 15.2901 4.73633 15.3259 5.52188C15.365 6.37186 15.3728 6.62634 15.3728 8.77798C15.3728 10.929 15.365 11.1841 15.3259 12.0341C15.2901 12.8196 15.1587 13.2466 15.0487 13.5303C14.9022 13.9065 14.7278 14.1747 14.446 14.4565C14.1642 14.7383 13.8954 14.9127 13.5192 15.0591C13.2355 15.1698 12.8085 15.3006 12.023 15.3364C11.1736 15.3754 10.9185 15.3833 8.76687 15.3833C6.61588 15.3833 6.36075 15.3754 5.51142 15.3364ZM5.44504 0.769515C4.58724 0.808565 4.00149 0.944589 3.48929 1.14374C2.95951 1.34941 2.51044 1.62536 2.06202 2.07313C1.61425 2.5209 1.3383 2.96997 1.13263 3.5004C0.93348 4.0126 0.797457 4.59835 0.758407 5.45614C0.718706 6.31524 0.709595 6.58989 0.709595 8.77798C0.709595 10.9661 0.718706 11.2407 0.758407 12.0998C0.797457 12.9576 0.93348 13.5434 1.13263 14.0556C1.3383 14.5853 1.6136 15.0351 2.06202 15.4828C2.50979 15.9306 2.95886 16.2059 3.48929 16.4122C4.00215 16.6114 4.58724 16.7474 5.44504 16.7864C6.30478 16.8255 6.57878 16.8353 8.76687 16.8353C10.9556 16.8353 11.2296 16.8261 12.0887 16.7864C12.9465 16.7474 13.5323 16.6114 14.0445 16.4122C14.5742 16.2059 15.0233 15.9306 15.4717 15.4828C15.9195 15.0351 16.1948 14.5853 16.4011 14.0556C16.6003 13.5434 16.7369 12.9576 16.7753 12.0998C16.8144 11.2401 16.8235 10.9661 16.8235 8.77798C16.8235 6.58989 16.8144 6.31524 16.7753 5.45614C16.7363 4.59835 16.6003 4.0126 16.4011 3.5004C16.1948 2.97062 15.9195 2.52155 15.4717 2.07313C15.024 1.62536 14.5742 1.34941 14.0451 1.14374C13.5323 0.944589 12.9465 0.807914 12.0894 0.769515C11.2303 0.730466 10.9556 0.720703 8.76752 0.720703C6.57878 0.720703 6.30478 0.729815 5.44504 0.769515Z" fill="white"/>
</g>
<defs>
<clipPath id="clip0_413_1071">
<rect width="16.1146" height="16.1146" fill="white" transform="translate(0.709595 0.720703)"/>
</clipPath>
</defs>
</svg>
