<svg width="67" height="67" viewBox="0 0 67 67" fill="none" xmlns="http://www.w3.org/2000/svg">
<rect x="1" y="1" width="65" height="65" rx="32.5" fill="white" stroke="#D4AE31" stroke-width="2"/>
<path d="M9.00299 28.3078V34.797H10.8264V28.3078H9.00299Z" fill="#1E2272"/>
<path d="M13.5416 31.5775H12.9812L14.8517 28.3078H13.4623C13.4623 28.3093 11.5679 31.5775 11.5679 31.5775L13.6247 34.797H15.6329L13.5416 31.5775Z" fill="#1E2272"/>
<path d="M51.2258 28.3048C51.2258 28.3048 51.2258 31.5655 51.2258 32.4574C50.7088 31.6763 48.4889 28.3101 48.4889 28.3101H46.9775V34.797H48.6041C48.6041 34.797 48.6041 31.5117 48.6041 30.625C49.1218 31.3964 51.3979 34.797 51.3979 34.797H52.8516V28.3048H51.2258Z" fill="#1E2272"/>
<path d="M34.4876 28.3048H32.891V34.797H36.7614V33.7039H34.4876V28.3048Z" fill="#1E2272"/>
<path d="M19.7764 28.3108L16.8764 34.7978H18.164L18.8741 33.142L21.1112 33.1397L21.7764 34.7985H23.6327L20.7872 28.3116C20.7872 28.3108 19.7764 28.3108 19.7764 28.3108ZM20.7184 32.2022H19.2699L20.0196 30.4754L20.7184 32.2022Z" fill="#1E2272"/>
<path d="M41.1572 28.3108L38.2571 34.7978H39.5448L40.2541 33.142L42.4912 33.1397L43.1571 34.7985H45.0157L42.1688 28.3116C42.1688 28.3108 41.1572 28.3108 41.1572 28.3108ZM42.0977 32.2022H40.6507L41.4011 30.4754L42.0977 32.2022Z" fill="#1E2272"/>
<path d="M25.8459 28.2779V34.7978H27.4433C27.4433 34.7978 27.4433 32.8045 27.4433 32.503C27.5757 32.503 28.208 32.503 28.2102 32.503C28.2776 32.5075 28.7931 32.5277 29.3146 32.3556C29.8436 32.179 30.6808 31.4922 30.6808 30.3946C30.6808 29.8379 30.5424 29.3837 30.2663 29.0441C29.8436 28.5226 29.1395 28.2786 28.0538 28.2786L25.8459 28.2779ZM27.8945 29.3471C28.7025 29.3471 29.0639 29.6591 29.0639 30.3549C29.0639 30.7425 28.9487 31.0507 28.7317 31.246C28.5701 31.3927 28.3531 31.4361 27.8017 31.4361C27.8002 31.4361 27.5713 31.4361 27.4441 31.4361C27.4441 31.1555 27.4441 29.6292 27.4441 29.3471C27.572 29.3471 27.8945 29.3471 27.8945 29.3471Z" fill="#1E2272"/>
<path fill-rule="evenodd" clip-rule="evenodd" d="M55.4584 25H54.3189C57.0079 26.5802 58.6697 28.4515 58.6697 30.4559C58.6697 36.3653 46.1193 40.7206 30.8087 40.7206C21.9634 40.7206 14.0811 39.1882 9 36.8V38.045C14.2576 40.4647 22.0794 42 30.808 42C47.3418 42 59.48 36.9586 59.48 30.747C59.48 28.6468 58.0128 26.682 55.4584 25Z" fill="#1E2272"/>
</svg>
