<?xml version="1.0" encoding="utf-8"?>
<!-- Generator: Adobe Illustrator 27.9.0, SVG Export Plug-In . SVG Version: 6.00 Build 0)  -->
<svg version="1.1" id="Layer_1" xmlns="http://www.w3.org/2000/svg" xmlns:xlink="http://www.w3.org/1999/xlink" x="0px" y="0px"
	 viewBox="0 0 800 239.2" style="enable-background:new 0 0 800 239.2;" xml:space="preserve">
<style type="text/css">
	.st0{fill:#1E2272;}
	.st1{fill-rule:evenodd;clip-rule:evenodd;fill:#1E2272;}
</style>
<g>
	<g>
		<g>
			<path class="st0" d="M63.1,50.61v86.73h24.37V50.61H63.1z"/>
		</g>
		<g>
			<path class="st0" d="M123.76,94.31h-7.49l25-43.7H122.7c0,0.02-25.32,43.7-25.32,43.7l27.49,43.03h26.84L123.76,94.31z"/>
		</g>
	</g>
	<g>
		<path class="st0" d="M627.42,50.57c0,0,0,43.58,0,55.5c-6.91-10.44-36.58-55.43-36.58-55.43h-20.2v86.7h21.74c0,0,0-43.91,0-55.76
			c6.92,10.31,37.34,55.76,37.34,55.76h19.43V50.57H627.42z"/>
	</g>
	<path class="st0" d="M403.71,50.57h-21.34v86.77h51.73v-14.61h-30.39C403.71,122.73,403.71,50.57,403.71,50.57z"/>
	<path class="st0" d="M207.09,50.65l-38.76,86.7h17.21l9.49-22.13l29.9-0.03l8.89,22.17h24.81l-38.03-86.7
		C220.6,50.65,207.09,50.65,207.09,50.65z M219.68,102.66h-19.36l10.02-23.08L219.68,102.66z"/>
	<path class="st0" d="M492.85,50.65l-38.76,86.7h17.21l9.48-22.13l29.9-0.03l8.9,22.17h24.84l-38.05-86.7
		C506.37,50.65,492.85,50.65,492.85,50.65z M505.42,102.66h-19.34l10.03-23.08L505.42,102.66z"/>
	<path class="st0" d="M288.21,50.21v87.14h21.35c0,0,0-26.64,0-30.67c1.77,0,10.22,0,10.25,0c0.9,0.06,7.79,0.33,14.76-1.97
		c7.07-2.36,18.26-11.54,18.26-26.21c0-7.44-1.85-13.51-5.54-18.05c-5.65-6.97-15.06-10.23-29.57-10.23L288.21,50.21L288.21,50.21z
		 M315.59,64.5c10.8,0,15.63,4.17,15.63,13.47c0,5.18-1.54,9.3-4.44,11.91c-2.16,1.96-5.06,2.54-12.43,2.54c-0.02,0-3.08,0-4.78,0
		c0-3.75,0-24.15,0-27.92C311.28,64.5,315.59,64.5,315.59,64.5z"/>
</g>
<path class="st1" d="M683.99,6.4h-15.23c35.94,21.12,58.15,46.13,58.15,72.92c0,78.98-167.74,137.19-372.37,137.19
	c-118.22,0-223.57-20.48-291.48-52.4v16.64c70.27,32.34,174.81,52.86,291.47,52.86c220.98,0,383.21-67.38,383.21-150.4
	C737.74,55.14,718.13,28.88,683.99,6.4z"/>
</svg>
