<svg width="32" height="31" viewBox="0 0 32 31" fill="none" xmlns="http://www.w3.org/2000/svg">
<path d="M22.0005 10.0002C24.3874 10.0002 26.6766 10.9485 28.3645 12.6363C30.0523 14.3241 31.0005 16.6133 31.0005 19.0002V29.5002H25.0005V19.0002C25.0005 18.2046 24.6844 17.4415 24.1218 16.8789C23.5592 16.3163 22.7961 16.0002 22.0005 16.0002C21.2048 16.0002 20.4418 16.3163 19.8792 16.8789C19.3166 17.4415 19.0005 18.2046 19.0005 19.0002V29.5002H13.0005V19.0002C13.0005 16.6133 13.9487 14.3241 15.6365 12.6363C17.3244 10.9485 19.6135 10.0002 22.0005 10.0002V10.0002Z" stroke="#192B3A" stroke-width="1.5" stroke-linecap="round" stroke-linejoin="round"/>
<path d="M7 11.5004H1V29.5004H7V11.5004Z" stroke="#192B3A" stroke-width="1.5" stroke-linecap="round" stroke-linejoin="round"/>
<path d="M4 7C5.65685 7 7 5.65685 7 4C7 2.34315 5.65685 1 4 1C2.34315 1 1 2.34315 1 4C1 5.65685 2.34315 7 4 7Z" stroke="#192B3A" stroke-width="1.5" stroke-linecap="round" stroke-linejoin="round"/>
</svg>
