<svg width="15" height="14" viewBox="0 0 15 14" fill="none" xmlns="http://www.w3.org/2000/svg">
<path d="M0.921875 1.53121C0.921875 1.08737 1.07678 0.721212 1.38657 0.432732C1.69635 0.14424 2.09909 0 2.59476 0C3.08158 0 3.47545 0.142016 3.7764 0.426075C4.08619 0.719001 4.24109 1.10068 4.24109 1.57115C4.24109 1.99723 4.09062 2.35228 3.78968 2.63634C3.47989 2.92926 3.07273 3.07573 2.56821 3.07573H2.55493C2.06811 3.07573 1.67424 2.92926 1.37329 2.63634C1.07234 2.34341 0.921875 1.97503 0.921875 1.53121ZM1.09447 13.1817V4.28738H4.04194V13.1817H1.09447ZM5.67499 13.1817H8.62246V8.21526C8.62246 7.90457 8.65787 7.6649 8.72867 7.49625C8.85258 7.19445 9.04068 6.93924 9.29294 6.73065C9.5452 6.52205 9.86163 6.41775 10.2422 6.41775C11.2336 6.41775 11.7292 7.08793 11.7292 8.42829V13.1817H14.6767V8.08211C14.6767 6.76837 14.3669 5.77198 13.7473 5.09293C13.1277 4.41387 12.309 4.07434 11.2911 4.07434C10.1493 4.07434 9.25975 4.56699 8.62246 5.55229V5.57892H8.60918L8.62246 5.55229V4.28738H5.67499C5.69269 4.57142 5.70155 5.45464 5.70155 6.93703C5.70155 8.41941 5.69269 10.501 5.67499 13.1817Z" fill="white"/>
</svg>
