<svg width="32" height="32" viewBox="0 0 32 32" fill="none" xmlns="http://www.w3.org/2000/svg">
<path d="M15.0877 3.09806C10.2541 3.29166 6.50131 7.35761 6.69491 12.1912C6.95754 18.7485 16.0882 28.078 16.0882 28.078C16.0882 28.078 24.4435 18.0481 24.1809 11.4909C23.9873 6.65725 19.9213 2.90446 15.0877 3.09806ZM9.1929 12.0912C9.05483 8.64394 11.7405 5.73413 15.1878 5.59606C18.635 5.45799 21.5448 8.14369 21.6829 11.5909C21.827 15.188 18.4455 20.7153 15.9322 24.1812C13.2007 20.9504 9.33548 15.6508 9.1929 12.0912Z" fill="white"/>
<path d="M15.5631 14.9637C17.2876 14.8946 18.6296 13.4406 18.5605 11.7161C18.4914 9.99161 17.0374 8.64961 15.3129 8.71869C13.5884 8.78776 12.2464 10.2417 12.3155 11.9662C12.3846 13.6908 13.8385 15.0327 15.5631 14.9637Z" fill="white"/>
</svg>
