<svg width="32" height="32" viewBox="0 0 32 32" fill="none" xmlns="http://www.w3.org/2000/svg">
<path d="M15.0867 3.09794C10.2531 3.29154 6.50033 7.35749 6.69393 12.1911C6.95657 18.7484 16.0873 28.0779 16.0873 28.0779C16.0873 28.0779 24.4425 18.048 24.1799 11.4907C23.9863 6.65713 19.9204 2.90434 15.0867 3.09794ZM9.19193 12.0911C9.05386 8.64382 11.7396 5.73401 15.1868 5.59594C18.634 5.45787 21.5438 8.14357 21.6819 11.5908C21.826 15.1879 18.4445 20.7152 15.9312 24.181C13.1997 20.9503 9.3345 15.6507 9.19193 12.0911Z" fill="#212120"/>
<path d="M15.564 14.9633C17.2885 14.8942 18.6305 13.4403 18.5615 11.7158C18.4924 9.99124 17.0384 8.64925 15.3139 8.71832C13.5894 8.78739 12.2474 10.2414 12.3165 11.9659C12.3855 13.6904 13.8395 15.0324 15.564 14.9633Z" fill="#212120"/>
</svg>
