<svg width="81" height="69" viewBox="0 0 81 69" fill="none" xmlns="http://www.w3.org/2000/svg">
<path d="M24.7119 0C25.3444 0.43619 26.0423 0.828762 26.0641 1.70114C26.0859 2.11552 25.9986 2.50809 25.955 2.94429C26.8274 2.79162 27.7652 2.61714 28.703 2.44267C29.2483 2.35543 29.7935 2.22457 30.3387 2.22457C32.2362 2.20276 34.1336 2.07191 36.031 2.24638C40.3711 2.61714 44.5367 3.77305 48.3098 5.954C50.1418 7.00086 51.8647 8.244 53.5004 9.57438C57.1426 12.5187 59.8906 16.1827 61.8317 20.4573C62.9658 22.9436 63.8382 25.5171 64.1653 28.2651C64.3398 29.6173 64.4488 30.9913 64.5579 32.3435C64.6015 32.8669 64.6451 33.3904 64.5579 33.9138C64.3834 34.9389 63.4892 35.5277 62.3769 35.4623C61.5481 35.3969 60.8285 34.5681 60.7848 33.6085C60.6322 30.795 60.3704 28.0252 59.4981 25.3209C58.6039 22.5292 57.3825 19.9121 55.616 17.5785C54.5473 16.1827 53.3914 14.8305 52.1483 13.5873C50.6216 12.0389 48.8332 10.7739 46.9576 9.70524C44.7766 8.46209 42.4648 7.50248 40.0222 6.93543C38.8444 6.6519 37.6449 6.47743 36.4672 6.32476C35.5076 6.1939 34.548 6.06305 33.5883 6.08486C32.1271 6.10667 30.6659 6.23752 29.2264 6.36838C28.5285 6.43381 27.8307 6.63009 27.1764 6.73914C27.4381 7.17533 27.7652 7.63333 27.9833 8.11314C28.3323 8.85467 27.9833 9.50895 27.4817 10.0106C26.9364 10.5558 26.1731 10.7739 25.4752 10.4031C23.9485 9.59619 22.4655 8.702 21.0261 7.76419C20.2191 7.24076 20.0446 6.17209 20.459 5.29971C21.0261 4.07838 21.6149 2.85705 22.1602 1.63571C22.4873 0.916 22.9017 0.327143 23.665 0.0654292C24.014 6.62974e-07 24.3629 0 24.7119 0Z" fill="white"/>
<path d="M39.8673 66.9336C39.2566 66.5192 38.5805 66.1484 38.5369 65.276C38.5151 64.8616 38.5805 64.4255 38.6023 63.9238C38.0571 63.9675 37.4246 63.9893 36.814 64.0765C34.9165 64.3818 32.9973 64.4255 31.078 64.1856C29.7913 64.0111 28.4827 63.9238 27.2396 63.6403C25.6039 63.2696 23.9682 62.8552 22.3979 62.2881C20.0206 61.4376 17.7743 60.2598 15.7024 58.7768C13.3687 57.1193 11.275 55.2218 9.42122 53.0191C6.89131 50.0094 4.99388 46.6507 3.75074 42.9431C3.18369 41.2638 2.90017 39.4754 2.5076 37.7088C2.02779 35.5497 2.07141 33.3469 2.11503 31.1441C2.13684 30.359 2.35493 29.5738 3.16188 29.1813C3.92521 28.8105 4.73216 28.8105 5.36464 29.3994C5.69178 29.7047 5.9535 30.2063 5.99712 30.6425C6.08436 31.6894 5.99712 32.7362 6.04074 33.7831C6.14979 36.5529 6.6296 39.2573 7.56741 41.8744C8.26531 43.8373 9.13769 45.7129 10.25 47.4795C11.7548 49.8785 13.6086 51.9722 15.7678 53.826C17.4253 55.2655 19.2355 56.4868 21.1765 57.4464C23.4447 58.5587 25.8002 59.3875 28.3083 59.8455C30.4674 60.2598 32.6047 60.4125 34.7857 60.3471C35.7235 60.3253 36.6613 60.1726 37.5991 60.0854C37.6645 60.0854 37.73 59.9981 37.8172 59.9109C37.0539 59.2784 36.814 58.4933 37.1193 57.5991C37.5119 56.4432 38.7332 55.8107 40.0418 56.6613C41.3285 57.4682 42.5499 58.3842 43.8148 59.2348C44.6872 59.8455 44.8399 61.2195 44.3601 62.0046C43.6185 63.2041 43.0079 64.4909 42.2445 65.6904C41.9392 66.1702 41.394 66.4974 40.9578 66.9117C40.5652 66.9336 40.2162 66.9336 39.8673 66.9336Z" fill="white"/>
<path d="M66.4524 68.7434C65.1656 68.1109 64.7294 66.8896 65.0348 65.3411C65.3837 63.64 66.0598 62.1133 67.2375 60.8483C68.328 59.6924 69.702 58.9727 71.2941 58.6456C71.5776 58.5802 71.8612 58.5365 72.2101 58.4711C69.244 57.8604 67.6737 55.396 68.0663 52.9969C68.5025 50.1399 70.4435 48.7441 72.8208 48.7659C75.8305 48.7877 77.4444 50.7505 77.7061 52.8006C78.1423 56.421 75.6124 58.1222 73.475 58.4711C74.2166 58.6456 74.849 58.7328 75.4379 58.9509C78.1641 59.9105 79.8871 61.7862 80.6068 64.5996C80.6504 64.8177 80.7812 65.014 80.8685 65.2103C80.8685 65.9518 80.8685 66.6933 80.8685 67.4348C80.3887 67.871 79.9089 68.3072 79.4291 68.7434C75.089 68.7434 70.7707 68.7434 66.4524 68.7434Z" fill="white"/>
<path d="M8.61476 0C9.46533 0.43619 10.4249 0.741523 11.1447 1.33038C12.5405 2.48629 12.9767 4.122 12.6059 5.86676C12.1697 7.96048 10.7739 9.18181 8.72381 9.68343C8.65838 9.70524 8.61475 9.72705 8.59294 9.72705C9.37809 9.96695 10.185 10.1414 10.9702 10.4686C13.5001 11.5372 15.0486 13.4565 15.5502 16.1609C15.681 16.8806 15.681 17.6221 15.681 18.3418C15.681 19.1706 14.7868 19.9993 13.8708 19.9993C9.79247 20.0211 5.71409 20.0211 1.65752 19.9993C1.04685 19.9993 0.610669 19.6068 0.261717 19.1051C0.174479 18.9743 0.0872381 18.8434 0 18.7126C0 17.9274 0 17.1423 0 16.3571C0.043619 16.2699 0.109042 16.1827 0.130852 16.0954C0.65428 13.6528 1.98466 11.7771 4.23104 10.6649C5.10342 10.2287 6.08486 10.0324 6.76095 9.79248C6.15028 9.42171 5.36514 8.96371 4.58 8.4839C4.53638 8.44028 4.49275 8.41848 4.44913 8.37486C4.3619 8.26581 4.27467 8.13495 4.18743 8.0259C2.48629 6.21571 2.63894 3.14057 4.44913 1.374C5.19066 0.654286 6.10666 0.305333 7.06628 0C7.15351 0 7.24076 0 7.32799 0C7.50247 0 7.67695 0 7.85143 0C7.89505 0 7.93866 0 7.98228 0C8.15676 0 8.33124 0 8.50571 0C8.52752 0 8.57114 0 8.61476 0Z" fill="white"/>
<path d="M45.272 37.4238C45.1194 37.7945 45.0321 38.2089 44.814 38.5579C44.5305 38.9941 44.7486 39.2776 45.0103 39.5829C45.73 40.4335 46.4716 41.2841 47.1695 42.1346C47.911 43.0288 47.9982 44.0757 47.2567 44.9263C46.4498 45.8423 45.5556 46.671 44.6178 47.4343C43.8108 48.0886 42.873 47.9578 42.066 47.2599C41.15 46.4529 40.2122 45.646 39.2744 44.8826C39.1436 44.7736 38.8818 44.7518 38.7074 44.7736C38.5111 44.8172 38.3366 45.0135 38.1403 45.0353C37.2897 45.1443 37.2679 45.755 37.2243 46.4093C37.1589 47.4998 37.0935 48.5902 36.9626 49.6807C36.8535 50.4659 35.8721 51.251 35.0434 51.251C33.9747 51.251 32.906 51.251 31.8374 51.251C30.8341 51.251 29.8963 50.4877 29.7873 49.5062C29.6564 48.3067 29.591 47.1072 29.5256 45.9077C29.5037 45.5151 29.3511 45.3843 29.024 45.1662C27.9553 44.4683 27.2574 44.9917 26.5159 45.6896C25.9052 46.2566 25.2727 46.8237 24.6184 47.3253C23.7678 47.9578 22.83 48.1759 21.8922 47.2162C21.1507 46.4529 20.3874 45.7114 19.624 44.9481C18.9479 44.2502 18.8171 43.2905 19.3841 42.5054C20.1911 41.4367 21.0635 40.4335 21.9359 39.4303C22.1758 39.1467 22.263 38.9504 22.0667 38.6451C22.0231 38.5797 21.9577 38.4924 21.9577 38.427C21.7832 37.5328 21.2379 37.3583 20.3656 37.3583C19.2751 37.3583 18.1628 37.2057 17.0723 36.9876C16.2436 36.8131 15.6765 36.0062 15.6765 35.1338C15.6547 33.9997 15.6547 32.8656 15.6765 31.7315C15.6983 30.7719 16.4399 30.0085 17.3995 29.9213C18.6862 29.8123 19.9948 29.6814 21.2816 29.5287C21.4124 29.5069 21.5651 29.3761 21.6305 29.2452C21.8268 28.8744 22.0013 28.4819 22.1103 28.0893C22.1539 27.9148 22.0231 27.6531 21.914 27.5004C21.1071 26.4972 20.2347 25.5594 19.4496 24.5344C18.7735 23.6184 18.9043 22.7242 19.7113 21.8954C20.4092 21.1757 21.1289 20.4778 21.8268 19.7799C22.5029 19.1038 23.7897 18.9729 24.5094 19.54C25.4254 20.2597 26.2977 21.023 27.1483 21.7864C27.5409 22.1353 27.8681 22.3752 28.3697 22.0044C28.5441 21.8736 28.784 21.7864 29.0021 21.7427C29.4819 21.6773 29.4819 21.372 29.5038 21.0012C29.6128 19.6926 29.7 18.3623 29.8963 17.0537C30.0272 16.2904 30.8559 15.6797 31.6193 15.6797C32.8624 15.6797 34.1274 15.7233 35.3705 15.8105C36.1339 15.8542 36.8318 16.5303 36.919 17.25C37.0498 18.3186 37.1371 19.3873 37.1807 20.456C37.2243 21.4592 37.8568 22.2444 38.86 22.1571C39.2744 22.1135 39.667 21.6773 40.0378 21.372C40.7357 20.8049 41.4117 20.2161 42.0878 19.6054C42.6331 19.1038 44.0943 18.9075 44.9231 19.6926C45.7736 20.5214 46.6024 21.372 47.3876 22.288C47.8892 22.8986 47.7583 24.0545 47.2567 24.6652C46.3407 25.7339 45.4465 26.8243 44.5741 27.8712C44.7268 28.242 44.9013 28.5691 44.9885 28.9181C45.163 29.5505 45.5992 29.6596 46.1444 29.6814C47.2785 29.7468 48.4126 29.8341 49.5467 29.9431C50.3318 30.0303 51.0734 30.6628 51.1388 31.6006C51.226 32.931 51.1824 34.2832 51.0516 35.6136C50.9643 36.4642 50.0483 37.0748 49.1759 37.1403C47.911 37.2057 46.6024 37.3147 45.272 37.4238ZM33.2768 39.343C36.6573 39.3212 39.2744 36.9222 39.2962 33.4981C39.318 30.2484 37.0717 27.6531 33.2114 27.6095C30.2671 27.5877 27.2792 30.2703 27.5627 33.9997C27.7372 36.5078 30.1362 39.3648 33.2768 39.343Z" fill="white"/>
<path d="M4.55663 8.46452C4.51301 8.4209 4.4694 8.39909 4.42578 8.35547C4.4694 8.39909 4.51301 8.44271 4.55663 8.46452Z" fill="white"/>
<path d="M31.4935 33.4554C31.3626 32.5394 32.235 31.4707 33.3037 31.4925C34.6341 31.5361 35.3102 32.2995 35.3974 33.4336C35.4847 34.4368 34.4378 35.3964 33.3691 35.3964C32.3004 35.4182 31.4935 34.5895 31.4935 33.4554Z" fill="white"/>
</svg>
