<?xml version="1.0" encoding="UTF-8"?>
<svg id="Layer_1" data-name="Layer 1" xmlns="http://www.w3.org/2000/svg" viewBox="0 0 387.39 388">
  <defs>
    <style>
      .cls-1 {
        fill: #fff;
      }

      .cls-2 {
        fill: none;
        stroke: #000;
        stroke-miterlimit: 10;
        stroke-width: 4px;
      }
    </style>
  </defs>
  <path class="cls-2" d="m143.62,2c3.59,2.47,7.57,4.72,7.78,9.78.1,2.33-.39,4.69-.63,7.12,5.03-.91,10.4-1.93,15.79-2.84,3.12-.53,6.26-1.19,9.41-1.24,10.86-.16,21.79-.85,32.57.08,24.88,2.15,48.68,8.75,70.39,21.32,10.32,5.98,20.2,12.96,29.48,20.47,21.05,17.06,36.91,38.33,48.11,63.03,6.38,14.07,11.24,28.67,13.14,44.08,1.01,8.16,1.59,16.37,2.24,24.57.22,2.73.42,5.56-.04,8.22-.99,5.7-6.45,9.26-12.61,8.67-4.58-.44-8.74-5.26-9-10.45-.85-16.85-2.53-33.58-7.98-49.69-6.17-18.25-15.16-34.89-27.29-49.95-14.79-18.37-32.83-32.45-53.8-42.87-13.33-6.62-27.49-11.01-42.13-13.41-8.93-1.47-18.1-2.4-27.12-2.19-11.54.27-23.05,1.93-34.7,3,1.98,3.09,3.85,5.47,5.13,8.13,2.11,4.38.19,8.2-2.81,11.28-3.17,3.24-8.96,4.06-12.61,1.96-8.15-4.7-16.37-9.32-24.19-14.52-4.88-3.24-5.95-8.67-3.62-14.07,3.11-7.22,6.73-14.21,9.87-21.42,1.82-4.16,4.26-7.47,8.64-9.05h5.99Z"/>
  <path class="cls-2" d="m230.45,386c-3.5-2.4-7.38-4.56-7.63-9.48-.13-2.42.22-4.87.38-7.79-1.29.12-3.04.23-4.78.44-12.73,1.55-25.46,2.9-38.28,1.11-7.35-1.03-14.81-1.55-22.03-3.16-9.36-2.09-18.73-4.47-27.73-7.72-13.63-4.93-26.42-11.69-38.31-20.1-13.4-9.48-25.37-20.37-35.97-32.99-14.5-17.27-25.31-36.55-32.48-57.77-3.31-9.81-4.95-20.2-7.19-30.36-2.69-12.18-2.49-24.58-2.23-36.95.09-4.53,1.23-8.88,5.72-11.44,7.19-4.09,17.77.73,16.77,9.71-.55,4.94-.14,9.99-.09,14.98.14,14.49,2.65,28.63,6.81,42.44,4.14,13.77,10.19,26.76,17.99,38.83,8.54,13.21,18.82,24.91,30.78,35.23,9.54,8.23,19.85,15.28,31.02,20.82,12.93,6.42,26.51,11.15,40.85,13.81,11.81,2.19,23.62,3.3,35.57,2.84,5.87-.22,11.72-.96,17.58-1.52.39-.04.73-.55,1.31-1.02-4.33-3.56-5.71-8.17-3.99-13.23,2.23-6.57,9.21-10.2,16.71-5.43,7.36,4.68,14.41,9.86,21.6,14.81,5.02,3.45,5.87,11.38,3.14,15.85-4.23,6.93-7.79,14.29-12.14,21.14-1.76,2.77-4.88,4.66-7.38,6.96h-5.99Z"/>
  <path class="cls-2" d="m303.05,386c-7.36-3.63-9.88-10.68-8.07-19.46,2.02-9.77,5.83-18.55,12.67-25.73,6.3-6.62,14.17-10.77,23.18-12.58,1.6-.32,3.21-.64,5.19-1.03-16.97-3.52-25.93-17.66-23.79-31.39,2.55-16.36,13.59-24.4,27.17-24.33,17.2.08,26.53,11.37,27.96,23.15,2.53,20.81-11.99,30.5-24.23,32.47,4.21,1,7.81,1.52,11.19,2.7,15.64,5.46,25.53,16.29,29.59,32.43.31,1.22.97,2.34,1.47,3.51v12.75c-2.74,2.5-5.49,5-8.23,7.5h-74.11Z"/>
  <path class="cls-2" d="m51.55,2c4.85,2.5,10.33,4.24,14.43,7.65,7.99,6.65,10.42,16.01,8.37,25.98-2.46,12-10.5,18.98-22.21,21.89-.33.08-.64.21-.73.24,4.43,1.38,9.16,2.44,13.57,4.29,14.53,6.11,23.3,17.13,26.18,32.62.76,4.09.78,8.35.76,12.53-.02,4.79-5.07,9.48-10.28,9.5-23.32.08-46.64.06-69.96,0-4.3-.01-9.17-4.89-9.5-9.16-1.16-15,3.8-27.7,14.62-38.02,5.9-5.62,13.14-8.85,21.08-10.52,1.49-.31,2.98-.62,3.89-.3-4.47-2.7-8.95-5.4-13.42-8.1-.26-.2-.53-.4-.79-.6-3.72-4.03-6.34-8.54-7.71-14.01-3.12-12.48,4.46-27.46,16.46-31.73,2.1-.75,4.18-1.52,6.27-2.28.5,0,1,0,1.5,0h6.74c.25,0,.5,0,.75,0Z"/>
  <path class="cls-2" d="m261.53,216.74c-1.26,3.06-2.51,6.06-3.87,9.34,4.78,5.77,9.79,11.8,14.77,17.84,4.07,4.93,4.52,11.17.23,15.99-4.53,5.08-9.57,9.77-14.82,14.1-4.47,3.68-9.56,3.35-14.01-.3-5.32-4.36-10.58-8.8-15.62-13.48-2-1.85-3.6-2.03-5.85-.81-1.79.97-3.76,1.62-6.32,2.69-.4,5.55-.74,11.66-1.31,17.75-.49,5.14-.33,10.74-5.65,13.78-2.12,1.21-4.67,2.12-7.08,2.25-5.85.32-11.72.1-17.58.09-5.59,0-11.02-4.62-11.56-10.19-.67-6.87-1.13-13.76-1.47-20.65-.1-2.12-.95-2.8-2.71-4-6.25-4.25-10.37-1.04-14.7,3.03-3.49,3.28-7.04,6.56-10.91,9.35-4.83,3.48-10.06,4.82-15.6-.83-4.2-4.28-8.49-8.47-12.69-12.74-4.05-4.12-4.83-9.65-1.37-14.25,4.5-5.99,9.37-11.71,14.35-17.31,1.5-1.69,1.8-2.92.82-4.83-1.16-2.25-2.12-4.6-3.11-6.8-7.59-.6-15.06-1.24-22.55-1.77-5.75-.41-10.84-5.47-10.93-11.27-.1-6.5-.1-13,0-19.5.09-5.72,4.33-9.97,10.04-10.52,7.79-.74,15.56-1.62,23.45-2.45,1.14-2.61,2.52-5.19,3.33-7.95.3-1.02-.41-2.68-1.17-3.64-4.68-5.85-9.72-11.43-14.22-17.41-3.46-4.61-2.68-10.12,1.37-14.25,4.2-4.27,8.45-8.5,12.7-12.73,3.8-3.77,11.27-4.4,15.41-1.09,4.88,3.91,9.71,7.9,14.31,12.13,2.53,2.33,4.42,3.68,8.21,1.86,5.65-2.72,5.59-2.29,5.99-8.44.43-6.71.94-13.48,2.34-20.03.98-4.59,4.95-7.49,9.67-7.62,7.15-.19,14.34.19,21.49.7,4.67.33,8.6,4.14,9.06,8.48.66,6.23,1.19,12.49,1.48,18.75.24,5.3,4.47,10.01,9.73,9.23,2.43-.36,4.62-2.9,6.74-4.67,3.97-3.3,7.86-6.71,11.7-10.16,2.99-2.69,11.27-3.95,15.97.5,5.04,4.77,9.81,9.86,14.32,15.13,2.73,3.18,1.93,10.16-.79,13.31-4.51,5.22-8.9,10.53-13.46,15.71-1.8,2.05-1.31,3.82-.68,6.26,1.5,5.84,5.03,7.14,10.55,7.03,5.72-.12,11.53.53,17.19,1.52,4.8.84,8.25,4.36,8.5,9.15.42,7.76.29,15.64-.53,23.36-.56,5.27-5.58,7.92-10.52,8.5-7.45.88-14.95,1.23-22.64,1.82Zm-68.78,10.99c20.3-.39,34.2-15.23,33.95-33.78-.26-19.91-14.05-33.49-34.42-33.52-18.44-.03-30.89,15.45-32.28,30.41-2.03,21.81,16.86,37.54,32.74,36.89Z"/>
  <path class="cls-1" d="m27.53,50.02c.26.2.53.4.79.6-.26-.2-.53-.4-.79-.6Z"/>
  <path class="cls-2" d="m193.44,205.24c-5.02.96-11.18-5.6-11.08-11.11.09-5.37,4.34-11.38,10.45-11.29,7.39.11,11.7,4.35,12.04,11.05.34,6.7-6.59,12.02-11.41,11.34Z"/>
</svg>