<svg width="52" height="49" viewBox="0 0 52 49" fill="none" xmlns="http://www.w3.org/2000/svg">
<path d="M36.4758 0H14.9348C5.57801 0 0 5.21618 0 13.966V34.0856C0 42.8594 5.57801 48.0756 14.9348 48.0756H36.4501C45.8068 48.0756 51.3849 42.8594 51.3849 34.1096V13.966C51.4106 5.21618 45.8325 0 36.4758 0ZM23.2119 37.6432C23.9573 38.3403 23.9573 39.4941 23.2119 40.1912C22.8263 40.5518 22.3379 40.72 21.8495 40.72C21.3611 40.72 20.8727 40.5518 20.4871 40.1912L16.0658 36.0567L11.6445 40.1912C11.2589 40.5277 10.7705 40.72 10.2821 40.72C9.79371 40.72 9.30531 40.5518 8.91971 40.1912C8.17431 39.4941 8.17431 38.3403 8.91971 37.6432L13.341 33.5087L8.91971 29.3742C8.17431 28.6771 8.17431 27.5233 8.91971 26.8262C9.66521 26.1291 10.899 26.1291 11.6445 26.8262L16.0658 30.9607L20.4871 26.8262C21.2326 26.1291 22.4664 26.1291 23.2119 26.8262C23.9573 27.5233 23.9573 28.6771 23.2119 29.3742L18.7906 33.5087L23.2119 37.6432ZM21.8495 16.3698H10.2821C9.22821 16.3698 8.35421 15.5525 8.35421 14.5669C8.35421 13.5814 9.22821 12.7641 10.2821 12.7641H21.8495C22.9034 12.7641 23.7774 13.5814 23.7774 14.5669C23.7774 15.5525 22.9034 16.3698 21.8495 16.3698ZM41.1284 39.8066H29.5611C28.5072 39.8066 27.6332 38.9893 27.6332 38.0038C27.6332 37.0182 28.5072 36.2009 29.5611 36.2009H41.1284C42.1824 36.2009 43.0563 37.0182 43.0563 38.0038C43.0563 38.9893 42.1824 39.8066 41.1284 39.8066ZM41.1284 30.7924H29.5611C28.5072 30.7924 27.6332 29.9751 27.6332 28.9896C27.6332 28.004 28.5072 27.1868 29.5611 27.1868H41.1284C42.1824 27.1868 43.0563 28.004 43.0563 28.9896C43.0563 29.9751 42.1824 30.7924 41.1284 30.7924ZM41.1284 16.3698H37.3241V19.9754C37.3241 20.961 36.4501 21.7783 35.3962 21.7783C34.3423 21.7783 33.4683 20.961 33.4683 19.9754V16.3698H29.5611C28.5072 16.3698 27.6332 15.5525 27.6332 14.5669C27.6332 13.5814 28.5072 12.7641 29.5611 12.7641H33.4683V9.15838C33.4683 8.17288 34.3423 7.35558 35.3962 7.35558C36.4501 7.35558 37.3241 8.17288 37.3241 9.15838V12.7641H41.1284C42.1824 12.7641 43.0563 13.5814 43.0563 14.5669C43.0563 15.5525 42.1824 16.3698 41.1284 16.3698Z" fill="white"/>
</svg>
