<svg width="42" height="42" viewBox="0 0 42 42" fill="none" xmlns="http://www.w3.org/2000/svg">
<rect width="42" height="42" rx="21" fill="white"/>
<path d="M23.6857 11.333H18.9857C17.9457 11.333 17.0957 12.173 17.0957 13.213V14.153C17.0957 15.193 17.9357 16.033 18.9757 16.033H23.6857C24.7257 16.033 25.5657 15.193 25.5657 14.153V13.213C25.5757 12.173 24.7257 11.333 23.6857 11.333Z" fill="#E40D75"/>
<path d="M26.576 14.1535C26.576 15.7435 25.276 17.0435 23.686 17.0435H18.986C17.396 17.0435 16.096 15.7435 16.096 14.1535C16.096 13.5935 15.496 13.2435 14.996 13.5035C13.586 14.2535 12.626 15.7435 12.626 17.4535V26.8635C12.626 29.3235 14.636 31.3335 17.096 31.3335H25.576C28.036 31.3335 30.046 29.3235 30.046 26.8635V17.4535C30.046 15.7435 29.086 14.2535 27.676 13.5035C27.176 13.2435 26.576 13.5935 26.576 14.1535ZM24.676 22.0635L20.676 26.0635C20.526 26.2135 20.336 26.2835 20.146 26.2835C19.956 26.2835 19.766 26.2135 19.616 26.0635L18.116 24.5635C17.826 24.2735 17.826 23.7935 18.116 23.5035C18.406 23.2135 18.886 23.2135 19.176 23.5035L20.146 24.4735L23.616 21.0035C23.906 20.7135 24.386 20.7135 24.676 21.0035C24.966 21.2935 24.966 21.7735 24.676 22.0635Z" fill="#E40D75"/>
</svg>
