<svg width="42" height="42" viewBox="0 0 42 42" fill="none" xmlns="http://www.w3.org/2000/svg">
<rect width="42" height="42" rx="21" fill="white"/>
<path d="M23.6859 11.3359H18.9859C17.9459 11.3359 17.0959 12.1759 17.0959 13.2159V14.1559C17.0959 15.1959 17.9359 16.0359 18.9759 16.0359H23.6859C24.7259 16.0359 25.5659 15.1959 25.5659 14.1559V13.2159C25.5759 12.1759 24.7259 11.3359 23.6859 11.3359Z" fill="#3C166B"/>
<path d="M26.576 14.1559C26.576 15.7459 25.276 17.0459 23.686 17.0459H18.986C17.396 17.0459 16.096 15.7459 16.096 14.1559C16.096 13.5959 15.496 13.2459 14.996 13.5059C13.586 14.2559 12.626 15.7459 12.626 17.4559V26.8659C12.626 29.3259 14.636 31.3359 17.096 31.3359H25.576C28.036 31.3359 30.046 29.3259 30.046 26.8659V17.4559C30.046 15.7459 29.086 14.2559 27.676 13.5059C27.176 13.2459 26.576 13.5959 26.576 14.1559ZM24.676 22.0659L20.676 26.0659C20.526 26.2159 20.336 26.2859 20.146 26.2859C19.956 26.2859 19.766 26.2159 19.616 26.0659L18.116 24.5659C17.826 24.2759 17.826 23.7959 18.116 23.5059C18.406 23.2159 18.886 23.2159 19.176 23.5059L20.146 24.4759L23.616 21.0059C23.906 20.7159 24.386 20.7159 24.676 21.0059C24.966 21.2959 24.966 21.7759 24.676 22.0659Z" fill="#3C166B"/>
</svg>
