<svg width="42" height="42" viewBox="0 0 42 42" fill="none" xmlns="http://www.w3.org/2000/svg">
<rect width="42" height="42" rx="21" fill="white"/>
<path d="M23.6859 11.332H18.9859C17.9459 11.332 17.0959 12.172 17.0959 13.212V14.152C17.0959 15.192 17.9359 16.032 18.9759 16.032H23.6859C24.7259 16.032 25.5659 15.192 25.5659 14.152V13.212C25.5759 12.172 24.7259 11.332 23.6859 11.332Z" fill="#002A3A"/>
<path d="M26.576 14.152C26.576 15.742 25.276 17.042 23.686 17.042H18.986C17.396 17.042 16.096 15.742 16.096 14.152C16.096 13.592 15.496 13.242 14.996 13.502C13.586 14.252 12.626 15.742 12.626 17.452V26.862C12.626 29.322 14.636 31.332 17.096 31.332H25.576C28.036 31.332 30.046 29.322 30.046 26.862V17.452C30.046 15.742 29.086 14.252 27.676 13.502C27.176 13.242 26.576 13.592 26.576 14.152ZM24.676 22.062L20.676 26.062C20.526 26.212 20.336 26.282 20.146 26.282C19.956 26.282 19.766 26.212 19.616 26.062L18.116 24.562C17.826 24.272 17.826 23.792 18.116 23.502C18.406 23.212 18.886 23.212 19.176 23.502L20.146 24.472L23.616 21.002C23.906 20.712 24.386 20.712 24.676 21.002C24.966 21.292 24.966 21.772 24.676 22.062Z" fill="#002A3A"/>
</svg>
