<svg width="42" height="42" viewBox="0 0 42 42" fill="none" xmlns="http://www.w3.org/2000/svg">
<rect width="42" height="42" rx="21" fill="white"/>
<path d="M23.6838 11.333H18.9837C17.9437 11.333 17.0938 12.173 17.0938 13.213V14.153C17.0938 15.193 17.9338 16.033 18.9738 16.033H23.6838C24.7238 16.033 25.5637 15.193 25.5637 14.153V13.213C25.5737 12.173 24.7238 11.333 23.6838 11.333Z" fill="#00466D"/>
<path d="M26.574 14.153C26.574 15.743 25.274 17.043 23.684 17.043H18.984C17.394 17.043 16.094 15.743 16.094 14.153C16.094 13.593 15.494 13.243 14.994 13.503C13.584 14.253 12.624 15.743 12.624 17.453V26.863C12.624 29.323 14.634 31.333 17.094 31.333H25.574C28.034 31.333 30.044 29.323 30.044 26.863V17.453C30.044 15.743 29.084 14.253 27.674 13.503C27.174 13.243 26.574 13.593 26.574 14.153ZM24.674 22.063L20.674 26.063C20.524 26.213 20.334 26.283 20.144 26.283C19.954 26.283 19.764 26.213 19.614 26.063L18.114 24.563C17.824 24.273 17.824 23.793 18.114 23.503C18.404 23.213 18.884 23.213 19.174 23.503L20.144 24.473L23.614 21.003C23.904 20.713 24.384 20.713 24.674 21.003C24.964 21.293 24.964 21.773 24.674 22.063Z" fill="#00466D"/>
</svg>
