<svg width="39" height="39" viewBox="0 0 39 39" fill="none" xmlns="http://www.w3.org/2000/svg">
<rect x="0.462891" y="0.363281" width="38.0805" height="38.0805" rx="8" fill="#23415A"/>
<g clip-path="url(#clip0_1429_8112)">
<rect width="13.7548" height="13.1817" transform="translate(12.9102 12.8125)" fill="#23415A"/>
<path d="M12.9102 14.3438C12.9102 13.9 13.0651 13.5338 13.3748 13.2454C13.6846 12.9569 14.0874 12.8126 14.583 12.8126C15.0699 12.8126 15.4637 12.9546 15.7647 13.2387C16.0745 13.5316 16.2294 13.9133 16.2294 14.3838C16.2294 14.8098 16.0789 15.1649 15.778 15.449C15.4682 15.7419 15.061 15.8884 14.5565 15.8884H14.5432C14.0564 15.8884 13.6625 15.7419 13.3616 15.449C13.0606 15.156 12.9102 14.7877 12.9102 14.3438ZM13.0828 25.9943V17.1H16.0302V25.9943H13.0828ZM17.6633 25.9943H20.6107V21.0279C20.6107 20.7172 20.6461 20.4775 20.717 20.3089C20.8409 20.0071 21.029 19.7519 21.2812 19.5433C21.5335 19.3347 21.8499 19.2304 22.2305 19.2304C23.2219 19.2304 23.7175 19.9006 23.7175 21.2409V25.9943H26.665V20.8947C26.665 19.581 26.3552 18.5846 25.7356 17.9055C25.116 17.2265 24.2973 16.887 23.2794 16.887C22.1376 16.887 21.248 17.3796 20.6107 18.3649V18.3915H20.5975L20.6107 18.3649V17.1H17.6633C17.681 17.384 17.6898 18.2673 17.6898 19.7497C17.6898 21.232 17.681 23.3136 17.6633 25.9943Z" fill="white"/>
</g>
<defs>
<clipPath id="clip0_1429_8112">
<rect width="13.7548" height="13.1817" fill="white" transform="translate(12.9102 12.8125)"/>
</clipPath>
</defs>
</svg>
