<svg width="39" height="39" viewBox="0 0 39 39" fill="none" xmlns="http://www.w3.org/2000/svg">
<rect x="0.839844" y="0.363281" width="38.0805" height="38.0805" rx="8" fill="#23415A"/>
<g clip-path="url(#clip0_1_6)">
<path d="M16.4305 19.4948C16.4305 18.0115 17.6326 16.8088 19.1159 16.8088C20.5991 16.8088 21.8018 18.0115 21.8018 19.4948C21.8018 20.978 20.5991 22.1808 19.1159 22.1808C17.6326 22.1808 16.4305 20.978 16.4305 19.4948ZM14.9785 19.4948C14.9785 21.7798 16.8308 23.6321 19.1159 23.6321C21.4009 23.6321 23.2532 21.7798 23.2532 19.4948C23.2532 17.2097 21.4009 15.3575 19.1159 15.3575C16.8308 15.3575 14.9785 17.2097 14.9785 19.4948ZM22.4501 15.1934C22.4501 15.7271 22.8829 16.1606 23.4172 16.1606C23.9509 16.1606 24.3843 15.7271 24.3843 15.1934C24.3843 14.6598 23.9515 14.227 23.4172 14.227C22.8829 14.227 22.4501 14.6598 22.4501 15.1934ZM15.8604 26.0532C15.0749 26.0174 14.6479 25.8866 14.3642 25.7759C13.988 25.6295 13.7198 25.4551 13.4374 25.1733C13.1556 24.8915 12.9805 24.6233 12.8347 24.2471C12.7241 23.9634 12.5933 23.5364 12.5575 22.7509C12.5184 21.9015 12.5106 21.6464 12.5106 19.4948C12.5106 17.3431 12.5191 17.0887 12.5575 16.2387C12.5933 15.4531 12.7247 15.0268 12.8347 14.7424C12.9811 14.3662 13.1556 14.0981 13.4374 13.8156C13.7192 13.5338 13.9873 13.3588 14.3642 13.213C14.6479 13.1023 15.0749 12.9715 15.8604 12.9357C16.7098 12.8967 16.9649 12.8889 19.1159 12.8889C21.2675 12.8889 21.522 12.8973 22.372 12.9357C23.1575 12.9715 23.5838 13.103 23.8682 13.213C24.2444 13.3588 24.5126 13.5338 24.795 13.8156C25.0768 14.0974 25.2512 14.3662 25.3977 14.7424C25.5083 15.0262 25.6391 15.4531 25.6749 16.2387C25.714 17.0887 25.7218 17.3431 25.7218 19.4948C25.7218 21.6458 25.714 21.9009 25.6749 22.7509C25.6391 23.5364 25.5077 23.9634 25.3977 24.2471C25.2512 24.6233 25.0768 24.8915 24.795 25.1733C24.5132 25.4551 24.2444 25.6295 23.8682 25.7759C23.5845 25.8866 23.1575 26.0174 22.372 26.0532C21.5226 26.0922 21.2675 26.1001 19.1159 26.1001C16.9649 26.1001 16.7098 26.0922 15.8604 26.0532ZM15.794 11.4863C14.9362 11.5254 14.3505 11.6614 13.8383 11.8605C13.3085 12.0662 12.8594 12.3422 12.411 12.7899C11.9632 13.2377 11.6873 13.6868 11.4816 14.2172C11.2825 14.7294 11.1465 15.3151 11.1074 16.1729C11.0677 17.032 11.0586 17.3067 11.0586 19.4948C11.0586 21.6829 11.0677 21.9575 11.1074 22.8166C11.1465 23.6744 11.2825 24.2602 11.4816 24.7724C11.6873 25.3021 11.9626 25.7519 12.411 26.1996C12.8588 26.6474 13.3079 26.9227 13.8383 27.129C14.3511 27.3282 14.9362 27.4642 15.794 27.5032C16.6538 27.5423 16.9278 27.5521 19.1159 27.5521C21.3046 27.5521 21.5786 27.5429 22.4377 27.5032C23.2955 27.4642 23.8813 27.3282 24.3935 27.129C24.9232 26.9227 25.3723 26.6474 25.8207 26.1996C26.2685 25.7519 26.5438 25.3021 26.7501 24.7724C26.9493 24.2602 27.0859 23.6744 27.1243 22.8166C27.1634 21.9569 27.1725 21.6829 27.1725 19.4948C27.1725 17.3067 27.1634 17.032 27.1243 16.1729C27.0853 15.3151 26.9493 14.7294 26.7501 14.2172C26.5438 13.6874 26.2685 13.2383 25.8207 12.7899C25.373 12.3422 24.9232 12.0662 24.3941 11.8605C23.8813 11.6614 23.2955 11.5247 22.4384 11.4863C21.5793 11.4473 21.3046 11.4375 19.1165 11.4375C16.9278 11.4375 16.6538 11.4466 15.794 11.4863Z" fill="white"/>
</g>
<defs>
<clipPath id="clip0_1_6">
<rect width="16.1146" height="16.1146" fill="white" transform="translate(11.0586 11.4375)"/>
</clipPath>
</defs>
</svg>
