<svg width="39" height="39" viewBox="0 0 39 39" fill="none" xmlns="http://www.w3.org/2000/svg">
<rect x="0.1875" y="0.363281" width="38.0805" height="38.0805" rx="8" fill="#23415A"/>
<g clip-path="url(#clip0_1429_8117)">
<rect x="11.1719" y="11.3478" width="16.111" height="16.111" rx="8.05549" fill="#23415A"/>
<path d="M26.6103 17.8668C26.6435 16.906 26.4333 15.9523 25.9994 15.0944C25.705 14.7424 25.2964 14.5048 24.8448 14.4231C22.9769 14.2536 21.1013 14.1841 19.2261 14.215C17.3576 14.1827 15.4888 14.25 13.6275 14.4164C13.2595 14.4833 12.919 14.6559 12.6474 14.9131C12.0432 15.4703 11.9761 16.4235 11.909 17.2291C11.8116 18.6774 11.8116 20.1307 11.909 21.5791C11.9284 22.0325 11.9959 22.4825 12.1104 22.9216C12.1913 23.2607 12.3551 23.5744 12.587 23.8346C12.8604 24.1054 13.2089 24.2879 13.5872 24.3582C15.0345 24.5368 16.4927 24.6109 17.9506 24.5797C20.3001 24.6133 22.361 24.5797 24.7978 24.3918C25.1854 24.3257 25.5437 24.1431 25.8248 23.8682C26.0128 23.6801 26.1532 23.45 26.2343 23.1969C26.4744 22.4602 26.5923 21.6892 26.5834 20.9145C26.6103 20.5386 26.6103 18.2696 26.6103 17.8668ZM17.7089 21.3173V17.162L21.683 19.2497C20.5686 19.8673 19.0985 20.5654 17.7089 21.3173Z" fill="white"/>
</g>
<defs>
<clipPath id="clip0_1429_8117">
<rect x="11.1719" y="11.3478" width="16.111" height="16.111" rx="8.05549" fill="white"/>
</clipPath>
</defs>
</svg>
