<svg width="60" height="61" viewBox="0 0 60 61" fill="none" xmlns="http://www.w3.org/2000/svg">
<path d="M49.58 5.05865H31.25V0.0332031H28.75V5.05865H10.42L0.0975 29.6984L0 31.4423C0 37.6763 5.0475 42.7495 11.25 42.7495C17.4525 42.7495 22.5 37.6763 22.5 31.4423V30.1859L13.125 7.57138H28.75V57.8259H10V60.3386H50V57.8259H31.25V7.57138H46.8675L37.5975 29.6984L37.5 31.4423C37.5 37.6763 42.5475 42.7495 48.75 42.7495C54.9525 42.7495 60 37.6763 60 31.4423V30.1859L49.58 5.05865ZM11.25 40.2368C6.85 40.2368 3.1975 36.9552 2.5875 32.6986H19.9125C19.3025 36.9552 15.65 40.2368 11.25 40.2368ZM2.6075 30.1859L11.25 9.55392L19.8925 30.1859H2.6075ZM48.75 9.55392L57.3925 30.1859H40.1075L48.75 9.55392ZM48.75 40.2368C44.35 40.2368 40.6975 36.9552 40.0875 32.6986H57.4125C56.8025 36.9552 53.15 40.2368 48.75 40.2368Z" fill="#260055"/>
</svg>
