<svg width="40" height="40" viewBox="0 0 40 40" fill="none" xmlns="http://www.w3.org/2000/svg">
<path d="M13.3333 0C7.81833 0 3.33333 4.485 3.33333 10C3.33333 15.515 7.81833 20 13.3333 20C18.8483 20 23.3333 15.515 23.3333 10C23.3333 4.485 18.8483 0 13.3333 0ZM13.3333 18.3333C8.73833 18.3333 5 14.595 5 10C5 5.405 8.73833 1.66667 13.3333 1.66667C17.9283 1.66667 21.6667 5.405 21.6667 10C21.6667 14.595 17.9283 18.3333 13.3333 18.3333ZM8.33333 23.3333H18.3333V25H8.33333C4.65667 25 1.66667 27.99 1.66667 31.6667V40H0V31.6667C0 27.0717 3.73833 23.3333 8.33333 23.3333ZM36.6667 25V22.5C36.6667 19.2833 34.05 16.6667 30.8333 16.6667C27.6167 16.6667 25 19.2833 25 22.5V25H21.6667V35.8333C21.6667 38.13 23.5367 40 25.8333 40H35.8333C38.13 40 40 38.13 40 35.8333V25H36.6667ZM26.6667 22.5C26.6667 20.2033 28.5367 18.3333 30.8333 18.3333C33.13 18.3333 35 20.2033 35 22.5V25H26.6667V22.5ZM38.3333 35.8333C38.3333 37.2117 37.2117 38.3333 35.8333 38.3333H25.8333C24.455 38.3333 23.3333 37.2117 23.3333 35.8333V26.6667H38.3333V35.8333ZM31.6667 34.1667H30V30.8333H31.6667V34.1667Z" fill="#3C166B"/>
</svg>
