<svg width="40" height="40" viewBox="0 0 40 40" fill="none" xmlns="http://www.w3.org/2000/svg">
<path d="M29.1667 18.3333C23.1933 18.3333 18.3333 23.1933 18.3333 29.1667C18.3333 35.14 23.1933 40 29.1667 40C35.14 40 40 35.14 40 29.1667C40 23.1933 35.14 18.3333 29.1667 18.3333ZM29.1667 38.3333C24.1133 38.3333 20 34.22 20 29.1667C20 24.1133 24.1133 20 29.1667 20C34.22 20 38.3333 24.1133 38.3333 29.1667C38.3333 34.22 34.22 38.3333 29.1667 38.3333ZM34.065 25.915L35.2333 27.1033L29.4733 32.7683C29.1117 33.1317 28.6233 33.3333 28.1033 33.3333C27.5833 33.3333 27.0967 33.1317 26.7283 32.7617L23.645 29.7733L24.8033 28.575L27.8967 31.575C28.0617 31.74 28.1583 31.7233 28.2967 31.5867L34.065 25.915ZM20.0383 18.3333H6.66667V16.6667H22.495C21.6167 17.1367 20.7933 17.6967 20.0383 18.3333ZM20.0383 40H0V4.16667C0 1.86833 1.86833 0 4.16667 0H25.8333C28.1317 0 30 1.86833 30 4.16667V15.025C29.7233 15.0083 29.4467 15 29.1667 15C28.8867 15 28.61 15.0083 28.3333 15.025V4.16667C28.3333 2.78833 27.2117 1.66667 25.8333 1.66667H4.16667C2.78833 1.66667 1.66667 2.78833 1.66667 4.16667V38.3333H18.3667C18.8767 38.9333 19.4367 39.4917 20.04 40H20.0383ZM23.3333 10H6.66667V8.33333H23.3333V10ZM6.66667 25H15V26.6667H6.66667V25Z" fill="#3C166B"/>
</svg>
