<svg width="40" height="40" viewBox="0 0 40 40" fill="none" xmlns="http://www.w3.org/2000/svg">
<path d="M37.7913 28.3333C37.7913 27.1167 37.5276 25.96 37.0523 24.9167L40 23.2317L39.1619 21.7883L36.2125 23.475C34.8402 21.585 32.692 20.285 30.2347 20.0417V16.6667H28.5551V20.0417C26.0978 20.285 23.9479 21.585 22.5774 23.475L19.628 21.7883L18.7898 23.2317L21.7376 24.9167C21.2622 25.96 20.9985 27.1167 20.9985 28.3333C20.9985 29.55 21.2622 30.7067 21.7376 31.75L18.7898 33.435L19.628 34.8783L22.5774 33.1917C23.9496 35.0817 26.0978 36.3817 28.5551 36.625V40H30.2347V36.625C32.692 36.3817 34.8419 35.0817 36.2125 33.1917L39.1619 34.8783L40 33.435L37.0523 31.75C37.5276 30.7067 37.7913 29.55 37.7913 28.3333ZM29.3932 35C25.688 35 22.6748 32.01 22.6748 28.3333C22.6748 24.6567 25.688 21.6667 29.3932 21.6667C33.0985 21.6667 36.1117 24.6567 36.1117 28.3333C36.1117 32.01 33.0985 35 29.3932 35ZM10.9175 30H16.7961V31.6667H10.9175C9.52845 31.6667 8.39807 32.7883 8.39807 34.1667V40H6.71845V34.1667C6.71845 31.87 8.60298 30 10.9175 30ZM10.123 15H4.19903C2.80999 15 1.67961 16.1217 1.67961 17.5V23.3333H0V17.5C0 15.2033 1.88453 13.3333 4.19903 13.3333H12.5971C12.9666 13.3333 13.321 13.3883 13.662 13.4783C12.3485 13.7067 11.151 14.24 10.123 15ZM15.1165 16.6667C16.4132 16.6667 17.5872 17.1683 18.4808 17.9717C18.0962 18.3717 17.7367 18.7933 17.3958 19.2333C16.7961 18.68 15.9983 18.3333 15.1165 18.3333C13.2639 18.3333 11.7573 19.8283 11.7573 21.6667C11.7573 23.355 13.0321 24.7383 14.6765 24.955C14.5522 25.4917 14.4514 26.0367 14.3876 26.5933C11.9572 26.2383 10.0794 24.175 10.0794 21.6667C10.0794 18.91 12.3401 16.6667 15.1182 16.6667H15.1165ZM8.39807 10C11.1761 10 13.4369 7.75667 13.4369 5C13.4369 2.24333 11.1761 0 8.39807 0C5.61999 0 3.35923 2.24333 3.35923 5C3.35923 7.75667 5.61999 10 8.39807 10ZM8.39807 1.66667C10.2507 1.66667 11.7573 3.16167 11.7573 5C11.7573 6.83833 10.2507 8.33333 8.39807 8.33333C6.54545 8.33333 5.03884 6.83833 5.03884 5C5.03884 3.16167 6.54545 1.66667 8.39807 1.66667ZM21.835 10C24.6131 10 26.8738 7.75667 26.8738 5C26.8738 2.24333 24.6131 0 21.835 0C19.0569 0 16.7961 2.24333 16.7961 5C16.7961 7.75667 19.0569 10 21.835 10ZM21.835 1.66667C23.6876 1.66667 25.1942 3.16167 25.1942 5C25.1942 6.83833 23.6876 8.33333 21.835 8.33333C19.9824 8.33333 18.4757 6.83833 18.4757 5C18.4757 3.16167 19.9824 1.66667 21.835 1.66667ZM20.11 15C18.9544 14.145 17.5738 13.5983 16.0672 13.4283C16.3258 13.3733 16.5895 13.3333 16.865 13.3333H26.8738V15H20.11Z" fill="#3C166B"/>
</svg>
