<svg width="39" height="40" viewBox="0 0 39 40" fill="none" xmlns="http://www.w3.org/2000/svg">
<path d="M18.4008 38.6032C18.5551 39.0366 18.327 39.5133 17.8908 39.6666C17.2634 39.8867 16.6059 40 15.9332 40H14.2556C11.018 40 8.3843 37.3831 8.3843 34.1661V33.586C8.3843 30.7407 7.17983 28.0504 5.08125 26.2003C1.28836 22.8632 -0.556922 17.8711 0.147639 12.8456C1.07867 6.22321 6.61283 0.862659 13.3095 0.0992477C21.2442 -0.805845 28.5633 4.57471 29.9573 12.3522C30.0395 12.8055 29.7342 13.2389 29.2796 13.3189C28.8183 13.3989 28.3888 13.0989 28.3066 12.6455C27.0686 5.73316 20.5615 0.954335 13.5008 1.75608C7.55224 2.43615 2.63373 7.19664 1.80839 13.0772C1.181 17.5477 2.81994 21.9882 6.19177 24.9551C7.73677 26.3153 8.86743 28.0638 9.49482 30.0006H14.254V17.4294C11.8769 17.031 10.0601 14.9724 10.0601 12.4988C10.0601 12.0388 10.4359 11.6654 10.8989 11.6654C11.3619 11.6654 11.7377 12.0388 11.7377 12.4988C11.7377 14.3374 13.2424 15.8325 15.0927 15.8325C16.943 15.8325 18.4478 14.3374 18.4478 12.4988C18.4478 12.0388 18.8235 11.6654 19.2865 11.6654C19.7495 11.6654 20.1253 12.0388 20.1253 12.4988C20.1253 14.9724 18.3085 17.031 15.9315 17.4294V30.8341C15.9315 31.2941 15.5557 31.6675 15.0927 31.6675H9.90078C10.0065 32.2975 10.0601 32.9393 10.0601 33.5877V34.1677C10.0601 36.4646 11.9423 38.3348 14.254 38.3348H15.9315C16.4129 38.3348 16.8827 38.2548 17.3289 38.0981C17.7617 37.9431 18.2431 38.1698 18.3991 38.6049L18.4008 38.6032ZM31.8697 28.3321C31.8697 30.1707 30.3649 31.6658 28.5146 31.6658C26.6643 31.6658 25.1596 30.1707 25.1596 28.3321C25.1596 26.4936 26.6643 24.9985 28.5146 24.9985C30.3649 24.9985 31.8697 26.4936 31.8697 28.3321ZM30.1922 28.3321C30.1922 27.4137 29.4406 26.6653 28.5146 26.6653C27.5886 26.6653 26.8371 27.4137 26.8371 28.3321C26.8371 29.2506 27.5886 29.999 28.5146 29.999C29.4406 29.999 30.1922 29.2506 30.1922 28.3321ZM38.9153 32.3192C39.0881 32.9659 38.9941 33.6393 38.6553 34.2144C38.3164 34.7911 37.7729 35.2028 37.122 35.3729C36.4745 35.5429 35.7968 35.4512 35.213 35.1128L34.1377 34.4894C33.2385 35.3045 32.1817 35.9096 31.0292 36.2696V37.4997C31.0292 38.8782 29.9003 40 28.5129 40C27.1256 40 25.9967 38.8782 25.9967 37.4997V36.2696C24.8442 35.9096 23.789 35.3045 22.8882 34.4894L21.8129 35.1128C21.2308 35.4512 20.5548 35.5429 19.9039 35.3729C19.253 35.2028 18.7095 34.7911 18.3706 34.2144C18.0318 33.6393 17.9395 32.9659 18.1089 32.3192C18.2784 31.6725 18.6944 31.1308 19.2748 30.7941L20.3585 30.1657C20.2008 29.5239 20.1236 28.9205 20.1236 28.3321C20.1236 27.7437 20.2008 27.1404 20.3585 26.497L19.2748 25.8686C18.6944 25.5319 18.28 24.9901 18.1089 24.3434C17.9378 23.6967 18.0318 23.0233 18.3706 22.4482C18.7095 21.8715 19.253 21.4614 19.9039 21.2914C20.5548 21.1214 21.2325 21.2147 21.8129 21.5498L22.8882 22.1732C23.789 21.3598 24.8442 20.753 25.9967 20.3947V19.1645C25.9967 17.7861 27.1256 16.6643 28.5129 16.6643C29.9003 16.6643 31.0292 17.7861 31.0292 19.1645V20.3947C32.1817 20.7547 33.2352 21.3598 34.1377 22.1732L35.2147 21.5498C35.7968 21.2131 36.4745 21.1231 37.122 21.2914C37.7729 21.4614 38.3164 21.8731 38.6553 22.4499C38.9941 23.0266 39.0881 23.7 38.9153 24.3451C38.7442 24.9918 38.3315 25.5319 37.7511 25.8702L36.6674 26.497C36.8251 27.1387 36.9023 27.7437 36.9023 28.3321C36.9023 28.9205 36.8251 29.5256 36.6674 30.1657L37.7511 30.7941C38.3332 31.1308 38.7459 31.6725 38.9153 32.3192ZM37.2931 32.7426C37.2361 32.5276 37.0985 32.3475 36.9056 32.2359L35.2633 31.2824C34.9245 31.0858 34.7684 30.684 34.8859 30.3123C35.1174 29.5823 35.2247 28.9522 35.2247 28.3338C35.2247 27.7154 35.1174 27.0853 34.8859 26.3536C34.7684 25.9819 34.9245 25.5802 35.2633 25.3835L36.9056 24.4317C37.0985 24.3201 37.2361 24.14 37.2931 23.925C37.3502 23.71 37.32 23.485 37.2059 23.2933C37.0935 23.1016 36.9106 22.9633 36.6942 22.9083C36.4711 22.8499 36.2497 22.8832 36.0585 22.9933L34.4279 23.9384C34.0924 24.1334 33.6613 24.0734 33.3946 23.79C32.4719 22.8132 31.2993 22.1415 30.0043 21.8481C29.6218 21.7615 29.3517 21.4248 29.3517 21.0364V19.1695C29.3517 18.7095 28.9743 18.3361 28.5129 18.3361C28.0516 18.3361 27.6742 18.7095 27.6742 19.1695V21.0364C27.6742 21.4248 27.4041 21.7631 27.0216 21.8481C25.7266 22.1415 24.5523 22.8132 23.6313 23.79C23.3646 24.0734 22.9318 24.1334 22.598 23.9384L20.9691 22.9933C20.7745 22.8816 20.548 22.8499 20.3333 22.9083C20.1169 22.9649 19.9357 23.1016 19.8217 23.2933C19.7093 23.4866 19.6774 23.71 19.7344 23.925C19.7915 24.14 19.929 24.3217 20.122 24.4334L21.7643 25.3852C22.1031 25.5802 22.2591 25.9819 22.1417 26.3536C21.9102 27.087 21.8028 27.7171 21.8028 28.3338C21.8028 28.9505 21.9102 29.5806 22.1417 30.314C22.2591 30.6857 22.1031 31.0874 21.7643 31.2841L20.122 32.2375C19.929 32.3492 19.7898 32.5309 19.7344 32.7459C19.6774 32.9609 19.7076 33.1843 19.8217 33.376C19.9341 33.5693 20.1169 33.706 20.3333 33.7627C20.5514 33.8194 20.7762 33.7894 20.9691 33.676L22.5997 32.7309C22.7305 32.6542 22.8765 32.6176 23.0224 32.6176C23.2489 32.6176 23.472 32.7076 23.633 32.8809C24.5557 33.8577 25.7283 34.5294 27.0233 34.8228C27.4058 34.9095 27.6759 35.2462 27.6759 35.6346V37.5014C27.6759 37.9615 28.0533 38.3348 28.5146 38.3348C28.9759 38.3348 29.3534 37.9615 29.3534 37.5014V35.6346C29.3534 35.2462 29.6235 34.9078 30.0059 34.8228C31.301 34.5294 32.4753 33.8577 33.3962 32.8809C33.663 32.5959 34.0941 32.5342 34.4296 32.7309L36.0601 33.676C36.2564 33.7894 36.4812 33.8177 36.6959 33.7627C36.9123 33.706 37.0935 33.5693 37.2076 33.3777C37.32 33.1843 37.3518 32.9609 37.2948 32.7459L37.2931 32.7426Z" fill="#3C166B"/>
</svg>
