<svg width="40" height="40" viewBox="0 0 40 40" fill="none" xmlns="http://www.w3.org/2000/svg">
<path d="M13.3333 0C7.81833 0 3.33333 4.47959 3.33333 9.98793C3.33333 15.4963 7.81833 19.9759 13.3333 19.9759C18.8483 19.9759 23.3333 15.4963 23.3333 9.98793C23.3333 4.47959 18.8483 0 13.3333 0ZM13.3333 18.3112C8.73833 18.3112 5 14.5774 5 9.98793C5 5.39848 8.73833 1.66466 13.3333 1.66466C17.9283 1.66466 21.6667 5.39848 21.6667 9.98793C21.6667 14.5774 17.9283 18.3112 13.3333 18.3112ZM8.33333 23.3052H18.3333V24.9698H8.33333C4.65667 24.9698 1.66667 27.9562 1.66667 31.6284V39.9517H0V31.6284C0 27.039 3.73833 23.3052 8.33333 23.3052ZM37.145 19.1269L30.8333 17.0377L24.5217 19.1269C22.815 19.6929 21.6667 21.281 21.6667 23.0771V28.955C21.6667 34.9694 28.1133 38.66 30.09 39.6471L30.7983 40L31.5333 39.7037C33.5183 38.9063 40 35.7734 40 28.9533V23.0755C40 21.2793 38.8533 19.6929 37.145 19.1269ZM38.3333 28.955C38.3333 34.7297 32.6533 37.4597 30.91 38.1606L30.8733 38.1772L30.8367 38.1589C29.0767 37.28 23.335 34.0156 23.335 28.9567V23.0788C23.335 22.0017 24.0233 21.0479 25.0467 20.7083L30.835 18.7923L36.6233 20.7083C37.6467 21.0479 38.335 22.0001 38.335 23.0788V28.9567L38.3333 28.955Z" fill="#3C166B"/>
</svg>
