<svg width="40" height="39" viewBox="0 0 40 39" fill="none" xmlns="http://www.w3.org/2000/svg">
<path d="M40 7.1005C40 3.91945 37.3833 1.33176 34.1667 1.33176C30.95 1.33176 28.3333 3.91945 28.3333 7.1005C28.3333 10.0014 30.51 12.4094 33.3333 12.8099V28.5273C33.3333 29.8903 32.2117 30.9996 30.8333 30.9996H20.5717L25.665 25.9626L24.4867 24.7974L19.06 30.1639C18.5917 30.6271 18.3333 31.2435 18.3333 31.8995C18.3333 32.5555 18.5917 33.1703 19.06 33.6334L24.4867 39L25.665 37.8347L20.4217 32.6494H30.8333C33.13 32.6494 35 30.8001 35 28.5289V12.8099C37.8233 12.4094 40 10.0014 40 7.1005ZM34.1667 11.221C31.87 11.221 30 9.37173 30 7.1005C30 4.82926 31.87 2.97997 34.1667 2.97997C36.4633 2.97997 38.3333 4.82926 38.3333 7.1005C38.3333 9.37173 36.4633 11.221 34.1667 11.221ZM20.94 5.36493L15.5133 0L14.335 1.16529L19.505 6.27639H9.16667C6.87 6.27639 5 8.12569 5 10.3969V26.1143C2.17667 26.5148 0 28.9228 0 31.8237C0 35.0047 2.61667 37.5924 5.83333 37.5924C9.05 37.5924 11.6667 35.0047 11.6667 31.8237C11.6667 28.9228 9.49 26.5148 6.66667 26.1143V10.3969C6.66667 9.03385 7.78833 7.9246 9.16667 7.9246H19.505L14.335 13.0357L15.5133 14.201L20.94 8.83607C21.9083 7.87845 21.9083 6.32089 20.94 5.36493ZM10 31.8237C10 34.0949 8.13 35.9442 5.83333 35.9442C3.53667 35.9442 1.66667 34.0949 1.66667 31.8237C1.66667 29.5524 3.53667 27.7032 5.83333 27.7032C8.13 27.7032 10 29.5524 10 31.8237Z" fill="#3C166B"/>
</svg>
