<svg width="37" height="41" viewBox="0 0 37 41" fill="none" xmlns="http://www.w3.org/2000/svg">
<path d="M25.271 21.0674V21.9101H23.5892V21.0674C23.5892 19.6736 22.4573 18.5393 21.0665 18.5393H16.021C14.6301 18.5393 13.4983 19.6736 13.4983 21.0674C13.4983 22.5438 14.5528 23.7843 16.0092 24.0185L21.3456 24.8781C23.6211 25.2438 25.271 27.1854 25.271 29.4944C25.271 31.8169 23.384 33.7079 21.0665 33.7079H19.3846V37.0787H17.7028V33.7079H16.021C13.7035 33.7079 11.8165 31.8169 11.8165 29.4944V28.6517H13.4983V29.4944C13.4983 30.8882 14.6301 32.0225 16.021 32.0225H21.0665C22.4573 32.0225 23.5892 30.8882 23.5892 29.4944C23.5892 28.018 22.5347 26.7775 21.0782 26.5433L15.7418 25.6837C13.4663 25.318 11.8165 23.3764 11.8165 21.0674C11.8165 18.7449 13.7035 16.8539 16.021 16.8539H17.7028V13.4831H19.3846V16.8539H21.0665C23.384 16.8539 25.271 18.7449 25.271 21.0674ZM37 30.7584C37 36.1011 32.6609 40.4494 27.3295 40.4494H9.67045C4.33909 40.4494 0 36.1011 0 30.7584C0 21.9826 7.2705 10.9449 15.6712 8.81966C13.2998 7.4191 10.1346 4.8118 10.1346 0.842697V0H26.9528V0.842697C26.9528 4.81685 23.7473 7.42584 21.349 8.82472C29.7396 10.9618 37 21.9893 37 30.7584ZM18.5017 8.36292C19.7395 7.84888 24.5781 5.59888 25.2037 1.68539H11.882C12.4993 5.59719 17.2756 7.84551 18.5017 8.36292ZM35.3182 30.7584C35.3182 21.7854 27.1614 10.2185 18.5437 10.1124C9.92609 10.2202 1.68182 21.7854 1.68182 30.7584C1.68182 35.1725 5.26577 38.764 9.67045 38.764H27.3295C31.7342 38.764 35.3182 35.1725 35.3182 30.7584Z" fill="#3C166B"/>
</svg>
