<svg width="40" height="40" viewBox="0 0 40 40" fill="none" xmlns="http://www.w3.org/2000/svg">
<path d="M17.554 16.5098L20.5501 18.2091L21.3965 16.7597L18.4173 15.0604C18.8912 14.0108 19.179 12.8613 19.179 11.6451C19.179 10.429 18.8912 9.27947 18.4173 8.2299L21.3965 6.53061L20.5501 5.08122L17.554 6.78051C16.1659 4.89796 14.0161 3.63182 11.5446 3.38192V0H9.85188V3.41524C7.38045 3.66514 5.23064 4.93128 3.84257 6.81383L0.846382 5.11454L0 6.56393L2.97926 8.26322C2.50529 9.31279 2.21752 10.4623 2.21752 11.6785C2.21752 12.8946 2.50529 14.0441 2.97926 15.0937L0.0169276 16.7597L0.863309 18.2091L3.8595 16.5098C5.24757 18.3923 7.39738 19.6585 9.86881 19.9084V23.3236H11.5616V19.9084C14.033 19.6585 16.1828 18.3923 17.5709 16.5098H17.554ZM10.6983 18.3257C6.95726 18.3257 3.92721 15.3436 3.92721 11.6618C3.92721 7.98001 6.95726 4.99792 10.6983 4.99792C14.4393 4.99792 17.4693 7.98001 17.4693 11.6618C17.4693 15.3436 14.4393 18.3257 10.6983 18.3257ZM37.7825 28.3215C37.7825 27.1054 37.4947 25.9559 37.0207 24.9063L40 23.207L39.1536 21.7576L36.1574 23.4569C34.7694 21.5743 32.6196 20.3082 30.1481 20.0583V16.6431H28.4554V20.0583C25.9839 20.3082 23.8341 21.5743 22.446 23.4569L19.4499 21.7576L18.6035 23.207L21.5827 24.9063C21.1088 25.9559 20.821 27.1054 20.821 28.3215C20.821 29.5377 21.1088 30.6872 21.5827 31.7368L18.6035 33.4361L19.4499 34.8855L22.446 33.1862C23.8341 35.0687 25.9839 36.3349 28.4554 36.5848V40H30.1481V36.5848C32.6196 36.3349 34.7694 35.0687 36.1574 33.1862L39.1536 34.8855L40 33.4361L37.0207 31.7368C37.4947 30.6872 37.7825 29.5377 37.7825 28.3215ZM29.3187 34.9854C25.5777 34.9854 22.5476 32.0033 22.5476 28.3215C22.5476 24.6397 25.5777 21.6576 29.3187 21.6576C33.0597 21.6576 36.0897 24.6397 36.0897 28.3215C36.0897 32.0033 33.0597 34.9854 29.3187 34.9854Z" fill="#3C166B"/>
</svg>
