<svg width="40" height="40" viewBox="0 0 40 40" fill="none" xmlns="http://www.w3.org/2000/svg">
<path d="M15 20C20.515 20 25 15.515 25 10C25 4.485 20.515 0 15 0C9.485 0 5 4.485 5 10C5 15.515 9.485 20 15 20ZM15 1.66667C19.595 1.66667 23.3333 5.405 23.3333 10C23.3333 14.595 19.595 18.3333 15 18.3333C10.405 18.3333 6.66667 14.595 6.66667 10C6.66667 5.405 10.405 1.66667 15 1.66667ZM7.5 23.3333H17.5933C17.2917 23.85 17.0567 24.4067 16.9033 25H7.5C4.28333 25 1.66667 27.6167 1.66667 30.8333V40H0V30.8333C0 26.6983 3.365 23.3333 7.5 23.3333ZM36.6667 23.3333H35V22.5C35 21.1217 33.8783 20 32.5 20H27.5C26.1217 20 25 21.1217 25 22.5V23.3333H23.3333C21.495 23.3333 20 24.8283 20 26.6667V40H40V26.6667C40 24.8283 38.505 23.3333 36.6667 23.3333ZM26.6667 22.5C26.6667 22.04 27.04 21.6667 27.5 21.6667H32.5C32.96 21.6667 33.3333 22.04 33.3333 22.5V23.3333H26.6667V22.5ZM23.3333 25H36.6667C37.585 25 38.3333 25.7483 38.3333 26.6667V30H21.6667V26.6667C21.6667 25.7483 22.415 25 23.3333 25ZM21.6667 38.3333V31.6667H29.1667V35H30.8333V31.6667H38.3333V38.3333H21.6667Z" fill="#3C166B"/>
</svg>
