<svg width="30" height="30" viewBox="0 0 30 30" fill="none" xmlns="http://www.w3.org/2000/svg">
<g clip-path="url(#clip0_1762_1564)">
<path d="M8.175 3.75C8.25 4.8625 8.4375 5.95 8.7375 6.9875L7.2375 8.4875C6.725 6.9875 6.4 5.4 6.2875 3.75H8.175ZM20.5 18.775C21.5625 19.075 22.65 19.2625 23.75 19.3375V21.2C22.1 21.0875 20.5125 20.7625 19 20.2625L20.5 18.775ZM9.375 1.25H5C4.3125 1.25 3.75 1.8125 3.75 2.5C3.75 14.2375 13.2625 23.75 25 23.75C25.6875 23.75 26.25 23.1875 26.25 22.5V18.1375C26.25 17.45 25.6875 16.8875 25 16.8875C23.45 16.8875 21.9375 16.6375 20.5375 16.175C20.4125 16.125 20.275 16.1125 20.15 16.1125C19.825 16.1125 19.5125 16.2375 19.2625 16.475L16.5125 19.225C12.975 17.4125 10.075 14.525 8.275 10.9875L11.025 8.2375C11.375 7.8875 11.475 7.4 11.3375 6.9625C10.875 5.5625 10.625 4.0625 10.625 2.5C10.625 1.8125 10.0625 1.25 9.375 1.25Z" fill="#212120"/>
</g>
<defs>
<clipPath id="clip0_1762_1564">
<rect width="30" height="30" fill="white"/>
</clipPath>
</defs>
</svg>
