<svg width="27" height="27" viewBox="0 0 27 27" fill="none" xmlns="http://www.w3.org/2000/svg">
<path d="M25.9576 19.9091V23.5577C25.959 23.8964 25.8896 24.2317 25.7539 24.5421C25.6182 24.8524 25.4192 25.131 25.1696 25.36C24.92 25.589 24.6253 25.7633 24.3045 25.8718C23.9836 25.9803 23.6436 26.0206 23.3063 25.9902C19.5637 25.5835 15.9688 24.3047 12.8103 22.2564C9.87168 20.3891 7.38026 17.8976 5.51295 14.959C3.45752 11.7862 2.17837 8.17375 1.77916 4.41442C1.74877 4.07809 1.78874 3.73912 1.89652 3.41909C2.00431 3.09906 2.17756 2.80498 2.40523 2.55557C2.6329 2.30616 2.91001 2.10689 3.21891 1.97045C3.52781 1.83401 3.86174 1.76338 4.19944 1.76306H7.8481C8.43834 1.75725 9.01055 1.96626 9.45808 2.35114C9.90561 2.73602 10.1979 3.2705 10.2805 3.85496C10.4345 5.02261 10.7201 6.16909 11.1319 7.27253C11.2955 7.70785 11.3309 8.18095 11.2339 8.63577C11.1369 9.0906 10.9116 9.50808 10.5846 9.83876L9.03999 11.3834C10.7713 14.4282 13.2925 16.9493 16.3373 18.6807L17.8819 17.1361C18.2126 16.8091 18.6301 16.5837 19.0849 16.4867C19.5397 16.3897 20.0128 16.4251 20.4481 16.5888C21.5516 17.0005 22.6981 17.2861 23.8657 17.4401C24.4565 17.5235 24.9961 17.8211 25.3818 18.2763C25.7675 18.7315 25.9724 19.3126 25.9576 19.9091Z" stroke="#FCFCFC" stroke-width="1.78269" stroke-linecap="round" stroke-linejoin="round"/>
</svg>
