<svg width="50" height="50" viewBox="0 0 50 50" fill="none" xmlns="http://www.w3.org/2000/svg">
<circle cx="25" cy="25" r="25" fill="#D4AE31"/>
<path d="M27.9479 13.9395H22.963C21.86 13.9395 20.9585 14.8304 20.9585 15.9334V16.9304C20.9585 18.0334 21.8494 18.9243 22.9524 18.9243H27.9479C29.0509 18.9243 29.9418 18.0334 29.9418 16.9304V15.9334C29.9524 14.8304 29.0509 13.9395 27.9479 13.9395Z" fill="white"/>
<path d="M31.0127 16.9306C31.0127 18.617 29.634 19.9957 27.9476 19.9957H22.9627C21.2764 19.9957 19.8976 18.617 19.8976 16.9306C19.8976 16.3367 19.2612 15.9654 18.7309 16.2412C17.2355 17.0367 16.2173 18.617 16.2173 20.4306V30.4109C16.2173 33.02 18.3491 35.1518 20.9582 35.1518H29.9521C32.5612 35.1518 34.693 33.02 34.693 30.4109V20.4306C34.693 18.617 33.6749 17.0367 32.1794 16.2412C31.6491 15.9654 31.0127 16.3367 31.0127 16.9306ZM28.9976 25.32L24.7552 29.5624C24.5961 29.7215 24.3946 29.7957 24.193 29.7957C23.9915 29.7957 23.79 29.7215 23.6309 29.5624L22.04 27.9715C21.7324 27.6639 21.7324 27.1548 22.04 26.8473C22.3476 26.5397 22.8567 26.5397 23.1643 26.8473L24.193 27.876L27.8733 24.1957C28.1809 23.8882 28.69 23.8882 28.9976 24.1957C29.3052 24.5033 29.3052 25.0124 28.9976 25.32Z" fill="white"/>
</svg>
