<svg width="14" height="14" viewBox="0 0 14 14" fill="none" xmlns="http://www.w3.org/2000/svg">
<path d="M8.19998 7.20007L13.5 1.90008C13.8 1.60008 13.8 1.10007 13.5 0.800073C13.2 0.500073 12.6999 0.500073 12.3999 0.800073L7.1 6.10009L1.79995 0.800073C1.49995 0.500073 0.999976 0.500073 0.699976 0.800073C0.399976 1.10007 0.399976 1.60008 0.699976 1.90008L6.00002 7.20007L0.699976 12.5001C0.399976 12.8001 0.399976 13.3001 0.699976 13.6001C0.999976 13.9001 1.49995 13.9001 1.79995 13.6001L7.1 8.30007L12.3999 13.6001C12.6999 13.9001 13.2 13.9001 13.5 13.6001C13.8 13.3001 13.8 12.8001 13.5 12.5001L8.19998 7.20007Z" fill="#191919"/>
</svg>
