<svg width="70" height="50" viewBox="0 0 70 50" fill="none" xmlns="http://www.w3.org/2000/svg">
<path d="M5.5225 1.1475C5.9815 0.43225 6.77501 0 7.6245 0H25C29.1357 0 32.5 3.36425 32.5 7.5V25C32.5 29.1357 29.1357 32.5 25 32.5H20.0365C22.3583 39.2238 24.3408 42.4438 30.9375 45.1928C32.0385 45.6518 32.6613 46.8235 32.4268 47.993C32.1925 49.1603 31.167 50 29.9755 50H29.9705C16.2082 49.9755 8.303 44.458 2.6975 30.9718C0.908249 26.7358 0 22.2022 0 17.5C0 10.2685 2.1875 6.3305 5.5225 1.1475ZM45.1245 0H62.5C66.6357 0 70 3.36425 70 7.5V25C70 29.1357 66.6357 32.5 62.5 32.5H57.5365C59.8582 39.2238 61.8407 42.4438 68.4375 45.1928C69.5385 45.6518 70.1613 46.8235 69.9268 47.993C69.6925 49.1603 68.667 50 67.4755 50H67.4705C53.7083 49.9755 45.803 44.458 40.1975 30.9718C38.4083 26.7358 37.5 22.2022 37.5 17.5C37.5 10.2685 39.6875 6.3305 43.0225 1.1475C43.4815 0.43225 44.275 0 45.1245 0Z" fill="white"/>
</svg>
