<svg width="60" height="61" viewBox="0 0 60 61" fill="none" xmlns="http://www.w3.org/2000/svg">
<path d="M60 58.5622L43.5082 41.9864C47.5255 37.5265 49.9979 31.6344 49.9979 25.1594C49.9979 11.3048 38.7834 0.0332031 24.999 0.0332031C11.2145 0.0332031 0 11.3048 0 25.1594C0 39.014 11.2145 50.2856 24.999 50.2856C31.4412 50.2856 37.3034 47.8006 41.7408 43.7628L58.2326 60.3386L60 58.5622ZM2.4999 25.1594C2.4999 12.6893 12.5945 2.54582 24.999 2.54582C37.4034 2.54582 47.498 12.6893 47.498 25.1594C47.498 37.6295 37.4059 47.773 24.999 47.773C12.592 47.773 2.4999 37.6295 2.4999 25.1594ZM34.9985 18.8779V20.1342H32.4986V18.8779C32.4986 16.7999 30.8162 15.1089 28.7488 15.1089H21.2491C19.1817 15.1089 17.4993 16.7999 17.4993 18.8779C17.4993 21.0764 19.0692 22.9282 21.2316 23.28L29.1638 24.5589C32.5461 25.1091 34.9985 28.0012 34.9985 31.441C34.9985 34.9059 32.1937 37.7225 28.7488 37.7225H26.2489V42.7477H23.749V37.7225H21.2491C17.8043 37.7225 14.9994 34.9059 14.9994 31.441V30.1846H17.4993V31.441C17.4993 33.5189 19.1817 35.2099 21.2491 35.2099H28.7488C30.8162 35.2099 32.4986 33.5189 32.4986 31.441C32.4986 29.2424 30.9287 27.3906 28.7663 27.0388L20.8341 25.7599C17.4518 25.2097 14.9994 22.3176 14.9994 18.8779C14.9994 15.413 17.8043 12.5963 21.2491 12.5963H23.749V7.57106H26.2489V12.5963H28.7488C32.1937 12.5963 34.9985 15.413 34.9985 18.8779Z" fill="#260055"/>
</svg>
