<?xml version="1.0" encoding="UTF-8"?>
<svg id="Layer_1" data-name="Layer 1" xmlns="http://www.w3.org/2000/svg" viewBox="0 0 333.15 277">
  <defs>
    <style>
      .cls-1 {
        fill: none;
        stroke: #000;
        stroke-miterlimit: 10;
        stroke-width: 4px;
      }
    </style>
  </defs>
  <path class="cls-1" d="m284.36,185.67v66.07c-5.58.64-11.01.79-16.21,1.97-7.37,1.67-14.53,4.23-21.85,6.17-13.41,3.55-26.73,7.7-40.35,10.16-13.96,2.52-28.38,3.13-41.95-2.19-8.91-3.49-17.22-8.48-25.78-12.85-22.92-11.69-45.85-23.34-68.72-35.13-5.03-2.59-9.91-5.22-11.82-11.52-2.4-7.92,4.83-18.25,12.59-17.66,5.17.39,9.28,2.28,13.64,4.56,10.98,5.75,22.16,11.09,33.23,16.66,8.47,4.26,16.91,8.58,25.3,13,1.46.77,2.9,1.94,3.84,3.28,4.07,5.84,9.93,8.88,16.66,8.98,14.28.21,28.58-.34,42.87-.64,1.81-.04,3.64-.36,5.41-.76,2.2-.5,3.11-2.19,2.42-4.19-.36-1.03-1.78-2.39-2.73-2.4-11.98-.16-23.96-.07-35.94-.12-5.33-.02-10.77.41-15.95-.52-5.4-.97-9.47-7.35-9.68-13.12-.19-5.29,3.31-11.06,8.16-13.27.97-.44,2.09-.74,3.14-.76,12.29-.29,24.62-.06,36.87-.88,14.3-.95,28.64-2.29,42.43-6.66,5.25-1.67,10.17-4.56,15.5-5.74,6.51-1.45,13.28-1.79,19.96-2.4,2.95-.27,5.94-.05,8.95-.05Z"/>
  <path class="cls-1" d="m154.11,83.85c4.85,0,9.46-.08,14.06.01,12.28.24,23.1-9.86,22.31-23.16-.5-8.35-4.42-16.86-17.31-20.13,6.11-14.56,42.69-24.13,64.73-16.54,34.18,11.77,48.48,42.15,44.41,69.85-6.39,43.41-43.85,59.24-69.96,56.35-39.8-4.41-60.42-38.73-58.24-66.38Zm67.88,38.49c10.05-2.44,15.38-8.55,16.39-16.36,1.62-12.52-4.31-19.75-13.36-22.8-3.62-1.22-7.64-1.23-11.31-2.35-5.74-1.74-9.29-8.44-8.19-14.64,1-5.66,6.29-9.9,12.2-10.06,5.28-.14,9.15,1.89,11.96,6.4,1.02,1.64,2.51,3.83,5.08,2.15,2.24-1.47,3.19-3.66,1.27-5.88-2.37-2.76-4.72-6.6-7.79-7.48-6.27-1.79-6.99-5.56-6.26-10.77.02-.12-.02-.25,0-.37.49-3-1.35-4.07-3.82-4.14-2.53-.07-3.64,1.62-3.67,4.02-.03,2.83,0,5.66,0,7.87-3.61,2.1-7.1,3.5-9.78,5.82-6.78,5.88-8.51,14.88-5.11,23.67,2.56,6.6,11.64,12.57,19.54,12.4,8.1-.17,14.72,8.85,10.94,17.6-2.25,5.21-6.5,7.69-12,7.86-5.35.16-9.04-2.89-11.27-7.4-1.46-2.96-3.95-2.75-5.84-2.01-.85.33-1.31,3.77-.71,5.3,2.48,6.31,7.64,9.69,14.22,11.31,0,2.92.02,5.77,0,8.63-.03,2.39.93,3.69,3.5,3.71,2.53.02,4.04-.83,4-3.6-.04-2.86,0-5.72,0-8.86Z"/>
  <path class="cls-1" d="m48.68,91.89V25.72c6.92-.98,13.9-1.38,20.56-3.05,7.9-1.98,15.42-5.5,23.31-7.56,11.21-2.92,22.53-5.58,33.94-7.48,7.97-1.32,16.2-1.76,24.29-1.57,12.36.3,23.64,4.68,34.12,11.14.72.44,1.44.9,2.16,1.33.59.35,1.2.69,1.96,1.12-8.42,3.62-15.76,8.45-21.58,15.17-3.7,4.27-7.69,5.96-13.46,5.77-10.52-.35-21.08.36-31.62.56-2.19.04-4.05.9-3.55,3.08.38,1.65,2.18,4.18,3.42,4.22,6.04.21,12.09-.37,18.15-.49,6.11-.12,12.22-.04,18.33-.05,3.62,0,7.25.2,10.85-.05,5.63-.38,12.22,3.96,13.45,11.92,1.1,7.14-3.8,14.38-10.54,15.81-2.12.45-4.33.68-6.5.74-12.79.31-25.62-.06-38.35.96-15.29,1.24-30.5,3.25-44.82,9.68-10.66,4.79-22.14,5.82-34.12,4.92Z"/>
  <path class="cls-1" d="m2,2h38.86v113.26H2V2Zm15.67,84.27c0,4.36.03,8.72,0,13.08-.02,2.5.81,4,3.65,3.99,2.7-.01,3.85-1.29,3.85-3.86,0-8.72-.03-17.44.02-26.17.02-2.86-1.92-4.14-4.12-4.23-2.23-.09-3.47,1.61-3.41,4.1.1,4.36.03,8.72.03,13.08Z"/>
  <path class="cls-1" d="m331.15,275h-38.86v-113.26h38.86v113.26Zm-15.67-84.48c0-2.99.08-5.99-.03-8.98-.07-2.08.07-4.37-.78-6.14-.49-1.02-2.75-1.5-4.25-1.6-.73-.05-2.21,1.34-2.22,2.1-.15,9.85-.21,19.7-.03,29.55.04,2.15,2.06,3.5,3.96,2.35,1.49-.9,3.02-2.92,3.2-4.58.45-4.19.15-8.47.15-12.71Z"/>
</svg>