<svg width="75" height="69" viewBox="0 0 75 69" fill="none" xmlns="http://www.w3.org/2000/svg">
<path d="M63.5674 46.0632C63.5674 51.5704 63.5674 57.1025 63.5674 62.6847C62.3081 62.8349 61.0939 62.86 59.9021 63.1353C58.2381 63.5358 56.6191 64.1867 54.9776 64.6873C51.9644 65.5885 48.9513 66.6148 45.8932 67.2406C42.7451 67.8664 39.5071 68.0166 36.4489 66.6899C34.5376 65.8638 32.7612 64.6623 30.9398 63.6109C25.678 60.6321 20.4162 57.6532 15.1769 54.6493C14.0526 53.9985 12.9507 53.3476 12.5235 51.7706C11.9838 49.793 13.6028 47.1897 15.3568 47.3399C16.5261 47.44 17.448 47.9156 18.4374 48.4914C20.9109 49.9432 23.4293 51.27 25.9253 52.6718C27.8367 53.7482 29.7255 54.8246 31.6144 55.926C31.9517 56.1262 32.2665 56.4266 32.4688 56.7521C33.3908 58.2039 34.7175 58.9799 36.2241 59.005C39.4396 59.055 42.6551 58.9299 45.8707 58.8548C46.2754 58.8548 46.6802 58.7546 47.0849 58.6545C47.5796 58.5294 47.782 58.1038 47.6246 57.6031C47.5346 57.3528 47.2198 57.0024 46.995 57.0024C44.3191 56.9523 41.6657 56.9773 38.9899 56.9773C37.7531 56.9773 36.5164 57.1025 35.3246 56.8522C33.863 56.5518 33.3908 55.0999 33.1659 53.648C32.986 52.4465 33.863 50.8194 34.9198 50.2687C35.1672 50.1435 35.437 50.0434 35.7069 50.0434C38.4727 49.9683 41.261 50.0183 44.0043 49.8181C47.2198 49.5678 50.4579 49.2423 53.561 48.1409C54.7528 47.7154 55.8546 46.9894 57.0464 46.689C58.508 46.3136 60.037 46.2384 61.5436 46.0883C62.2182 46.0132 62.8928 46.0632 63.5674 46.0632Z" fill="white"/>
<path d="M34.2009 20.525C35.3253 20.525 36.3821 20.5 37.4389 20.525C40.2048 20.5751 42.6108 18.0217 42.4309 14.6924C42.3185 12.1892 40.6995 10.0865 38.6982 9.81113C38.6307 9.81113 38.5633 9.711 38.4958 9.66093C41.1942 5.80595 47.7602 3.05238 54.1238 5.95614C61.0945 9.13525 63.9728 16.4697 63.0733 23.1784C61.6567 33.8172 53.2018 37.8724 47.4004 37.1966C39.1254 36.2203 33.8861 28.4603 34.2009 20.525ZM47.8501 11.5384C47.0856 12.039 46.2761 12.3895 45.6464 12.9902C44.1174 14.4672 43.7351 16.7201 44.4996 18.9229C45.0843 20.5751 47.1305 22.077 48.907 22.0269C50.7283 21.9769 52.2124 24.2548 51.358 26.4577C50.8408 27.7593 49.8964 28.3852 48.6596 28.4102C47.4453 28.4603 46.6359 27.6843 46.1187 26.5578C45.7814 25.8068 45.2192 25.8819 44.792 26.0571C44.6121 26.1322 44.4996 27.0084 44.6346 27.3839C45.1967 28.9609 46.366 29.812 47.8276 30.2125C47.8276 30.9385 47.8276 31.6644 47.8276 32.3903C47.8276 32.9911 48.0525 33.3165 48.6146 33.3165C49.1768 33.3165 49.5141 33.0912 49.5141 32.4154C49.5141 31.6894 49.5141 30.9885 49.5141 30.2876C49.5816 30.2125 49.6265 30.1625 49.6715 30.1625C51.5154 29.7119 53.1119 27.7844 53.2468 26.0071C53.4942 22.853 52.0326 20.9756 50.1212 20.3748C49.3117 20.1245 48.4572 20.0744 47.6477 19.7991C46.366 19.3485 45.5565 17.6713 45.8039 16.1193C46.0287 14.6924 47.2205 13.6411 48.5697 13.6161C49.7614 13.591 50.6159 14.1167 51.268 15.2181C51.4929 15.6186 51.8302 16.1694 52.4148 15.7438C52.8646 15.3934 53.1569 14.8927 52.7296 14.342C52.1225 13.6161 51.5379 12.6899 50.7733 12.3394C49.649 11.8388 49.3567 11.1378 49.5366 9.96132C49.5591 9.83616 49.5141 9.711 49.5366 9.58584C49.649 8.83486 49.2218 8.55951 48.6596 8.55951C48.0975 8.55951 47.8501 8.98506 47.8501 9.58584C47.8276 10.2367 47.8501 10.9126 47.8501 11.5384Z" fill="white"/>
<path d="M10.5039 22.5282C10.5039 17.0211 10.5039 11.514 10.5039 5.90672C11.3359 5.78156 12.1904 5.55627 13.0448 5.53124C15.1361 5.48117 17.0024 4.50491 18.9363 3.804C21.9045 2.70258 24.8951 1.67625 28.0432 1.37586C29.8871 1.20063 31.7534 0.950311 33.5973 1.02541C36.3856 1.12554 38.9041 2.22696 41.2427 3.90413C41.5125 4.10439 41.8048 4.25458 42.0971 4.42981C40.3882 5.20581 38.8591 6.18208 37.7348 7.68402C36.5655 9.211 35.2838 9.81177 33.4624 9.68661C31.3262 9.53642 29.1675 9.73668 27.0088 9.86184C26.739 9.88687 26.3343 10.2624 26.2443 10.5627C26.0869 11.1635 26.4916 11.6642 26.9863 11.6642C28.358 11.6892 29.7072 11.564 31.0789 11.514C32.0683 11.4889 33.0352 11.4889 34.0246 11.4889C35.2388 11.4889 36.4306 11.4889 37.6448 11.4889C38.9715 11.4889 39.9834 12.2149 40.4781 13.5666C40.9728 14.9684 40.7704 16.2451 39.8935 17.3966C39.2189 18.2727 38.3194 18.5981 37.33 18.6232C36.0483 18.6482 34.7441 18.5481 33.4624 18.6482C29.9096 18.9236 26.3567 18.7984 22.8264 19.6996C21.1399 20.1251 19.5659 20.7509 17.9469 21.4268C15.6083 22.4281 13.1123 22.8036 10.5039 22.5282Z" fill="white"/>
<path d="M8.72469 28.4118C5.82396 28.4118 2.92322 28.4118 0 28.4118C0 18.9495 0 9.48728 0 0C2.90073 0 5.77899 0 8.72469 0C8.72469 9.43721 8.72469 18.8744 8.72469 28.4118ZM5.19436 21.1774C5.19436 20.126 5.17187 19.0497 5.19436 17.9983C5.21684 17.2473 4.81207 16.8468 4.2724 16.8218C3.73272 16.7967 3.48537 17.2724 3.48537 17.9232C3.50786 20.076 3.50786 22.2288 3.48537 24.3815C3.48537 25.0074 3.6428 25.3828 4.2949 25.4079C4.96949 25.4079 5.17185 25.0324 5.17185 24.3565C5.19433 23.3052 5.19436 22.2538 5.19436 21.1774Z" fill="white"/>
<path d="M74.1144 68.4664C71.1687 68.4664 68.2904 68.4664 65.3672 68.4664C65.3672 58.9792 65.3672 49.542 65.3672 40.0547C68.2679 40.0547 71.1911 40.0547 74.1144 40.0547C74.1144 49.5169 74.1144 58.9541 74.1144 68.4664ZM68.8975 47.3141C68.8975 48.4656 68.8525 49.6421 68.92 50.7936C68.9425 51.119 69.3023 51.6697 69.4597 51.6447C69.797 51.6196 70.1793 51.3193 70.4266 51.0439C70.5615 50.8937 70.5615 50.5182 70.5615 50.2429C70.5615 48.2653 70.5615 46.3128 70.5615 44.3352C70.5615 44.1099 70.539 43.9097 70.5166 43.6844C70.3816 42.9334 69.842 42.9835 69.3922 43.0836C69.1899 43.1337 68.92 43.5592 68.8975 43.8346C68.875 44.9861 68.8975 46.1626 68.8975 47.3141Z" fill="white"/>
</svg>
