<?xml version="1.0" encoding="UTF-8"?>
<svg id="Layer_1" data-name="Layer 1" xmlns="http://www.w3.org/2000/svg" viewBox="0 0 388.56 388">
  <defs>
    <style>
      .cls-1 {
        stroke: #010101;
      }

      .cls-1, .cls-2 {
        fill: none;
        stroke-miterlimit: 10;
        stroke-width: 4px;
      }

      .cls-2 {
        stroke: #000;
      }
    </style>
  </defs>
  <path class="cls-2" d="m386.27,83c-1.5,5.14-2.69,10.39-4.56,15.39-7.57,20.25-21.48,34.32-41.54,42.54-10.7,4.38-21.79,5.88-33.08,4.95-12.7-1.04-24.48-5.55-34.77-13.07-13.25-9.68-22.7-22.35-27.18-38.31-6.47-23.04-2.78-44.31,11.48-63.69,9.74-13.23,22.68-21.72,38.31-26.29,3.4-1,6.9-1.69,10.35-2.53,5.75,0,11.5,0,17.25,0,.36.24.7.64,1.09.71,9.94,1.66,19.37,4.68,28,10.02,14.41,8.92,24.6,21.25,30.15,37.28,1.71,4.93,3.02,9.99,4.51,14.99v18Zm-78,31.04c0,1.74.16,3.5-.04,5.22-.34,2.88,1.53,4.84,3.54,5.42,1.74.51,4.73-.22,5.9-1.54,1.52-1.7,1.73-4.54,2.6-6.85.42-1.13.84-2.95,1.6-3.15,6.4-1.67,11.21-5.49,14.7-10.85,6.85-10.52,6.53-28.81-11.38-32.02-6.34-1.13-12.72-2.03-19.08-3.02-4.81-.75-7.06-3.42-6.85-8.25.22-5.11,3.2-8.75,7.27-11,4.67-2.59,9.78-2.29,14.63.3,4.2,2.24,5.97,6.19,7.5,10.35,1.15,3.13,3.77,4.01,6.56,3.25,2.61-.71,4.99-2.27,4.55-5.75-1.18-9.17-6.57-15.52-14.54-19.15-3.7-1.68-5.45-2.96-5.09-7.15.26-3.01-1.34-5.98-4.6-6.39-1.97-.25-4.63.65-6.09,2-1.12,1.04-1.22,3.61-1.11,5.46.18,2.88-.91,4.06-3.61,4.92-7.71,2.44-12.94,7.86-15.74,15.27-4.56,12.08-.38,24.61,13.79,27.59,5.95,1.25,12.02,1.93,18.04,2.8,7.45,1.08,9.5,4.12,6.88,11.25-.88,2.4-2.7,4.66-4.6,6.44-5.15,4.82-14.49,4.46-18.1-.39-1.85-2.49-3.63-5.1-4.98-7.89-1.64-3.4-5.13-5.31-8.48-4.07-2.34.87-4.16,4.58-3.37,7.13,3.14,10.14,9.71,16.92,20.09,20.07Z"/>
  <path class="cls-2" d="m82.52,2c5.38,1.5,10.88,2.67,16.12,4.57,15.91,5.78,28.41,15.88,37.1,30.48,6,10.08,9.33,20.87,9.89,32.75.91,19.1-4.44,35.78-16.68,50.5-10.3,12.39-23.4,20.52-38.76,23.91-23.58,5.2-45.1.12-63.56-16.21-13.32-11.78-21.22-26.36-23.77-43.91-.02-.14-.39-.23-.59-.35,0-6.5,0-13,0-19.5,1.74-5.81,3.02-11.8,5.3-17.38C15.5,27.4,29.32,13.76,49.16,6.57c5.23-1.9,10.73-3.06,16.11-4.57,5.75,0,11.5,0,17.25,0Zm-14.23,112.15c0,1.89-.06,3.76.01,5.63.16,3.9,3.94,6.29,7.54,4.78,3.41-1.43,4.35-4.24,4.48-7.67.05-1.3.61-3.53,1.34-3.71,6.46-1.57,11.19-5.42,14.77-10.73,7.03-10.43,6.74-28.81-11.01-32.17-6.45-1.22-12.97-2.02-19.45-3.04-4.57-.72-6.81-3.44-6.69-8.04.14-5.12,3.08-8.82,7.08-11.14,4.62-2.67,9.83-2.39,14.66.11,3.79,1.96,5.73,5.38,7.17,9.3,1.46,3.99,4.37,5.45,7.59,4.32,3.34-1.17,5.13-4.76,3.8-8.43-3-8.27-8.27-14.6-16.82-17.45-1.99-.66-2.63-1.38-2.52-3.25.07-1.12.16-2.28-.03-3.37-.51-2.86-1.67-5.66-4.83-5.94-1.91-.17-4.29.74-5.82,1.96-1.02.83-1.31,3.08-1.22,4.66.18,3.25-.59,4.92-4.13,6.04-7.38,2.33-12.38,7.78-15.16,14.91-4.76,12.2-.35,24.83,13.55,27.65,5.94,1.2,11.95,2.17,17.97,2.88,7.36.87,9.76,4.07,7.15,11.03-.98,2.61-2.89,5.15-5,7.01-5.22,4.6-14.34,4-17.8-.78-1.82-2.52-3.59-5.13-4.95-7.91-1.64-3.35-5.34-5.27-8.55-3.93-2.62,1.09-3.7,4.58-2.79,7.83,2.85,10.19,9.88,16.1,19.66,19.46Z"/>
  <path class="cls-2" d="m2.17,278.77c4.88-7.63,9.84-15.21,14.64-22.89,9.78-15.64,19.45-31.34,29.21-46.99,5.59-8.97,11.32-17.85,16.89-26.84,4.23-6.83,5.36-7.19,12.1-3.1,7.84,4.76,15.68,9.53,23.51,14.3,5.42,3.3,6,5.26,2.76,10.61-4.66,7.69-9.45,15.3-14.22,22.93-6.26,9.99-12.59,19.93-18.83,29.93-9,14.41-17.95,28.85-26.94,43.27-2.88,4.63-5.7,5.04-10.4,2.08-7.64-4.82-15.45-9.37-23.11-14.17-2.07-1.3-3.84-3.07-5.74-4.63.05-1.5.09-3,.14-4.5Z"/>
  <path class="cls-2" d="m386.45,275.73c-8.15,4.5-16.3,9.01-24.46,13.49-2.63,1.45-5.33,2.78-7.96,4.24-2.88,1.6-6.09.96-7.68-1.94-7.42-13.53-14.74-27.12-22.1-40.69-8.92-16.43-17.91-32.82-26.74-49.31-3.12-5.82-2.01-7.82,3.24-10.37,9.12-4.43,17.93-9.48,26.92-14.18,3.85-2.01,6.41-1.18,8.45,2.59,6.08,11.21,12.1,22.44,18.15,33.66,8.82,16.36,17.65,32.72,26.49,49.07,1.89,3.5,3.85,6.96,5.78,10.44l-.09,3Z"/>
  <path class="cls-1" d="m156.02,386c-1.27-.91-2.78-1.6-3.75-2.76-2.14-2.57-2.8-5.5-1.03-8.62,1.91-3.37,3.65-6.86,5.77-10.1,2.61-3.98,6.27-4.95,10.19-3.34,4.97,2.04,5.66,5.74,3.93,10.6-1.32,3.72-3.64,7.16-5.91,10.45-1.09,1.58-3.11,2.53-4.71,3.77h-4.5Z"/>
  <path class="cls-2" d="m180.74,370.89c1.3-7.16-.53-13.13-5.97-18.16-3.56-3.29-7.75-4.44-12.19-5.1-2.12-.31-2.62-1.06-2.68-3.07-.19-6.29-7.23-14.24-13.53-15.51-2.14-.43-4.3-.79-6.66-1.22-1.11-9.93-6.54-16.74-16.35-18.86-7.87-1.7-15.05.53-20.18,7.47-3.66-4.56-8.24-7.29-14.05-7.97-5.84-.68-11.15.47-15.92,4.16-5.65-4.49-11.26-8.94-17.09-13.57,5.96-9.57,11.72-18.81,17.47-28.06,8.47-13.62,16.93-27.24,25.39-40.87.83-1.33,1.7-2.63,2.46-4,2.04-3.63,3.72-6.53,9.28-4.97,8.06,2.27,16.51,3.17,24.8,4.57,3.51.59,7.05.95,10.84,1.44-3.4,5.49-6.83,10.74-9.95,16.17-5.03,8.73-8.92,17.93-10.93,27.88-1.51,7.44,6.16,15.95,13.67,16.48,11.2.78,19.65-4.87,27.85-10.84,6.34-4.61,11.85-10.36,17.66-15.68,1.09-1,1.87-2.33,2.8-3.51,14.62,8.97,28.49,17.45,42.32,25.97,10.6,6.53,21.14,13.17,31.76,19.67,10.98,6.73,22.06,13.3,33.04,20.03,3.57,2.19,4.53,7.56,2.25,11.18-2.09,3.3-7.19,4.67-10.74,2.53-9.5-5.72-18.89-11.63-28.34-17.43-14.81-9.09-29.61-18.19-44.47-27.19-3.65-2.21-6.5-1.65-8.28,1.16-2.44,3.86-2.07,6.16,2.12,8.8,11.02,6.95,22.16,13.7,33.24,20.55,8.3,5.13,16.58,10.29,24.87,15.44,3.53,2.19,4.77,7.1,2.66,10.52-2.51,4.06-7.47,5.24-11.31,2.88-16.53-10.17-33.03-20.38-49.72-30.29-1.86-1.11-5.13-1.14-7.14-.27-1.36.59-2.5,3.76-2.22,5.53.28,1.8,2.13,3.77,3.82,4.85,11.3,7.2,22.73,14.18,34.13,21.23,1.75,1.08,3.55,2.09,5.27,3.2,3.7,2.39,4.83,7.66,2.49,11.43-2.02,3.25-7.17,4.58-10.74,2.41-10.72-6.51-21.38-13.14-32-19.82-4.4-2.77-8.28-2.2-10.15,1.78-1.48,3.17-.51,5.72,3.05,7.95,6.15,3.86,12.33,7.66,18.43,11.6,3.53,2.28,4.64,6.88,2.66,10.21-2.27,3.82-6.93,5.44-10.67,3.27-7-4.07-13.84-8.41-20.75-12.64-.62-.38-1.27-.73-2.32-1.33Z"/>
  <path class="cls-2" d="m301.11,313.44c-17.99-11.06-36.17-22.22-54.33-33.42-16.33-10.07-32.63-20.18-48.95-30.25-2.36-1.45-4.75-2.84-7.18-4.17-4.56-2.5-6.09-2.18-9.58,1.5-4.85,5.12-9.48,10.51-14.75,15.16-6.19,5.46-12.88,10.45-21.07,12.69-2.09.57-4.36.53-6.54.77-.05-2.55-.72-5.28-.03-7.61,3.61-12.2,10.09-22.97,17.44-33.26,3.56-4.98,6.93-10.18,12.84-12.73,8.85-3.82,18.1-6.16,27.75-6.29,10.31-.15,20.65-.31,30.93.3,7.15.43,14.18,2.62,21.32,3.22,9.82.82,19.69,1.1,29.55,1.15,4.07.02,8.16-1.08,12.22-1.81,2.81-.5,3.42,1.6,4.38,3.36,4.24,7.8,8.51,15.59,12.7,23.42,7.34,13.7,14.64,27.42,21.84,40.9-9.48,8.99-18.96,17.98-28.53,27.05Z"/>
  <path class="cls-2" d="m179.33,92c1.91,2.4,3.61,4.32,5.06,6.42,1.97,2.86.48,5.08-1.69,7-2.33,2.06-5.03,2.35-7.26.25-5.53-5.22-10.99-10.54-16.09-16.17-1.07-1.18-1.22-4.21-.47-5.75.79-1.64,3.03-3.28,4.85-3.57,3.53-.56,7.21-.19,10.83-.19,15.97,0,31.94-.1,47.91.11,2.14.03,4.84,1.08,6.21,2.62,1.09,1.22,1.33,4.35.5,5.81-.93,1.63-3.47,3.27-5.33,3.3-13.97.27-27.94.15-41.92.15-.73,0-1.46,0-2.6,0Z"/>
  <path class="cls-1" d="m209.49,56c-1.81-1.85-3.11-3.19-4.42-4.51-2.5-2.53-2.53-6.44-.05-8.86,2.43-2.37,5.37-2.29,8.11.38,4.91,4.81,9.75,9.69,14.61,14.55,1.69,1.69,3.33,3.39,2.04,6.12-1.26,2.66-3.21,4.29-6.24,4.32-4.75.04-9.5.01-14.25,0-14.87,0-29.75,0-44.62-.01-4.21,0-6.32-1.97-6.37-5.81-.06-4.03,2.07-6.15,6.44-6.16,14-.04,28-.02,42-.02.71,0,1.43,0,2.76,0Z"/>
  <path class="cls-1" d="m120.82,323c6.6.08,10.19,6.38,6.94,12.04-5.45,9.45-11.01,18.85-16.67,28.18-3.08,5.07-6.78,6.03-11.31,3.33-3.84-2.29-4.87-6.63-2.29-11.18,5.39-9.49,10.99-18.86,16.41-28.32,1.64-2.85,3.84-4.38,6.92-4.04Z"/>
  <path class="cls-1" d="m139.82,339.25c6.18.93,10.8,6.49,7.52,12.3-4.05,7.15-8.53,14.07-13.11,20.89-2.17,3.24-6.36,3.39-10.21,1-3.3-2.05-4.79-5.66-2.93-9,4-7.17,8.22-14.24,12.76-21.07,1.24-1.87,3.94-2.77,5.97-4.11Z"/>
  <path class="cls-1" d="m96.02,331.71c-.06,4.14-5.83,13.29-11.48,12.41-5.15-.8-8.82-6.22-6.56-10.97,1.04-2.19,2.15-4.37,3.48-6.39,1.82-2.76,6.25-4.16,9.6-2.83,3.14,1.25,5.28,3.53,4.97,7.78Z"/>
</svg>