<svg width="42" height="42" viewBox="0 0 42 42" fill="none" xmlns="http://www.w3.org/2000/svg">
<path d="M33.5474 11.62C32.7949 7.82247 29.9774 6.15997 26.0574 6.15997H10.6924C6.07243 6.15997 2.99243 8.46997 2.99243 13.86V22.8725C2.99243 26.7575 4.58493 29.0325 7.20993 30.0125C7.59493 30.1525 8.01493 30.275 8.45243 30.345C9.15243 30.5025 9.90493 30.5725 10.6924 30.5725H26.0749C30.6949 30.5725 33.7749 28.2625 33.7749 22.8725V13.86C33.7749 13.0375 33.7049 12.3025 33.5474 11.62ZM9.67743 21C9.67743 21.7175 9.08243 22.3125 8.36493 22.3125C7.64743 22.3125 7.05243 21.7175 7.05243 21V15.75C7.05243 15.0325 7.64743 14.4375 8.36493 14.4375C9.08243 14.4375 9.67743 15.0325 9.67743 15.75V21ZM18.3749 22.995C15.8199 22.995 13.7549 20.93 13.7549 18.375C13.7549 15.82 15.8199 13.755 18.3749 13.755C20.9299 13.755 22.9949 15.82 22.9949 18.375C22.9949 20.93 20.9299 22.995 18.3749 22.995ZM29.6799 21C29.6799 21.7175 29.0849 22.3125 28.3674 22.3125C27.6499 22.3125 27.0549 21.7175 27.0549 21V15.75C27.0549 15.0325 27.6499 14.4375 28.3674 14.4375C29.0849 14.4375 29.6799 15.0325 29.6799 15.75V21Z" fill="#1E1E1E"/>
<path d="M39.0251 19.11V28.1225C39.0251 33.5125 35.9451 35.84 31.3076 35.84H15.9426C14.6301 35.84 13.4576 35.6475 12.4426 35.2625C11.6201 34.965 10.9026 34.5275 10.3251 33.9675C10.0101 33.67 10.2551 33.1975 10.6926 33.1975H26.0576C32.5326 33.1975 36.3826 29.3475 36.3826 22.89V13.86C36.3826 13.44 36.8551 13.1775 37.1526 13.4925C38.3426 14.7525 39.0251 16.59 39.0251 19.11Z" fill="#1E1E1E"/>
</svg>
