<svg width="58" height="46" viewBox="0 0 58 46" fill="none" xmlns="http://www.w3.org/2000/svg">
<path d="M48.7352 8.36893C47.535 2.54823 43.041 0 36.7886 0H12.2815C4.9126 0 0 3.54073 0 11.8023V25.6163C0 31.5711 2.54004 35.0581 6.72693 36.5602C7.34103 36.7748 8.01093 36.9626 8.70873 37.0699C9.82523 37.3113 11.0254 37.4186 12.2815 37.4186H36.8166C44.1855 37.4186 49.0981 33.8779 49.0981 25.6163V11.8023C49.0981 10.5416 48.9864 9.41503 48.7352 8.36893ZM10.6625 22.7462C10.6625 23.8459 9.71353 24.7579 8.56913 24.7579C7.42473 24.7579 6.47573 23.8459 6.47573 22.7462V14.6992C6.47573 13.5994 7.42473 12.6874 8.56913 12.6874C9.71353 12.6874 10.6625 13.5994 10.6625 14.6992V22.7462ZM24.5351 25.804C20.4598 25.804 17.1662 22.6389 17.1662 18.7227C17.1662 14.8065 20.4598 11.6413 24.5351 11.6413C28.6103 11.6413 31.904 14.8065 31.904 18.7227C31.904 22.6389 28.6103 25.804 24.5351 25.804ZM42.5665 22.7462C42.5665 23.8459 41.6175 24.7579 40.4731 24.7579C39.3287 24.7579 38.3797 23.8459 38.3797 22.7462V14.6992C38.3797 13.5994 39.3287 12.6874 40.4731 12.6874C41.6175 12.6874 42.5665 13.5994 42.5665 14.6992V22.7462Z" fill="#00466D"/>
<path d="M57.4717 19.8493V33.6633C57.4717 41.9249 52.5591 45.4924 45.1623 45.4924H20.6551C18.5617 45.4924 16.6916 45.1974 15.0726 44.6073C13.7607 44.1513 12.6163 43.4807 11.6952 42.6223C11.1928 42.1663 11.5836 41.4421 12.2814 41.4421H36.7886C47.1162 41.4421 53.2569 35.541 53.2569 25.6431V11.8023C53.2569 11.1585 54.0106 10.7562 54.4851 11.239C56.3831 13.1703 57.4717 15.9867 57.4717 19.8493Z" fill="#00466D"/>
</svg>
