<svg width="60" height="69" viewBox="0 0 60 69" fill="none" xmlns="http://www.w3.org/2000/svg">
<path d="M59.9946 14.4531C59.7604 15.362 59.573 16.3066 59.2763 17.1976C58.0894 20.8154 55.9187 23.3104 52.7954 24.7717C51.1244 25.5559 49.391 25.8232 47.6263 25.645C45.643 25.4668 43.8003 24.6648 42.1918 23.3104C40.1304 21.5817 38.6468 19.3184 37.9441 16.4848C36.929 12.3859 37.5068 8.5899 39.74 5.13256C41.2548 2.78013 43.2849 1.26532 45.7211 0.445535C46.2521 0.267321 46.7987 0.142571 47.3296 0C48.2354 0 49.1255 0 50.0157 0C50.0781 0.0356428 50.125 0.10693 50.1874 0.124752C51.7335 0.427715 53.217 0.962357 54.5601 1.90689C56.8088 3.49299 58.4017 5.68502 59.2763 8.55426C59.5418 9.42751 59.7448 10.3364 59.979 11.2275C59.9946 12.3146 59.9946 13.3839 59.9946 14.4531ZM47.8137 19.9956C47.8137 20.2986 47.845 20.6193 47.8137 20.9223C47.7669 21.4391 48.048 21.7777 48.3603 21.8847C48.6258 21.9738 49.0943 21.849 49.2817 21.6173C49.5159 21.3144 49.5472 20.8154 49.6877 20.3877C49.7502 20.1916 49.8126 19.853 49.9376 19.8174C50.937 19.5144 51.6866 18.8372 52.2332 17.8927C53.2951 16.0214 53.2483 12.7601 50.4529 12.1898C49.4691 11.9938 48.4696 11.8334 47.4702 11.6552C46.7206 11.5126 46.3614 11.0493 46.4082 10.176C46.4395 9.26712 46.908 8.62556 47.5482 8.21566C48.2822 7.75231 49.0787 7.80577 49.8283 8.26912C50.4842 8.6612 50.7653 9.37405 50.9995 10.1047C51.1869 10.6572 51.5929 10.8176 52.0302 10.675C52.4362 10.5503 52.811 10.2651 52.7329 9.65919C52.5455 8.01962 51.7023 6.89687 50.4685 6.23748C49.8907 5.93452 49.6096 5.70285 49.6721 4.97217C49.719 4.43753 49.4691 3.90288 48.9537 3.8316C48.6414 3.79595 48.2354 3.95635 48.0011 4.18802C47.8293 4.36624 47.8137 4.82959 47.8293 5.1682C47.8606 5.68502 47.6888 5.89888 47.2672 6.04145C46.0647 6.46917 45.2526 7.44934 44.8154 8.76812C44.097 10.9245 44.7529 13.1522 46.9704 13.6868C47.8918 13.9185 48.8444 14.0254 49.7814 14.1858C50.9527 14.3819 51.265 14.9165 50.859 16.1996C50.7184 16.6274 50.4373 17.0372 50.1406 17.3402C49.3442 18.1956 47.8762 18.1422 47.314 17.2689C47.0173 16.8234 46.7518 16.36 46.5332 15.861C46.2833 15.2551 45.7367 14.9165 45.2058 15.1304C44.8466 15.2907 44.5499 15.9501 44.6748 16.3957C45.1589 18.2135 46.1896 19.4253 47.8137 19.9956Z" fill="white"/>
<path d="M12.5557 0.0195312C13.399 0.286852 14.2579 0.500704 15.0699 0.83931C17.553 1.87295 19.505 3.67291 20.8637 6.27483C21.8007 8.07479 22.316 9.9995 22.4097 12.1024C22.5503 15.5063 21.7226 18.4825 19.8018 21.1022C18.1933 23.3121 16.1475 24.7556 13.7425 25.3615C10.057 26.2882 6.69948 25.3794 3.81043 22.4745C1.73343 20.3715 0.499725 17.7696 0.0936953 14.6509C0.0936953 14.6331 0.0312331 14.6152 0 14.5974C0 13.439 0 12.2806 0 11.1222C0.265481 10.0886 0.468494 9.01932 0.827674 8.02133C2.06138 4.54616 4.21646 2.12245 7.32414 0.83931C8.1362 0.500704 8.99511 0.286852 9.8384 0.0195312C10.7598 0.0195312 11.6655 0.0195312 12.5557 0.0195312ZM10.3381 20.0151C10.3381 20.3537 10.3225 20.6923 10.3381 21.0131C10.3694 21.7082 10.9472 22.1359 11.5094 21.8685C12.0403 21.619 12.1809 21.12 12.2121 20.4963C12.2277 20.2646 12.3058 19.8725 12.4151 19.8369C13.4302 19.5518 14.1642 18.8746 14.7264 17.93C15.8195 16.0766 15.7727 12.7975 13.0086 12.1915C12.0091 11.9777 10.9784 11.8351 9.96334 11.6569C9.24498 11.5321 8.90143 11.051 8.91704 10.2312C8.93266 9.32229 9.40115 8.66289 10.0258 8.253C10.7442 7.77182 11.5562 7.82529 12.3214 8.27083C12.9149 8.62726 13.2116 9.23318 13.4458 9.92822C13.6801 10.6411 14.133 10.8906 14.6327 10.6945C15.148 10.4807 15.4291 9.83911 15.2261 9.19754C14.7576 7.71837 13.9299 6.59562 12.6025 6.0788C12.2902 5.95405 12.1965 5.82929 12.2121 5.49069C12.2277 5.29465 12.2434 5.0808 12.2121 4.88477C12.134 4.36795 11.9466 3.86894 11.4625 3.8333C11.1658 3.79766 10.791 3.95805 10.5568 4.18973C10.4006 4.3323 10.3538 4.74219 10.3694 5.02734C10.4006 5.59762 10.2757 5.90058 9.72909 6.09662C8.57347 6.50651 7.79264 7.48669 7.35538 8.75201C6.60579 10.9262 7.30854 13.1717 9.47923 13.6885C10.4006 13.9024 11.3376 14.0806 12.2902 14.2053C13.4458 14.3657 13.8206 14.936 13.399 16.1657C13.2428 16.6291 12.9461 17.0746 12.6182 17.4132C11.8061 18.233 10.385 18.1261 9.8384 17.2706C9.5573 16.8251 9.27622 16.3617 9.07321 15.8627C8.82334 15.2568 8.24553 14.9182 7.7458 15.1677C7.33977 15.3637 7.16798 15.9875 7.30853 16.5578C7.71456 18.3577 8.80772 19.4092 10.3381 20.0151Z" fill="white"/>
<path d="M0.0312472 50.4188C0.749608 49.0287 1.4992 47.6565 2.20194 46.2664C3.65428 43.4328 5.091 40.5814 6.52772 37.73C7.35539 36.1082 8.2143 34.4865 9.02636 32.8647C9.65102 31.6172 9.82281 31.5459 10.9003 32.241C12.1497 33.0429 13.399 33.8449 14.6327 34.6647C15.4916 35.2171 15.6009 35.5736 15.1168 36.5359C14.4297 37.926 13.7113 39.3161 13.0086 40.7061C12.0872 42.5239 11.1346 44.3239 10.2132 46.1416C8.87019 48.7614 7.55841 51.3811 6.21539 54.0009C5.79374 54.8385 5.35648 54.9276 4.60689 54.4286C3.3888 53.6088 2.15509 52.8425 0.937004 52.0405C0.609057 51.8267 0.327956 51.5237 0.015625 51.2564C0.0312415 50.9534 0.0312472 50.6861 0.0312472 50.4188Z" fill="white"/>
<path d="M60.0007 47.7432C58.7514 48.5808 57.5021 49.4363 56.2528 50.2739C55.8467 50.5412 55.4407 50.7907 55.0347 51.0758C54.5974 51.3788 54.0821 51.2719 53.8322 50.7729C52.6141 48.4026 51.396 46.0145 50.1779 43.6443C48.71 40.7751 47.2264 37.9058 45.7584 35.0188C45.2431 34.0029 45.3993 33.6287 46.2113 33.1475C47.6168 32.3099 48.9598 31.3654 50.3497 30.4743C50.9431 30.1 51.3492 30.2248 51.6771 30.8842C52.6766 32.8445 53.676 34.8227 54.6755 36.7831C56.1278 39.6523 57.5958 42.5216 59.0481 45.373C59.3605 45.9789 59.6884 46.5848 60.0007 47.2086C60.0007 47.3868 60.0007 47.565 60.0007 47.7432Z" fill="white"/>
<path d="M24.0355 68.4517C23.8325 68.2913 23.5983 68.1665 23.4577 67.9527C23.1298 67.4893 23.0205 66.9725 23.3016 66.4201C23.5983 65.8141 23.8638 65.1904 24.2073 64.6201C24.6133 63.9072 25.1912 63.7468 25.8002 64.032C26.581 64.3884 26.6904 65.0478 26.4093 65.9211C26.2062 66.5805 25.8471 67.2042 25.4879 67.7923C25.3161 68.0774 25.0038 68.2378 24.7539 68.4695C24.504 68.4517 24.2698 68.4517 24.0355 68.4517Z" fill="white"/>
<path d="M28.3486 65.825C28.5204 64.5418 28.2081 63.4904 27.3336 62.6171C26.7557 62.0469 26.0999 61.8686 25.4127 61.7795C25.0848 61.7439 24.9911 61.6013 24.9755 61.2449C24.913 60.1221 23.773 58.7499 22.7892 58.5539C22.4456 58.4826 22.1176 58.4291 21.7429 58.3757C21.5242 56.6113 20.6341 55.4351 19.1037 55.1143C17.87 54.847 16.7612 55.2926 15.996 56.5579C15.4025 55.7737 14.6686 55.3104 13.7628 55.2213C12.8414 55.1322 12.0294 55.3638 11.2954 56.0589C10.3896 55.2926 9.49949 54.5262 8.5625 53.7421C9.45264 52.0134 10.2959 50.3204 11.1548 48.6452C12.4042 46.168 13.6691 43.6908 14.9184 41.2315C15.0434 40.982 15.1683 40.7503 15.2776 40.5008C15.5743 39.8414 15.8242 39.3246 16.6987 39.5563C17.9636 39.9127 19.2911 40.0374 20.5872 40.2335C21.1338 40.3226 21.696 40.3582 22.2894 40.4295C21.7897 41.4275 21.2744 42.3721 20.8215 43.3701C20.0719 44.9562 19.5097 46.6135 19.2442 48.3957C19.0412 49.7323 20.2905 51.2115 21.4617 51.2471C23.2108 51.3184 24.507 50.2669 25.7563 49.162C26.7245 48.3066 27.5522 47.2551 28.4423 46.2749C28.6141 46.0967 28.7234 45.8472 28.864 45.6334C31.1908 47.1482 33.3928 48.5917 35.5947 50.0174C37.2813 51.1223 38.9523 52.2451 40.6545 53.35C42.4035 54.4906 44.1682 55.5955 45.9016 56.7361C46.4638 57.1103 46.6512 58.0549 46.3076 58.7143C45.9953 59.3202 45.2145 59.5875 44.6367 59.2311C43.1219 58.2687 41.6383 57.2707 40.1235 56.2906C37.7654 54.7579 35.4073 53.2075 33.0492 51.6926C32.4714 51.3184 32.0341 51.4431 31.7687 51.9421C31.4095 52.6372 31.4719 53.0471 32.1435 53.4926C33.8925 54.6688 35.6728 55.8094 37.4375 56.9678C38.7649 57.841 40.0766 58.7143 41.3884 59.5875C41.9506 59.9618 42.1693 60.835 41.8569 61.4409C41.4821 62.1716 40.7169 62.4211 40.1079 62.0112C37.4843 60.2825 34.8451 58.5717 32.2059 56.8965C31.9092 56.7183 31.3939 56.7183 31.0972 56.8965C30.8941 57.0034 30.7224 57.5737 30.7848 57.8945C30.8317 58.2153 31.144 58.5539 31.4095 58.7321C33.2054 59.9439 35.0325 61.138 36.844 62.332C37.1251 62.5102 37.4062 62.6884 37.6873 62.8666C38.2808 63.2765 38.4838 64.2032 38.1246 64.8805C37.8279 65.4686 37.0314 65.7359 36.4536 65.3616C34.7514 64.2567 33.0492 63.134 31.3626 62.0112C30.6599 61.5479 30.0665 61.6726 29.7854 62.3855C29.5667 62.9557 29.7385 63.4013 30.3007 63.7933C31.2845 64.4527 32.2684 65.0943 33.2366 65.7537C33.7988 66.1458 33.9862 66.9477 33.7051 67.5537C33.3772 68.2487 32.6432 68.5695 32.0498 68.1952C30.941 67.5002 29.8478 66.7695 28.7547 66.0567C28.6141 65.9854 28.5204 65.9141 28.3486 65.825Z" fill="white"/>
<path d="M46.8488 54.923C43.991 53.0518 41.1019 51.1627 38.2128 49.2736C35.6205 47.5628 33.0282 45.8519 30.4202 44.1589C30.0454 43.9094 29.6706 43.6777 29.2802 43.4639C28.5618 43.0362 28.312 43.1074 27.7966 43.7847C27.0626 44.7292 26.3755 45.7094 25.5635 46.5648C24.6265 47.5806 23.5958 48.4895 22.3308 48.935C22.0029 49.042 21.6593 49.0598 21.3158 49.1132C21.3001 48.6677 21.1752 48.1687 21.2689 47.7588C21.7686 45.5668 22.7369 43.6064 23.83 41.7352C24.361 40.8263 24.8607 39.8818 25.7665 39.4006C27.1251 38.6699 28.5618 38.2066 30.061 38.1175C31.6695 38.0283 33.278 37.9392 34.8865 37.9927C36.0109 38.0283 37.1197 38.3848 38.2285 38.4561C39.7589 38.5452 41.3049 38.5452 42.8509 38.4917C43.4912 38.4739 44.1159 38.26 44.7562 38.0996C45.1934 37.9927 45.3028 38.3669 45.4589 38.6699C46.1617 40.0422 46.8644 41.3966 47.5515 42.7688C48.7696 45.1747 49.9721 47.5628 51.159 49.933C49.7378 51.6082 48.3011 53.2478 46.8488 54.923Z" fill="white"/>
<path d="M27.677 16.0603C27.9737 16.488 28.2391 16.8266 28.4734 17.2008C28.7857 17.7177 28.5515 18.1097 28.2079 18.4483C27.8487 18.8226 27.4271 18.8761 27.0679 18.5018C26.209 17.5751 25.3501 16.6306 24.5536 15.6148C24.3819 15.4009 24.3663 14.8663 24.4756 14.5989C24.6005 14.3138 24.9441 14.0108 25.2408 13.9574C25.7874 13.8504 26.3652 13.9217 26.9274 13.9217C29.426 13.9217 31.909 13.9039 34.4077 13.9395C34.7356 13.9395 35.1573 14.1356 35.3759 14.4029C35.5477 14.6167 35.5789 15.187 35.454 15.4365C35.3134 15.7217 34.9074 16.0246 34.6263 16.0246C32.44 16.0781 30.2693 16.0603 28.083 16.0603C27.9737 16.0603 27.8644 16.0603 27.677 16.0603Z" fill="white"/>
<path d="M32.3946 9.63939C32.1135 9.31861 31.9105 9.06911 31.7075 8.83743C31.3171 8.39189 31.3171 7.69686 31.7075 7.25132C32.0823 6.82361 32.5508 6.84143 32.9724 7.32261C33.7376 8.17804 34.4872 9.05128 35.2524 9.90671C35.5179 10.2097 35.7678 10.5126 35.5648 10.9938C35.3618 11.475 35.065 11.7601 34.5965 11.7601C33.8626 11.7601 33.113 11.7601 32.379 11.7601C30.0521 11.7601 27.7409 11.7601 25.414 11.7601C24.7581 11.7601 24.4302 11.4037 24.4146 10.7265C24.399 10.0136 24.7425 9.63938 25.414 9.62156C27.6003 9.62156 29.7867 9.62156 31.973 9.62156C32.0667 9.63938 32.1916 9.63939 32.3946 9.63939Z" fill="white"/>
<path d="M18.5396 57.2216C19.5703 57.2394 20.1325 58.3621 19.6172 59.3601C18.7583 61.0532 17.8993 62.7106 17.0092 64.3858C16.5251 65.2947 15.9473 65.4551 15.2445 64.9739C14.6511 64.564 14.4793 63.7977 14.8854 62.9779C15.7286 61.2849 16.6032 59.6096 17.4465 57.9344C17.712 57.4354 18.0555 57.1681 18.5396 57.2216Z" fill="white"/>
<path d="M21.8027 60.4062C22.7709 60.531 23.5205 61.5112 23.0364 62.5626C22.443 63.8636 21.7715 65.1111 21.0843 66.3586C20.7564 66.9467 20.1161 67.0002 19.4915 66.5903C18.9605 66.2517 18.7106 65.6101 18.9917 65.0042C19.5852 63.7032 20.2098 62.4201 20.8813 61.1726C21.0844 60.834 21.4904 60.6557 21.8027 60.4062Z" fill="white"/>
<path d="M14.6637 58.7653C14.6481 59.496 13.758 61.1355 12.8678 60.9751C12.0558 60.8326 11.4936 59.8702 11.8371 59.0148C11.9933 58.6227 12.1651 58.2306 12.3837 57.8742C12.6648 57.3752 13.3675 57.1257 13.8829 57.3752C14.3826 57.6069 14.7106 58.0168 14.6637 58.7653Z" fill="white"/>
</svg>
