<svg width="32" height="27" viewBox="0 0 32 27" fill="none" xmlns="http://www.w3.org/2000/svg">
<path d="M31 1.01371C29.6942 1.93482 28.2483 2.63932 26.7182 3.10008C25.8969 2.15577 24.8055 1.48647 23.5914 1.1827C22.3774 0.878931 21.0993 0.955343 19.9301 1.4016C18.7609 1.84786 17.757 2.64244 17.0541 3.67787C16.3512 4.7133 15.9832 5.93963 16 7.19099V8.55462C13.6036 8.61676 11.229 8.08528 9.08774 7.0075C6.94647 5.92973 5.10498 4.33912 3.72727 2.37735C3.72727 2.37735 -1.72727 14.6501 10.5455 20.1046C7.73708 22.0109 4.39158 22.9668 1 22.8319C13.2727 29.6501 28.2727 22.8319 28.2727 7.15008C28.2715 6.77024 28.235 6.39134 28.1636 6.01826C29.5554 4.64575 30.5375 2.91287 31 1.01371V1.01371Z" stroke="#192B3A" stroke-width="1.5" stroke-linecap="round" stroke-linejoin="round"/>
</svg>
