<svg width="17" height="17" viewBox="0 0 17 17" fill="none" xmlns="http://www.w3.org/2000/svg">
<g clip-path="url(#clip0_1098_339)">
<path d="M15.623 6.51806C15.6561 5.55721 15.446 4.60355 15.0121 3.74563C14.7177 3.39361 14.309 3.15604 13.8575 3.07434C11.9896 2.90486 10.114 2.83539 8.23875 2.86624C6.37031 2.83399 4.50148 2.90122 2.64018 3.06763C2.2722 3.13457 1.93165 3.30717 1.6601 3.56438C1.05594 4.12156 0.988809 5.07479 0.92168 5.88034C0.824284 7.32869 0.824284 8.78195 0.92168 10.2303C0.941101 10.6837 1.00861 11.1337 1.12307 11.5729C1.20401 11.9119 1.36777 12.2256 1.59968 12.4858C1.87308 12.7567 2.22156 12.9391 2.59991 13.0094C4.04715 13.1881 5.5054 13.2621 6.9633 13.231C9.31282 13.2645 11.3737 13.231 13.8105 13.043C14.1981 12.977 14.5564 12.7943 14.8375 12.5194C15.0255 12.3314 15.1659 12.1013 15.247 11.8481C15.4871 11.1115 15.605 10.3405 15.5961 9.56573C15.623 9.1898 15.623 6.92084 15.623 6.51806ZM6.72163 9.9685V5.81321L10.6957 7.90092C9.58133 8.51851 8.11121 9.21665 6.72163 9.9685Z" fill="white"/>
</g>
<defs>
<clipPath id="clip0_1098_339">
<rect x="0.183594" width="16.111" height="16.111" rx="8.05549" fill="white"/>
</clipPath>
</defs>
</svg>
