<svg width="106" height="129" viewBox="0 0 106 129" fill="none" xmlns="http://www.w3.org/2000/svg">
<path d="M30.2182 102.181C30.1109 102.146 30.0036 102.11 29.8606 102.074C29.8606 102.074 29.7891 102.217 29.7891 102.289C29.8963 102.325 30.0036 102.396 30.1109 102.396C30.1466 102.396 30.1824 102.289 30.2182 102.181Z" fill="#002A3A"/>
<path d="M79.1684 58.2051C68.4052 43.725 47.9516 39.8114 32.6471 50.8049C24.244 56.8531 19.5954 65.3206 19.0591 75.816C18.5227 86.2759 22.4918 94.8857 30.1083 102.428C29.3574 102.428 28.9283 102.428 28.4992 102.428C19.9172 102.428 11.3353 102.428 2.75337 102.428C0.572128 102.428 0 101.894 0 99.7243C0 67.3486 0 34.9729 0 2.59717C0 0.711549 0.679404 0 2.43155 0C22.2058 0 41.9442 0 61.7184 0C61.8615 0 61.9687 0.035569 62.2548 0.035569C62.2548 0.853856 62.2548 1.67215 62.2548 2.49044C62.2548 5.55012 62.3621 8.64536 62.219 11.705C62.1118 14.3734 64.6863 17.2196 67.5828 17.0773C71.4446 16.935 75.3423 17.0417 79.3829 17.0417C79.3829 30.7747 79.3829 44.4365 79.3829 58.1339C79.3472 58.1339 79.2756 58.1695 79.1684 58.2051ZM18.8803 40.8432C21.9912 40.1316 23.6361 38.5662 24.1367 36.894C25.2094 33.4074 24.1009 30.241 19.81 28.7823C18.2009 28.2487 16.4487 27.9996 14.8754 27.3592C14.2675 27.1102 13.4808 26.114 13.5523 25.5092C13.6596 24.5486 14.482 23.7659 15.6263 23.6592C17.593 23.4813 19.2736 23.7303 20.2391 25.865C20.4894 26.3986 21.6694 26.8611 22.313 26.79C23.1712 26.6833 23.9579 26.0784 23.9221 24.8688C23.8864 22.9832 22.2058 20.6706 20.1318 19.9591C19.3094 19.6745 18.773 19.4966 18.7372 18.4292C18.7015 17.2908 17.6287 16.6148 16.3414 16.7215C15.1614 16.8282 14.625 17.5042 14.4463 18.6783C14.4105 19.0341 13.9456 19.4966 13.5881 19.6389C9.83347 21.1331 7.68798 25.4736 10.5129 29.2804C11.8717 31.1305 14.0172 31.6641 16.1626 32.1978C17.2354 32.4469 18.3796 32.6603 19.3451 33.194C20.5609 33.8344 20.4894 35.2931 19.3809 36.0402C16.8778 37.7123 14.0172 36.8585 12.8371 34.1546C12.408 33.194 11.0492 32.6603 9.94074 33.0161C9.04679 33.3007 8.58194 34.5459 8.868 35.5777C9.69044 38.4239 11.6929 40.0249 14.4463 40.8432C14.5893 42.7644 15.2329 43.6182 16.5202 43.6538C17.7718 43.7605 18.773 42.5865 18.8803 40.8432ZM51.2771 38.1393C56.8553 38.1393 62.4336 38.1393 68.0476 38.1393C69.7282 38.1393 70.6222 37.3921 70.6222 36.0046C70.6222 34.6171 69.764 33.8699 68.0476 33.8699C56.8911 33.8699 45.6988 33.8699 34.5423 33.8699C33.0047 33.8699 32.218 34.6527 32.2538 36.0758C32.2895 37.3921 33.0762 38.1393 34.5423 38.1393C40.1206 38.1393 45.6988 38.1393 51.2771 38.1393ZM51.2771 26.4342C51.7777 26.4342 52.2425 26.4342 52.7432 26.4342C57.8923 26.4342 63.0057 26.4342 68.1549 26.4342C69.8355 26.4342 70.8367 25.3313 70.5864 23.9082C70.3719 22.8053 69.3707 22.2005 67.7258 22.2005C56.8553 22.2005 46.0206 22.2005 35.1502 22.2005C34.7211 22.2005 34.149 22.0937 33.8271 22.3072C33.2192 22.6985 32.5041 23.2322 32.2895 23.8726C31.7532 25.3313 33.1477 26.541 34.5065 26.5054C40.1206 26.3986 45.6988 26.4342 51.2771 26.4342Z" fill="#002A3A"/>
<path d="M75.8735 94.0338C78.9129 96.9156 81.8808 99.7974 84.8488 102.644C86.7082 101.185 88.1743 101.576 89.4973 102.928C92.501 105.952 95.6119 108.87 98.6871 111.858C100.618 113.708 102.513 115.558 104.48 117.373C106.196 118.938 106.053 120.255 104.694 121.749C102.835 123.777 100.833 125.698 98.8302 127.619C97.9362 128.473 96.4701 128.331 95.5047 127.441C91.8216 123.883 88.1743 120.326 84.4912 116.768C83.0609 115.38 81.559 114.064 80.1287 112.676C78.5196 111.111 78.4123 109.937 79.4493 108.443C76.6959 105.347 73.9783 102.288 71.1892 99.157C64.9315 104.636 57.8872 106.771 50.235 106.344C42.2967 105.917 35.5384 102.501 30.3177 96.4531C20.1982 84.748 20.8776 67.3149 32.4274 56.5349C42.833 46.7866 59.103 46.1818 70.4383 55.2897C82.596 65.038 84.2409 82.0797 75.8735 94.0338ZM52.0586 55.4676C39.4718 54.9695 30.425 65.6784 29.8171 76.0315C29.0304 89.6221 40.2942 100.011 52.3089 99.7974C64.2521 99.5839 74.765 90.0491 74.622 77.0277C74.4432 65.5005 64.717 54.9695 52.0586 55.4676Z" fill="#002A3A"/>
<path d="M67.0072 0.574219C71.0121 4.5945 75.0528 8.61477 79.2007 12.7774C77.0552 12.7774 75.017 12.7774 73.0146 12.7774C71.3339 12.7774 69.6176 12.7418 67.9369 12.7774C66.9715 12.7774 66.5781 12.3504 66.5781 11.4254C66.6139 7.86765 66.6139 4.30987 66.6139 0.787676C66.7569 0.716521 66.8999 0.645374 67.0072 0.574219Z" fill="#002A3A"/>
<path d="M67.0072 0.571033C66.8642 0.642189 66.7569 0.713335 66.6139 0.784491C66.6139 0.64218 66.5781 0.464309 66.5781 0.179688C66.7927 0.357576 66.8999 0.4643 67.0072 0.571033Z" fill="#002A3A"/>
<path d="M79.168 58.2043C79.2395 58.1686 79.3468 58.1686 79.4183 58.1328C79.3825 58.2401 79.3468 58.3831 79.3468 58.4904C79.311 58.3831 79.2395 58.2758 79.168 58.2043Z" fill="#002A3A"/>
<path d="M30.2182 102.181C30.1824 102.289 30.1109 102.396 30.1109 102.396C30.0036 102.36 29.8963 102.325 29.7891 102.289C29.8248 102.217 29.8606 102.074 29.8606 102.074C30.0036 102.11 30.1109 102.146 30.2182 102.181Z" fill="#002A3A"/>
<path d="M49.2362 79.4744C52.3829 76.3436 55.4939 73.2484 58.6048 70.1887C59.2127 69.5839 59.7849 68.9434 60.4643 68.3742C61.6085 67.4136 62.9673 67.5203 64.1831 68.0896C65.4346 68.6944 65.9352 69.904 65.7922 71.2916C65.7207 71.8252 65.5061 72.4301 65.1486 72.8214C60.643 77.4465 56.1375 82.0361 51.5605 86.6256C50.2375 87.9775 48.3423 87.9064 46.9835 86.59C44.5162 84.2063 42.0846 81.787 39.6888 79.3321C38.3658 77.9802 38.33 75.8455 39.5458 74.6003C40.7616 73.3551 43.0143 73.3551 44.3731 74.707C45.9822 76.2013 47.5914 77.8379 49.2362 79.4744Z" fill="#002A3A"/>
</svg>
