<svg width="57" height="69" viewBox="0 0 57 69" fill="none" xmlns="http://www.w3.org/2000/svg">
<path d="M16.2008 54.788C16.1433 54.7688 16.0857 54.7496 16.009 54.7305C16.009 54.7305 15.9707 54.8072 15.9707 54.8455C16.0282 54.8647 16.0857 54.903 16.1433 54.903C16.1624 54.903 16.1816 54.8455 16.2008 54.788Z" fill="white"/>
<path d="M42.4498 31.2093C36.6786 23.4452 25.7115 21.3467 17.5053 27.2414C12.9995 30.4844 10.507 35.0247 10.2194 40.6523C9.93179 46.2608 12.06 50.8773 16.144 54.9216C15.7413 54.9216 15.5112 54.9216 15.2812 54.9216C10.6796 54.9216 6.07795 54.9216 1.47635 54.9216C0.306773 54.9216 0 54.6354 0 53.4718C0 36.112 0 18.7523 0 1.39259C0 0.38153 0.364294 0 1.30379 0C11.9066 0 22.4903 0 33.0932 0C33.1699 0 33.2274 0.019072 33.3808 0.019072C33.3808 0.457834 33.3808 0.896601 33.3808 1.33536C33.3808 2.97595 33.4383 4.63561 33.3616 6.2762C33.3041 7.70695 34.6846 9.23308 36.2376 9.15678C38.3083 9.08047 40.3982 9.13769 42.5648 9.13769C42.5648 16.5013 42.5648 23.8267 42.5648 31.1712C42.5456 31.1712 42.5073 31.1903 42.4498 31.2093ZM10.1235 21.9C11.7916 21.5184 12.6736 20.679 12.942 19.7824C13.5172 17.9129 12.9228 16.2151 10.622 15.433C9.75923 15.1468 8.81974 15.0133 7.97611 14.6699C7.65016 14.5364 7.22835 14.0022 7.2667 13.6779C7.32422 13.1629 7.7652 12.7432 8.37875 12.686C9.43328 12.5906 10.3344 12.7241 10.8521 13.8687C10.9863 14.1548 11.619 14.4028 11.9642 14.3647C12.4243 14.3075 12.8461 13.9832 12.827 13.3346C12.8078 12.3235 11.9066 11.0835 10.7946 10.702C10.3536 10.5494 10.066 10.454 10.0468 9.88169C10.0277 9.27124 9.45246 8.90878 8.76222 8.96601C8.1295 9.02324 7.8419 9.3857 7.74603 10.0152C7.72686 10.206 7.4776 10.454 7.28587 10.5303C5.27267 11.3315 4.12227 13.6589 5.63696 15.7001C6.36555 16.692 7.51595 16.9782 8.66635 17.2643C9.24155 17.3979 9.8551 17.5123 10.3728 17.7985C11.0247 18.1419 10.9863 18.924 10.392 19.3246C9.04982 20.2212 7.51595 19.7634 6.88323 18.3136C6.65315 17.7985 5.92456 17.5123 5.33019 17.7031C4.85086 17.8557 4.6016 18.5234 4.75499 19.0766C5.19598 20.6027 6.26968 21.4612 7.74603 21.9C7.82272 22.9301 8.16784 23.3879 8.85808 23.407C9.52915 23.4642 10.066 22.8347 10.1235 21.9ZM27.4946 20.4501C30.4856 20.4501 33.4767 20.4501 36.4869 20.4501C37.388 20.4501 37.8674 20.0495 37.8674 19.3055C37.8674 18.5615 37.4072 18.1609 36.4869 18.1609C30.5048 18.1609 24.5035 18.1609 18.5215 18.1609C17.697 18.1609 17.2752 18.5806 17.2944 19.3437C17.3135 20.0495 17.7353 20.4501 18.5215 20.4501C21.5125 20.4501 24.5035 20.4501 27.4946 20.4501ZM27.4946 14.1739C27.763 14.1739 28.0123 14.1739 28.2807 14.1739C31.0416 14.1739 33.7834 14.1739 36.5444 14.1739C37.4455 14.1739 37.9824 13.5825 37.8482 12.8195C37.7331 12.2281 37.1963 11.9038 36.3143 11.9038C30.4856 11.9038 24.6761 11.9038 18.8474 11.9038C18.6173 11.9038 18.3105 11.8466 18.138 11.961C17.812 12.1709 17.4286 12.457 17.3135 12.8004C17.0259 13.5825 17.7737 14.2312 18.5023 14.2121C21.5125 14.1549 24.5035 14.1739 27.4946 14.1739Z" fill="white"/>
<path d="M40.6837 50.4209C42.3134 51.9661 43.9048 53.5113 45.4962 55.0374C46.4932 54.2553 47.2793 54.4651 47.9887 55.19C49.5993 56.8116 51.2674 58.3758 52.9163 59.9783C53.9516 60.9702 54.9678 61.9622 56.0223 62.9351C56.9427 63.7745 56.866 64.4803 56.1374 65.2816C55.1404 66.3689 54.0667 67.3991 52.993 68.4292C52.5136 68.887 51.7275 68.8107 51.2098 68.3338C49.235 66.4262 47.2793 64.5185 45.3044 62.6108C44.5375 61.8668 43.7322 61.161 42.9653 60.417C42.1025 59.5777 42.045 58.9481 42.601 58.1469C41.1247 56.4872 39.6675 54.8467 38.172 53.1679C34.8166 56.1057 31.0395 57.2503 26.9364 57.0214C22.6799 56.7925 19.0561 54.9611 16.2568 51.7181C10.8308 45.4419 11.1951 36.0943 17.3881 30.3141C22.9675 25.0871 31.6914 24.7628 37.7693 29.6464C44.2883 34.8734 45.1702 44.0111 40.6837 50.4209ZM27.9142 29.7418C21.1652 29.4748 16.3144 35.2168 15.9884 40.7681C15.5666 48.0554 21.6062 53.6258 28.0484 53.5113C34.4523 53.3968 40.0893 48.2843 40.0126 41.3023C39.9167 35.1214 34.7016 29.4748 27.9142 29.7418Z" fill="white"/>
<path d="M35.9293 0.3125C38.0767 2.46816 40.2433 4.62381 42.4674 6.85578C41.317 6.85578 40.2241 6.85578 39.1504 6.85578C38.2493 6.85578 37.329 6.8367 36.4278 6.85578C35.9101 6.85578 35.6992 6.62686 35.6992 6.13087C35.7184 4.22321 35.7184 2.31554 35.7184 0.426955C35.7951 0.388802 35.8718 0.350653 35.9293 0.3125Z" fill="white"/>
<path d="M35.9293 0.303588C35.8526 0.341741 35.7951 0.37989 35.7184 0.418043C35.7184 0.341737 35.6992 0.246363 35.6992 0.09375C35.8143 0.189133 35.8718 0.246358 35.9293 0.303588Z" fill="white"/>
<path d="M42.4512 31.2102C42.4895 31.1911 42.547 31.191 42.5854 31.1719C42.5662 31.2294 42.547 31.3061 42.547 31.3636C42.5279 31.3061 42.4895 31.2486 42.4512 31.2102Z" fill="white"/>
<path d="M16.2008 54.788C16.1816 54.8455 16.1433 54.903 16.1433 54.903C16.0857 54.8839 16.0282 54.8647 15.9707 54.8455C15.9899 54.8072 16.009 54.7305 16.009 54.7305C16.0857 54.7496 16.1433 54.7688 16.2008 54.788Z" fill="white"/>
<path d="M26.4012 42.6142C28.0884 40.9355 29.7565 39.2758 31.4246 37.6352C31.7505 37.3109 32.0573 36.9675 32.4216 36.6623C33.0351 36.1472 33.7637 36.2045 34.4156 36.5097C35.0867 36.834 35.3551 37.4826 35.2784 38.2266C35.2401 38.5127 35.125 38.837 34.9333 39.0469C32.5175 41.5268 30.1016 43.9877 27.6474 46.4486C26.938 47.1735 25.9218 47.1354 25.1933 46.4295C23.8703 45.1514 22.5665 43.8542 21.2819 42.5379C20.5725 41.813 20.5533 40.6684 21.2052 40.0007C21.8571 39.333 23.065 39.333 23.7936 40.058C24.6564 40.8592 25.5192 41.7367 26.4012 42.6142Z" fill="white"/>
</svg>
